<?xml version="1.0" encoding="UTF-8"?>
<svg width="700pt" height="700pt" version="1.1" viewBox="0 0 700 700" xmlns="http://www.w3.org/2000/svg" xmlns:xlink="http://www.w3.org/1999/xlink">
 <defs>
  <symbol id="u" overflow="visible">
   <path d="m18.766-1.125c-0.96875 0.5-1.9805 0.875-3.0312 1.125-1.043 0.25781-2.1367 0.39062-3.2812 0.39062-3.3984 0-6.0898-0.94531-8.0781-2.8438-1.9922-1.9062-2.9844-4.4844-2.9844-7.7344 0-3.2578 0.99219-5.8359 2.9844-7.7344 1.9883-1.9062 4.6797-2.8594 8.0781-2.8594 1.1445 0 2.2383 0.13281 3.2812 0.39062 1.0508 0.25 2.0625 0.625 3.0312 1.125v4.2188c-0.98047-0.65625-1.9453-1.1406-2.8906-1.4531-0.94922-0.3125-1.9492-0.46875-3-0.46875-1.875 0-3.3516 0.60547-4.4219 1.8125-1.0742 1.1992-1.6094 2.8555-1.6094 4.9688 0 2.1055 0.53516 3.7617 1.6094 4.9688 1.0703 1.1992 2.5469 1.7969 4.4219 1.7969 1.0508 0 2.0508-0.14844 3-0.45312 0.94531-0.3125 1.9102-0.80078 2.8906-1.4688z"/>
  </symbol>
  <symbol id="c" overflow="visible">
   <path d="m13.734-11.141c-0.4375-0.19531-0.87109-0.34375-1.2969-0.4375-0.41797-0.10156-0.83984-0.15625-1.2656-0.15625-1.2617 0-2.2305 0.40625-2.9062 1.2188-0.67969 0.80469-1.0156 1.9531-1.0156 3.4531v7.0625h-4.8906v-15.312h4.8906v2.5156c0.625-1 1.3438-1.7266 2.1562-2.1875 0.82031-0.46875 1.8008-0.70312 2.9375-0.70312 0.16406 0 0.34375 0.011719 0.53125 0.03125 0.19531 0.011719 0.47656 0.039062 0.84375 0.078125z"/>
  </symbol>
  <symbol id="a" overflow="visible">
   <path d="m17.641-7.7031v1.4062h-11.453c0.125 1.1484 0.53906 2.0078 1.25 2.5781 0.70703 0.57422 1.7031 0.85938 2.9844 0.85938 1.0312 0 2.082-0.14844 3.1562-0.45312 1.082-0.3125 2.1914-0.77344 3.3281-1.3906v3.7656c-1.1562 0.4375-2.3125 0.76562-3.4688 0.98438-1.1562 0.22656-2.3125 0.34375-3.4688 0.34375-2.7734 0-4.9297-0.70312-6.4688-2.1094-1.5312-1.4062-2.2969-3.3789-2.2969-5.9219 0-2.5 0.75391-4.4609 2.2656-5.8906 1.5078-1.4375 3.582-2.1562 6.2188-2.1562 2.4062 0 4.332 0.73047 5.7812 2.1875 1.4453 1.4492 2.1719 3.3828 2.1719 5.7969zm-5.0312-1.625c0-0.92578-0.27344-1.6719-0.8125-2.2344-0.54297-0.57031-1.25-0.85938-2.125-0.85938-0.94922 0-1.7188 0.26562-2.3125 0.79688s-0.96484 1.2969-1.1094 2.2969z"/>
  </symbol>
  <symbol id="e" overflow="visible">
   <path d="m9.2188-6.8906c-1.0234 0-1.793 0.17188-2.3125 0.51562-0.51172 0.34375-0.76562 0.85547-0.76562 1.5312 0 0.625 0.20703 1.1172 0.625 1.4688 0.41406 0.34375 0.98828 0.51562 1.7188 0.51562 0.92578 0 1.7031-0.32812 2.3281-0.98438 0.63281-0.66406 0.95312-1.4922 0.95312-2.4844v-0.5625zm7.4688-1.8438v8.7344h-4.9219v-2.2656c-0.65625 0.92969-1.3984 1.6055-2.2188 2.0312-0.82422 0.41406-1.8242 0.625-3 0.625-1.5859 0-2.8711-0.45703-3.8594-1.375-0.99219-0.92578-1.4844-2.1289-1.4844-3.6094 0-1.7891 0.61328-3.1016 1.8438-3.9375 1.2383-0.84375 3.1797-1.2656 5.8281-1.2656h2.8906v-0.39062c0-0.76953-0.30859-1.332-0.92188-1.6875-0.61719-0.36328-1.5703-0.54688-2.8594-0.54688-1.0547 0-2.0312 0.10547-2.9375 0.3125-0.89844 0.21094-1.7305 0.52344-2.5 0.9375v-3.7344c1.0391-0.25 2.0859-0.44141 3.1406-0.57812 1.0625-0.13281 2.125-0.20312 3.1875-0.20312 2.7578 0 4.75 0.54688 5.9688 1.6406 1.2266 1.0859 1.8438 2.8555 1.8438 5.3125z"/>
  </symbol>
  <symbol id="b" overflow="visible">
   <path d="m7.7031-19.656v4.3438h5.0469v3.5h-5.0469v6.5c0 0.71094 0.14062 1.1875 0.42188 1.4375s0.83594 0.375 1.6719 0.375h2.5156v3.5h-4.1875c-1.9375 0-3.3125-0.39844-4.125-1.2031-0.80469-0.8125-1.2031-2.1797-1.2031-4.1094v-6.5h-2.4219v-3.5h2.4219v-4.3438z"/>
  </symbol>
  <symbol id="k" overflow="visible">
   <path d="m12.766-13.078v-8.2031h4.9219v21.281h-4.9219v-2.2188c-0.66797 0.90625-1.4062 1.5703-2.2188 1.9844s-1.7578 0.625-2.8281 0.625c-1.8867 0-3.4336-0.75-4.6406-2.25-1.2109-1.5-1.8125-3.4258-1.8125-5.7812 0-2.3633 0.60156-4.2969 1.8125-5.7969 1.207-1.5 2.7539-2.25 4.6406-2.25 1.0625 0 2 0.21484 2.8125 0.64062 0.82031 0.42969 1.5664 1.0859 2.2344 1.9688zm-3.2188 9.9219c1.0391 0 1.8359-0.37891 2.3906-1.1406 0.55078-0.76953 0.82812-1.8828 0.82812-3.3438 0-1.457-0.27734-2.5664-0.82812-3.3281-0.55469-0.76953-1.3516-1.1562-2.3906-1.1562-1.043 0-1.8398 0.38672-2.3906 1.1562-0.55469 0.76172-0.82812 1.8711-0.82812 3.3281 0 1.4609 0.27344 2.5742 0.82812 3.3438 0.55078 0.76172 1.3477 1.1406 2.3906 1.1406z"/>
  </symbol>
  <symbol id="j" overflow="visible">
   <path d="m10.5-3.1562c1.0508 0 1.8516-0.37891 2.4062-1.1406 0.55078-0.76953 0.82812-1.8828 0.82812-3.3438 0-1.457-0.27734-2.5664-0.82812-3.3281-0.55469-0.76953-1.3555-1.1562-2.4062-1.1562-1.0547 0-1.8594 0.38672-2.4219 1.1562-0.55469 0.77344-0.82812 1.8828-0.82812 3.3281 0 1.4492 0.27344 2.5586 0.82812 3.3281 0.5625 0.77344 1.3672 1.1562 2.4219 1.1562zm-3.25-9.9219c0.67578-0.88281 1.4219-1.5391 2.2344-1.9688 0.82031-0.42578 1.7656-0.64062 2.8281-0.64062 1.8945 0 3.4453 0.75 4.6562 2.25 1.207 1.5 1.8125 3.4336 1.8125 5.7969 0 2.3555-0.60547 4.2812-1.8125 5.7812-1.2109 1.5-2.7617 2.25-4.6562 2.25-1.0625 0-2.0078-0.21094-2.8281-0.625-0.8125-0.42578-1.5586-1.0859-2.2344-1.9844v2.2188h-4.8906v-21.281h4.8906z"/>
  </symbol>
  <symbol id="i" overflow="visible">
   <path d="m0.34375-15.312h4.8906l4.125 10.391 3.5-10.391h4.8906l-6.4375 16.766c-0.64844 1.6953-1.4023 2.8828-2.2656 3.5625-0.86719 0.6875-2 1.0312-3.4062 1.0312h-2.8438v-3.2188h1.5312c0.83203 0 1.4375-0.13672 1.8125-0.40625 0.38281-0.26172 0.67969-0.73047 0.89062-1.4062l0.14062-0.42188z"/>
  </symbol>
  <symbol id="f" overflow="visible">
   <path d="m14.953-3.7188h-8.2188l-1.3125 3.7188h-5.2812l7.5625-20.406h6.2656l7.5625 20.406h-5.2812zm-6.9062-3.7812h5.5781l-2.7812-8.125z"/>
  </symbol>
  <symbol id="t" overflow="visible">
   <path d="m2.3594-21.281h4.8906v21.281h-4.8906z"/>
  </symbol>
  <symbol id="h" overflow="visible">
   <path d="m17.75-9.3281v9.3281h-4.9219v-7.1406c0-1.3203-0.03125-2.2344-0.09375-2.7344s-0.16797-0.86719-0.3125-1.1094c-0.1875-0.3125-0.44922-0.55469-0.78125-0.73438-0.32422-0.17578-0.69531-0.26562-1.1094-0.26562-1.0234 0-1.8242 0.39844-2.4062 1.1875-0.58594 0.78125-0.875 1.8711-0.875 3.2656v7.5312h-4.8906v-15.312h4.8906v2.2344c0.73828-0.88281 1.5195-1.5391 2.3438-1.9688 0.83203-0.42578 1.75-0.64062 2.75-0.64062 1.7695 0 3.1133 0.54688 4.0312 1.6406 0.91406 1.0859 1.375 2.6562 1.375 4.7188z"/>
  </symbol>
  <symbol id="g" overflow="visible">
   <path d="m16.547-12.766c0.61328-0.94531 1.3477-1.6719 2.2031-2.1719 0.85156-0.5 1.7891-0.75 2.8125-0.75 1.7578 0 3.0977 0.54688 4.0156 1.6406 0.92578 1.0859 1.3906 2.6562 1.3906 4.7188v9.3281h-4.9219v-7.9844-0.35938c0.007813-0.13281 0.015625-0.32031 0.015625-0.5625 0-1.082-0.16406-1.8633-0.48438-2.3438-0.3125-0.48828-0.82422-0.73438-1.5312-0.73438-0.92969 0-1.6484 0.38672-2.1562 1.1562-0.51172 0.76172-0.77344 1.8672-0.78125 3.3125v7.5156h-4.9219v-7.9844c0-1.6953-0.14844-2.7852-0.4375-3.2656-0.29297-0.48828-0.8125-0.73438-1.5625-0.73438-0.9375 0-1.6641 0.38672-2.1719 1.1562-0.51172 0.76172-0.76562 1.8594-0.76562 3.2969v7.5312h-4.9219v-15.312h4.9219v2.2344c0.60156-0.86328 1.2891-1.5156 2.0625-1.9531 0.78125-0.4375 1.6406-0.65625 2.5781-0.65625 1.0625 0 2 0.25781 2.8125 0.76562 0.8125 0.51172 1.4258 1.2305 1.8438 2.1562z"/>
  </symbol>
  <symbol id="d" overflow="visible">
   <path d="m9.6406-12.188c-1.0859 0-1.9141 0.39062-2.4844 1.1719-0.57422 0.78125-0.85938 1.9062-0.85938 3.375s0.28516 2.5938 0.85938 3.375c0.57031 0.77344 1.3984 1.1562 2.4844 1.1562 1.0625 0 1.875-0.38281 2.4375-1.1562 0.57031-0.78125 0.85938-1.9062 0.85938-3.375s-0.28906-2.5938-0.85938-3.375c-0.5625-0.78125-1.375-1.1719-2.4375-1.1719zm0-3.5c2.6328 0 4.6914 0.71484 6.1719 2.1406 1.4766 1.418 2.2188 3.3867 2.2188 5.9062 0 2.5117-0.74219 4.4805-2.2188 5.9062-1.4805 1.418-3.5391 2.125-6.1719 2.125-2.6484 0-4.7148-0.70703-6.2031-2.125-1.4922-1.4258-2.2344-3.3945-2.2344-5.9062 0-2.5195 0.74219-4.4883 2.2344-5.9062 1.4883-1.4258 3.5547-2.1406 6.2031-2.1406z"/>
  </symbol>
  <symbol id="s" overflow="visible">
   <path d="m0.42188-15.312h4.8906l3.8281 10.578 3.7969-10.578h4.9062l-6.0312 15.312h-5.375z"/>
  </symbol>
  <symbol id="r" overflow="visible">
   <path d="m12.422-21.281v3.2188h-2.7031c-0.6875 0-1.1719 0.125-1.4531 0.375-0.27344 0.25-0.40625 0.6875-0.40625 1.3125v1.0625h4.1875v3.5h-4.1875v11.812h-4.8906v-11.812h-2.4375v-3.5h2.4375v-1.0625c0-1.6641 0.46094-2.8984 1.3906-3.7031 0.92578-0.80078 2.3672-1.2031 4.3281-1.2031z"/>
  </symbol>
  <symbol id="q" overflow="visible">
   <path d="m17.75-9.3281v9.3281h-4.9219v-7.1094c0-1.3438-0.03125-2.2656-0.09375-2.7656s-0.16797-0.86719-0.3125-1.1094c-0.1875-0.3125-0.44922-0.55469-0.78125-0.73438-0.32422-0.17578-0.69531-0.26562-1.1094-0.26562-1.0234 0-1.8242 0.39844-2.4062 1.1875-0.58594 0.78125-0.875 1.8711-0.875 3.2656v7.5312h-4.8906v-21.281h4.8906v8.2031c0.73828-0.88281 1.5195-1.5391 2.3438-1.9688 0.83203-0.42578 1.75-0.64062 2.75-0.64062 1.7695 0 3.1133 0.54688 4.0312 1.6406 0.91406 1.0859 1.375 2.6562 1.375 4.7188z"/>
  </symbol>
  <symbol id="p" overflow="visible">
   <path d="m2.5781-20.406h5.875l7.4219 14v-14h4.9844v20.406h-5.875l-7.4219-14v14h-4.9844z"/>
  </symbol>
  <symbol id="o" overflow="visible">
   <path d="m2.1875-5.9688v-9.3438h4.9219v1.5312c0 0.83594-0.007813 1.875-0.015625 3.125-0.011719 1.25-0.015625 2.0859-0.015625 2.5 0 1.2422 0.03125 2.1328 0.09375 2.6719 0.070313 0.54297 0.17969 0.93359 0.32812 1.1719 0.20703 0.32422 0.47266 0.57422 0.79688 0.75 0.32031 0.16797 0.69141 0.25 1.1094 0.25 1.0195 0 1.8203-0.39062 2.4062-1.1719 0.58203-0.78125 0.875-1.8672 0.875-3.2656v-7.5625h4.8906v15.312h-4.8906v-2.2188c-0.74219 0.89844-1.5234 1.5586-2.3438 1.9844-0.82422 0.41406-1.7344 0.625-2.7344 0.625-1.7617 0-3.1055-0.53906-4.0312-1.625-0.92969-1.082-1.3906-2.6602-1.3906-4.7344z"/>
  </symbol>
  <symbol id="n" overflow="visible">
   <path d="m2.5781-20.406h8.7344c2.5938 0 4.582 0.57812 5.9688 1.7344 1.3945 1.1484 2.0938 2.7891 2.0938 4.9219 0 2.1367-0.69922 3.7812-2.0938 4.9375-1.3867 1.1562-3.375 1.7344-5.9688 1.7344h-3.4844v7.0781h-5.25zm5.25 3.8125v5.7031h2.9219c1.0195 0 1.8047-0.25 2.3594-0.75 0.5625-0.5 0.84375-1.2031 0.84375-2.1094 0-0.91406-0.28125-1.6172-0.84375-2.1094-0.55469-0.48828-1.3398-0.73438-2.3594-0.73438z"/>
  </symbol>
  <symbol id="m" overflow="visible">
   <path d="m2.3594-15.312h4.8906v15.031c0 2.0508-0.49609 3.6172-1.4844 4.7031-0.98047 1.082-2.4062 1.625-4.2812 1.625h-2.4219v-3.2188h0.85938c0.92578 0 1.5625-0.21094 1.9062-0.625 0.35156-0.41797 0.53125-1.2461 0.53125-2.4844zm0-5.9688h4.8906v4h-4.8906z"/>
  </symbol>
  <symbol id="l" overflow="visible">
   <path d="m14.719-14.828v3.9844c-0.65625-0.45703-1.3242-0.79688-2-1.0156-0.66797-0.21875-1.3594-0.32812-2.0781-0.32812-1.3672 0-2.4336 0.40234-3.2031 1.2031-0.76172 0.79297-1.1406 1.9062-1.1406 3.3438 0 1.4297 0.37891 2.543 1.1406 3.3438 0.76953 0.79297 1.8359 1.1875 3.2031 1.1875 0.75781 0 1.4844-0.10938 2.1719-0.32812 0.6875-0.22656 1.3203-0.56641 1.9062-1.0156v4c-0.76172 0.28125-1.5391 0.48828-2.3281 0.625-0.78125 0.14453-1.5742 0.21875-2.375 0.21875-2.7617 0-4.9219-0.70703-6.4844-2.125-1.5547-1.4141-2.3281-3.3828-2.3281-5.9062 0-2.5312 0.77344-4.5039 2.3281-5.9219 1.5625-1.4141 3.7227-2.125 6.4844-2.125 0.80078 0 1.5938 0.074219 2.375 0.21875 0.78125 0.13672 1.5547 0.35156 2.3281 0.64062z"/>
  </symbol>
 </defs>
 <g>
  <path d="m270.05 286.3c-32.344-0.95313-64.703-0.91406-97.055 0-2.2969 0.0625-2.3008 3.6289 0 3.5664 32.344-0.90625 64.703-0.95312 97.055 0 2.3008 0.070312 2.2969-3.5039 0-3.5664z"/>
  <path d="m314.54 286.3h-31.398c-2.3008 0-2.3008 3.5664 0 3.5664h31.398c2.3008 0 2.3008-3.5664 0-3.5664z"/>
  <path d="m601.77 322.88c-7.4531-13.648-14.926-27.312-24.246-39.801 4.4336-0.42188 4.4258-7.4102-0.12891-7.1172-23.621 1.5078-47.297 0.36328-70.918 1.668 0.98047-0.73438 1.9766-1.457 3.0234-2.1602 3.7969-2.5469 0.23438-8.7344-3.6016-6.1602-3.4453 2.3125-6.8438 4.6875-10.191 7.1289-5.3711-4.2383-10.977-7.6094-18.16-7.6094h-53.574-54.707-10.859c-1.8125 0-2.8789 1.3086-4.0938 2.4531-2.0781 1.9531-4.2344 3.8125-6.418 5.6328-3.4453-2.6562-6.9883-5.1875-10.613-7.5977-3.8398-2.5586-7.4102 3.625-3.6016 6.1602 1.1016 0.73438 2.1289 1.5508 3.207 2.3086-60.223-1.7266-120.47-2.0664-180.71-2.75 15.785-12.629 31.242-26.137 44.812-41.031 3.0312-3.3203-1.7305-8.2266-4.8477-5.2188-0.71875-0.14453-1.5117-0.074219-2.3242 0.33203-30.336 15.023-61.617 28.168-92.77 41.391-0.87891 0.375-1.3984 0.93359-1.6641 1.5742-0.85156 0.75781-1.3711 1.9492-1.3398 3.1523-0.21875 1.8984 0.85156 3.9688 3.293 4.0469 27.816 19.375 55.793 38.516 83.973 57.348 0.035156 0.042969 0.0625 0.089844 0.089843 0.12891 0.65625 0.91406 1.5273 1.3789 2.4297 1.5117 3.6641 1.8359 6.8281-3.9531 3.1602-6.3945-0.20703-0.14062-0.41406-0.28516-0.62891-0.42188-11.602-16.191-22.41-32.91-33.746-49.281 60.262 0.6875 120.52 1.0234 180.77 2.7617-1.2266 0.86328-2.4531 1.7266-3.7031 2.5586-3.8086 2.5352-0.24219 8.7188 3.6016 6.1602 3.6055-2.4023 7.0547-4.9492 10.457-7.5781 1.6133 1.332 3.2539 2.6133 4.8281 4.0078 1.5273 1.3555 3.4258 4.0469 5.75 4.0469h9.3008 56.348 52.168c8.043 0 13.77-3.332 19.375-7.6836 3.4336 2.4766 6.9141 4.8672 10.387 7.1953 3.8359 2.5703 7.4023-3.6133 3.6016-6.1602-1.2617-0.84375-2.4805-1.7539-3.6719-2.6875 2.1328-0.125 4.2734-0.24609 6.4062-0.33594 8.5664 13.934 16.508 28.23 25.137 42.125 2.418 3.8984 8.5898 0.32031 6.1562-3.6055-7.9414-12.785-15.316-25.898-23.117-38.77 0.44141-0.011719 0.88672-0.023437 1.3281-0.027344 0.054687 0.13281 0.085937 0.26172 0.18359 0.39844 9.418 12.562 16.945 26.332 24.457 40.086 1.1016 2.0234 4.1836 0.21875 3.0859-1.8047-7.2422-13.273-14.52-26.543-23.488-38.746 1.4688-0.023437 2.9336-0.050781 4.3945-0.066406 0.0625 0.13281 0.11328 0.26953 0.19531 0.41016 8.5664 13.934 16.508 28.23 25.137 42.125 2.418 3.8984 8.5977 0.3125 6.1602-3.6055-7.9844-12.852-15.395-26.047-23.246-38.98 0.45312 0 0.90625-0.003907 1.3594-0.011719 0.050781 0.19141 0.12891 0.38672 0.27344 0.58984 9.4258 12.562 16.953 26.332 24.457 40.086 1.1016 2.0234 4.1836 0.21875 3.0859-1.8047-7.2734-13.324-14.578-26.656-23.598-38.898 0.58203-0.003906 1.1641-0.003906 1.7461-0.011719 0.074218 0.16797 0.14062 0.33594 0.24609 0.50391 8.5664 13.934 16.504 28.23 25.137 42.125 2.418 3.8984 8.5898 0.3125 6.1562-3.6055-8.0078-12.891-15.438-26.129-23.32-39.105 0.46484-0.003906 0.92969-0.011719 1.3945-0.015625 0.039063 0.23438 0.13281 0.47656 0.32031 0.72266 9.418 12.562 16.953 26.332 24.457 40.086 1.1016 2.0234 4.1836 0.21875 3.0859-1.8047-7.3086-13.391-14.648-26.785-23.727-39.078 1.4883-0.035156 2.9805-0.078125 4.4688-0.125 0.089844 0.26172 0.20703 0.52734 0.37109 0.79688 8.5664 13.934 16.508 28.23 25.137 42.125 2.418 3.8984 8.5898 0.32031 6.1562-3.6055-8.1133-13.066-15.641-26.488-23.637-39.633 0.58203-0.027344 1.1602-0.054687 1.7422-0.089844-0.11719 0.39844-0.054687 0.85547 0.29297 1.3203 9.4258 12.562 16.953 26.332 24.457 40.086 1.1172 2.0469 4.1953 0.24609 3.0938-1.7695zm-118.7-46.738c0.20703 0.054687 0.19531 0.078125 0 0zm-334.88-3.832c-11.25 1.1367-22.508 0.63672-33.777 0.20312 23-9.7617 46.004-19.602 68.59-30.289-11.031 10.668-22.852 20.621-34.812 30.086zm-33.797 7.3438c10.406 0.40234 20.797 0.85547 31.191 0.035156 0.30078 0.22266 0.64453 0.39844 1.0039 0.53125 9.3359 13.223 18.211 26.758 27.332 40.129-19.934-13.43-39.777-26.992-59.527-40.695zm368.13 7.3477h-6.4023-52.168-52.949-11.305c-1.4453-1.3555-2.918-2.6836-4.3945-4-0.58984-0.51953-1.1992-1.0117-1.7969-1.5234 1.3789-1.1719 2.7539-2.3477 4.0977-3.5625 1.8086-1.6055 2.9688-1.9102 2.375-1.9531h9.2734 54.707 50.641 6.3828c0.78906 0 1.3203 0.050781 1.6797 0.10156 2.0391 1.9023 4.1602 3.7188 6.3516 5.4648-2.2148 1.7695-4.3867 3.5781-6.4922 5.4727z"/>
  <path d="m517.67 268.78c8.5664-13.926 16.508-28.23 25.133-42.117 2.4414-3.9219-3.7344-7.5-6.1602-3.6016-8.6289 13.887-16.57 28.191-25.133 42.117-2.418 3.9336 3.7539 7.5195 6.1602 3.6016z"/>
  <path d="m524.28 266.87c9.4258-12.562 16.953-26.332 24.457-40.086 1.1016-2.0273-1.9766-3.8242-3.0859-1.8047-7.5039 13.754-15.031 27.523-24.457 40.086-1.375 1.8438 1.7266 3.625 3.0859 1.8047z"/>
  <path d="m536.01 268.78c8.5664-13.926 16.508-28.23 25.137-42.117 2.4375-3.9219-3.7422-7.5-6.1602-3.6016-8.6367 13.887-16.574 28.191-25.137 42.117-2.4102 3.9336 3.7578 7.5195 6.1602 3.6016z"/>
  <path d="m542.63 266.87c9.4258-12.562 16.953-26.332 24.457-40.086 1.1016-2.0273-1.9766-3.8242-3.0859-1.8047-7.5039 13.754-15.031 27.523-24.457 40.086-1.3789 1.8438 1.7188 3.625 3.0859 1.8047z"/>
  <path d="m547.62 270.3c-10.77 0.35938-21.543 0.73438-32.324 0.78516-2.3008 0.011719-2.3008 3.5781 0 3.5664 19.992-0.10156 39.957-1.332 59.941-1.4297 2.3008-0.011719 2.3086-3.5742 0-3.5664-2.043 0.011718-4.0898 0.074218-6.1328 0.10156 0.32031-0.25391 0.61719-0.55859 0.86719-0.96875 8.5664-13.926 16.508-28.23 25.137-42.117 2.4375-3.9219-3.7422-7.5-6.1602-3.6016-8.6289 13.887-16.57 28.191-25.133 42.117-1.1719 1.8984-0.32422 3.7109 1.125 4.6406-4.9766 0.10547-9.957 0.23438-14.934 0.39844 0.61719-0.25781 1.1875-0.71875 1.6289-1.4336 8.5664-13.926 16.508-28.23 25.137-42.117 2.4375-3.9219-3.7422-7.5-6.1602-3.6016-8.6289 13.887-16.57 28.191-25.133 42.117-1.4258 2.3125 0.12891 4.4922 2.1406 5.1094z"/>
  <path d="m558.25 266.87c9.4258-12.562 16.953-26.332 24.461-40.086 1.0977-2.0273-1.9766-3.8242-3.0859-1.8047-7.5039 13.754-15.035 27.523-24.461 40.086-1.3789 1.8438 1.7227 3.625 3.0859 1.8047z"/>
  <path d="m576.59 266.87c9.4258-12.562 16.953-26.332 24.461-40.086 1.1016-2.0273-1.9766-3.8242-3.0781-1.8047-7.5039 13.754-15.031 27.523-24.461 40.086-1.3867 1.8438 1.7148 3.625 3.0781 1.8047z"/>
 </g>
</svg>
