<svg width="65" height="25" viewBox="0 0 504 118" fill="none" xmlns="http://www.w3.org/2000/svg">
<path d="M172.033 64.9215C139.689 63.9683 107.33 64.0074 74.978 64.9215C72.6811 64.984 72.6772 68.5504 74.978 68.4879C107.322 67.5816 139.681 67.5348 172.033 68.4879C174.334 68.5582 174.33 64.984 172.033 64.9215Z" fill="white"/>
<path d="M216.524 64.9214H185.126C182.825 64.9214 182.825 68.4878 185.126 68.4878H216.524C218.825 68.4878 218.825 64.9214 216.524 64.9214Z" fill="white"/>
<path d="M503.753 101.501C496.3 87.8533 488.827 74.1893 479.507 61.7003C483.941 61.2784 483.933 54.2901 479.378 54.5831C455.757 56.0909 432.081 54.9464 408.46 56.2511C409.441 55.5167 410.437 54.7941 411.484 54.0909C415.28 51.544 411.718 45.3565 407.882 47.9307C404.437 50.2432 401.038 52.6182 397.691 55.0596C392.32 50.8213 386.714 47.4502 379.531 47.4502H325.957H271.25H260.391C258.578 47.4502 257.512 48.7588 256.297 49.9033C254.219 51.8564 252.063 53.7158 249.879 55.5361C246.434 52.8799 242.891 50.3486 239.266 47.9384C235.426 45.3798 231.856 51.5634 235.665 54.0986C236.766 54.833 237.793 55.6494 238.872 56.4072C178.649 54.6806 118.402 54.3408 58.1616 53.6572C73.9466 41.0282 89.4036 27.5202 102.974 12.6262C106.005 9.30592 101.243 4.39962 98.1259 7.40742C97.4071 7.26289 96.6142 7.3332 95.8017 7.73945C65.4657 22.7625 34.1847 35.9074 3.03169 49.1304C2.15278 49.5054 1.63329 50.0641 1.36759 50.7047C0.516029 51.4625 -0.00350895 52.6538 0.027791 53.8569C-0.190959 55.7553 0.87935 57.8258 3.32079 57.9039C31.1368 77.2789 59.1138 96.4198 87.2938 115.252C87.3289 115.295 87.3563 115.342 87.3836 115.381C88.0399 116.295 88.9109 116.76 89.8133 116.892C93.4774 118.728 96.6414 112.939 92.9735 110.498C92.7665 110.357 92.5595 110.213 92.3446 110.076C80.7426 93.8851 69.9346 77.1661 58.5986 60.7951C118.861 61.4826 179.119 61.8185 239.369 63.5568C238.142 64.4201 236.916 65.2834 235.666 66.1154C231.857 68.6506 235.423 74.8342 239.267 72.2756C242.873 69.8733 246.322 67.3264 249.724 64.6975C251.337 66.0295 252.978 67.3108 254.552 68.7053C256.08 70.0608 257.978 72.7522 260.302 72.7522H269.603H325.951H378.119C386.162 72.7522 391.889 69.4202 397.494 65.0686C400.928 67.5452 404.408 69.9358 407.881 72.2639C411.717 74.8342 415.283 68.6506 411.483 66.1037C410.221 65.2599 409.002 64.3498 407.811 63.4162C409.944 63.2912 412.084 63.1701 414.217 63.0802C422.783 77.0142 430.725 91.3102 439.354 105.205C441.772 109.104 447.944 105.526 445.51 101.6C437.569 88.8147 430.194 75.7018 422.393 62.8298C422.835 62.818 423.28 62.8063 423.721 62.8024C423.776 62.9352 423.807 63.0641 423.905 63.2008C433.323 75.7628 440.85 89.5328 448.362 103.287C449.463 105.31 452.545 103.506 451.448 101.482C444.205 88.2091 436.928 74.9391 427.96 62.7361C429.429 62.7127 430.893 62.6853 432.354 62.6697C432.417 62.8025 432.467 62.9392 432.549 63.0799C441.116 77.0139 449.058 91.3099 457.687 105.205C460.105 109.103 466.284 105.517 463.847 101.599C455.862 88.7474 448.452 75.5524 440.601 62.6194C441.054 62.6194 441.507 62.6155 441.96 62.6077C442.011 62.7991 442.089 62.9944 442.234 63.1975C451.659 75.7595 459.187 89.5295 466.691 103.284C467.792 105.307 470.874 103.502 469.776 101.479C462.503 88.1548 455.198 74.8228 446.178 62.5808C446.76 62.5769 447.343 62.5769 447.925 62.5691C447.999 62.7371 448.065 62.905 448.171 63.073C456.737 77.007 464.675 91.303 473.308 105.198C475.726 109.096 481.897 105.511 479.464 101.593C471.456 88.7015 464.026 75.4635 456.144 62.4875C456.609 62.4836 457.074 62.4758 457.538 62.4719C457.577 62.7063 457.671 62.9484 457.859 63.1945C467.277 75.7565 474.812 89.5265 482.316 103.281C483.417 105.304 486.499 103.499 485.402 101.476C478.093 88.0848 470.754 74.6908 461.675 62.3978C463.163 62.3627 464.655 62.3197 466.143 62.2728C466.233 62.5346 466.35 62.8002 466.514 63.0697C475.081 77.0037 483.022 91.2997 491.651 105.195C494.069 109.093 500.241 105.515 497.808 101.589C489.694 88.5232 482.167 75.1012 474.171 61.9562C474.753 61.9289 475.331 61.9015 475.913 61.8664C475.796 62.2648 475.858 62.7218 476.206 63.1867C485.632 75.7487 493.159 89.5187 500.663 103.273C501.78 105.32 504.858 103.519 503.757 101.503L503.753 101.501ZM385.053 54.7633C385.26 54.818 385.248 54.8414 385.053 54.7633V54.7633ZM50.1731 50.9313C38.9231 52.068 27.6651 51.568 16.3961 51.1344C39.3961 41.3727 62.4001 31.5324 84.9861 20.8454C73.9551 31.5134 62.1341 41.4664 50.1741 50.9314L50.1731 50.9313ZM16.3761 58.2751C26.7821 58.6775 37.1731 59.1306 47.5671 58.3103C47.8679 58.5329 48.2116 58.7087 48.571 58.8415C57.9069 72.0645 66.782 85.5995 75.903 98.9705C55.969 85.5405 36.126 71.9785 16.376 58.2755L16.3761 58.2751ZM384.506 65.6228H378.104H325.936H272.987H261.682C260.236 64.2673 258.764 62.9392 257.287 61.6228C256.697 61.1033 256.088 60.6111 255.49 60.0994C256.869 58.9275 258.244 57.7517 259.588 56.5369C261.397 54.9314 262.557 54.6267 261.963 54.5838H271.236H325.943H376.585H382.967C383.756 54.5838 384.288 54.6346 384.647 54.6854C386.686 56.5877 388.807 58.4042 390.999 60.1502C388.784 61.9197 386.612 63.7283 384.506 65.6229L384.506 65.6228Z" fill="white"/>
<path d="M419.653 47.4015C428.22 33.4755 436.161 19.1715 444.786 5.2845C447.228 1.3626 441.052 -2.21549 438.626 1.68291C429.997 15.5699 422.056 29.8739 413.493 43.7999C411.075 47.7335 417.247 51.3194 419.653 47.4015V47.4015Z" fill="white"/>
<path d="M426.264 45.4917C435.69 32.9297 443.217 19.1597 450.721 5.40571C451.822 3.37841 448.744 1.58151 447.635 3.60101C440.131 17.355 432.604 31.124 423.178 43.687C421.803 45.5308 424.905 47.312 426.264 45.4917Z" fill="white"/>
<path d="M437.992 47.4015C446.559 33.4755 454.5 19.1715 463.129 5.2845C465.567 1.3626 459.387 -2.21549 456.969 1.68291C448.332 15.5699 440.395 29.8739 431.832 43.7999C429.422 47.7335 435.59 51.3194 437.992 47.4015V47.4015Z" fill="white"/>
<path d="M444.613 45.4917C454.039 32.9297 461.566 19.1597 469.07 5.40571C470.172 3.37841 467.094 1.58151 465.985 3.60101C458.481 17.355 450.954 31.124 441.528 43.687C440.149 45.5308 443.246 47.312 444.613 45.4917Z" fill="white"/>
<path d="M449.602 48.9215C438.832 49.2809 428.059 49.6559 417.278 49.7067C414.978 49.7184 414.978 53.2848 417.278 53.2731C437.27 53.1715 457.235 51.9411 477.219 51.8434C479.52 51.8317 479.528 48.2692 477.219 48.277C475.176 48.2887 473.13 48.3512 471.087 48.3786C471.407 48.1246 471.704 47.82 471.954 47.4098C480.52 33.4838 488.462 19.1798 497.091 5.2928C499.528 1.3709 493.348 -2.20719 490.93 1.69121C482.302 15.5782 474.361 29.8822 465.798 43.8082C464.626 45.7066 465.473 47.5191 466.923 48.4488C461.946 48.5543 456.965 48.6832 451.988 48.8472C452.606 48.5894 453.176 48.1285 453.617 47.4137C462.184 33.4877 470.125 19.1836 478.754 5.29665C481.192 1.37475 475.012 -2.20335 472.594 1.69505C463.965 15.5821 456.024 29.8861 447.461 43.8121C446.035 46.1246 447.59 48.3042 449.602 48.9214L449.602 48.9215Z" fill="white"/>
<path d="M460.232 45.4917C469.658 32.9297 477.185 19.1597 484.693 5.40571C485.791 3.37841 482.717 1.58151 481.607 3.60101C474.103 17.355 466.572 31.124 457.146 43.687C455.767 45.5308 458.869 47.312 460.232 45.4917Z" fill="white"/>
<path d="M478.574 45.4917C487.999 32.9297 495.527 19.1597 503.035 5.40571C504.136 3.37841 501.058 1.58151 499.957 3.60101C492.453 17.355 484.926 31.124 475.496 43.687C474.109 45.5308 477.21 47.312 478.574 45.4917Z" fill="white"/>
</svg>
