<svg width="20" height="15" viewBox="0 0 20 15" fill="none" xmlns="http://www.w3.org/2000/svg">
<path d="M0.378262 8.29674L6.78579 14.6708C7.22704 15.1097 7.94128 15.1097 8.36141 14.6708C8.80266 14.2318 8.80266 13.5213 8.36141 13.1034L3.84463 8.61022H18.8866C19.4957 8.61022 20 8.10862 20 7.5026C20 6.89658 19.4958 6.39498 18.8866 6.39498H3.86563L8.36141 1.9018C8.80266 1.46286 8.80266 0.752343 8.36141 0.334411C8.15127 0.125365 7.85717 0 7.56306 0C7.26895 0 6.9958 0.104523 6.7647 0.334411L0.336168 6.72936C0.126026 6.9384 1.90735e-06 7.23096 1.90735e-06 7.52354C0.0420589 7.79512 0.168087 8.08768 0.378227 8.29674H0.378262Z" fill="white"/>
</svg>
