<svg width="584" height="291" viewBox="0 0 584 291" fill="none" xmlns="http://www.w3.org/2000/svg">
<path d="M0.5 1L2.5 1.5L3.5 2.5L8.5 5.5L14 1.5H16.5L21 5H25L28 1.5H30L32.5 2.5L35 4.5L37.5 5L40 3.5L41.5 2.5L43.5 1L46.5 2L48 4L51 5L53 4.5L55 3.5L57.5 1L61 2L63 4L65.5 5L68.5 4.5L71.5 1.5H74L76.5 3.5L79 5L83 4.5L85 2L87 1L90.5 2.5L92 4.5L95 5L98 3.5L100.5 1.5H102.5L105 3L107 5L111 4.5L113.5 2L116 1L119 3L121.5 4.5L123.5 5L123 291H1L0.5 1Z" fill="#F9E828"/>
<path d="M1 1C4.66124 1 4.66124 5 8.17647 5C11.8377 5 11.8377 1 15.3529 1C19.0142 1 19.0142 5 22.5294 5C26.1907 5 26.1907 1 29.7059 1C33.3671 1 33.3671 5 36.8824 5C40.3976 5 40.3976 1 44.0588 1C47.7201 1 47.7201 5 51.2353 5C54.7505 5 54.7505 1 58.4118 1C62.073 1 62.073 5 65.5882 5C69.2495 5 69.2495 1 72.7647 1C76.4259 1 76.4259 5 79.9412 5C83.6024 5 83.6024 1 87.1176 1C90.7789 1 90.7789 5 94.2941 5C97.9554 5 97.9554 1 101.471 1C105.132 1 105.132 5 108.647 5C112.308 5 112.308 1 115.824 1C119.339 1 119.485 5 123 5" stroke="#F9E828" stroke-width="1.2" stroke-miterlimit="10" stroke-linecap="round" stroke-linejoin="round"/>
<path d="M115 1L117 1.5L118 2.5L123 5.5L128.5 1.5H131L135.5 5H139.5L142.5 1.5H144.5L147 2.5L149.5 4.5L152 5L154.5 3.5L156 2.5L158 1L161 2L162.5 4L165.5 5L167.5 4.5L169.5 3.5L172 1L175.5 2L177.5 4L180 5L183 4.5L186 1.5H188.5L191 3.5L193.5 5L197.5 4.5L199.5 2L201.5 1L205 2.5L206.5 4.5L209.5 5L212.5 3.5L215 1.5H217L219.5 3L221.5 5L225.5 4.5L228 2L230.5 1L233.5 3L236 4.5L238 5L237.5 291H115.5L115 1Z" fill="#F9E828"/>
<path d="M115.5 1C119.161 1 119.161 5 122.676 5C126.338 5 126.338 1 129.853 1C133.514 1 133.514 5 137.029 5C140.691 5 140.691 1 144.206 1C147.867 1 147.867 5 151.382 5C154.898 5 154.898 1 158.559 1C162.22 1 162.22 5 165.735 5C169.251 5 169.251 1 172.912 1C176.573 1 176.573 5 180.088 5C183.749 5 183.749 1 187.265 1C190.926 1 190.926 5 194.441 5C198.102 5 198.102 1 201.618 1C205.279 1 205.279 5 208.794 5C212.455 5 212.455 1 215.971 1C219.632 1 219.632 5 223.147 5C226.808 5 226.808 1 230.324 1C233.839 1 233.985 5 237.5 5" stroke="#F9E828" stroke-width="1.2" stroke-miterlimit="10" stroke-linecap="round" stroke-linejoin="round"/>
<path d="M229 1L231 1.5L232 2.5L237 5.5L242.5 1.5H245L249.5 5H253.5L256.5 1.5H258.5L261 2.5L263.5 4.5L266 5L268.5 3.5L270 2.5L272 1L275 2L276.5 4L279.5 5L281.5 4.5L283.5 3.5L286 1L289.5 2L291.5 4L294 5L297 4.5L300 1.5H302.5L305 3.5L307.5 5L311.5 4.5L313.5 2L315.5 1L319 2.5L320.5 4.5L323.5 5L326.5 3.5L329 1.5H331L333.5 3L335.5 5L339.5 4.5L342 2L344.5 1L347.5 3L350 4.5L352 5L351.5 291H229.5L229 1Z" fill="#F9E828"/>
<path d="M229.5 1C233.161 1 233.161 5 236.676 5C240.338 5 240.338 1 243.853 1C247.514 1 247.514 5 251.029 5C254.691 5 254.691 1 258.206 1C261.867 1 261.867 5 265.382 5C268.898 5 268.898 1 272.559 1C276.22 1 276.22 5 279.735 5C283.251 5 283.251 1 286.912 1C290.573 1 290.573 5 294.088 5C297.749 5 297.749 1 301.265 1C304.926 1 304.926 5 308.441 5C312.102 5 312.102 1 315.618 1C319.279 1 319.279 5 322.794 5C326.455 5 326.455 1 329.971 1C333.632 1 333.632 5 337.147 5C340.808 5 340.808 1 344.324 1C347.839 1 347.985 5 351.5 5" stroke="#F9E828" stroke-width="1.2" stroke-miterlimit="10" stroke-linecap="round" stroke-linejoin="round"/>
<path d="M345 1L347 1.5L348 2.5L353 5.5L358.5 1.5H361L365.5 5H369.5L372.5 1.5H374.5L377 2.5L379.5 4.5L382 5L384.5 3.5L386 2.5L388 1L391 2L392.5 4L395.5 5L397.5 4.5L399.5 3.5L402 1L405.5 2L407.5 4L410 5L413 4.5L416 1.5H418.5L421 3.5L423.5 5L427.5 4.5L429.5 2L431.5 1L435 2.5L436.5 4.5L439.5 5L442.5 3.5L445 1.5H447L449.5 3L451.5 5L455.5 4.5L458 2L460.5 1L463.5 3L466 4.5L468 5L467.5 291H345.5L345 1Z" fill="#F9E828"/>
<path d="M345.5 1C349.161 1 349.161 5 352.676 5C356.338 5 356.338 1 359.853 1C363.514 1 363.514 5 367.029 5C370.691 5 370.691 1 374.206 1C377.867 1 377.867 5 381.382 5C384.898 5 384.898 1 388.559 1C392.22 1 392.22 5 395.735 5C399.251 5 399.251 1 402.912 1C406.573 1 406.573 5 410.088 5C413.749 5 413.749 1 417.265 1C420.926 1 420.926 5 424.441 5C428.102 5 428.102 1 431.618 1C435.279 1 435.279 5 438.794 5C442.455 5 442.455 1 445.971 1C449.632 1 449.632 5 453.147 5C456.808 5 456.808 1 460.324 1C463.839 1 463.985 5 467.5 5" stroke="#F9E828" stroke-width="1.2" stroke-miterlimit="10" stroke-linecap="round" stroke-linejoin="round"/>
<path d="M460 1L462 1.5L463 2.5L468 5.5L473.5 1.5H476L480.5 5H484.5L487.5 1.5H489.5L492 2.5L494.5 4.5L497 5L499.5 3.5L501 2.5L503 1L506 2L507.5 4L510.5 5L512.5 4.5L514.5 3.5L517 1L520.5 2L522.5 4L525 5L528 4.5L531 1.5H533.5L536 3.5L538.5 5L542.5 4.5L544.5 2L546.5 1L550 2.5L551.5 4.5L554.5 5L557.5 3.5L560 1.5H562L564.5 3L566.5 5L570.5 4.5L573 2L575.5 1L578.5 3L581 4.5L583 5L582.5 291H460.5L460 1Z" fill="#F9E828"/>
<path d="M460.5 1C464.161 1 464.161 5 467.676 5C471.338 5 471.338 1 474.853 1C478.514 1 478.514 5 482.029 5C485.691 5 485.691 1 489.206 1C492.867 1 492.867 5 496.382 5C499.898 5 499.898 1 503.559 1C507.22 1 507.22 5 510.735 5C514.251 5 514.251 1 517.912 1C521.573 1 521.573 5 525.088 5C528.749 5 528.749 1 532.265 1C535.926 1 535.926 5 539.441 5C543.102 5 543.102 1 546.618 1C550.279 1 550.279 5 553.794 5C557.455 5 557.455 1 560.971 1C564.632 1 564.632 5 568.147 5C571.808 5 571.808 1 575.324 1C578.839 1 578.985 5 582.5 5" stroke="#F9E828" stroke-width="1.2" stroke-miterlimit="10" stroke-linecap="round" stroke-linejoin="round"/>
</svg>
