<svg width="504" height="480" viewBox="0 0 504 480" fill="none" xmlns="http://www.w3.org/2000/svg">
<path d="M251.782 479.484C249.981 479.484 248.29 478.616 247.239 477.159L1.05871 135.829C-0.367086 133.853 -0.351485 131.181 1.09778 129.22L95.1328 2.26999C96.1914 0.844189 97.8594 0.00438828 99.6328 0.000488281H403.933C405.71 0.00439428 407.378 0.844239 408.433 2.26999L502.468 129.22C503.917 131.181 503.933 133.853 502.507 135.829L256.327 477.149C255.276 478.61 253.585 479.477 251.788 479.477L251.782 479.484ZM12.5317 132.604L251.782 464.314L491.032 132.604L401.114 11.2136H102.454L12.5317 132.604Z" fill="white"/>
<path d="M497.994 138.174H362.684C359.59 138.174 357.082 135.666 357.082 132.576C357.082 129.482 359.59 126.975 362.684 126.975H497.994C501.083 126.975 503.591 129.482 503.591 132.576C503.591 135.666 501.084 138.174 497.994 138.174Z" fill="white"/>
<path d="M140.863 138.174H5.61333C2.52353 138.174 0.015625 135.666 0.015625 132.576C0.015625 129.482 2.52343 126.975 5.61333 126.975H140.863C143.957 126.975 146.465 129.482 146.465 132.576C146.465 135.666 143.957 138.174 140.863 138.174Z" fill="white"/>
<path d="M251.782 479.484C249.352 479.484 247.204 477.921 246.454 475.613L94.3036 7.34266C93.3466 4.40126 94.9559 1.24106 97.8974 0.284062C100.839 -0.669058 103.999 0.940314 104.956 3.88176L251.776 455.762L398.596 3.88176C399.053 2.46766 400.053 1.28796 401.377 0.612263C402.701 -0.0634368 404.24 -0.184617 405.654 0.272423C407.072 0.733363 408.244 1.73722 408.92 3.06542C409.592 4.38962 409.709 5.92872 409.248 7.34272L257.098 475.613C256.348 477.921 254.2 479.484 251.774 479.484L251.782 479.484Z" fill="white"/>
<path d="M362.681 138.174H140.861C138.654 138.174 136.65 136.877 135.747 134.861C134.849 132.842 135.216 130.486 136.689 128.838L250.299 1.86779C251.377 0.664688 252.924 -0.018912 254.541 0.00448797C256.154 0.024019 257.686 0.738868 258.732 1.97329L366.942 128.943C368.357 130.607 368.677 132.939 367.763 134.92C366.849 136.904 364.864 138.174 362.681 138.174V138.174ZM153.391 126.975H350.551L254.363 14.1147L153.391 126.975Z" fill="white"/>
</svg>
