<svg width="420" height="412" viewBox="0 0 420 412" fill="none" xmlns="http://www.w3.org/2000/svg">
<path d="M9.85386 201.261H11.2211C34.1901 200.168 80.9481 164.073 122.781 122.511C164.617 80.6753 200.437 33.9173 201.531 10.9513V9.58414V9.3107C201.258 4.3888 205.086 0.287296 209.734 0.0137961C214.656 -0.259644 218.758 3.5685 218.758 8.2169V8.49034C220.125 30.6383 258.133 79.3103 301.336 122.51C344.266 165.44 391.297 202.354 410.716 201.26C415.364 200.987 419.466 204.815 419.739 209.463C420.012 214.112 416.458 218.213 411.536 218.487C391.848 219.581 344.544 257.862 301.066 301.065C257.863 344.268 219.582 391.846 218.488 411.535L200.988 410.441C201.808 391.027 165.168 343.996 122.238 301.061C79.0349 257.858 30.3629 219.577 8.21786 218.483C3.29596 218.21 -0.258731 214.108 0.014769 209.186C0.288209 204.538 4.38976 200.71 9.03816 200.983L9.85386 201.261ZM134.548 134.538C101.462 167.624 64.8212 197.155 36.9312 210.554C64.8222 225.32 101.736 255.671 134.822 288.757C167.634 321.569 197.166 357.663 210.838 384.734C225.604 357.937 255.955 321.843 289.041 288.757C322.127 255.671 358.221 225.319 385.018 210.554C358.221 196.882 322.127 167.351 289.041 134.538C255.955 101.452 225.877 64.811 210.838 36.647C197.166 64.538 167.635 101.452 134.822 134.264L134.548 134.538ZM8.76973 200.978H9.04317Z" fill="white"/>
<path d="M87.7839 214.391C85.323 214.391 83.4089 212.204 83.6823 209.743C83.6823 207.282 85.8698 205.368 88.3307 205.641H89.4245C103.643 204.821 132.354 182.946 158.057 157.243C183.487 131.813 205.636 102.829 206.456 88.6104V87.5166L215.206 86.9697C216.026 100.642 239.268 130.72 265.792 156.97C292.042 183.22 321.025 205.915 333.057 205.095C335.518 205.095 337.433 206.735 337.706 209.196C337.706 211.657 336.065 213.571 333.604 213.845C318.838 214.665 287.393 190.876 259.776 162.986C238.995 142.205 220.128 119.236 211.651 102.009C203.995 118.962 185.401 142.204 164.62 162.986C137.823 189.783 106.925 213.025 90.2453 213.845H88.3312L87.7839 214.391Z" fill="white"/>
</svg>
