<svg width="20" height="21" viewBox="0 0 20 21" fill="none" xmlns="http://www.w3.org/2000/svg">
<path d="M15.7774 0.508253C15.7171 0.522664 15.6621 0.555204 15.6193 0.601922L1.687 15.2633C1.65564 15.2991 1.632 15.3416 1.61786 15.3881L0.0346498 20.0532C-0.00731615 20.1748 0.0213979 20.311 0.108422 20.4023C0.195227 20.4939 0.324655 20.5241 0.440173 20.48L4.87329 18.8139C4.91834 18.796 4.95898 18.7677 4.9919 18.7307L18.9242 4.06932C19.0461 3.93939 19.0461 3.73043 18.9242 3.60073L16.0743 0.601695C15.9976 0.518255 15.8852 0.482691 15.7774 0.508027V0.508253ZM15.8468 1.31017L18.2415 3.84039L16.7968 5.36073L14.3922 2.84069L15.8468 1.31017ZM13.9468 3.30933L16.3415 5.83979L4.77447 18.0122L2.36985 15.4817L13.9468 3.30933ZM2.04331 16.0863L4.19066 18.3458L0.855897 19.6058L2.04331 16.0863Z" fill="white"/>
</svg>
