<svg width="31" height="21" viewBox="0 0 31 21" fill="none" xmlns="http://www.w3.org/2000/svg">
<path d="M15.5509 5.30811C12.6892 5.30811 10.3594 7.6379 10.3594 10.4997C10.3594 13.3614 12.6892 15.6912 15.5509 15.6912C18.4127 15.6912 20.7425 13.3614 20.7425 10.4997C20.7425 7.6379 18.4127 5.30811 15.5509 5.30811ZM15.5509 14.425C13.3881 14.425 11.6256 12.6625 11.6256 10.4997C11.6256 8.33686 13.3881 6.57434 15.5509 6.57434C17.7137 6.57434 19.4763 8.33686 19.4763 10.4997C19.4763 12.6625 17.7137 14.425 15.5509 14.425Z" fill="white"/>
<path d="M28.8225 7.38499C25.7052 3.23189 20.7439 0.75 15.5523 0.75C10.3608 0.75 5.3993 3.23189 2.28219 7.38499L0.23075 10.1201C0.0637084 10.3454 0.0637084 10.6572 0.23075 10.8824L2.28219 13.6175C5.39944 17.7681 10.3608 20.25 15.5523 20.25C20.7439 20.25 25.7053 17.7706 28.8225 13.6175L30.8739 10.8824C31.0409 10.6571 31.0409 10.3454 30.8739 10.1201L28.8225 7.38499ZM27.8095 12.8553C24.9299 16.6944 20.3488 18.9838 15.5523 18.9838C10.7558 18.9838 6.17423 16.6943 3.29518 12.8553L1.52752 10.5L3.29518 8.14473C6.17445 4.30819 10.7558 2.01623 15.5523 2.01623C20.3488 2.01623 24.9304 4.30566 27.8095 8.14473L29.5771 10.5L27.8095 12.8553Z" fill="white"/>
</svg>
