<?xml version="1.0" encoding="UTF-8"?>
<svg width="700pt" height="700pt" version="1.1" viewBox="0 0 700 700" xmlns="http://www.w3.org/2000/svg" xmlns:xlink="http://www.w3.org/1999/xlink">
 <defs>
  <symbol id="x" overflow="visible">
   <path d="m2.9375-0.17188c-0.15625 0.074219-0.32031 0.13281-0.48438 0.17188-0.15625 0.039062-0.32422 0.0625-0.5 0.0625-0.53125 0-0.95312-0.14453-1.2656-0.4375-0.3125-0.30078-0.46875-0.70703-0.46875-1.2188 0-0.50781 0.15625-0.91016 0.46875-1.2031 0.3125-0.30078 0.73438-0.45312 1.2656-0.45312 0.17578 0 0.34375 0.023438 0.5 0.0625 0.16406 0.042969 0.32812 0.10156 0.48438 0.17188v0.67188c-0.15625-0.10156-0.30859-0.17969-0.45312-0.23438-0.14844-0.050781-0.30469-0.078125-0.46875-0.078125-0.29297 0-0.52734 0.09375-0.70312 0.28125-0.16797 0.1875-0.25 0.44922-0.25 0.78125 0 0.33594 0.082031 0.59375 0.25 0.78125 0.17578 0.1875 0.41016 0.28125 0.70312 0.28125 0.16406 0 0.32031-0.019531 0.46875-0.0625 0.14453-0.050781 0.29688-0.12891 0.45312-0.23438z"/>
  </symbol>
  <symbol id="c" overflow="visible">
   <path d="m2.1406-1.7344c-0.0625-0.03125-0.13281-0.050781-0.20312-0.0625-0.0625-0.019531-0.125-0.03125-0.1875-0.03125-0.19922 0-0.35547 0.0625-0.46875 0.1875-0.10547 0.125-0.15625 0.30469-0.15625 0.53125v1.1094h-0.75v-2.3906h0.75v0.39062c0.10156-0.15625 0.21875-0.26953 0.34375-0.34375 0.125-0.070312 0.27344-0.10938 0.45312-0.10938 0.03125 0 0.0625 0.007813 0.09375 0.015625h0.125z"/>
  </symbol>
  <symbol id="a" overflow="visible">
   <path d="m2.75-1.2031v0.21875h-1.7812c0.019531 0.17969 0.082031 0.3125 0.1875 0.40625 0.11328 0.085937 0.26953 0.125 0.46875 0.125 0.16406 0 0.33203-0.019531 0.5-0.0625 0.16406-0.050781 0.33594-0.125 0.51562-0.21875v0.59375c-0.17969 0.0625-0.35938 0.10938-0.54688 0.14062-0.17969 0.039062-0.35547 0.0625-0.53125 0.0625-0.4375 0-0.77734-0.10938-1.0156-0.32812-0.24219-0.21875-0.35938-0.52344-0.35938-0.92188 0-0.39453 0.11328-0.70312 0.34375-0.92188 0.23828-0.22656 0.56641-0.34375 0.98438-0.34375 0.375 0 0.67188 0.11719 0.89062 0.34375 0.22656 0.23047 0.34375 0.53125 0.34375 0.90625zm-0.78125-0.25c0-0.14453-0.042969-0.25781-0.125-0.34375-0.085938-0.09375-0.19531-0.14062-0.32812-0.14062-0.15625 0-0.28125 0.042969-0.375 0.125-0.085937 0.085938-0.14062 0.20312-0.17188 0.35938z"/>
  </symbol>
  <symbol id="l" overflow="visible">
   <path d="m1.4375-1.0781c-0.15625 0-0.27734 0.027344-0.35938 0.078125-0.085937 0.054688-0.125 0.13672-0.125 0.25 0 0.09375 0.03125 0.16797 0.09375 0.21875 0.070313 0.054688 0.16406 0.078125 0.28125 0.078125 0.14453 0 0.26562-0.046875 0.35938-0.14062 0.10156-0.10156 0.15625-0.23438 0.15625-0.39062v-0.09375zm1.1719-0.28125v1.3594h-0.76562v-0.35938c-0.10547 0.14844-0.22656 0.25781-0.35938 0.32812-0.125 0.0625-0.28125 0.09375-0.46875 0.09375-0.24219 0-0.4375-0.070312-0.59375-0.21875-0.15625-0.14453-0.23438-0.33203-0.23438-0.5625 0-0.28125 0.09375-0.48438 0.28125-0.60938 0.19531-0.13281 0.50391-0.20312 0.92188-0.20312h0.45312v-0.0625c0-0.11328-0.054688-0.19531-0.15625-0.25-0.09375-0.0625-0.24219-0.09375-0.4375-0.09375-0.16797 0-0.32422 0.015625-0.46875 0.046875-0.13672 0.03125-0.26562 0.078125-0.39062 0.14062v-0.57812c0.16406-0.039063 0.33203-0.070313 0.5-0.09375 0.16406-0.019531 0.33203-0.03125 0.5-0.03125 0.42578 0 0.73438 0.089844 0.92188 0.26562 0.19531 0.16797 0.29688 0.44531 0.29688 0.82812z"/>
  </symbol>
  <symbol id="b" overflow="visible">
   <path d="m1.2031-3.0781v0.6875h0.78125v0.54688h-0.78125v1.0156c0 0.10547 0.019531 0.17969 0.0625 0.21875 0.039063 0.042969 0.12891 0.0625 0.26562 0.0625h0.39062v0.54688h-0.65625c-0.30469 0-0.51562-0.0625-0.64062-0.1875s-0.1875-0.33594-0.1875-0.64062v-1.0156h-0.375v-0.54688h0.375v-0.6875z"/>
  </symbol>
  <symbol id="k" overflow="visible">
   <path d="m2-2.0469v-1.2812h0.76562v3.3281h-0.76562v-0.34375c-0.10547 0.13672-0.22656 0.24219-0.35938 0.3125-0.125 0.0625-0.27344 0.09375-0.4375 0.09375-0.29297 0-0.53125-0.11328-0.71875-0.34375-0.1875-0.23828-0.28125-0.53906-0.28125-0.90625 0-0.375 0.09375-0.67578 0.28125-0.90625 0.1875-0.23828 0.42578-0.35938 0.71875-0.35938 0.16406 0 0.3125 0.039063 0.4375 0.10938 0.13281 0.0625 0.25391 0.16406 0.35938 0.29688zm-0.51562 1.5469c0.16406 0 0.28906-0.054688 0.375-0.17188 0.09375-0.125 0.14062-0.29688 0.14062-0.51562 0-0.22656-0.046875-0.39844-0.14062-0.51562-0.085937-0.125-0.21094-0.1875-0.375-0.1875-0.15625 0-0.28125 0.0625-0.375 0.1875-0.085937 0.11719-0.125 0.28906-0.125 0.51562 0 0.21875 0.039063 0.39062 0.125 0.51562 0.09375 0.11719 0.21875 0.17188 0.375 0.17188z"/>
  </symbol>
  <symbol id="j" overflow="visible">
   <path d="m1.6406-0.5c0.16406 0 0.28906-0.054688 0.375-0.17188 0.082031-0.125 0.125-0.29688 0.125-0.51562 0-0.22656-0.042969-0.39844-0.125-0.51562-0.085937-0.125-0.21094-0.1875-0.375-0.1875-0.16797 0-0.29688 0.0625-0.39062 0.1875-0.085938 0.11719-0.125 0.28906-0.125 0.51562 0 0.21875 0.039062 0.39062 0.125 0.51562 0.09375 0.11719 0.22266 0.17188 0.39062 0.17188zm-0.51562-1.5469c0.11328-0.13281 0.23438-0.23438 0.35938-0.29688 0.125-0.070312 0.26953-0.10938 0.4375-0.10938 0.28906 0 0.53125 0.12109 0.71875 0.35938 0.19531 0.23047 0.29688 0.53125 0.29688 0.90625 0 0.36719-0.10156 0.66797-0.29688 0.90625-0.1875 0.23047-0.42969 0.34375-0.71875 0.34375-0.16797 0-0.3125-0.03125-0.4375-0.09375-0.125-0.070312-0.24609-0.17578-0.35938-0.3125v0.34375h-0.75v-3.3281h0.75z"/>
  </symbol>
  <symbol id="i" overflow="visible">
   <path d="m0.046875-2.3906h0.76562l0.65625 1.625 0.54688-1.625h0.75l-1 2.6094c-0.10547 0.26953-0.22656 0.45703-0.35938 0.5625-0.125 0.10156-0.30469 0.15625-0.53125 0.15625h-0.4375v-0.5h0.23438c0.13281 0 0.22656-0.023438 0.28125-0.0625 0.0625-0.042969 0.10938-0.11719 0.14062-0.21875l0.03125-0.0625z"/>
  </symbol>
  <symbol id="h" overflow="visible">
   <path d="m0.40625-3.1875h0.8125v2.875c0 0.39453-0.10938 0.69141-0.32812 0.89062-0.21094 0.19531-0.53125 0.29688-0.96875 0.29688h-0.17188v-0.625h0.125c0.17578 0 0.30469-0.046875 0.39062-0.14062 0.09375-0.09375 0.14062-0.23438 0.14062-0.42188z"/>
  </symbol>
  <symbol id="g" overflow="visible">
   <path d="m0.34375-0.9375v-1.4531h0.76562v0.23438 0.5 0.39062c0 0.1875 0.003906 0.32422 0.015625 0.40625 0.007812 0.085937 0.023438 0.14844 0.046875 0.1875 0.03125 0.054687 0.070313 0.09375 0.125 0.125 0.050781 0.023437 0.10938 0.03125 0.17188 0.03125 0.15625 0 0.28125-0.0625 0.375-0.1875s0.14062-0.29688 0.14062-0.51562v-1.1719h0.76562v2.3906h-0.76562v-0.34375c-0.11719 0.13672-0.24219 0.24219-0.375 0.3125-0.125 0.0625-0.26562 0.09375-0.42188 0.09375-0.27344 0-0.48047-0.082031-0.625-0.25-0.14844-0.17578-0.21875-0.42578-0.21875-0.75z"/>
  </symbol>
  <symbol id="w" overflow="visible">
   <path d="m0.375-3.3281h0.75v3.3281h-0.75z"/>
  </symbol>
  <symbol id="f" overflow="visible">
   <path d="m0.375-2.3906h0.75v2.3906h-0.75zm0-0.9375h0.75v0.625h-0.75z"/>
  </symbol>
  <symbol id="v" overflow="visible">
   <path d="m0.40625-3.1875h2.2188v0.625h-1.4062v0.59375h1.3125v0.60938h-1.3125v0.73438h1.4531v0.625h-2.2656z"/>
  </symbol>
  <symbol id="u" overflow="visible">
   <path d="m1.125-0.34375v1.25h-0.75v-3.2969h0.75v0.34375c0.11328-0.13281 0.23438-0.23438 0.35938-0.29688 0.125-0.070312 0.26953-0.10938 0.4375-0.10938 0.28906 0 0.53125 0.12109 0.71875 0.35938 0.19531 0.23047 0.29688 0.53125 0.29688 0.90625 0 0.36719-0.10156 0.66797-0.29688 0.90625-0.1875 0.23047-0.42969 0.34375-0.71875 0.34375-0.16797 0-0.3125-0.03125-0.4375-0.09375-0.125-0.070312-0.24609-0.17578-0.35938-0.3125zm0.51562-1.5469c-0.16797 0-0.29688 0.0625-0.39062 0.1875-0.085938 0.11719-0.125 0.28906-0.125 0.51562 0 0.21875 0.039062 0.39062 0.125 0.51562 0.09375 0.11719 0.22266 0.17188 0.39062 0.17188 0.16406 0 0.28906-0.054688 0.375-0.17188 0.082031-0.125 0.125-0.29688 0.125-0.51562 0-0.22656-0.042969-0.39844-0.125-0.51562-0.085937-0.125-0.21094-0.1875-0.375-0.1875z"/>
  </symbol>
  <symbol id="t" overflow="visible">
   <path d="m2.2344-2.3125v0.57812c-0.16797-0.070313-0.32812-0.125-0.48438-0.15625-0.14844-0.03125-0.28906-0.046875-0.42188-0.046875-0.14844 0-0.25781 0.023438-0.32812 0.0625-0.0625 0.03125-0.09375 0.085938-0.09375 0.15625 0 0.0625 0.023438 0.10938 0.078125 0.14062 0.050781 0.03125 0.14453 0.058594 0.28125 0.078125l0.14062 0.015625c0.38281 0.054687 0.64453 0.13672 0.78125 0.25 0.13281 0.11719 0.20312 0.29297 0.20312 0.53125 0 0.25-0.09375 0.44531-0.28125 0.57812-0.1875 0.125-0.46875 0.1875-0.84375 0.1875-0.15625 0-0.32031-0.015625-0.48438-0.046875-0.16797-0.019531-0.33984-0.054688-0.51562-0.10938v-0.57812c0.14453 0.074219 0.29688 0.13281 0.45312 0.17188 0.16406 0.03125 0.33203 0.046875 0.5 0.046875 0.14453 0 0.25391-0.019531 0.32812-0.0625 0.082031-0.039063 0.125-0.097656 0.125-0.17188 0-0.070312-0.027344-0.125-0.078125-0.15625-0.054688-0.03125-0.15625-0.054688-0.3125-0.078125l-0.14062-0.015625c-0.33594-0.039062-0.57422-0.11719-0.71875-0.23438-0.13672-0.11328-0.20312-0.28906-0.20312-0.53125 0-0.25 0.085938-0.4375 0.26562-0.5625 0.17578-0.125 0.44141-0.1875 0.79688-0.1875 0.14453 0 0.29688 0.011719 0.45312 0.03125 0.15625 0.023437 0.32031 0.058594 0.5 0.10938z"/>
  </symbol>
  <symbol id="e" overflow="visible">
   <path d="m2.7656-1.4531v1.4531h-0.76562v-1.1094c0-0.20703-0.007812-0.34766-0.015625-0.42188-0.011719-0.082031-0.027344-0.14453-0.046875-0.1875-0.03125-0.050781-0.074219-0.085938-0.125-0.10938-0.042969-0.03125-0.10156-0.046875-0.17188-0.046875-0.15625 0-0.28125 0.0625-0.375 0.1875s-0.14062 0.29688-0.14062 0.51562v1.1719h-0.75v-2.3906h0.75v0.34375c0.125-0.13281 0.25-0.23438 0.375-0.29688 0.125-0.070312 0.26562-0.10938 0.42188-0.10938 0.28125 0 0.48828 0.089844 0.625 0.26562 0.14453 0.16797 0.21875 0.41406 0.21875 0.73438z"/>
  </symbol>
  <symbol id="s" overflow="visible">
   <path d="m1.9375-3.3281v0.5h-0.42188c-0.10547 0-0.17969 0.023437-0.21875 0.0625-0.042969 0.042969-0.0625 0.10938-0.0625 0.20312v0.17188h0.64062v0.54688h-0.64062v1.8438h-0.76562v-1.8438h-0.39062v-0.54688h0.39062v-0.17188c0-0.25781 0.070312-0.45312 0.21875-0.57812 0.14453-0.125 0.36719-0.1875 0.67188-0.1875z"/>
  </symbol>
  <symbol id="d" overflow="visible">
   <path d="m1.5-1.9062c-0.16797 0-0.29688 0.0625-0.39062 0.1875-0.085937 0.125-0.125 0.30469-0.125 0.53125 0 0.23047 0.039063 0.40625 0.125 0.53125 0.09375 0.11719 0.22266 0.17188 0.39062 0.17188 0.16406 0 0.28906-0.054687 0.375-0.17188 0.09375-0.125 0.14062-0.30078 0.14062-0.53125 0-0.22656-0.046875-0.40625-0.14062-0.53125-0.085938-0.125-0.21094-0.1875-0.375-0.1875zm0-0.54688c0.41406 0 0.73828 0.11719 0.96875 0.34375 0.22656 0.21875 0.34375 0.52734 0.34375 0.92188 0 0.38672-0.11719 0.69531-0.34375 0.92188-0.23047 0.21875-0.55469 0.32812-0.96875 0.32812-0.40625 0-0.73047-0.10938-0.96875-0.32812-0.23047-0.22656-0.34375-0.53516-0.34375-0.92188 0-0.39453 0.11328-0.70312 0.34375-0.92188 0.23828-0.22656 0.5625-0.34375 0.96875-0.34375z"/>
  </symbol>
  <symbol id="r" overflow="visible">
   <path d="m2.5781-2c0.10156-0.14453 0.21875-0.25391 0.34375-0.32812 0.13281-0.082031 0.28516-0.125 0.45312-0.125 0.26953 0 0.47656 0.089844 0.625 0.26562 0.14453 0.16797 0.21875 0.41406 0.21875 0.73438v1.4531h-0.78125v-1.25c0.007812-0.019531 0.015625-0.035156 0.015625-0.046875v-0.09375c0-0.16406-0.027344-0.28516-0.078125-0.35938-0.054688-0.082031-0.13672-0.125-0.25-0.125-0.14844 0-0.26172 0.0625-0.34375 0.1875-0.074219 0.11719-0.10938 0.28906-0.10938 0.51562v1.1719h-0.76562v-1.25c0-0.25781-0.027344-0.42578-0.078125-0.5-0.042969-0.082031-0.12109-0.125-0.23438-0.125-0.14844 0-0.26172 0.0625-0.34375 0.1875-0.085938 0.11719-0.125 0.28906-0.125 0.51562v1.1719h-0.76562v-2.3906h0.76562v0.34375c0.09375-0.13281 0.20312-0.23438 0.32812-0.29688 0.125-0.070312 0.25781-0.10938 0.40625-0.10938 0.16406 0 0.3125 0.042969 0.4375 0.125 0.125 0.074219 0.21875 0.18359 0.28125 0.32812z"/>
  </symbol>
  <symbol id="q" overflow="visible">
   <path d="m2.7656-1.4531v1.4531h-0.76562v-1.1094c0-0.20703-0.007812-0.34766-0.015625-0.42188-0.011719-0.082031-0.027344-0.14453-0.046875-0.1875-0.03125-0.050781-0.074219-0.085938-0.125-0.10938-0.042969-0.03125-0.10156-0.046875-0.17188-0.046875-0.15625 0-0.28125 0.0625-0.375 0.1875s-0.14062 0.29688-0.14062 0.51562v1.1719h-0.75v-3.3281h0.75v1.2812c0.125-0.13281 0.25-0.23438 0.375-0.29688 0.125-0.070312 0.26562-0.10938 0.42188-0.10938 0.28125 0 0.48828 0.089844 0.625 0.26562 0.14453 0.16797 0.21875 0.41406 0.21875 0.73438z"/>
  </symbol>
  <symbol id="p" overflow="visible">
   <path d="m0.40625-3.1875h0.90625l1.1719 2.1875v-2.1875h0.78125v3.1875h-0.92188l-1.1562-2.1875v2.1875h-0.78125z"/>
  </symbol>
  <symbol id="o" overflow="visible">
   <path d="m0.40625-3.1875h1.3594c0.40625 0 0.71875 0.089844 0.9375 0.26562 0.21875 0.17969 0.32812 0.43359 0.32812 0.76562 0 0.34375-0.10938 0.60547-0.32812 0.78125-0.21875 0.17969-0.53125 0.26562-0.9375 0.26562h-0.54688v1.1094h-0.8125zm0.8125 0.59375v0.89062h0.45312c0.16406 0 0.28906-0.035156 0.375-0.10938 0.082031-0.082031 0.125-0.19531 0.125-0.34375 0-0.13281-0.042969-0.23828-0.125-0.3125-0.085937-0.082031-0.21094-0.125-0.375-0.125z"/>
  </symbol>
  <symbol id="n" overflow="visible">
   <path d="m0.375-2.3906h0.75v2.3438c0 0.32031-0.078125 0.56641-0.23438 0.73438-0.14844 0.16406-0.36719 0.25-0.65625 0.25h-0.375v-0.5h0.125c0.14453 0 0.24219-0.03125 0.29688-0.09375 0.0625-0.0625 0.09375-0.19531 0.09375-0.39062zm0-0.9375h0.75v0.625h-0.75z"/>
  </symbol>
  <symbol id="m" overflow="visible">
   <path d="m2.2969-2.3125v0.625c-0.10547-0.070312-0.21094-0.125-0.3125-0.15625-0.10547-0.039062-0.21484-0.0625-0.32812-0.0625-0.21094 0-0.375 0.0625-0.5 0.1875-0.11719 0.125-0.17188 0.30469-0.17188 0.53125 0 0.21875 0.054687 0.39062 0.17188 0.51562 0.125 0.125 0.28906 0.1875 0.5 0.1875 0.125 0 0.23828-0.015625 0.34375-0.046875 0.10156-0.039062 0.20312-0.097656 0.29688-0.17188v0.625c-0.11719 0.054688-0.23438 0.085938-0.35938 0.10938-0.125 0.019531-0.25 0.03125-0.375 0.03125-0.42969 0-0.76562-0.10938-1.0156-0.32812-0.24219-0.22656-0.35938-0.53516-0.35938-0.92188 0-0.39453 0.11719-0.70312 0.35938-0.92188 0.25-0.22656 0.58594-0.34375 1.0156-0.34375 0.125 0 0.25 0.011719 0.375 0.03125 0.125 0.023437 0.24219 0.058594 0.35938 0.10938z"/>
  </symbol>
 </defs>
 <g>
  <path d="m417.73 88.812-2.1875-0.4375-0.78906-0.17578-182.61 248.15-1.4883 2.1875 87.148 127.84h0.085937l48.914 15.051zm-53.289 386.31-33.074-49.523 80.062-312.29zm-88.812-130.55-39.199-8.8359 172.64-234.59zm2.5391 1.6641 132.21-241.24-81.375 317.27zm-43.84-7.6992 0.085937-0.085937 41.125 9.1875 52.5 78.574-9.2734 36.227zm95.988 91.086 31.5 47.074-40.426-12.426z" fill="#010101"/>
 </g>
</svg>
