<svg width="326" height="668" viewBox="0 0 326 668" fill="none" xmlns="http://www.w3.org/2000/svg">
<path d="M117.284 296.812C130.74 305.278 141.537 308.937 152.175 308.503C154.629 308.404 157.083 308.304 158.687 307.421C161.468 355.652 165.887 403.816 171.029 449.498C165.522 434.976 157.461 418.094 145.376 403.017C136.726 391.897 127.161 378.358 117.529 363.18C96.5285 330.437 73.8282 296.13 54.0599 293.654C48.2975 293.071 43.4233 294.087 38.6819 298.379C31.5539 304.407 30.449 317.559 36.1228 336.179C52.3608 392.875 123.475 489.131 177.114 498.418C188.106 587.286 199.02 654.035 200.102 660.546L205.798 659.497C205.765 658.681 203.494 643.204 199.192 617.977C204.199 620.231 209.961 620.814 214.87 620.614C231.229 619.948 248.828 609.4 266.059 589.847C303.659 547.345 331.549 467.543 310.682 438.077C298.53 421.361 286.228 421.045 277.329 423.864C252.271 432.258 232.662 474.027 232.263 504.366C232.091 540.429 206.959 587.339 197.029 604.954C190.156 556.889 179.73 481.927 172.308 400.286C175.677 402.607 180.691 404.861 188.086 405.383L189.723 405.316C206.083 404.65 224.398 391.615 244.672 366.206C278.969 323.021 285.18 274.418 269.725 257.02C262.847 249.104 253.814 248.654 242.596 254.85C224.182 265.431 212.39 297.868 200.533 328.673C191.684 352.793 182.863 377.736 171.027 388.872C168.29 361.943 166.341 334.162 164.426 307.199L165.242 307.166L164.259 303.108C161.645 258.969 159.879 215.605 160.7 175.425C166.13 167.83 206.533 113.743 207.76 43.2229C208.165 12.8894 198.045 5.92234 188.979 4.65705C165.94 2.31999 132.459 45.4711 125.126 86.7405C115.123 142.865 147.371 170.235 154.971 175.664C154.699 209.273 155.349 245.302 156.848 282.113C142.914 241.71 108.128 152.171 75.2241 128.928C54.1396 114.217 35.1592 110.892 21.5201 118.003C11.1168 124.165 5.07072 136.7 5.67019 151.422C6.59053 174.305 66.8021 264.449 117.286 296.801L117.284 296.812ZM294.036 451.86L288.34 452.909C299.97 517.166 231.265 580.604 203.498 603.039C214.934 582.088 236.14 539.436 236.412 505.827C236.783 474.673 256.553 436.995 277.586 430.406C287.301 427.553 296.467 431.278 304.3 442.43C322.515 467.089 298.549 542.633 260.194 586.806C247.67 601.246 223.145 622.73 199.023 613.881C219.695 598.287 307.731 526.691 294.035 451.865L294.036 451.86ZM205.529 330.911C216.598 300.961 227.64 270.194 245.271 260.463C250.867 256.96 258.978 254.989 264.973 261.301C276.992 274.741 274.733 319.902 239.653 363.941C215.494 394.424 197.728 400.88 187.059 400.498C182.968 400.665 179.631 399.16 177.144 398.444C177.96 398.411 178.782 398.378 180.381 397.495C196.574 392.737 222.639 368.734 257.656 282.908L252.682 281.464C216.914 368.961 191.499 388.841 179.365 392.616C177.76 393.498 175.307 393.598 174.491 393.631C187.076 380.83 195.925 356.703 205.528 330.911L205.529 330.911ZM171.088 491.28C120.454 475.315 56.2166 386.975 40.9668 334.334C36.2092 318.141 36.5646 306.654 42.1215 302.33C44.4753 299.776 47.7175 298.827 50.9873 298.693L53.441 298.593C70.7563 301.164 93.4555 335.477 113.535 365.8C123.167 380.978 132.765 395.334 141.415 406.453C164.737 435.821 172.648 469.096 175.801 486.177L175.867 487.815C157.004 467.28 95.1707 397.687 80.7042 344.195L75.8634 346.032C89.5418 400.37 151.374 469.957 171.087 491.274L171.088 491.28ZM130.945 88.9419C138.345 49.31 168.783 12.0148 187.597 11.2487L189.235 11.182C198.267 11.6316 202.858 23.7393 202.87 44.2244C201.998 103.258 173.558 149.485 161.99 167.161C163.127 114.672 168.696 70.1999 180.647 41.8487L173.968 38.8397C162.077 68.823 156.615 115.749 154.722 169.909C145.395 162.098 122.241 136.822 130.945 88.9416L130.945 88.9419ZM24.1905 123.606C27.3936 121.835 31.4518 120.852 35.5432 120.686C46.1797 120.253 58.6487 124.661 72.1387 133.942C108.412 159.506 148.221 271.784 156.682 298.48C146.634 293.151 123.911 278.511 107.618 240.662C85.0344 189.139 37.7079 133.708 37.6744 132.886L33.716 136.322C34.5653 137.105 80.2201 191.786 102.77 242.493C119.058 280.342 141.847 296.619 152.749 302.732C143.784 303.914 132.981 300.262 120.345 291.763C70.7216 260.191 11.4655 173.289 10.5993 152.015C10.0663 138.925 15.3569 128.061 24.189 123.603L24.1905 123.606Z" fill="white"/>
</svg>
