<svg width="476" height="474" viewBox="0 0 476 474" fill="none" xmlns="http://www.w3.org/2000/svg">
<path d="M215.045 129.045C213.713 124.758 206.926 94.7613 198.771 65.532C180.566 -0.137341 174.538 0.0168452 171.617 0.578534C167.726 1.32827 166.131 6.17891 165.07 19.0098C162.854 57.306 202.651 122.349 241.562 174.938C214.325 148.88 184.525 127.857 163.087 134.512C157.43 136.613 154.493 139.704 154.271 143.783C151.733 172.546 288.105 248.776 308.445 260.005C333.116 291.1 360.526 320.665 386.021 345.543C359.292 329.989 304.284 298.68 247.291 272.798C238.037 261.454 135.846 137.233 93.0908 132.848C88.4285 132.232 85.6923 133.77 85.0925 135.904C83.7058 139.2 80.3395 147.924 162.717 213.855C179.929 227.202 197.145 240.546 211.457 251.929C155.679 219.25 50.288 162.299 12.1249 168.642C7.25494 169.58 1.02162 171.284 0.797409 175.367C0.388756 178.475 0.539995 184.507 67.7165 200.345C97.8137 207.171 128.695 212.837 132.965 214.033C164.355 230.203 194.961 247.532 216.464 259.549C163.325 237.981 114.22 224.213 87.1276 232.965C73.2883 237.145 67.2228 242.353 68.9315 248.589C74.6122 270.219 205.215 282.42 245.512 276.678C319.174 310.455 390.44 352.775 399.544 358.088C434.702 391.202 462.747 413.572 466.23 415.929L468.588 412.446C466.846 411.267 378.658 341.409 312.359 256.731C311.045 249.912 298.914 205.293 285.812 160.86C255.781 62.6314 247.411 63.7406 243.515 64.4874C239.04 64.8424 235.501 70.0712 235.474 101.38C235.822 134.639 249.766 170.325 270.713 205.674C269.364 203.916 267.622 202.737 266.855 201.367C249.506 179.47 231.014 154.253 215.05 129.046L215.045 129.045ZM169.148 19.2315C169.798 9.51217 171.184 6.21614 171.971 5.0533C178.566 7.82268 195.096 62.1992 208.319 117.716C184.466 80.4064 167.809 43.7271 169.148 19.2301L169.148 19.2315ZM88.3828 137.291C88.3828 137.291 89.7489 136.52 92.2747 136.541C126.28 140.088 203.257 227.76 232.576 262C156.549 205.454 85.0126 146.018 88.3813 137.289L88.3828 137.291ZM4.68678 174.62C4.68678 174.62 5.86577 172.878 12.2902 172.148C32.7417 168.208 74.8221 184.84 117.262 205.951C61.1342 195.054 6.39561 180.855 4.68777 174.62L4.68678 174.62ZM72.8167 247.839C72.6295 246.868 73.0244 246.284 73.4165 245.705C74.9876 243.384 80.4533 240.31 88.4513 237.255C118.28 226.965 178.23 247.224 236.775 273.313C188.13 277.634 76.7945 263.23 72.8181 247.84L72.8167 247.839ZM238.969 101.216C238.416 69.5139 243.282 68.5729 243.282 68.5729C244.836 68.7806 253.561 72.147 280.933 161.801C291.577 196.105 300.28 230.784 305.023 247.544C303.673 245.786 302.326 244.023 300.394 241.87C266.304 195.924 239.433 145.557 238.966 101.214L238.969 101.216ZM262.167 203.282C277.775 224.007 292.235 241.421 300.141 251.003C251.914 223.435 155.284 164.795 157.374 144.197C157.766 143.617 157.187 143.225 157.973 142.063C158.76 140.9 160.124 140.134 163.439 138.988C189.163 131.004 230.128 168.05 262.164 203.281L262.167 203.282ZM288.713 354.192C282.309 352.397 275.884 353.128 270.997 356.594C266.111 360.06 263.753 363.544 263.716 368.598C264.955 385.526 301.162 408.341 327.703 422.923C280.923 410.729 231.199 401.626 196.178 403.322C175.167 404.337 163.669 407.562 160.716 413.182C159.929 414.344 159.52 417.452 162.029 420.001C174.171 435.84 259.023 454.334 355.611 436.735L355.818 435.18C419.288 452.743 472.815 473.74 473.788 473.549L475.567 469.673C474.987 469.281 421.645 449.261 357.992 430.722C354.143 423.888 319.574 362.385 288.713 354.192L288.713 354.192ZM165.736 418.276C164.387 416.518 164.782 415.935 164.782 415.935C165.961 414.193 170.66 409.755 196.144 408.378C235.636 406.325 292.531 418.593 344.164 432.378C345.326 433.165 346.877 433.37 348.039 434.157C254.77 450.606 175.367 431.565 165.735 418.276L165.736 418.276ZM345.945 428.497C317.851 413.714 269.041 385.751 267.802 368.824C267.631 365.324 269.205 362.999 272.334 360.882C276.828 357.994 281.303 357.639 287.128 359.043C313.141 365.644 342.932 415.448 351.382 430.482C350.215 429.692 348.079 429.097 345.945 428.497L345.945 428.497Z" fill="white"/>
</svg>
