<svg width="2568" height="642" viewBox="0 0 2568 642" fill="none" xmlns="http://www.w3.org/2000/svg">
<path fill-rule="evenodd" clip-rule="evenodd" d="M937.326 2.29837C937.822 1.70534 937.744 0.822392 937.151 0.326256C936.558 -0.169879 935.675 -0.0913301 935.179 0.501701L400.899 639.126C400.403 639.719 400.482 640.602 401.075 641.098C401.668 641.594 402.551 641.515 403.047 640.922L937.326 2.29837ZM711.823 0.326252C712.416 0.822384 712.495 1.70533 711.999 2.29836L177.725 640.922C177.229 641.515 176.346 641.594 175.753 641.098C175.16 640.602 175.082 639.719 175.578 639.126L709.851 0.501706C710.347 -0.0913271 711.23 -0.169881 711.823 0.326252ZM536.572 0.326252C537.165 0.822384 537.244 1.70533 536.747 2.29836L2.47382 640.922C1.97768 641.515 1.09474 641.594 0.501706 641.098C-0.0913271 640.602 -0.169881 639.719 0.326252 639.126L534.6 0.501706C535.096 -0.0913271 535.979 -0.169881 536.572 0.326252ZM561.603 0.326247C562.196 0.822376 562.275 1.70532 561.779 2.29836L27.5109 640.922C27.0147 641.515 26.1318 641.594 25.5388 641.098C24.9457 640.602 24.8672 639.719 25.3633 639.126L559.631 0.501712C560.127 -0.0913241 561.01 -0.169882 561.603 0.326247ZM586.816 2.29836C587.313 1.70533 587.234 0.822384 586.641 0.326252C586.048 -0.169881 585.165 -0.0913271 584.669 0.501706L50.3953 639.126C49.8991 639.719 49.9777 640.602 50.5707 641.098C51.1638 641.594 52.0467 641.515 52.5428 640.922L586.816 2.29836ZM611.679 0.326252C612.272 0.822384 612.35 1.70533 611.854 2.29836L77.5805 640.922C77.0843 641.515 76.2014 641.594 75.6084 641.098C75.0153 640.602 74.9368 639.719 75.4329 639.126L609.707 0.501706C610.203 -0.0913271 611.086 -0.169881 611.679 0.326252ZM636.892 2.29836C637.388 1.70533 637.309 0.822384 636.716 0.326252C636.123 -0.169881 635.24 -0.0913271 634.744 0.501706L100.471 639.126C99.9744 639.719 100.053 640.602 100.646 641.098C101.239 641.594 102.122 641.515 102.618 640.922L636.892 2.29836ZM661.748 0.326247C662.341 0.822376 662.42 1.70532 661.924 2.29836L127.656 640.922C127.16 641.515 126.277 641.594 125.684 641.098C125.091 640.602 125.012 639.719 125.508 639.126L659.776 0.501712C660.272 -0.0913241 661.155 -0.169882 661.748 0.326247ZM686.961 2.29836C687.457 1.70533 687.379 0.822384 686.786 0.326252C686.193 -0.169881 685.31 -0.0913271 684.814 0.501706L150.54 639.126C150.044 639.719 150.123 640.602 150.716 641.098C151.309 641.594 152.192 641.515 152.688 640.922L686.961 2.29836ZM737.031 2.29836C737.527 1.70532 737.448 0.822376 736.855 0.326247C736.262 -0.169882 735.379 -0.0913241 734.883 0.501712L200.615 639.126C200.119 639.719 200.198 640.602 200.791 641.098C201.384 641.594 202.267 641.515 202.763 640.922L737.031 2.29836ZM761.893 0.326252C762.486 0.822384 762.565 1.70533 762.068 2.29836L227.795 640.922C227.299 641.515 226.416 641.594 225.823 641.098C225.23 640.602 225.151 639.719 225.647 639.126L759.921 0.501706C760.417 -0.0913271 761.3 -0.169881 761.893 0.326252ZM787.106 2.29836C787.602 1.70533 787.524 0.822384 786.931 0.326252C786.338 -0.169881 785.455 -0.0913271 784.959 0.501706L250.685 639.126C250.189 639.719 250.267 640.602 250.86 641.098C251.453 641.594 252.336 641.515 252.832 640.922L787.106 2.29836ZM811.968 0.326252C812.561 0.822384 812.64 1.70533 812.144 2.29836L277.87 640.922C277.374 641.515 276.491 641.594 275.898 641.098C275.305 640.602 275.226 639.719 275.722 639.126L809.996 0.501706C810.492 -0.0913271 811.375 -0.169881 811.968 0.326252ZM837.181 2.29837C837.677 1.70534 837.599 0.822392 837.006 0.326256C836.413 -0.169879 835.53 -0.0913301 835.034 0.501701L300.754 639.126C300.258 639.719 300.337 640.602 300.93 641.098C301.523 641.594 302.406 641.515 302.902 640.922L837.181 2.29837ZM862.038 0.326252C862.631 0.822384 862.709 1.70533 862.213 2.29836L327.94 640.922C327.444 641.515 326.561 641.594 325.968 641.098C325.374 640.602 325.296 639.719 325.792 639.126L860.066 0.501706C860.562 -0.0913271 861.445 -0.169881 862.038 0.326252ZM887.251 2.29836C887.747 1.70533 887.668 0.822384 887.075 0.326252C886.482 -0.169881 885.599 -0.0913271 885.103 0.501706L350.83 639.126C350.334 639.719 350.412 640.602 351.005 641.098C351.598 641.594 352.481 641.515 352.977 640.922L887.251 2.29836ZM912.113 0.326252C912.706 0.822384 912.785 1.70533 912.288 2.29836L378.015 640.922C377.519 641.515 376.636 641.594 376.043 641.098C375.45 640.602 375.371 639.719 375.867 639.126L910.141 0.501706C910.637 -0.0913271 911.52 -0.169881 912.113 0.326252ZM962.183 0.326252C962.776 0.822384 962.854 1.70533 962.358 2.29836L428.084 640.922C427.588 641.515 426.705 641.594 426.112 641.098C425.519 640.602 425.441 639.719 425.937 639.126L960.211 0.501706C960.707 -0.0913271 961.59 -0.169881 962.183 0.326252ZM987.396 2.29836C987.892 1.70533 987.813 0.822384 987.22 0.326252C986.627 -0.169881 985.744 -0.0913271 985.248 0.501706L450.974 639.126C450.478 639.719 450.557 640.602 451.15 641.098C451.743 641.594 452.626 641.515 453.122 640.922L987.396 2.29836ZM1012.26 0.326256C1012.85 0.822392 1012.93 1.70534 1012.43 2.29837L478.154 640.922C477.658 641.515 476.775 641.594 476.182 641.098C475.589 640.602 475.51 639.719 476.006 639.126L1010.29 0.501701C1010.78 -0.0913301 1011.66 -0.169879 1012.26 0.326256ZM1037.47 2.29836C1037.96 1.70533 1037.88 0.822384 1037.29 0.326252C1036.7 -0.169881 1035.81 -0.0913271 1035.32 0.501706L501.044 639.126C500.548 639.719 500.627 640.602 501.22 641.098C501.813 641.594 502.696 641.515 503.192 640.922L1037.47 2.29836ZM1062.32 0.326252C1062.91 0.822384 1062.99 1.70533 1062.5 2.29836L528.224 640.922C527.727 641.515 526.845 641.594 526.252 641.098C525.659 640.602 525.58 639.719 526.076 639.126L1060.35 0.501706C1060.85 -0.0913271 1061.73 -0.169881 1062.32 0.326252ZM1087.53 2.29837C1088.03 1.70534 1087.95 0.822392 1087.35 0.326256C1086.76 -0.169879 1085.88 -0.0913301 1085.38 0.501701L551.102 639.126C550.606 639.719 550.685 640.602 551.278 641.098C551.871 641.594 552.754 641.515 553.25 640.922L1087.53 2.29837ZM1112.39 0.326252C1112.98 0.822384 1113.06 1.70533 1112.56 2.29836L578.288 640.922C577.792 641.515 576.909 641.594 576.316 641.098C575.722 640.602 575.644 639.719 576.14 639.126L1110.41 0.501706C1110.91 -0.0913271 1111.79 -0.169881 1112.39 0.326252ZM1137.59 2.29836C1138.09 1.70533 1138.01 0.822384 1137.42 0.326252C1136.82 -0.169881 1135.94 -0.0913271 1135.45 0.501706L601.172 639.126C600.676 639.719 600.755 640.602 601.348 641.098C601.941 641.594 602.823 641.515 603.32 640.922L1137.59 2.29836ZM1162.45 0.326252C1163.04 0.822384 1163.12 1.70533 1162.63 2.29836L628.352 640.922C627.856 641.515 626.973 641.594 626.38 641.098C625.787 640.602 625.708 639.719 626.204 639.126L1160.48 0.501706C1160.97 -0.0913271 1161.86 -0.169881 1162.45 0.326252ZM1187.66 2.29837C1188.15 1.70534 1188.07 0.822392 1187.48 0.326256C1186.89 -0.169879 1186.01 -0.0913301 1185.51 0.501701L651.23 639.126C650.734 639.719 650.813 640.602 651.406 641.098C651.999 641.594 652.882 641.515 653.378 640.922L1187.66 2.29837ZM1212.51 0.326252C1213.11 0.822384 1213.19 1.70533 1212.69 2.29836L678.416 640.922C677.92 641.515 677.037 641.594 676.444 641.098C675.851 640.602 675.772 639.719 676.268 639.126L1210.54 0.501706C1211.04 -0.0913271 1211.92 -0.169881 1212.51 0.326252ZM1237.78 2.29836C1238.27 1.70533 1238.19 0.822384 1237.6 0.326252C1237.01 -0.169881 1236.13 -0.0913271 1235.63 0.501706L701.356 639.126C700.86 639.719 700.938 640.602 701.532 641.098C702.125 641.594 703.008 641.515 703.504 640.922L1237.78 2.29836ZM1262.63 0.326256C1263.23 0.822392 1263.31 1.70534 1262.81 2.29837L728.53 640.922C728.034 641.515 727.151 641.594 726.558 641.098C725.965 640.602 725.886 639.719 726.383 639.126L1260.66 0.501701C1261.16 -0.0913301 1262.04 -0.169879 1262.63 0.326256ZM1287.84 2.29836C1288.34 1.70533 1288.26 0.822384 1287.67 0.326252C1287.07 -0.169881 1286.19 -0.0913271 1285.69 0.501706L751.42 639.126C750.924 639.719 751.003 640.602 751.596 641.098C752.189 641.594 753.072 641.515 753.568 640.922L1287.84 2.29836ZM1312.7 0.326252C1313.29 0.822384 1313.37 1.70533 1312.87 2.29836L778.6 640.922C778.104 641.515 777.221 641.594 776.628 641.098C776.035 640.602 775.956 639.719 776.452 639.126L1310.73 0.501706C1311.22 -0.0913271 1312.1 -0.169881 1312.7 0.326252ZM1337.91 2.29836C1338.4 1.70533 1338.32 0.822384 1337.73 0.326252C1337.14 -0.169881 1336.25 -0.0913271 1335.76 0.501706L801.484 639.126C800.988 639.719 801.067 640.602 801.66 641.098C802.253 641.594 803.136 641.515 803.632 640.922L1337.91 2.29836ZM1362.76 0.326252C1363.35 0.822384 1363.43 1.70533 1362.94 2.29836L828.664 640.922C828.168 641.515 827.285 641.594 826.692 641.098C826.099 640.602 826.02 639.719 826.516 639.126L1360.79 0.501706C1361.29 -0.0913271 1362.17 -0.169881 1362.76 0.326252ZM1387.97 2.29836C1388.47 1.70533 1388.39 0.822384 1387.79 0.326252C1387.2 -0.169881 1386.32 -0.0913271 1385.82 0.501706L851.548 639.126C851.052 639.719 851.131 640.602 851.724 641.098C852.317 641.594 853.2 641.515 853.696 640.922L1387.97 2.29836ZM1412.83 0.326252C1413.42 0.822384 1413.5 1.70533 1413 2.29836L878.728 640.922C878.232 641.515 877.349 641.594 876.756 641.098C876.162 640.602 876.084 639.719 876.58 639.126L1410.85 0.501706C1411.35 -0.0913271 1412.23 -0.169881 1412.83 0.326252ZM1438.03 2.29837C1438.53 1.70534 1438.45 0.822392 1437.86 0.326256C1437.26 -0.169879 1436.38 -0.0913301 1435.89 0.501701L901.607 639.126C901.11 639.719 901.189 640.602 901.782 641.098C902.375 641.594 903.258 641.515 903.754 640.922L1438.03 2.29837ZM1462.89 0.326252C1463.48 0.822384 1463.56 1.70533 1463.07 2.29836L928.792 640.922C928.296 641.515 927.413 641.594 926.82 641.098C926.227 640.602 926.148 639.719 926.644 639.126L1460.92 0.501706C1461.41 -0.0913271 1462.3 -0.169881 1462.89 0.326252ZM1488.1 2.29836C1488.59 1.70533 1488.51 0.822384 1487.92 0.326252C1487.33 -0.169881 1486.45 -0.0913271 1485.95 0.501706L951.676 639.126C951.18 639.719 951.258 640.602 951.852 641.098C952.445 641.594 953.328 641.515 953.824 640.922L1488.1 2.29836ZM1512.95 0.326256C1513.55 0.822392 1513.63 1.70534 1513.13 2.29837L978.85 640.922C978.354 641.515 977.471 641.594 976.878 641.098C976.285 640.602 976.206 639.719 976.702 639.126L1510.98 0.501701C1511.48 -0.0913301 1512.36 -0.169879 1512.95 0.326256ZM1538.16 2.29836C1538.66 1.70533 1538.58 0.822384 1537.99 0.326252C1537.39 -0.169881 1536.51 -0.0913271 1536.01 0.501706L1001.74 639.126C1001.24 639.719 1001.32 640.602 1001.92 641.098C1002.51 641.594 1003.39 641.515 1003.89 640.922L1538.16 2.29836Z" fill="black"/>
<path fill-rule="evenodd" clip-rule="evenodd" d="M1966.33 2.29837C1966.82 1.70534 1966.74 0.822392 1966.15 0.326256C1965.56 -0.169879 1964.67 -0.0913301 1964.18 0.501701L1429.9 639.126C1429.4 639.719 1429.48 640.602 1430.07 641.098C1430.67 641.594 1431.55 641.515 1432.05 640.922L1966.33 2.29837ZM1740.82 0.326252C1741.42 0.822384 1741.5 1.70533 1741 2.29836L1206.73 640.922C1206.23 641.515 1205.35 641.594 1204.75 641.098C1204.16 640.602 1204.08 639.719 1204.58 639.126L1738.85 0.501706C1739.35 -0.0913271 1740.23 -0.169881 1740.82 0.326252ZM1565.57 0.326252C1566.16 0.822384 1566.24 1.70533 1565.75 2.29836L1031.47 640.922C1030.98 641.515 1030.09 641.594 1029.5 641.098C1028.91 640.602 1028.83 639.719 1029.33 639.126L1563.6 0.501706C1564.1 -0.0913271 1564.98 -0.169881 1565.57 0.326252ZM1590.6 0.326247C1591.2 0.822376 1591.27 1.70532 1590.78 2.29836L1056.51 640.922C1056.01 641.515 1055.13 641.594 1054.54 641.098C1053.95 640.602 1053.87 639.719 1054.36 639.126L1588.63 0.501712C1589.13 -0.0913241 1590.01 -0.169882 1590.6 0.326247ZM1615.82 2.29836C1616.31 1.70533 1616.23 0.822384 1615.64 0.326252C1615.05 -0.169881 1614.16 -0.0913271 1613.67 0.501706L1079.4 639.126C1078.9 639.719 1078.98 640.602 1079.57 641.098C1080.16 641.594 1081.05 641.515 1081.54 640.922L1615.82 2.29836ZM1640.68 0.326252C1641.27 0.822384 1641.35 1.70533 1640.85 2.29836L1106.58 640.922C1106.08 641.515 1105.2 641.594 1104.61 641.098C1104.02 640.602 1103.94 639.719 1104.43 639.126L1638.71 0.501706C1639.2 -0.0913271 1640.09 -0.169881 1640.68 0.326252ZM1665.89 2.29836C1666.39 1.70533 1666.31 0.822384 1665.72 0.326252C1665.12 -0.169881 1664.24 -0.0913271 1663.74 0.501706L1129.47 639.126C1128.97 639.719 1129.05 640.602 1129.65 641.098C1130.24 641.594 1131.12 641.515 1131.62 640.922L1665.89 2.29836ZM1690.75 0.326247C1691.34 0.822376 1691.42 1.70532 1690.92 2.29836L1156.66 640.922C1156.16 641.515 1155.28 641.594 1154.68 641.098C1154.09 640.602 1154.01 639.719 1154.51 639.126L1688.78 0.501712C1689.27 -0.0913241 1690.16 -0.169882 1690.75 0.326247ZM1715.96 2.29836C1716.46 1.70533 1716.38 0.822384 1715.79 0.326252C1715.19 -0.169881 1714.31 -0.0913271 1713.81 0.501706L1179.54 639.126C1179.04 639.719 1179.12 640.602 1179.72 641.098C1180.31 641.594 1181.19 641.515 1181.69 640.922L1715.96 2.29836ZM1766.03 2.29836C1766.53 1.70532 1766.45 0.822376 1765.86 0.326247C1765.26 -0.169882 1764.38 -0.0913241 1763.88 0.501712L1229.62 639.126C1229.12 639.719 1229.2 640.602 1229.79 641.098C1230.38 641.594 1231.27 641.515 1231.76 640.922L1766.03 2.29836ZM1790.89 0.326252C1791.49 0.822384 1791.56 1.70533 1791.07 2.29836L1256.79 640.922C1256.3 641.515 1255.42 641.594 1254.82 641.098C1254.23 640.602 1254.15 639.719 1254.65 639.126L1788.92 0.501706C1789.42 -0.0913271 1790.3 -0.169881 1790.89 0.326252ZM1816.11 2.29836C1816.6 1.70533 1816.52 0.822384 1815.93 0.326252C1815.34 -0.169881 1814.45 -0.0913271 1813.96 0.501706L1279.68 639.126C1279.19 639.719 1279.27 640.602 1279.86 641.098C1280.45 641.594 1281.34 641.515 1281.83 640.922L1816.11 2.29836ZM1840.97 0.326252C1841.56 0.822384 1841.64 1.70533 1841.14 2.29836L1306.87 640.922C1306.37 641.515 1305.49 641.594 1304.9 641.098C1304.3 640.602 1304.23 639.719 1304.72 639.126L1839 0.501706C1839.49 -0.0913271 1840.38 -0.169881 1840.97 0.326252ZM1866.18 2.29837C1866.68 1.70534 1866.6 0.822392 1866.01 0.326256C1865.41 -0.169879 1864.53 -0.0913301 1864.03 0.501701L1329.75 639.126C1329.26 639.719 1329.34 640.602 1329.93 641.098C1330.52 641.594 1331.41 641.515 1331.9 640.922L1866.18 2.29837ZM1891.04 0.326252C1891.63 0.822384 1891.71 1.70533 1891.21 2.29836L1356.94 640.922C1356.44 641.515 1355.56 641.594 1354.97 641.098C1354.37 640.602 1354.3 639.719 1354.79 639.126L1889.07 0.501706C1889.56 -0.0913271 1890.44 -0.169881 1891.04 0.326252ZM1916.25 2.29836C1916.75 1.70533 1916.67 0.822384 1916.08 0.326252C1915.48 -0.169881 1914.6 -0.0913271 1914.1 0.501706L1379.83 639.126C1379.33 639.719 1379.41 640.602 1380.01 641.098C1380.6 641.594 1381.48 641.515 1381.98 640.922L1916.25 2.29836ZM1941.11 0.326252C1941.71 0.822384 1941.78 1.70533 1941.29 2.29836L1407.01 640.922C1406.52 641.515 1405.64 641.594 1405.04 641.098C1404.45 640.602 1404.37 639.719 1404.87 639.126L1939.14 0.501706C1939.64 -0.0913271 1940.52 -0.169881 1941.11 0.326252ZM1991.18 0.326252C1991.78 0.822384 1991.85 1.70533 1991.36 2.29836L1457.08 640.922C1456.59 641.515 1455.71 641.594 1455.11 641.098C1454.52 640.602 1454.44 639.719 1454.94 639.126L1989.21 0.501706C1989.71 -0.0913271 1990.59 -0.169881 1991.18 0.326252ZM2016.4 2.29836C2016.89 1.70533 2016.81 0.822384 2016.22 0.326252C2015.63 -0.169881 2014.74 -0.0913271 2014.25 0.501706L1479.97 639.126C1479.48 639.719 1479.56 640.602 1480.15 641.098C1480.74 641.594 1481.63 641.515 1482.12 640.922L2016.4 2.29836ZM2041.26 0.326256C2041.85 0.822392 2041.93 1.70534 2041.43 2.29837L1507.15 640.922C1506.66 641.515 1505.77 641.594 1505.18 641.098C1504.59 640.602 1504.51 639.719 1505.01 639.126L2039.29 0.501701C2039.78 -0.0913301 2040.66 -0.169879 2041.26 0.326256ZM2066.47 2.29836C2066.96 1.70533 2066.88 0.822384 2066.29 0.326252C2065.7 -0.169881 2064.81 -0.0913271 2064.32 0.501706L1530.04 639.126C1529.55 639.719 1529.63 640.602 1530.22 641.098C1530.81 641.594 1531.7 641.515 1532.19 640.922L2066.47 2.29836ZM2091.32 0.326252C2091.91 0.822384 2091.99 1.70533 2091.5 2.29836L1557.22 640.922C1556.73 641.515 1555.84 641.594 1555.25 641.098C1554.66 640.602 1554.58 639.719 1555.08 639.126L2089.35 0.501706C2089.85 -0.0913271 2090.73 -0.169881 2091.32 0.326252ZM2116.53 2.29837C2117.03 1.70534 2116.95 0.822392 2116.35 0.326256C2115.76 -0.169879 2114.88 -0.0913301 2114.38 0.501701L1580.1 639.126C1579.61 639.719 1579.68 640.602 1580.28 641.098C1580.87 641.594 1581.75 641.515 1582.25 640.922L2116.53 2.29837ZM2141.39 0.326252C2141.98 0.822384 2142.06 1.70533 2141.56 2.29836L1607.29 640.922C1606.79 641.515 1605.91 641.594 1605.32 641.098C1604.72 640.602 1604.64 639.719 1605.14 639.126L2139.41 0.501706C2139.91 -0.0913271 2140.79 -0.169881 2141.39 0.326252ZM2166.59 2.29836C2167.09 1.70533 2167.01 0.822384 2166.42 0.326252C2165.82 -0.169881 2164.94 -0.0913271 2164.45 0.501706L1630.17 639.126C1629.68 639.719 1629.75 640.602 1630.35 641.098C1630.94 641.594 1631.82 641.515 1632.32 640.922L2166.59 2.29836ZM2191.45 0.326252C2192.04 0.822384 2192.12 1.70533 2191.63 2.29836L1657.35 640.922C1656.86 641.515 1655.97 641.594 1655.38 641.098C1654.79 640.602 1654.71 639.719 1655.2 639.126L2189.48 0.501706C2189.97 -0.0913271 2190.86 -0.169881 2191.45 0.326252ZM2216.66 2.29837C2217.15 1.70534 2217.07 0.822392 2216.48 0.326256C2215.89 -0.169879 2215.01 -0.0913301 2214.51 0.501701L1680.23 639.126C1679.73 639.719 1679.81 640.602 1680.41 641.098C1681 641.594 1681.88 641.515 1682.38 640.922L2216.66 2.29837ZM2241.51 0.326252C2242.11 0.822384 2242.19 1.70533 2241.69 2.29836L1707.42 640.922C1706.92 641.515 1706.04 641.594 1705.44 641.098C1704.85 640.602 1704.77 639.719 1705.27 639.126L2239.54 0.501706C2240.04 -0.0913271 2240.92 -0.169881 2241.51 0.326252ZM2266.78 2.29836C2267.27 1.70533 2267.19 0.822384 2266.6 0.326252C2266.01 -0.169881 2265.13 -0.0913271 2264.63 0.501706L1730.36 639.126C1729.86 639.719 1729.94 640.602 1730.53 641.098C1731.12 641.594 1732.01 641.515 1732.5 640.922L2266.78 2.29836ZM2291.63 0.326256C2292.23 0.822392 2292.31 1.70534 2291.81 2.29837L1757.53 640.922C1757.03 641.515 1756.15 641.594 1755.56 641.098C1754.96 640.602 1754.89 639.719 1755.38 639.126L2289.66 0.501701C2290.16 -0.0913301 2291.04 -0.169879 2291.63 0.326256ZM2316.84 2.29836C2317.34 1.70533 2317.26 0.822384 2316.67 0.326252C2316.07 -0.169881 2315.19 -0.0913271 2314.69 0.501706L1780.42 639.126C1779.92 639.719 1780 640.602 1780.6 641.098C1781.19 641.594 1782.07 641.515 1782.57 640.922L2316.84 2.29836ZM2341.7 0.326252C2342.29 0.822384 2342.37 1.70533 2341.87 2.29836L1807.6 640.922C1807.1 641.515 1806.22 641.594 1805.63 641.098C1805.03 640.602 1804.96 639.719 1805.45 639.126L2339.73 0.501706C2340.22 -0.0913271 2341.1 -0.169881 2341.7 0.326252ZM2366.91 2.29836C2367.4 1.70533 2367.32 0.822384 2366.73 0.326252C2366.14 -0.169881 2365.25 -0.0913271 2364.76 0.501706L1830.48 639.126C1829.99 639.719 1830.07 640.602 1830.66 641.098C1831.25 641.594 1832.14 641.515 1832.63 640.922L2366.91 2.29836ZM2391.76 0.326252C2392.35 0.822384 2392.43 1.70533 2391.94 2.29836L1857.66 640.922C1857.17 641.515 1856.28 641.594 1855.69 641.098C1855.1 640.602 1855.02 639.719 1855.52 639.126L2389.79 0.501706C2390.29 -0.0913271 2391.17 -0.169881 2391.76 0.326252ZM2416.97 2.29836C2417.47 1.70533 2417.39 0.822384 2416.79 0.326252C2416.2 -0.169881 2415.32 -0.0913271 2414.82 0.501706L1880.55 639.126C1880.05 639.719 1880.13 640.602 1880.72 641.098C1881.32 641.594 1882.2 641.515 1882.7 640.922L2416.97 2.29836ZM2441.83 0.326252C2442.42 0.822384 2442.5 1.70533 2442 2.29836L1907.73 640.922C1907.23 641.515 1906.35 641.594 1905.76 641.098C1905.16 640.602 1905.08 639.719 1905.58 639.126L2439.85 0.501706C2440.35 -0.0913271 2441.23 -0.169881 2441.83 0.326252ZM2467.03 2.29837C2467.53 1.70534 2467.45 0.822392 2466.86 0.326256C2466.26 -0.169879 2465.38 -0.0913301 2464.89 0.501701L1930.61 639.126C1930.11 639.719 1930.19 640.602 1930.78 641.098C1931.37 641.594 1932.26 641.515 1932.75 640.922L2467.03 2.29837ZM2491.89 0.326252C2492.48 0.822384 2492.56 1.70533 2492.07 2.29836L1957.79 640.922C1957.3 641.515 1956.41 641.594 1955.82 641.098C1955.23 640.602 1955.15 639.719 1955.64 639.126L2489.92 0.501706C2490.41 -0.0913271 2491.3 -0.169881 2491.89 0.326252ZM2517.1 2.29836C2517.59 1.70533 2517.51 0.822384 2516.92 0.326252C2516.33 -0.169881 2515.45 -0.0913271 2514.95 0.501706L1980.68 639.126C1980.18 639.719 1980.26 640.602 1980.85 641.098C1981.44 641.594 1982.33 641.515 1982.82 640.922L2517.1 2.29836ZM2541.95 0.326256C2542.55 0.822392 2542.63 1.70534 2542.13 2.29837L2007.85 640.922C2007.35 641.515 2006.47 641.594 2005.88 641.098C2005.28 640.602 2005.21 639.719 2005.7 639.126L2539.98 0.501701C2540.48 -0.0913301 2541.36 -0.169879 2541.95 0.326256ZM2567.16 2.29836C2567.66 1.70533 2567.58 0.822384 2566.99 0.326252C2566.39 -0.169881 2565.51 -0.0913271 2565.01 0.501706L2030.74 639.126C2030.24 639.719 2030.32 640.602 2030.92 641.098C2031.51 641.594 2032.39 641.515 2032.89 640.922L2567.16 2.29836Z" fill="black"/>
</svg>
