<svg width="504" height="118" viewBox="0 0 504 118" fill="none" xmlns="http://www.w3.org/2000/svg">
<path d="M331.959 52.3246C364.303 53.2778 396.662 53.2387 429.014 52.3246C431.311 52.2621 431.315 48.6957 429.014 48.7582C396.67 49.6645 364.311 49.7113 331.959 48.7582C329.658 48.6879 329.662 52.2621 331.959 52.3246Z" fill="black"/>
<path d="M287.468 52.3247L318.866 52.3247C321.167 52.3247 321.167 48.7583 318.866 48.7583L287.468 48.7583C285.167 48.7583 285.167 52.3247 287.468 52.3247Z" fill="black"/>
<path d="M0.239075 15.7448C7.69217 29.3928 15.1651 43.0568 24.4851 55.5458C20.0515 55.9676 20.0593 62.956 24.614 62.663C48.235 61.1552 71.911 62.2997 95.532 60.995C94.5515 61.7294 93.5554 62.452 92.5086 63.1552C88.7117 65.7021 92.2742 71.8896 96.1102 69.3154C99.5555 67.0029 102.954 64.6279 106.301 62.1865C111.672 66.4248 117.278 69.7959 124.461 69.7959L178.035 69.7959L232.742 69.7959H243.601C245.414 69.7959 246.48 68.4873 247.695 67.3428C249.773 65.3897 251.929 63.5303 254.113 61.71C257.558 64.3662 261.101 66.8975 264.726 69.3077C268.566 71.8663 272.136 65.6827 268.328 63.1475C267.226 62.4131 266.199 61.5967 265.121 60.8389C325.344 62.5655 385.591 62.9053 445.831 63.5889C430.046 76.2179 414.589 89.7259 401.019 104.62C397.987 107.94 402.749 112.846 405.866 109.839C406.585 109.983 407.378 109.913 408.19 109.507C438.526 94.4836 469.807 81.3386 500.96 68.1157C501.839 67.7407 502.359 67.182 502.625 66.5414C503.476 65.7836 503.996 64.5922 503.964 63.3891C504.183 61.4907 503.113 59.4203 500.671 59.3422C472.855 39.9672 444.878 20.8263 416.698 1.99426C416.663 1.95129 416.636 1.90441 416.609 1.86535C415.952 0.951289 415.081 0.48643 414.179 0.35363C410.515 -1.48227 407.351 4.30673 411.019 6.74813C411.226 6.88875 411.433 7.03329 411.648 7.17001C423.25 23.361 434.058 40.08 445.394 56.451C385.132 55.7635 324.874 55.4276 264.624 53.6893C265.85 52.826 267.077 51.9627 268.327 51.1307C272.135 48.5955 268.569 42.4119 264.725 44.9705C261.12 47.3728 257.67 49.9197 254.268 52.5486C252.655 51.2166 251.014 49.9353 249.44 48.5408C247.913 47.1853 246.014 44.4939 243.69 44.4939H234.389L178.041 44.4939H125.873C117.83 44.4939 112.103 47.8259 106.498 52.1775C103.065 49.7009 99.5841 47.3103 96.1112 44.9822C92.2753 42.4119 88.7089 48.5955 92.5096 51.1424C93.7713 51.9862 94.9901 52.8963 96.1815 53.8299C94.0487 53.9549 91.9081 54.076 89.7753 54.1659C81.2089 40.2319 73.2672 25.9359 64.6382 12.0409C62.2202 8.14246 56.0485 11.7205 58.4821 15.6464C66.4235 28.4314 73.7981 41.5443 81.5991 54.4163C81.1577 54.4281 80.7124 54.4398 80.271 54.4437C80.2163 54.3109 80.1851 54.182 80.0874 54.0452C70.6694 41.4832 63.1424 27.7133 55.6304 13.9593C54.5288 11.9359 51.4468 13.7405 52.5445 15.764C59.7867 29.037 67.0645 42.307 76.0325 54.51C74.5637 54.5334 73.0989 54.5607 71.638 54.5764C71.5755 54.4436 71.5247 54.3068 71.4427 54.1662C62.8763 40.2322 54.9347 25.9362 46.3057 12.0412C43.8877 8.14282 37.7079 11.7287 40.1454 15.6467C48.1298 28.4987 55.5405 41.6937 63.3915 54.6267C62.9384 54.6267 62.4852 54.6306 62.032 54.6384C61.9813 54.447 61.9031 54.2517 61.7586 54.0486C52.3328 41.4866 44.8056 27.7166 37.3016 13.9626C36.2 11.9392 33.1181 13.7438 34.2158 15.7673C41.4892 29.0913 48.7937 42.4233 57.8137 54.6653C57.2317 54.6692 56.6496 54.6692 56.0676 54.677C55.9934 54.509 55.927 54.3411 55.8215 54.1731C47.2551 40.2391 39.3176 25.9431 30.6846 12.0481C28.2666 8.14969 22.0947 11.7356 24.5283 15.6536C32.5361 28.5446 39.9663 41.7826 47.8483 54.7586C47.3835 54.7625 46.9187 54.7703 46.4539 54.7742C46.4148 54.5398 46.321 54.2977 46.1335 54.0516C36.7155 41.4896 29.1805 27.7196 21.6765 13.9656C20.5749 11.9422 17.4929 13.7468 18.5906 15.7703C25.8992 29.1613 33.2386 42.5553 42.3176 54.8483C40.8293 54.8834 39.3371 54.9264 37.8488 54.9733C37.759 54.7115 37.6418 54.4459 37.4777 54.1764C28.9113 40.2424 20.9698 25.9464 12.3408 12.0514C9.92276 8.15298 3.75097 11.7311 6.18457 15.6569C14.2979 28.7229 21.8255 42.1449 29.8215 55.2899C29.2395 55.3172 28.6613 55.3446 28.0793 55.3797C28.1965 54.9813 28.134 54.5243 27.7864 54.0594C18.3606 41.4974 10.8333 27.7274 3.32935 13.9734C2.21215 11.9265 -0.865904 13.7273 0.235596 15.7429L0.239075 15.7448ZM118.939 62.4828C118.732 62.4281 118.744 62.4047 118.939 62.4828V62.4828ZM453.819 66.3148C465.069 65.1781 476.327 65.6781 487.596 66.1117C464.596 75.8734 441.592 85.7137 419.006 96.4007C430.037 85.7327 441.858 75.7797 453.818 66.3147L453.819 66.3148ZM487.616 58.971C477.21 58.5686 466.819 58.1155 456.425 58.9358C456.124 58.7132 455.781 58.5374 455.421 58.4046C446.085 45.1816 437.21 31.6466 428.089 18.2756C448.023 31.7056 467.866 45.2676 487.616 58.9706L487.616 58.971ZM119.486 51.6233H125.888L178.056 51.6233L231.005 51.6233H242.31C243.756 52.9788 245.228 54.3069 246.705 55.6233C247.295 56.1428 247.904 56.635 248.502 57.1467C247.123 58.3186 245.748 59.4944 244.404 60.7092C242.595 62.3147 241.435 62.6194 242.029 62.6623H232.756L178.049 62.6623H127.408L121.025 62.6623C120.236 62.6623 119.705 62.6115 119.345 62.5607C117.306 60.6584 115.185 58.8419 112.994 57.0959C115.208 55.3264 117.38 53.5178 119.486 51.6232L119.486 51.6233Z" fill="black"/>
<path d="M84.339 69.8446C75.7726 83.7706 67.831 98.0746 59.206 111.962C56.7646 115.883 62.9404 119.462 65.3662 115.563C73.9951 101.676 81.9362 87.3722 90.4992 73.4462C92.9172 69.5126 86.7453 65.9267 84.339 69.8446V69.8446Z" fill="black"/>
<path d="M77.7284 71.7544C68.3026 84.3164 60.7754 98.0864 53.2714 111.84C52.1698 113.868 55.248 115.665 56.3573 113.645C63.8612 99.8911 71.3883 86.1221 80.8143 73.5591C82.1893 71.7153 79.0877 69.9341 77.7284 71.7544Z" fill="black"/>
<path d="M66.0001 69.8446C57.4337 83.7706 49.4921 98.0746 40.8631 111.962C38.4256 115.883 44.6053 119.462 47.0233 115.563C55.66 101.676 63.5973 87.3722 72.1603 73.4462C74.5705 69.5126 68.4025 65.9267 66.0001 69.8446V69.8446Z" fill="black"/>
<path d="M59.3788 71.7544C49.953 84.3164 42.4258 98.0864 34.9218 111.84C33.8202 113.868 36.8984 115.665 38.0077 113.645C45.5116 99.8911 53.0386 86.1221 62.4646 73.5591C63.8435 71.7153 60.7459 69.9341 59.3788 71.7544Z" fill="black"/>
<path d="M54.3899 68.3246C65.1599 67.9652 75.9329 67.5902 86.7139 67.5394C89.0147 67.5277 89.0147 63.9613 86.7139 63.973C66.7219 64.0746 46.7569 65.305 26.7729 65.4027C24.4721 65.4144 24.4643 68.9769 26.7729 68.9691C28.8159 68.9574 30.8627 68.8949 32.9057 68.8675C32.5854 69.1214 32.2885 69.4261 32.0385 69.8363C23.4721 83.7623 15.5305 98.0663 6.90147 111.953C4.46397 115.875 10.6437 119.453 13.0617 115.555C21.6906 101.668 29.6317 87.3639 38.1947 73.4379C39.3666 71.5395 38.5189 69.727 37.0697 68.7973C42.0463 68.6918 47.0267 68.5629 52.0037 68.3988C51.3865 68.6567 50.8162 69.1176 50.3748 69.8324C41.8084 83.7584 33.8668 98.0624 25.2378 111.949C22.8003 115.871 28.98 119.449 31.398 115.551C40.0269 101.664 47.968 87.36 56.531 73.434C57.9568 71.1215 56.4021 68.9419 54.3904 68.3247L54.3899 68.3246Z" fill="black"/>
<path d="M43.7599 71.7544C34.3341 84.3164 26.8069 98.0864 19.2989 111.84C18.2012 113.868 21.2755 115.665 22.3848 113.645C29.8887 99.8911 37.4198 86.1221 46.8458 73.5591C48.2247 71.7153 45.1231 69.9341 43.7599 71.7544Z" fill="black"/>
<path d="M25.4185 71.7544C15.9927 84.3164 8.46554 98.0864 0.957539 111.84C-0.144061 113.868 2.93416 115.665 4.03566 113.645C11.5396 99.8911 19.0667 86.1221 28.4967 73.5591C29.8834 71.7153 26.7818 69.9341 25.4185 71.7544Z" fill="black"/>
</svg>
