<svg width="25" height="25" viewBox="0 0 25 25" fill="none" xmlns="http://www.w3.org/2000/svg">
<path d="M23.2385 9.94813C22.1544 8.4881 20.7855 7.29986 19.2567 6.39579L24.8515 0.734193L24.126 0L18.318 5.87727C16.521 5.00005 14.535 4.51471 12.5001 4.51471C8.29889 4.51471 4.28393 6.54505 1.76147 9.946L0.101381 12.1879C-0.0337938 12.3723 -0.0337938 12.6276 0.101381 12.8121L1.76147 15.0519C2.84564 16.5119 4.21454 17.7001 5.7433 18.6042L0.148516 24.2658L0.874044 25L6.68196 19.1227C8.479 19.9979 10.465 20.4832 12.4999 20.4832C16.7011 20.4832 20.7161 18.4529 23.2385 15.0519L24.8986 12.8121C25.0338 12.6277 25.0338 12.3724 24.8986 12.1879L23.2385 9.94813ZM2.58109 14.4277L1.15065 12.499L2.58109 10.5703C4.91109 7.42855 8.61847 5.55168 12.4999 5.55168C14.2563 5.55168 15.9674 5.95395 17.5415 6.66337L15.0719 9.16215C14.3588 8.5981 13.4734 8.24766 12.4999 8.24766C10.1841 8.24766 8.29878 10.1555 8.29878 12.499C8.29878 13.4841 8.64506 14.38 9.20248 15.1017L6.49119 17.8454C4.98299 16.9971 3.63651 15.8502 2.58121 14.4277H2.58109ZM15.6764 12.499C15.6764 14.2701 14.2522 15.7134 12.4999 15.7134C11.8092 15.7134 11.174 15.4831 10.6514 15.1017L15.0719 10.6284C15.4489 11.1573 15.6764 11.8 15.6764 12.499ZM9.32345 12.499C9.32345 10.7279 10.7477 9.28457 12.4999 9.28457C13.1907 9.28457 13.8259 9.51486 14.3485 9.89629L9.92795 14.3696C9.55102 13.8407 9.32345 13.198 9.32345 12.499ZM22.4188 14.4277C20.0886 17.5716 16.3814 19.4463 12.4999 19.4463C10.7436 19.4463 9.0325 19.044 7.45843 18.3346L9.92795 15.8356C10.6411 16.3999 11.5265 16.7503 12.4999 16.7503C14.8158 16.7503 16.7011 14.8425 16.7011 12.499C16.7011 11.5139 16.3548 10.618 15.7974 9.89629L18.5087 7.15262C20.0171 7.9988 21.3654 9.14568 22.421 10.5703L23.8491 12.499L22.4188 14.4277Z" fill="white"/>
</svg>
