<svg width="40" height="40" viewBox="0 0 389 456" fill="none" xmlns="http://www.w3.org/2000/svg">
<path fill-rule="evenodd" clip-rule="evenodd" d="M0 415.418V40.4728C0 17.9884 18.5487 0 41.0374 0H97.8135C120.298 0 138.286 17.9876 138.286 40.4728V415.418C138.286 437.902 120.299 455.89 97.8135 455.89H41.0374C18.553 455.89 0 437.903 0 415.418V415.418ZM251.278 415.418V40.4728C251.278 17.9884 269.266 0 291.751 0H348.527C371.012 0 389 17.9876 389 40.4728V415.418C389 437.902 371.012 455.89 348.527 455.89H291.751C269.267 455.89 251.278 437.903 251.278 415.418V415.418ZM274.327 415.418V40.4728C274.327 30.9179 282.198 23.0464 291.754 23.0464H348.53C358.085 23.0464 365.956 30.9177 365.956 40.4728V415.418C365.956 424.973 358.085 432.844 348.53 432.844H291.754C282.199 432.844 274.327 424.973 274.327 415.418ZM23.6101 415.418V40.4728C23.6101 30.9179 31.4814 23.0464 41.0366 23.0464H97.8126C107.368 23.0464 115.239 30.9177 115.239 40.4728V415.418C115.239 424.973 107.368 432.844 97.8126 432.844H41.0366C31.4816 432.844 23.6101 424.973 23.6101 415.418V415.418Z" fill="white"/>
</svg>
