<svg width="796" height="106" viewBox="0 0 796 106" fill="none" xmlns="http://www.w3.org/2000/svg">
<path d="M0.912642 104V1.45454H41.37C49.1477 1.45454 55.7738 2.93998 61.2482 5.91086C66.7227 8.84836 70.8952 12.9375 73.766 18.1783C76.6701 23.3857 78.1222 29.3942 78.1222 36.2038C78.1222 43.0135 76.6534 49.022 73.7159 54.2294C70.7784 59.4368 66.5224 63.4925 60.9478 66.3967C55.4066 69.3008 48.6971 70.7528 40.8192 70.7528H15.0327V53.3782H37.3143C41.4869 53.3782 44.9251 52.6605 47.6289 51.2251C50.3661 49.7564 52.4023 47.7369 53.7376 45.1665C55.1062 42.5629 55.7905 39.5753 55.7905 36.2038C55.7905 32.799 55.1062 29.8281 53.7376 27.2912C52.4023 24.7209 50.3661 22.7347 47.6289 21.3327C44.8917 19.8974 41.4201 19.1797 37.2141 19.1797H22.5934V104H0.912642ZM186.438 52.7273C186.438 63.9098 184.319 73.4233 180.079 81.2678C175.873 89.1122 170.132 95.104 162.855 99.2433C155.611 103.349 147.466 105.402 138.42 105.402C129.307 105.402 121.129 103.332 113.885 99.1932C106.642 95.054 100.917 89.0621 96.711 81.2177C92.5051 73.3732 90.4021 63.8764 90.4021 52.7273C90.4021 41.5447 92.5051 32.0312 96.711 24.1868C100.917 16.3423 106.642 10.3672 113.885 6.26136C121.129 2.12216 129.307 0.052553 138.42 0.052553C147.466 0.052553 155.611 2.12216 162.855 6.26136C170.132 10.3672 175.873 16.3423 180.079 24.1868C184.319 32.0312 186.438 41.5447 186.438 52.7273ZM164.457 52.7273C164.457 45.4837 163.372 39.375 161.203 34.4013C159.066 29.4276 156.045 25.6555 152.14 23.0852C148.234 20.5149 143.661 19.2298 138.42 19.2298C133.179 19.2298 128.606 20.5149 124.701 23.0852C120.795 25.6555 117.758 29.4276 115.588 34.4013C113.451 39.375 112.383 45.4837 112.383 52.7273C112.383 59.9709 113.451 66.0795 115.588 71.0533C117.758 76.027 120.795 79.799 124.701 82.3693C128.606 84.9396 133.179 86.2248 138.42 86.2248C143.661 86.2248 148.234 84.9396 152.14 82.3693C156.045 79.799 159.066 76.027 161.203 71.0533C163.372 66.0795 164.457 59.9709 164.457 52.7273ZM202.499 104V1.45454H242.956C250.7 1.45454 257.31 2.83984 262.784 5.61044C268.292 8.34765 272.481 12.2365 275.352 17.277C278.256 22.2841 279.708 28.1758 279.708 34.9521C279.708 41.7617 278.239 47.62 275.302 52.527C272.364 57.4006 268.108 61.1392 262.534 63.7429C256.993 66.3466 250.283 67.6484 242.405 67.6484H215.317V50.2237H238.9C243.039 50.2237 246.478 49.6562 249.215 48.5213C251.952 47.3864 253.988 45.6839 255.324 43.4141C256.692 41.1442 257.376 38.3235 257.376 34.9521C257.376 31.5472 256.692 28.6765 255.324 26.3398C253.988 24.0032 251.935 22.234 249.165 21.0323C246.428 19.7972 242.973 19.1797 238.8 19.1797H224.179V104H202.499ZM257.877 57.3338L283.363 104H259.429L234.494 57.3338H257.877ZM291.124 19.3299V1.45454H375.344V19.3299H343.949V104H322.519V19.3299H291.124ZM389.213 104V1.45454H457.11V19.3299H410.894V43.7646H452.603V61.6399H410.894V104H389.213ZM565.927 52.7273C565.927 63.9098 563.807 73.4233 559.568 81.2678C555.362 89.1122 549.62 95.104 542.343 99.2433C535.1 103.349 526.955 105.402 517.908 105.402C508.796 105.402 500.617 103.332 493.374 99.1932C486.13 95.054 480.405 89.0621 476.199 81.2177C471.993 73.3732 469.89 63.8764 469.89 52.7273C469.89 41.5447 471.993 32.0312 476.199 24.1868C480.405 16.3423 486.13 10.3672 493.374 6.26136C500.617 2.12216 508.796 0.052553 517.908 0.052553C526.955 0.052553 535.1 2.12216 542.343 6.26136C549.62 10.3672 555.362 16.3423 559.568 24.1868C563.807 32.0312 565.927 41.5447 565.927 52.7273ZM543.945 52.7273C543.945 45.4837 542.861 39.375 540.691 34.4013C538.554 29.4276 535.533 25.6555 531.628 23.0852C527.722 20.5149 523.149 19.2298 517.908 19.2298C512.668 19.2298 508.095 20.5149 504.189 23.0852C500.283 25.6555 497.246 29.4276 495.076 34.4013C492.94 39.375 491.872 45.4837 491.872 52.7273C491.872 59.9709 492.94 66.0795 495.076 71.0533C497.246 76.027 500.283 79.799 504.189 82.3693C508.095 84.9396 512.668 86.2248 517.908 86.2248C523.149 86.2248 527.722 84.9396 531.628 82.3693C535.533 79.799 538.554 76.027 540.691 71.0533C542.861 66.0795 543.945 59.9709 543.945 52.7273ZM581.987 104V1.45454H603.668V86.1246H647.63V104H581.987ZM683.669 1.45454V104H661.988V1.45454H683.669ZM795.74 52.7273C795.74 63.9098 793.62 73.4233 789.381 81.2678C785.175 89.1122 779.434 95.104 772.157 99.2433C764.913 103.349 756.768 105.402 747.722 105.402C738.609 105.402 730.431 103.332 723.187 99.1932C715.944 95.054 710.219 89.0621 706.013 81.2177C701.807 73.3732 699.704 63.8764 699.704 52.7273C699.704 41.5447 701.807 32.0312 706.013 24.1868C710.219 16.3423 715.944 10.3672 723.187 6.26136C730.431 2.12216 738.609 0.052553 747.722 0.052553C756.768 0.052553 764.913 2.12216 772.157 6.26136C779.434 10.3672 785.175 16.3423 789.381 24.1868C793.62 32.0312 795.74 41.5447 795.74 52.7273ZM773.759 52.7273C773.759 45.4837 772.674 39.375 770.504 34.4013C768.368 29.4276 765.347 25.6555 761.441 23.0852C757.536 20.5149 752.963 19.2298 747.722 19.2298C742.481 19.2298 737.908 20.5149 734.002 23.0852C730.097 25.6555 727.059 29.4276 724.89 34.4013C722.753 39.375 721.685 45.4837 721.685 52.7273C721.685 59.9709 722.753 66.0795 724.89 71.0533C727.059 76.027 730.097 79.799 734.002 82.3693C737.908 84.9396 742.481 86.2248 747.722 86.2248C752.963 86.2248 757.536 84.9396 761.441 82.3693C765.347 79.799 768.368 76.027 770.504 71.0533C772.674 66.0795 773.759 59.9709 773.759 52.7273Z" fill="#6B3BE7"/>
</svg>
