<svg width="564" height="75" viewBox="0 0 564 75" fill="none" xmlns="http://www.w3.org/2000/svg">
<g clip-path="url(#clip0_615_3)">
<path d="M15.376 73.7221H0V0.994141H28.693C33.985 0.994141 38.5253 1.95847 42.314 3.88714C42.474 3.96856 42.633 4.0519 42.791 4.13714C46.5435 6.10459 49.6364 9.12944 51.687 12.8371C53.1858 15.5836 54.1461 18.5912 54.516 21.6981C54.6803 23.0053 54.7615 24.3217 54.759 25.6391C54.774 28.0039 54.4949 30.3613 53.928 32.6571C53.4235 34.6727 52.652 36.6119 51.634 38.4231C49.5386 42.1284 46.394 45.1311 42.596 47.0531C40.396 48.1839 38.046 48.9954 35.617 49.4631C33.3597 49.9158 30.9217 50.1421 28.303 50.1421H10.014V37.8201H25.817C26.8583 37.8247 27.8985 37.7519 28.929 37.6021C30.0217 37.4381 31.0217 37.1811 31.929 36.8311C32.347 36.6709 32.7547 36.4852 33.15 36.2751C34.378 35.6345 35.4664 34.7561 36.352 33.6911C36.7867 33.1606 37.1654 32.5866 37.482 31.9781C38.1553 30.6719 38.5946 29.2579 38.78 27.8001C38.875 27.0838 38.9218 26.3618 38.92 25.6391C38.9259 24.5654 38.8199 23.494 38.604 22.4421C38.3789 21.3475 38.0012 20.2898 37.482 19.3001C36.5667 17.579 35.1623 16.1674 33.446 15.2431C33.3422 15.1856 33.2375 15.1296 33.132 15.0751C32.1942 14.5983 31.1996 14.2428 30.172 14.0171C29.2647 13.8098 28.2837 13.6738 27.229 13.6091C26.7352 13.5794 26.2407 13.5647 25.746 13.5651H15.376V73.7221Z" fill="#6B3BE7" stroke="#6B3BE7" stroke-width="0.944882" stroke-linecap="round"/>
<path d="M131.606 37.359C131.606 45.2896 130.108 52.0366 127.114 57.5999C125.273 61.0903 122.812 64.2166 119.852 66.8259C118.322 68.1571 116.662 69.3314 114.898 70.3309C109.748 73.2549 103.966 74.7169 97.5508 74.7169C93.8894 74.7424 90.2449 74.2189 86.7388 73.1639C84.4437 72.4604 82.2338 71.5043 80.1498 70.313C75.2957 67.5228 71.2851 63.4736 68.5418 58.5929C68.3457 58.2533 68.155 57.9106 67.9698 57.5649C66.284 54.368 65.0855 50.9371 64.4138 47.386C63.8398 44.478 63.5348 41.3586 63.4988 38.028C63.4962 37.805 63.4949 37.582 63.4948 37.359C63.4801 34.3167 63.7273 31.2788 64.2338 28.2789C64.9531 24.1409 66.1984 20.4203 67.9698 17.1169C70.9524 11.5536 75.0124 7.31028 80.1498 4.38695C84.573 1.89324 89.5023 0.43053 94.5698 0.107949C95.5618 0.0360673 96.5561 0.000376905 97.5508 0.000948819C101.38 -0.0267318 105.189 0.551411 108.838 1.71395C110.943 2.39766 112.973 3.29325 114.898 4.38695C119.763 7.16591 123.786 11.2099 126.54 16.0899C126.736 16.4292 126.928 16.7716 127.114 17.1169C128.807 20.3159 130.01 23.7508 130.684 27.3069C131.26 30.2196 131.566 33.3456 131.602 36.685C131.604 36.9096 131.606 37.1343 131.606 37.359ZM116.017 37.359C116.017 32.2216 115.253 27.8893 113.726 24.3619C113.063 22.8009 112.209 21.3286 111.182 19.9789C110.094 18.5555 108.775 17.3242 107.281 16.3359C104.511 14.5133 101.267 13.6019 97.5508 13.6019C95.7479 13.5885 93.9522 13.8295 92.2168 14.3179C90.6578 14.7645 89.1756 15.4449 87.8208 16.3359C85.8298 17.6625 84.1507 19.4057 82.8998 21.4449C82.3182 22.3772 81.8084 23.3524 81.3748 24.3619C80.0534 27.4139 79.3038 31.0686 79.1258 35.326C79.0979 36.0033 79.0843 36.6811 79.0848 37.359C79.0848 42.4963 79.8481 46.8286 81.3748 50.3559C82.0377 51.917 82.8926 53.3893 83.9198 54.7389C85.0078 56.1624 86.3263 57.3937 87.8208 58.382C90.5901 60.2046 93.8334 61.116 97.5508 61.116C99.3536 61.1294 101.149 60.8884 102.885 60.4C104.444 59.9534 105.926 59.273 107.281 58.382C109.272 57.0552 110.951 55.3116 112.202 53.2719C112.783 52.34 113.292 51.3651 113.726 50.3559C115.047 47.3039 115.797 43.6493 115.975 39.3919C116.003 38.7146 116.017 38.0368 116.017 37.359V37.359Z" fill="#6B3BE7" stroke="#6B3BE7" stroke-width="0.944882" stroke-linecap="round"/>
<path d="M163.876 73.7226H148.5V0.994586H177.193C179.379 0.984105 181.562 1.15873 183.718 1.51659C186.503 1.99259 189.022 2.79525 191.273 3.92459C195.168 5.87792 198.139 8.63592 200.187 12.1986C201.593 14.6788 202.522 17.3998 202.928 20.2216C203.152 21.7211 203.263 23.2354 203.258 24.7516C203.27 26.7498 203.069 28.7437 202.66 30.6996C202.183 32.9907 201.329 35.1868 200.133 37.1986C198.203 40.393 195.417 42.9834 192.091 44.6766C191.763 44.8488 191.431 45.0135 191.096 45.1706C189.013 46.1299 186.82 46.8278 184.566 47.2486C182.556 47.6379 180.4 47.8629 178.097 47.9236C177.665 47.935 177.234 47.9406 176.802 47.9406H157.591L163.876 35.4146L174.317 35.5826C175.345 35.5863 176.372 35.5302 177.394 35.4146C178.424 35.2939 179.374 35.1086 180.244 34.8586C180.715 34.7238 181.179 34.5625 181.632 34.3756C182.517 34.0172 183.344 33.5325 184.09 32.9366C184.845 32.3269 185.486 31.5877 185.982 30.7536C186.509 29.8541 186.887 28.876 187.104 27.8566C187.287 27.0299 187.391 26.1383 187.415 25.1816C187.418 25.0383 187.42 24.8949 187.42 24.7516C187.425 23.828 187.346 22.9058 187.183 21.9966C186.98 20.9019 186.649 19.9096 186.188 19.0196C186.122 18.8927 186.054 18.7673 185.982 18.6436C185.023 16.9869 183.567 15.7263 181.614 14.8616C179.661 13.9976 177.204 13.5656 174.245 13.5656H163.876V73.7226ZM175 48L188.876 73.7226H205.851L191.096 45.1706L184.566 47.2486L175 48Z" fill="#6B3BE7"/>
<path d="M191.096 45.1706C191.431 45.0135 191.763 44.8488 192.091 44.6766C195.417 42.9834 198.203 40.393 200.133 37.1986C201.329 35.1868 202.183 32.9907 202.66 30.6996C203.069 28.7437 203.27 26.7498 203.258 24.7516C203.263 23.2354 203.152 21.7211 202.928 20.2216C202.522 17.3998 201.593 14.6788 200.187 12.1986C198.139 8.63592 195.168 5.87792 191.273 3.92459C189.022 2.79525 186.503 1.99259 183.718 1.51659C181.562 1.15873 179.379 0.984105 177.193 0.994586H148.5V73.7226H163.876V13.5656H174.245C177.204 13.5656 179.661 13.9976 181.614 14.8616C183.567 15.7263 185.023 16.9869 185.982 18.6436C186.054 18.7673 186.122 18.8927 186.188 19.0196C186.649 19.9096 186.98 20.9019 187.183 21.9966C187.346 22.9058 187.425 23.828 187.42 24.7516C187.42 24.8949 187.418 25.0383 187.415 25.1816C187.391 26.1383 187.287 27.0299 187.104 27.8566C186.887 28.876 186.509 29.8541 185.982 30.7536C185.486 31.5877 184.845 32.3269 184.09 32.9366C183.344 33.5325 182.517 34.0172 181.632 34.3756C181.179 34.5625 180.715 34.7238 180.244 34.8586C179.374 35.1086 178.424 35.2939 177.394 35.4146C176.372 35.5302 175.345 35.5863 174.317 35.5826L163.876 35.4146L157.591 47.9406H176.802C177.234 47.9406 177.665 47.935 178.097 47.9236C180.4 47.8629 182.556 47.6379 184.566 47.2486M191.096 45.1706C189.013 46.1299 186.82 46.8278 184.566 47.2486M191.096 45.1706L205.851 73.7226H188.876L175 48L184.566 47.2486M191.096 45.1706L184.566 47.2486" stroke="#6B3BE7" stroke-width="0.944882" stroke-linecap="round"/>
<path d="M228.089 13.6721H205.824V0.994141H265.554V13.6721H243.288V73.7221H228.089V13.6721Z" fill="#6B3BE7" stroke="#6B3BE7" stroke-width="0.944882" stroke-linecap="round"/>
<path d="M290.803 73.7221H275.426V0.994141H323.58V13.6721H290.803V31.0011H320.384V43.6791H290.803V73.7221Z" fill="#6B3BE7" stroke="#6B3BE7" stroke-width="0.944882" stroke-linecap="round"/>
<path d="M400.746 37.359C400.746 45.2896 399.249 52.0366 396.254 57.6C394.413 61.0903 391.953 64.2166 388.992 66.826C387.463 68.1571 385.803 69.3314 384.038 70.331C378.889 73.255 373.106 74.717 366.69 74.717C363.029 74.7423 359.385 74.2188 355.879 73.164C353.584 72.4605 351.374 71.5043 349.29 70.313C344.436 67.523 340.425 63.4738 337.681 58.593C337.485 58.2533 337.295 57.9106 337.109 57.565C335.424 54.368 334.226 50.9371 333.554 47.386C332.98 44.478 332.675 41.3586 332.639 38.028C332.637 37.805 332.636 37.582 332.635 37.359C332.62 34.3167 332.867 31.2788 333.373 28.279C334.093 24.141 335.339 20.4203 337.109 17.117C340.093 11.5536 344.153 7.31029 349.29 4.38696C353.713 1.89339 358.642 0.430685 363.709 0.107956C364.701 0.0360744 365.696 0.000383987 366.69 0.0009559C370.52 -0.0268302 374.33 0.551314 377.978 1.71396C380.084 2.39767 382.114 3.29326 384.038 4.38696C388.904 7.16606 392.926 11.21 395.679 16.09C395.876 16.4292 396.068 16.7716 396.254 17.117C397.947 20.316 399.15 23.7509 399.823 27.307C400.4 30.2196 400.706 33.3456 400.742 36.685C400.745 36.9096 400.746 37.1343 400.746 37.359V37.359ZM385.156 37.359C385.156 32.2216 384.393 27.8893 382.866 24.362C382.203 22.8009 381.349 21.3286 380.321 19.979C379.233 18.5555 377.915 17.3242 376.42 16.336C373.651 14.5133 370.408 13.602 366.69 13.602C364.888 13.5885 363.092 13.8295 361.356 14.318C359.797 14.7645 358.315 15.4449 356.96 16.336C354.969 17.6625 353.29 19.4057 352.039 21.445C351.458 22.3773 350.949 23.3524 350.515 24.362C349.194 27.414 348.444 31.0686 348.266 35.326C348.238 36.0033 348.224 36.6811 348.224 37.359C348.224 42.4963 348.988 46.8286 350.515 50.356C351.178 51.917 352.033 53.3894 353.06 54.739C354.148 56.1623 355.466 57.3936 356.96 58.382C359.73 60.2046 362.974 61.116 366.69 61.116C368.493 61.1294 370.289 60.8884 372.024 60.4C373.583 59.9534 375.066 59.273 376.42 58.382C378.412 57.0552 380.091 55.3116 381.341 53.272C381.923 52.34 382.433 51.3652 382.866 50.356C384.188 47.304 384.937 43.6493 385.115 39.392C385.143 38.7146 385.157 38.0368 385.156 37.359V37.359Z" fill="#6B3BE7" stroke="#6B3BE7" stroke-width="0.944882" stroke-linecap="round"/>
<path d="M458.665 73.7221H412.109V0.994141H427.486V61.0441H458.665V73.7221Z" fill="#6B3BE7" stroke="#6B3BE7" stroke-width="0.944882" stroke-linecap="round"/>
<path d="M468.857 0.994141H484.233V73.7221H468.857V0.994141Z" fill="#6B3BE7" stroke="#6B3BE7" stroke-width="0.944882" stroke-linecap="round"/>
<path d="M563.742 37.359C563.742 45.2896 562.245 52.0366 559.25 57.5999C557.409 61.0903 554.949 64.2166 551.989 66.8259C550.459 68.1571 548.799 69.3314 547.034 70.3309C541.885 73.2549 536.103 74.7169 529.687 74.7169C526.026 74.7424 522.382 74.2189 518.875 73.1639C516.58 72.4604 514.371 71.5043 512.286 70.313C507.432 67.523 503.421 63.4738 500.677 58.5929C500.482 58.2533 500.291 57.9106 500.106 57.5649C498.421 54.368 497.222 50.9371 496.55 47.386C495.976 44.478 495.671 41.3586 495.635 38.028C495.633 37.805 495.632 37.582 495.631 37.359C495.617 34.3167 495.864 31.2788 496.37 28.2789C497.09 24.1409 498.335 20.4203 500.106 17.1169C503.089 11.5536 507.149 7.31028 512.286 4.38695C516.709 1.89338 521.638 0.430678 526.705 0.107949C527.698 0.036043 528.693 0.000352596 529.687 0.000948819C533.517 -0.0267318 537.326 0.551411 540.974 1.71395C543.08 2.39766 545.11 3.29325 547.034 4.38695C551.9 7.16591 555.923 11.2099 558.676 16.0899C558.873 16.4292 559.065 16.7716 559.25 17.1169C560.943 20.3159 562.147 23.7508 562.82 27.3069C563.396 30.2196 563.703 33.3456 563.739 36.685C563.741 36.9096 563.742 37.1343 563.742 37.359ZM548.153 37.359C548.153 32.2216 547.389 27.8893 545.862 24.3619C545.2 22.8009 544.345 21.3286 543.317 19.9789C542.23 18.5556 540.912 17.3243 539.418 16.3359C536.648 14.5133 533.404 13.6019 529.687 13.6019C527.884 13.5884 526.088 13.8294 524.353 14.3179C522.794 14.7645 521.311 15.4449 519.956 16.3359C517.965 17.6625 516.286 19.4057 515.035 21.4449C514.454 22.3773 513.945 23.3524 513.512 24.3619C512.19 27.4139 511.44 31.0686 511.262 35.326C511.235 36.0033 511.221 36.6811 511.221 37.359C511.221 42.4963 511.985 46.8286 513.512 50.3559C514.174 51.917 515.029 53.3893 516.056 54.7389C517.144 56.1623 518.462 57.3936 519.956 58.382C522.726 60.2046 525.97 61.116 529.687 61.116C531.49 61.1294 533.286 60.8884 535.021 60.4C536.58 59.9534 538.063 59.273 539.418 58.382C541.409 57.0552 543.088 55.3116 544.338 53.2719C544.92 52.34 545.429 51.3651 545.862 50.3559C547.184 47.3039 547.933 43.6493 548.111 39.3919C548.139 38.7146 548.153 38.0368 548.153 37.359Z" fill="#6B3BE7" stroke="#6B3BE7" stroke-width="0.944882" stroke-linecap="round"/>
</g>
<defs>
<clipPath id="clip0_615_3">
<rect width="563.744" height="74.718" fill="white"/>
</clipPath>
</defs>
</svg>
