<svg width="15" height="17" viewBox="0 0 15 17" fill="none" xmlns="http://www.w3.org/2000/svg">
<path d="M13.5571 1.7176L13.0251 15.5497C13.0066 16.0298 12.5969 16.4234 12.1162 16.4234H2.89583C2.41427 16.4234 2.00544 16.0302 1.98697 15.5497L1.45495 1.7176C1.44892 1.55842 1.31506 1.43461 1.15608 1.44064C0.997098 1.44667 0.873087 1.58073 0.879117 1.73971L1.41114 15.5718C1.44149 16.3618 2.10473 16.9996 2.89581 16.9996H12.1162C12.9062 16.9996 13.5705 16.3617 13.6008 15.5718L14.1329 1.73971C14.1389 1.58073 14.0149 1.44667 13.8559 1.44064C13.6969 1.43461 13.5631 1.55842 13.557 1.7176H13.5571Z" fill="white"/>
<path d="M7.21875 4.61048V14.4071C7.21875 14.5663 7.34778 14.6953 7.50697 14.6953C7.66615 14.6953 7.79519 14.5663 7.79519 14.4071V4.61048C7.79519 4.4513 7.66615 4.32227 7.50697 4.32227C7.34778 4.32227 7.21875 4.4513 7.21875 4.61048Z" fill="white"/>
<path d="M4.05091 4.61866L4.33912 14.4153C4.34375 14.5745 4.4766 14.6995 4.63558 14.6949C4.79477 14.6902 4.91977 14.5574 4.91515 14.3984L4.62694 4.60177C4.62231 4.44279 4.48966 4.31758 4.33048 4.3224C4.1715 4.32702 4.04628 4.45968 4.05091 4.61886V4.61866Z" fill="white"/>
<path d="M10.3899 4.601L10.1017 14.3976C10.0971 14.5566 10.2221 14.6895 10.3813 14.6941C10.5402 14.6987 10.6731 14.5737 10.6777 14.4145L10.9659 4.61788C10.9706 4.4587 10.8453 4.32604 10.6864 4.32142C10.5272 4.3166 10.3945 4.44181 10.3899 4.6008V4.601Z" fill="white"/>
<path d="M0.303843 2.01667H14.7107C14.8698 2.01667 14.9989 1.88763 14.9989 1.72865C14.9989 1.56946 14.8698 1.44043 14.7107 1.44043H0.303843C0.144658 1.44043 0.015625 1.56946 0.015625 1.72865C0.015625 1.88763 0.144658 2.01667 0.303843 2.01667Z" fill="white"/>
<path d="M4.89438 1.8358L5.2027 1.06483C5.30681 0.804949 5.64447 0.576226 5.92345 0.576226H9.09305C9.37343 0.576226 9.7091 0.803545 9.8138 1.06483L10.1221 1.8358L10.6571 1.62174L10.3488 0.850773C10.1567 0.370615 9.60917 0 9.09305 0H5.92345C5.40892 0 4.8592 0.37203 4.66769 0.850773L4.35938 1.62174L4.89438 1.8358Z" fill="white"/>
</svg>
