<svg width="569" height="161" viewBox="0 0 569 161" fill="none" xmlns="http://www.w3.org/2000/svg">
<g clip-path="url(#clip0_354_5)">
<mask id="path-1-inside-1_354_5" fill="white">
<path fill-rule="evenodd" clip-rule="evenodd" d="M93.5832 35.9136C99.8332 42.7496 103.878 50.6679 105.716 59.6686C106.601 63.968 107.05 68.3459 107.054 72.7356C107.051 77.3809 106.545 82.0121 105.545 86.5486C103.728 95.407 100.264 103.846 95.3332 111.426C94.8299 112.193 94.3115 112.95 93.7782 113.697C88.1241 121.631 81.0761 128.472 72.9772 133.888C64.7996 139.376 55.7888 143.506 46.2932 146.119C38.2311 148.366 29.9006 149.504 21.5312 149.504C19.9942 149.504 18.4574 149.466 16.9222 149.391C9.72818 149.163 4.89418 147.535 2.42018 144.508C0.29951 141.912 -0.427489 138.813 0.239177 135.213C0.355208 134.592 0.50476 133.979 0.687177 133.375C2.00584 128.98 4.76451 124.602 8.96318 120.24C10.8377 118.266 12.8444 116.423 14.9692 114.723C16.157 108.428 17.6268 102.19 19.3742 96.0266C20.6594 91.4721 22.0642 86.9522 23.5872 82.4716C27.4452 71.0942 32.2632 60.1809 38.0412 49.7316C41.4569 43.5002 45.4088 37.5782 49.8522 32.0326C52.4137 28.852 55.1629 25.8273 58.0852 22.9746C57.6754 22.9163 57.2639 22.8716 56.8512 22.8406C56.7905 22.836 56.7299 22.8316 56.6692 22.8276C55.3516 22.7259 54.0306 22.6749 52.7092 22.6746C46.0998 22.6709 39.5578 24.0018 33.4752 26.5876C27.0605 29.3559 21.371 33.5667 16.8492 38.8926C12.2628 44.1458 9.27274 50.6001 8.23118 57.4956C8.13523 58.3188 8.08682 59.1468 8.08618 59.9756C8.08414 63.0061 8.76788 65.9978 10.0862 68.7266C10.1475 68.8774 10.1989 69.0321 10.2402 69.1896C10.4355 69.9529 10.2948 70.5796 9.81818 71.0696C9.60683 71.2923 9.35589 71.4737 9.07818 71.6046C8.69084 71.7826 8.26218 71.8426 7.79218 71.7846C7.77583 71.7824 7.75949 71.78 7.74318 71.7776C6.92918 71.6636 6.37584 71.0859 6.08318 70.0446C5.65511 67.8116 5.43783 65.5433 5.43418 63.2696C5.43498 59.9421 5.91662 56.6323 6.86418 53.4426C8.4566 48.0445 11.0762 43.0046 14.5792 38.5996C18.0543 34.1734 22.2463 30.3607 26.9812 27.3196C31.8965 24.2602 37.1862 22.0956 42.8502 20.8256C46.6862 19.9863 50.6014 19.5628 54.5282 19.5626C56.8436 19.5638 59.1567 19.7084 61.4542 19.9956C64.9848 16.9531 68.8796 14.3609 73.0492 12.2786C73.4701 12.0702 73.8938 11.8675 74.3202 11.6706C78.8249 9.58073 83.6564 8.28403 88.6022 7.83758C89.4634 7.78251 90.3262 7.75483 91.1892 7.75458C93.8957 7.75473 96.5954 8.02778 99.2472 8.56958C99.5446 8.63762 99.8287 8.75418 100.088 8.91458C100.376 9.09548 100.622 9.33585 100.809 9.61958C101.167 10.1569 101.281 10.7672 101.151 11.4506C100.989 12.1346 100.631 12.6556 100.077 13.0136C99.5238 13.3716 98.8888 13.4856 98.1722 13.3556C95.943 12.8885 93.6775 12.6161 91.4012 12.5416C88.0118 12.4389 84.7268 12.8159 81.5462 13.6726C76.2895 15.0886 71.3662 17.5056 66.7762 20.9236C76.998 23.1582 86.3272 28.3749 93.5832 35.9136V35.9136ZM398.929 103.11C397.552 102.026 396.108 101.029 394.608 100.123C389.105 96.9456 383.246 94.4299 377.152 92.6276C371.049 90.8209 364.823 89.5759 358.475 88.8926C357.079 88.7626 355.678 88.6812 354.276 88.6486C361.145 85.3279 368.038 81.2912 374.955 76.5386C375.493 76.1687 376.028 75.7934 376.558 75.4126C382.619 71.1008 388.088 66.0127 392.826 60.2786C397.823 54.1919 400.858 47.5026 401.932 40.2106C402.112 38.7264 402.203 37.2327 402.203 35.7376C402.202 33.9832 402.079 32.2309 401.835 30.4936C401.379 27.2382 400.158 24.2759 398.172 21.6066C395.654 18.3954 392.129 16.1251 388.163 15.1616C385.559 14.5034 382.883 14.1682 380.197 14.1636C378.828 14.1637 377.46 14.2526 376.102 14.4296C375.224 14.5596 374.345 14.7222 373.465 14.9176C375.347 11.0893 377.268 7.28045 379.227 3.49158C379.251 3.43271 379.274 3.37336 379.295 3.31358C379.641 2.35358 379.553 1.56658 379.032 0.952576C378.479 0.301909 377.779 -0.015424 376.932 0.000576C376.324 0.012576 375.8 0.263909 375.359 0.754576C375.174 0.964469 375.014 1.1946 374.881 1.44058C372.757 6.34327 370.625 11.2426 368.485 16.1386C359.458 18.9901 351.189 23.838 344.291 30.3226C337.211 36.9146 331.327 44.2959 326.639 52.4666C320.487 63.1432 316.394 74.5119 314.359 86.5726C313.003 94.5888 312.321 102.704 312.319 110.835C312.32 114.87 312.487 118.904 312.821 122.926C313.082 126.578 313.424 130.225 313.846 133.863C311.532 133.435 309.23 132.942 306.943 132.384C302.196 131.236 297.536 129.756 292.997 127.955C289.266 126.385 285.714 124.421 282.401 122.096C282.375 122.078 282.348 122.062 282.321 122.046C282.003 121.859 281.67 121.766 281.321 121.766C281.192 121.766 281.063 121.778 280.936 121.803C280.416 121.9 280.009 122.177 279.715 122.633C279.526 122.964 279.431 123.304 279.431 123.653C279.431 123.786 279.445 123.918 279.471 124.049C279.523 124.316 279.639 124.568 279.808 124.782C279.947 124.954 280.114 125.102 280.301 125.221C285.54 128.267 291.1 130.726 296.879 132.552C302.518 134.339 308.289 135.676 314.139 136.549C315.083 143.873 316.141 151.182 317.313 158.473C317.313 158.481 317.313 158.489 317.313 158.497C317.315 158.553 317.318 158.606 317.325 158.656C317.333 158.71 317.345 158.763 317.362 158.815C317.362 158.861 317.364 158.907 317.368 158.953C317.395 159.267 317.515 159.523 317.727 159.721C317.85 159.832 317.991 159.921 318.143 159.986C318.178 160 318.214 160.012 318.25 160.024C318.538 160.114 318.82 160.102 319.095 159.986C319.244 159.924 319.38 159.833 319.492 159.718C319.606 159.598 319.695 159.457 319.754 159.303C321.212 155.421 322.387 151.439 323.27 147.389C323.528 146.196 323.805 145.007 324.1 143.824C324.585 141.853 325.073 139.884 325.565 137.916C337.349 138.86 348.962 138.689 360.404 137.403C360.494 137.393 360.583 137.383 360.672 137.373C372.004 136.082 382.046 133.838 390.799 130.641C392.235 130.043 393.64 129.375 395.009 128.639C396.671 127.739 398.151 126.784 399.448 125.776C400.926 124.649 402.246 123.329 403.373 121.852C403.842 121.228 404.26 120.568 404.623 119.877C405.669 117.871 406.073 115.806 405.835 113.682C405.732 112.788 405.528 111.909 405.228 111.061C405.121 110.754 405.001 110.451 404.868 110.155C403.797 107.753 401.818 105.405 398.929 103.11ZM100.956 85.6206C101.776 81.498 102.189 77.3049 102.19 73.1016C102.189 70.4803 102.029 67.8615 101.712 65.2596C100.897 58.4696 98.7307 51.9116 95.3402 45.9726C91.8248 40.1132 87.2432 35.2956 81.5952 31.5196C75.9478 27.7436 69.8038 25.1556 63.1632 23.7556C57.75 28.5504 52.9149 33.9607 48.7562 39.8766C47.5251 41.6129 46.3452 43.385 45.2182 45.1906C39.9935 53.5566 35.5585 62.1179 31.9132 70.8746C30.3953 74.5081 28.9586 78.175 27.6042 81.8726C26.3728 85.2479 25.2888 88.4699 24.3522 91.5386C24.046 92.5415 23.7503 93.5475 23.4652 94.5566C21.898 100.11 20.5784 105.731 19.5102 111.402C26.6068 106.682 34.3382 103.475 42.7042 101.783C46.4621 101.012 50.2882 100.624 54.1242 100.623C56.5915 100.624 59.0562 100.783 61.5032 101.1C63.6075 101.39 65.6941 101.797 67.7532 102.32C68.0014 102.386 68.2366 102.493 68.4492 102.638C68.6959 102.809 68.9001 103.034 69.0462 103.297C69.2324 103.62 69.33 103.987 69.3292 104.361C69.3292 104.505 69.3152 104.652 69.2872 104.803C69.2808 104.838 69.2738 104.873 69.2662 104.908C69.1973 105.167 69.0817 105.412 68.9252 105.63C68.7502 105.867 68.5248 106.062 68.2652 106.202C67.9593 106.373 67.6147 106.463 67.2642 106.464C67.0582 106.464 66.8465 106.433 66.6292 106.373C64.7526 105.822 62.8453 105.382 60.9172 105.055C58.1068 104.619 55.2672 104.399 52.4232 104.397C47.8859 104.4 43.3665 104.965 38.9682 106.08C31.7805 107.878 24.9748 110.954 18.8762 115.162C18.0295 120.468 17.6062 125.806 17.6062 131.178C17.5921 131.46 17.5454 131.74 17.4672 132.012C17.3612 132.367 17.1982 132.664 16.9782 132.903C16.7906 133.104 16.564 133.264 16.3122 133.375C15.5148 133.733 14.7255 133.725 13.9442 133.351C13.1628 132.976 12.7558 132.219 12.7232 131.08C12.8995 128.828 13.1366 126.582 13.4342 124.344C13.6847 122.45 13.9687 120.561 14.2862 118.678C13.0517 119.717 11.8623 120.808 10.7212 121.949C8.21964 124.319 6.06627 127.032 4.32518 130.006C3.76687 130.978 3.28186 131.991 2.87418 133.036C2.20018 134.786 1.86318 136.448 1.86318 138.021C1.86027 139.001 1.99869 139.977 2.27418 140.919C3.05084 143.557 5.16084 145.451 8.60418 146.602C9.39416 146.862 10.1989 147.076 11.0142 147.242C14.3238 147.762 17.6689 148.023 21.0192 148.024C22.6991 148.023 24.3783 147.958 26.0532 147.828C34.857 147.253 43.5198 145.326 51.7372 142.115C64.0023 137.49 74.9726 129.979 83.7192 120.216C92.5077 110.469 98.4677 98.5066 100.956 85.6206V85.6206ZM346.756 92.1146L346.708 92.0656C346.656 92.1001 346.603 92.1327 346.549 92.1636C346.493 92.1956 346.433 92.2276 346.369 92.2596C346.368 92.2602 346.367 92.2609 346.366 92.2616C346.224 92.2882 346.086 92.3016 345.951 92.3016C345.597 92.3032 345.25 92.2048 344.95 92.0176C344.745 91.8942 344.566 91.7314 344.423 91.5387C344.281 91.346 344.178 91.1271 344.12 90.8946C344.09 90.7827 344.069 90.6687 344.056 90.5536C344.049 90.4869 344.045 90.4216 344.045 90.3576C344.044 90.0844 344.111 89.8154 344.242 89.5756C344.454 89.1849 344.771 88.8919 345.194 88.6966C350.566 86.1252 355.807 83.3096 360.917 80.2496C365.865 77.3202 371.016 73.8452 376.371 69.8246C381.614 65.9128 386.339 61.3517 390.433 56.2506C393.352 52.6585 395.56 48.5431 396.938 44.1246C397.38 42.6814 397.727 41.211 397.977 39.7226C398.114 38.7553 398.216 37.7833 398.281 36.8086C398.642 31.3286 397.649 26.9769 395.302 23.7536C394.899 23.2003 394.455 22.6785 393.973 22.1926C392.153 20.3908 389.908 19.0767 387.445 18.3716C384.661 17.5256 381.38 17.2232 377.602 17.4646C377.216 17.4895 376.83 17.5195 376.444 17.5546C374.817 17.7826 373.222 18.0756 371.659 18.4336C362.294 37.2266 353.693 56.391 345.878 75.8796C338.065 95.3631 331.477 115.316 326.151 135.621C330.844 136.061 335.554 136.282 340.267 136.283C346.641 136.283 353.009 135.875 359.33 135.06C365.576 134.278 371.746 132.97 377.772 131.152C381.634 129.977 385.415 128.55 389.09 126.881C391.648 125.626 394.073 124.117 396.328 122.376C396.365 122.347 396.402 122.319 396.439 122.291C398.723 120.583 400.338 118.13 401.004 115.357C401.021 115.161 401.029 114.965 401.029 114.769C401.032 113.441 400.622 112.145 399.857 111.061C398.962 109.758 397.945 108.586 396.805 107.545C395.123 106.087 393.344 104.746 391.479 103.532C389.579 102.284 387.498 101.076 385.236 99.9086C384.468 99.5126 383.694 99.1283 382.914 98.7556C377.307 96.068 371.431 93.981 365.384 92.5296C363.336 92.0329 361.263 91.6457 359.174 91.3696C355.673 90.9162 352.418 90.8616 349.408 91.2056C349.322 91.2152 349.235 91.2252 349.149 91.2356L348.075 91.5286C347.687 91.695 347.3 91.866 346.916 92.0416C346.863 92.0658 346.809 92.0901 346.756 92.1146V92.1146ZM328.983 53.7846C324.133 61.9552 320.634 70.4839 318.485 79.3706C316.334 88.2813 315.171 97.402 315.018 106.568C314.997 107.784 314.986 109.002 314.986 110.219C314.988 118.283 315.455 126.341 316.385 134.352C318.397 134.676 320.416 134.953 322.44 135.182C327.224 118.878 332.714 102.79 338.895 86.9636C345.08 71.1269 351.509 55.3962 358.182 39.7716C361.047 33.1309 363.944 26.4902 366.874 19.8496C358.704 22.8116 351.428 27.3526 345.047 33.4726C338.667 39.5919 333.313 46.3626 328.983 53.7846ZM502.997 73.2556C502.931 73.3028 502.869 73.3557 502.811 73.4136C501.668 74.8173 500.446 76.1542 499.149 77.4176C496.545 80.0216 493.664 82.2352 490.506 84.0586C489.937 84.4068 489.338 84.703 488.716 84.9436C487.726 85.3222 486.741 85.5116 485.762 85.5116C485.381 85.5115 485 85.4827 484.623 85.4256C482.686 85.1322 481.392 83.8626 480.741 81.6166C480.635 81.0241 480.582 80.4234 480.581 79.8216C480.581 79.4629 480.601 79.1049 480.639 78.7476C480.76 77.6663 481.041 76.609 481.473 75.6106C482.32 73.6252 483.443 71.8349 484.842 70.2396C484.864 70.2053 484.886 70.1706 484.906 70.1356C485.11 69.7822 485.212 69.4426 485.212 69.1166C485.212 68.9068 485.169 68.6993 485.086 68.5066C484.977 68.241 484.81 68.0031 484.597 67.8106C484.391 67.6302 484.15 67.4931 483.89 67.4076C483.716 67.347 483.533 67.3159 483.348 67.3156C482.955 67.3156 482.558 67.4602 482.157 67.7496C479.915 69.3997 477.717 71.1093 475.565 72.8766C473.18 74.8051 470.929 76.8932 468.827 79.1266C473.189 66.1386 477.909 53.3619 482.987 40.7966C483.089 40.5172 483.139 40.2562 483.139 40.0136C483.143 39.646 483.011 39.2901 482.767 39.0146C482.582 38.795 482.354 38.6159 482.096 38.4886C481.818 38.3562 481.514 38.2856 481.205 38.2816C481.19 38.2814 481.174 38.2814 481.158 38.2816C480.544 38.2816 480.014 38.5989 479.569 39.2336C477.831 41.7918 476.139 44.3802 474.491 46.9976C474.447 47.0706 474.406 47.1454 474.367 47.2216C474.088 47.7802 474.056 48.2752 474.271 48.7066C474.505 49.1853 474.917 49.5534 475.419 49.7316C471.071 61.4716 467.242 73.3975 463.944 85.4746C463.922 85.5098 463.901 85.5452 463.879 85.5806C462.534 87.8059 461.861 90.1559 461.861 92.6306C461.861 92.9472 461.872 93.2637 461.893 93.5796C461.893 93.664 461.902 93.7482 461.92 93.8306C461.942 93.936 461.988 94.0347 462.056 94.1185C462.123 94.2023 462.21 94.2689 462.308 94.3126C462.322 94.3188 462.336 94.3248 462.35 94.3306C462.529 94.4066 462.711 94.4319 462.896 94.4066C462.988 94.3938 463.077 94.3703 463.163 94.3366C463.357 94.2623 463.519 94.1226 463.621 93.9416C463.677 93.8433 463.72 93.738 463.749 93.6286C464.666 91.0424 465.577 88.4544 466.483 85.8646C468.046 83.6512 469.958 81.5842 472.22 79.6636C474.483 77.7429 476.786 75.9852 479.129 74.3906C478.745 75.9106 478.56 77.3599 478.573 78.7386C478.579 80.1164 478.808 81.4842 479.252 82.7886C479.558 83.7259 480.114 84.5619 480.86 85.2066C481.986 86.1652 483.574 86.6939 485.624 86.7926C488.749 86.1739 491.63 84.8719 494.266 82.8866C496.905 80.8991 499.402 78.7291 501.737 76.3926L503.885 74.3416C504.074 74.1522 504.169 73.9672 504.169 73.7866C504.169 73.7173 504.155 73.6487 504.129 73.5846C504.127 73.5779 504.124 73.5712 504.121 73.5646C504.022 73.3319 503.845 73.1839 503.592 73.1206C503.394 73.0712 503.196 73.1162 502.997 73.2556ZM509.305 47.8766L513.846 39.4296C513.961 39.2316 514.098 39.0476 514.255 38.8816C514.572 38.5355 515.013 38.3289 515.482 38.3066C515.872 38.2872 516.222 38.3539 516.534 38.5066C516.763 38.6209 516.97 38.7765 517.142 38.9656C517.568 39.4222 517.65 40.0089 517.389 40.7256C517.38 40.7493 517.371 40.773 517.362 40.7966C512.268 52.9894 507.819 65.4416 504.032 78.1016C505.32 76.4573 506.723 74.907 508.231 73.4626C509.396 72.3802 510.58 71.319 511.783 70.2796C511.95 70.1358 512.117 69.9924 512.284 69.8496C512.727 69.4623 513.17 69.076 513.614 68.6906C513.675 68.6372 513.736 68.5839 513.797 68.5306C513.937 68.406 514.089 68.2957 514.25 68.2016C514.539 68.0356 514.83 67.9526 515.123 67.9526C515.244 67.9527 515.364 67.9664 515.482 67.9936C515.766 68.055 516.034 68.1764 516.268 68.3496C516.473 68.5055 516.646 68.6998 516.776 68.9216C517.069 69.4096 517.069 69.9792 516.776 70.6306C515.051 73.6252 513.049 76.4246 510.77 79.0286C508.495 81.6292 506.117 84.1379 503.641 86.5486C505.142 86.7406 506.654 86.8375 508.167 86.8386C512.452 86.839 516.699 86.0281 520.682 84.4486C526.151 82.3006 530.773 78.6222 534.549 73.4136C534.608 73.3418 534.676 73.2776 534.751 73.2226C534.857 73.1439 534.981 73.0921 535.111 73.0716C535.153 73.0654 535.195 73.0624 535.237 73.0626C535.367 73.0626 535.493 73.0939 535.616 73.1566C535.652 73.1752 535.687 73.1959 535.721 73.2186C536.039 73.4786 536.017 73.9309 535.655 74.5756C535.607 74.6618 535.556 74.7465 535.502 74.8296C535.281 75.1694 535.044 75.4981 534.79 75.8146C534.544 76.1239 534.271 76.4422 533.971 76.7696C533.785 76.9725 533.595 77.1722 533.402 77.3686C532.507 78.2799 531.636 79.1182 530.79 79.8836C530.606 80.0495 530.422 80.2148 530.237 80.3796C529.683 80.8749 529.282 81.2222 529.032 81.4216C526.471 83.4804 523.605 85.1278 520.536 86.3046C517.526 87.4264 514.367 88.1009 511.161 88.3066C510.218 88.3651 509.273 88.3944 508.328 88.3946C506.139 88.3949 503.952 88.2348 501.786 87.9156C501.716 87.9168 501.646 87.9028 501.581 87.8746C501.515 87.8439 501.456 87.7969 501.405 87.7336C501.402 87.7293 501.398 87.725 501.395 87.7206C501.066 88.4445 500.757 89.1771 500.467 89.9176C500.141 91.0939 499.799 92.266 499.442 93.4336C499.415 93.5798 499.359 93.7192 499.277 93.8436C499.187 93.976 499.068 94.0861 498.929 94.1656C498.806 94.2392 498.674 94.2947 498.535 94.3306C498.431 94.3566 498.326 94.3696 498.221 94.3696C498.172 94.3693 498.124 94.3663 498.075 94.3606C497.923 94.2952 497.782 94.2053 497.658 94.0946C497.375 93.8346 497.253 93.4779 497.291 93.0246C497.292 93.0142 497.293 93.0039 497.294 92.9936C497.336 92.592 497.414 92.195 497.528 91.8076C497.614 91.5141 497.715 91.2253 497.831 90.9426C497.901 90.7461 497.965 90.5477 498.023 90.3476C498.114 90.0322 498.18 89.7426 498.221 89.4786C498.319 89.0879 498.433 88.6972 498.563 88.3066C501.827 75.4857 505.589 62.797 509.842 50.2696C509.642 50.1558 509.468 50.0011 509.331 49.8156C509.218 49.6577 509.135 49.4805 509.086 49.2926C509.051 49.1621 509.034 49.0276 509.034 48.8926C509.034 48.6072 509.109 48.3022 509.257 47.9776C509.273 47.9436 509.289 47.91 509.305 47.8766V47.8766ZM270.213 100.484C270.16 100.43 270.096 100.387 270.025 100.359C269.955 100.33 269.879 100.316 269.803 100.318C269.085 100.318 268.367 100.367 267.655 100.465C268.374 98.6328 269.074 96.7933 269.754 94.9466C269.771 94.9081 269.788 94.8694 269.804 94.8306C270.078 94.1686 270.546 92.7986 271.209 90.7206C271.385 90.1687 271.559 89.6164 271.732 89.0636C272.112 87.847 272.473 86.6245 272.815 85.3966C273.416 83.2301 273.967 81.0498 274.466 78.8576C274.499 78.715 274.531 78.5723 274.563 78.4296C275.325 74.9989 275.659 72.2366 275.565 70.1426C275.477 68.1552 274.672 67.5732 273.15 68.3966C272.991 68.4834 272.835 68.5771 272.684 68.6776C272.477 68.8122 272.307 68.9956 272.187 69.2116C272.089 69.3947 272.026 69.5944 272.001 69.8006C271.915 70.2545 271.782 70.6983 271.604 71.1246C271.41 71.5899 271.175 72.0373 270.902 72.4616C270.331 73.359 269.72 74.2305 269.071 75.0736C268.485 75.8222 267.964 76.5386 267.508 77.2226C266.5 78.6546 265.36 80.1682 264.09 81.7636C263.297 82.7602 262.561 83.6552 261.882 84.4486C261.502 84.894 261.115 85.3337 260.721 85.7676C260.69 85.7097 260.661 85.6506 260.634 85.5906C260.29 84.8212 260.246 83.7652 260.502 82.4226C260.779 80.9739 261.243 79.5659 261.893 78.1986C262.545 76.8319 263.228 75.8716 263.944 75.3176C264.018 75.2488 264.09 75.1785 264.161 75.1066C264.971 74.2799 265.249 73.5366 264.994 72.8766C264.909 72.6366 264.77 72.419 264.589 72.24C264.408 72.0609 264.188 71.9251 263.947 71.8426C263.725 71.7657 263.494 71.7193 263.26 71.7046C263.212 71.7011 263.163 71.6994 263.114 71.6996C262.503 71.6996 261.925 71.9872 261.377 72.5626C261.172 72.7819 260.986 73.0177 260.819 73.2676C260.148 74.1176 259.527 75.2602 258.955 76.6956C258.678 77.3981 258.428 78.1114 258.207 78.8336C257.971 79.5889 257.781 80.3576 257.636 81.1356C257.464 82.0782 257.377 82.9849 257.377 83.8556C257.376 84.4381 257.417 85.0199 257.499 85.5966C257.533 85.8387 257.585 86.078 257.654 86.3126C258.101 87.8066 259.219 88.5536 261.009 88.5536C261.076 88.5536 261.143 88.5526 261.21 88.5506C261.991 88.1599 262.642 87.5739 263.163 86.7926C263.359 86.5961 263.539 86.3837 263.7 86.1576C266.369 82.7396 268.909 79.2729 271.317 75.7576C270.62 79.4891 269.735 83.1828 268.664 86.8246C267.175 91.8735 265.403 96.835 263.358 101.686C260.163 103.13 257.328 105.264 255.057 107.936C252.279 111.275 250.046 115.032 248.441 119.068C246.797 123.17 246.35 127.271 247.098 131.373C247.152 131.729 247.247 132.097 247.383 132.478C247.503 132.81 247.645 133.134 247.806 133.448C248.181 134.18 248.661 134.669 249.247 134.913C249.725 135.112 250.267 134.927 250.874 134.358C251.023 134.217 251.164 134.068 251.297 133.912C257.613 123.593 262.903 112.851 267.167 101.686C268.007 101.556 268.856 101.49 269.706 101.49C269.782 101.49 269.856 101.477 269.927 101.451C270.007 101.42 270.081 101.376 270.145 101.319C270.154 101.311 270.163 101.303 270.172 101.295C270.226 101.245 270.269 101.184 270.298 101.117C270.327 101.05 270.341 100.977 270.34 100.904C270.373 100.741 270.332 100.603 270.218 100.489C270.217 100.487 270.215 100.485 270.213 100.484ZM168.412 73.0966C168.409 73.0952 168.406 73.0939 168.403 73.0926C168.227 73.0166 168.043 73.0586 167.85 73.2186C166.531 74.5339 165.056 75.6818 163.456 76.6366C161.551 77.7508 159.528 78.6513 157.425 79.3216C155.417 79.97 153.319 80.3003 151.208 80.3006C151.108 80.3006 151.008 80.3 150.907 80.2986C150.218 80.2357 149.563 79.9717 149.023 79.5396C148.685 79.2708 148.383 78.9595 148.124 78.6136C147.351 77.6005 146.68 76.5128 146.122 75.3666C145.981 75.132 145.843 74.896 145.707 74.6586C145.582 74.4405 145.46 74.2208 145.34 73.9996C145.33 73.9779 145.319 73.9562 145.308 73.9346C144.618 72.5539 143.791 71.8636 142.827 71.8636C142.753 71.8637 142.68 71.8677 142.606 71.8756C141.532 71.9896 140.442 72.5672 139.335 73.6086C137.959 74.8534 136.67 76.1912 135.477 77.6126C134.844 78.345 134.193 79.0616 133.524 79.7616C133.379 79.0419 133.268 78.3158 133.192 77.5856C133.09 76.6169 133.039 75.6016 133.039 74.5396C133.04 73.9443 133.055 73.3491 133.085 72.7546C133.086 72.7412 133.087 72.7279 133.087 72.7146C133.219 70.1459 133.576 68.1166 134.159 66.6266C134.162 66.6009 134.165 66.5753 134.168 66.5496C134.184 66.3889 134.189 66.2346 134.181 66.0866C134.166 65.5719 133.968 65.0795 133.622 64.6976C133.166 64.1929 132.613 63.9326 131.961 63.9166C131.946 63.916 131.93 63.9157 131.914 63.9156C131.282 63.9156 130.712 64.2332 130.204 64.8686C129.982 65.2057 129.763 65.5444 129.545 65.8846C128.866 66.9493 128.206 68.0269 127.567 69.1166C127.456 69.2909 127.346 69.4659 127.237 69.6416C127.134 69.8079 127.033 69.9749 126.932 70.1426L126.444 71.0216C123.525 75.9304 120.563 80.8133 117.557 85.6696C117.529 85.7145 117.5 85.7595 117.472 85.8046C117.267 86.1305 117.068 86.4599 116.874 86.7926L116.971 86.4996C117.46 85.4582 117.867 84.4166 118.192 83.3746C118.225 83.284 118.258 83.1934 118.29 83.1026C118.391 82.8199 118.488 82.5362 118.583 82.2516C118.701 81.9354 118.818 81.6191 118.934 81.3026C119.724 79.1551 120.486 76.9973 121.219 74.8296C121.301 74.5142 121.335 74.2262 121.32 73.9656C121.314 73.7488 121.263 73.5357 121.17 73.3398C121.077 73.1439 120.944 72.9695 120.78 72.8276C120.26 72.3722 119.657 72.1932 118.973 72.2906C118.73 72.3232 118.497 72.413 118.295 72.5526C117.955 72.7886 117.693 73.1732 117.508 73.7066C117.288 74.4702 117.072 75.2352 116.861 76.0016C116.633 76.8304 116.409 77.6604 116.19 78.4916C116.16 78.6016 116.131 78.712 116.103 78.8226C116.045 79.0529 115.993 79.2847 115.946 79.5176V79.5186C115.852 79.9301 115.737 80.3369 115.604 80.7376C115.216 82.2897 114.874 83.8531 114.579 85.4256C114.417 86.3998 114.27 87.3766 114.139 88.3556C114.011 89.2836 113.881 90.2112 113.749 91.1386C113.748 91.1436 113.748 91.1486 113.747 91.1536C113.741 91.2276 113.742 91.2979 113.749 91.3646C113.759 91.4839 113.795 91.5997 113.853 91.7039C113.912 91.8082 113.993 91.8985 114.09 91.9686C114.107 91.9811 114.124 91.9931 114.142 92.0046C114.337 92.1326 114.549 92.1726 114.778 92.1246C114.843 92.1105 114.907 92.0908 114.969 92.0656C115.08 92.0057 115.187 91.9382 115.288 91.8636C115.488 91.7179 115.661 91.5386 115.799 91.3336C115.805 91.328 115.811 91.3223 115.817 91.3166C115.877 91.2546 115.936 91.1789 115.995 91.0896C116.907 89.9176 117.785 88.7292 118.631 87.5246C118.829 87.2944 119.008 87.0497 119.169 86.7926C120.216 85.3202 121.274 83.8555 122.342 82.3986C124.719 79.0126 127.161 75.6759 129.667 72.3886C129.504 75.9039 129.797 79.3869 130.545 82.8376C130.573 82.9197 130.602 83.0014 130.632 83.0826C130.874 83.7399 131.161 84.2372 131.491 84.5746C131.777 84.8881 132.173 85.079 132.596 85.1076C132.631 85.1096 132.667 85.1106 132.702 85.1106C133.544 85.1106 134.372 84.5482 135.184 83.4236C136.161 82.1862 137.073 80.9329 137.919 79.6636C138.405 78.9508 138.91 78.2508 139.432 77.5646C139.482 77.4986 139.531 77.4323 139.579 77.3656C139.73 77.1579 139.876 76.9472 140.018 76.7336C140.174 76.4933 140.339 76.2594 140.514 76.0326C141.157 75.1863 141.949 74.4642 142.85 73.9016C142.961 73.924 143.07 73.9572 143.175 74.0006C143.539 74.1506 143.879 74.4269 144.193 74.8296C144.594 75.3419 144.962 75.88 145.292 76.4406C145.314 76.4766 145.337 76.5126 145.359 76.5486C145.426 76.6546 145.49 76.7549 145.551 76.8496C145.61 76.9417 145.67 77.0334 145.731 77.1246C146.449 78.4617 147.429 79.6408 148.612 80.5916C149.242 81.0397 149.988 81.2941 150.76 81.3236C150.954 81.332 151.149 81.3363 151.343 81.3366C151.916 81.337 152.487 81.3003 153.055 81.2266C158.855 80.4376 164.283 77.9192 168.631 73.9996C168.642 73.9889 168.653 73.9779 168.663 73.9666C168.771 73.8472 168.818 73.7239 168.804 73.5966C168.8 73.559 168.791 73.522 168.778 73.4866C168.713 73.3079 168.591 73.1779 168.412 73.0966ZM229.873 59.4456C229.723 59.2823 229.556 59.136 229.374 59.0096C228.847 58.6884 228.296 58.4102 227.724 58.1776C226.882 57.8316 225.948 57.5506 224.922 57.3346C223.942 57.1318 222.95 56.9899 221.952 56.9096C220.229 56.7649 218.437 56.7032 216.577 56.7246C215.055 56.744 213.533 56.814 212.015 56.9346C211.142 57.0028 210.27 57.0774 209.398 57.1586C206.903 57.3891 204.413 57.6805 201.932 58.0326C203.365 53.6379 204.569 49.2109 205.545 44.7516C205.578 43.8729 205.293 43.2952 204.691 43.0186C204.401 42.8824 204.084 42.8114 203.763 42.8106C203.623 42.8106 203.482 42.8242 203.338 42.8516C203.149 42.8881 202.965 42.944 202.787 43.0186C202.562 43.1081 202.358 43.2438 202.188 43.4171C202.018 43.5904 201.887 43.7973 201.802 44.0246C201.719 44.2425 201.664 44.4705 201.639 44.7026C201.01 48.4867 200.063 52.211 198.807 55.8356C198.578 56.6215 198.334 57.4029 198.075 58.1796C198.075 58.2082 198.072 58.2367 198.065 58.2646C198.057 58.3027 198.044 58.3397 198.026 58.3746C198.002 58.4219 197.987 58.4606 197.981 58.4906C197.979 58.5007 197.977 58.5111 197.977 58.5216C197.509 58.584 197.041 58.645 196.573 58.7046C196.146 58.7588 195.719 58.8114 195.292 58.8626C191.553 59.4217 187.838 60.1386 184.159 61.0116C184.094 61.0279 184.032 61.0549 183.975 61.0916C183.916 61.1303 183.863 61.1775 183.817 61.2316C183.795 61.2575 183.774 61.2846 183.754 61.3126C183.693 61.3986 183.648 61.4953 183.622 61.5976C183.622 61.637 183.624 61.6764 183.629 61.7156C183.655 61.9176 183.749 62.0666 183.912 62.1626C183.989 62.2064 184.073 62.2381 184.159 62.2566C184.349 62.2999 184.553 62.3316 184.771 62.3516C184.973 62.37 185.176 62.379 185.379 62.3786C185.551 62.3779 185.724 62.3849 185.895 62.3996C186.077 62.4162 186.245 62.4419 186.397 62.4766C186.551 62.51 186.7 62.5589 186.844 62.6226C187.255 62.7434 187.657 62.8897 188.049 63.0606C189.475 63.659 190.688 64.6717 191.532 65.9676C192.574 67.5789 193.257 69.4426 193.583 71.5586L192.997 73.2186C189.855 81.8947 187.053 90.6904 184.598 99.5856C184.587 99.6369 184.578 99.6886 184.57 99.7406C184.497 100.253 184.653 100.657 185.038 100.953C185.059 100.969 185.08 100.984 185.102 101C185.43 101.224 185.794 101.269 186.196 101.135C186.302 101.099 186.405 101.054 186.503 101.002C187.79 99.8174 188.842 98.4009 189.603 96.8266C190.367 95.2517 191.027 93.6289 191.581 91.9686C191.84 91.2901 192.084 90.6063 192.313 89.9176C192.875 88.2367 193.338 86.5244 193.7 84.7896C194.173 82.517 194.508 80.2183 194.706 77.9056C195.024 77.0789 195.333 76.2489 195.633 75.4156C197.652 70.2076 199.556 64.9829 201.346 59.7416C205.067 59.4234 208.799 59.264 212.533 59.2636C214.127 59.2636 215.721 59.2929 217.313 59.3516C217.867 59.4162 218.436 59.4649 219.022 59.4976C220.531 59.5594 222.028 59.7803 223.49 60.1566C224.879 60.4897 226.091 61.3355 226.883 62.5246C226.964 62.5832 227.047 62.6386 227.132 62.6906C227.629 62.9912 228.097 63.0999 228.537 63.0166C228.738 62.9774 228.931 62.9018 229.105 62.7936C229.414 62.6094 229.682 62.3632 229.891 62.0706C230.111 61.7533 230.26 61.3919 230.326 61.0116C230.328 61.0019 230.33 60.9923 230.331 60.9826C230.431 60.4086 230.278 59.8962 229.873 59.4456ZM456.897 97.3666C456.871 97.3555 456.843 97.3464 456.815 97.3396C455.839 97.4049 454.878 97.5676 453.934 97.8276C454.65 95.6796 454.87 93.6206 454.593 91.6506C454.432 90.5074 454.026 89.4123 453.404 88.4396C452.91 87.6699 452.316 86.9686 451.639 86.3536C452.746 84.9862 453.763 83.5456 454.691 82.0316C455.606 80.5513 456.258 78.9245 456.62 77.2226C456.655 76.9506 456.684 76.6779 456.706 76.4046C456.878 74.2799 456.581 72.5669 455.814 71.2656C455.036 69.9449 453.968 69.2856 452.608 69.2876C452.456 69.2882 452.304 69.2966 452.152 69.3126C451.87 69.3426 451.592 69.4029 451.323 69.4926C449.982 69.9346 448.557 71.1116 447.049 73.0236C447.035 73.0404 447.022 73.0577 447.01 73.0756C446.949 73.1656 446.919 73.2529 446.919 73.3376C446.92 73.389 446.931 73.4398 446.952 73.4866C446.953 73.4896 446.954 73.4926 446.955 73.4956C446.995 73.5796 447.05 73.6442 447.122 73.6896C447.175 73.722 447.233 73.7443 447.294 73.7556C447.296 73.7559 447.298 73.7563 447.3 73.7566C447.46 73.7866 447.605 73.7372 447.733 73.6086C448.091 73.2186 448.498 72.8442 448.954 72.4856C450.875 70.9556 452.291 70.5326 453.202 71.2166C454.032 71.8386 454.416 73.0672 454.356 74.9026C454.35 75.0901 454.34 75.2775 454.325 75.4646C454.144 77.0563 453.546 78.5719 452.591 79.8586C452.413 80.1009 452.231 80.3406 452.045 80.5776C451.275 81.5658 450.438 82.5003 449.54 83.3746C449.199 83.7041 448.869 84.0446 448.55 84.3956C447.943 85.0669 447.475 85.6869 447.147 86.2556C447.145 86.2596 447.142 86.2636 447.14 86.2676C446.748 86.9562 446.809 87.5909 447.323 88.1716C447.448 88.3102 447.585 88.4371 447.733 88.5506C447.94 88.7067 448.138 88.8726 448.329 89.0476C449.627 90.2436 450.276 91.6826 450.276 93.3646C450.276 93.4363 450.275 93.5079 450.272 93.5796C450.207 95.5976 449.556 97.7786 448.319 100.123C445.064 102.109 442.191 104.64 439.701 107.716C438.94 108.654 438.219 109.625 437.54 110.626C436.132 112.689 434.949 114.897 434.012 117.213C433.967 117.411 433.96 117.574 433.993 117.701C434.008 117.768 434.041 117.83 434.087 117.881C434.133 117.932 434.191 117.971 434.256 117.994C434.332 118.022 434.41 118.043 434.49 118.057C434.634 118.083 434.793 118.089 434.965 118.075C435.047 118.068 435.128 118.057 435.209 118.043C435.443 118.002 435.655 117.961 435.844 117.921C435.95 117.898 436.056 117.874 436.161 117.848C439.09 116.741 441.646 115.048 443.827 112.77C444.734 111.875 445.604 110.945 446.436 109.981C447.469 108.783 448.455 107.547 449.393 106.275C449.681 105.886 449.961 105.492 450.232 105.093C451.646 103.029 452.807 100.803 453.69 98.4626C454.695 98.1705 455.725 97.9742 456.766 97.8766C456.786 97.8767 456.806 97.8757 456.825 97.8736C456.921 97.8622 456.983 97.8226 457.01 97.7546C457.013 97.748 457.016 97.7413 457.018 97.7346C457.035 97.6866 457.043 97.6389 457.043 97.5916C457.043 97.5644 457.041 97.5372 457.035 97.5106C457.023 97.4479 456.977 97.3999 456.897 97.3666ZM225.565 75.3666C225.705 75.4648 225.86 75.5389 226.024 75.5856C226.154 75.6228 226.286 75.6476 226.42 75.6596C226.643 75.6805 226.866 75.6945 227.089 75.7016C227.232 75.7063 227.375 75.7086 227.518 75.7086C227.62 75.7006 227.723 75.6949 227.825 75.6916C228.121 75.6829 228.385 75.6966 228.617 75.7326C228.688 75.7431 228.757 75.7623 228.823 75.7896C229.002 75.8649 229.104 75.9992 229.129 76.1926C229.129 76.1939 229.129 76.1952 229.129 76.1966C228.999 76.5872 228.633 76.8559 228.031 77.0026C227.603 77.1053 227.165 77.1639 226.725 77.1776C226.641 77.1809 226.557 77.1826 226.471 77.1826C226.348 77.1825 226.225 77.1795 226.102 77.1736C225.902 77.1644 225.703 77.1477 225.504 77.1236C225.111 77.0749 224.782 76.9976 224.518 76.8916C224.509 76.888 224.5 76.8843 224.491 76.8806C224.06 76.6694 223.659 76.4003 223.301 76.0806C222.875 75.697 222.532 75.2296 222.294 74.7076C221.934 73.9105 221.735 73.0499 221.709 72.1756C221.706 72.0816 221.704 71.9869 221.704 71.8916C221.704 71.8129 221.706 71.7342 221.708 71.6556C218.42 74.4876 215.58 77.7429 213.187 81.4216C210.815 85.0614 208.765 88.9009 207.059 92.8966C206.962 93.1566 206.791 93.3516 206.546 93.4816C206.428 93.5457 206.296 93.5794 206.162 93.5796C206.082 93.5796 206.001 93.5682 205.917 93.5456C205.857 93.5287 205.798 93.5073 205.741 93.4816C205.602 93.4144 205.48 93.3154 205.386 93.1926C205.315 93.096 205.261 92.9872 205.228 92.8716C205.147 92.5949 205.106 92.3102 205.106 92.0176C205.107 91.8869 205.1 91.7564 205.085 91.6266C205.069 91.4872 205.043 91.3569 205.008 91.2356C204.966 90.5484 204.945 89.86 204.945 89.1716C204.929 83.5946 206.419 78.1167 209.256 73.3156C209.372 73.1478 209.507 72.994 209.658 72.8576C209.98 72.5716 210.341 72.4286 210.741 72.4286C210.8 72.4286 210.859 72.4316 210.917 72.4376C211.568 72.5022 212.105 72.7949 212.528 73.3156C212.66 73.4748 212.76 73.6582 212.822 73.8556C212.944 74.2502 212.894 74.6889 212.674 75.1716C211.84 76.8334 211.154 78.5654 210.624 80.3476C213.788 74.4909 218.206 69.4054 223.563 65.4546C223.704 65.3595 223.855 65.2794 224.012 65.2156C224.445 65.0429 224.873 65.0412 225.296 65.2106C225.635 65.3409 225.937 65.5532 226.174 65.8286C226.315 65.9957 226.43 66.1823 226.517 66.3826C226.751 66.9112 226.68 67.4546 226.304 68.0126C226.286 68.0392 226.268 68.0655 226.249 68.0916C225.87 68.6749 225.542 69.2903 225.269 69.9306C225.002 70.5561 224.775 71.1976 224.588 71.8516C224.166 73.3162 224.491 74.4879 225.565 75.3666ZM447.168 73.5446C447.165 73.5004 447.158 73.4565 447.147 73.4136C447.082 73.2836 446.984 73.1859 446.854 73.1206C446.839 73.1132 446.824 73.1065 446.808 73.1006C446.73 73.0706 446.652 73.0642 446.573 73.0816C446.535 73.09 446.498 73.1031 446.463 73.1206C442.494 74.6159 438.285 75.3773 434.043 75.3676C433.952 75.3676 433.86 75.3672 433.768 75.3666C433.497 75.3663 433.226 75.3617 432.955 75.3526C432.301 75.3306 431.516 75.2849 430.6 75.2156C430.126 75.1796 429.652 75.1406 429.178 75.0986C428.444 75.0346 427.714 74.9341 426.99 74.7976C425.869 74.5891 424.771 74.2729 423.71 73.8536C423.64 73.3952 423.541 72.9416 423.414 72.4956C423.071 71.2494 422.455 70.0952 421.61 69.1166C421.581 69.1018 421.551 69.0878 421.52 69.0746C421.105 68.8946 420.761 68.9412 420.487 69.2146C420.471 69.1963 420.454 69.1783 420.437 69.1606C419.977 68.6799 419.398 68.5239 418.7 68.6926C418.561 68.7268 418.424 68.7706 418.29 68.8236C416.359 69.7818 414.672 71.168 413.358 72.8766C413.324 72.9231 413.29 72.9698 413.256 73.0166C410.726 76.5279 409.702 80.4039 410.184 84.6446C410.231 84.8848 410.286 85.1232 410.349 85.3596C410.519 85.9916 410.738 86.5499 411.008 87.0346C411.501 87.9756 412.318 88.7053 413.309 89.0876C413.801 89.2758 414.324 89.3721 414.851 89.3716C416.049 89.3716 417.326 88.8862 418.68 87.9156C419.699 87.1656 420.57 86.234 421.25 85.1676C421.772 84.3556 422.212 83.4933 422.562 82.5936C423.42 80.4496 423.861 78.1618 423.862 75.8526C423.862 75.6906 423.86 75.5285 423.856 75.3666C423.905 75.3821 423.954 75.3974 424.003 75.4126C425.561 75.8818 427.166 76.1776 428.788 76.2946C429.866 76.3759 430.855 76.4382 431.755 76.4816C432.263 76.5062 432.772 76.5252 433.28 76.5386H433.768C437.121 76.5059 440.425 76.0666 443.68 75.2206C443.732 75.1983 443.785 75.1773 443.838 75.1576C443.991 75.1009 444.183 75.0396 444.413 74.9736C444.527 74.9408 444.64 74.9091 444.754 74.8786C444.869 74.8545 444.984 74.8285 445.098 74.8006C445.573 74.6849 446.038 74.5314 446.488 74.3416C446.582 74.3023 446.673 74.2558 446.76 74.2026C447.049 74.0226 447.186 73.8032 447.168 73.5446ZM568.262 73.5446C568.259 73.5004 568.252 73.4565 568.241 73.4136C568.176 73.2836 568.078 73.1859 567.948 73.1206C567.933 73.1132 567.918 73.1065 567.902 73.1006C567.824 73.0706 567.746 73.0642 567.667 73.0816C567.629 73.09 567.592 73.1031 567.557 73.1206C563.587 74.616 559.379 75.3774 555.136 75.3676C555.045 75.3676 554.954 75.3672 554.862 75.3666C554.591 75.3663 554.32 75.3617 554.049 75.3526C553.394 75.3306 552.609 75.2849 551.694 75.2156C551.22 75.1796 550.746 75.1406 550.272 75.0986C549.538 75.0346 548.808 74.9341 548.084 74.7976C546.963 74.5891 545.864 74.273 544.803 73.8536C544.733 73.3952 544.634 72.9416 544.507 72.4956C544.164 71.2495 543.548 70.0953 542.704 69.1166C542.675 69.1018 542.645 69.0878 542.614 69.0746C542.199 68.8946 541.855 68.9412 541.581 69.2146C541.565 69.1963 541.548 69.1783 541.531 69.1606C541.071 68.6799 540.492 68.5239 539.793 68.6926C539.654 68.7268 539.517 68.7706 539.383 68.8236C537.453 69.7819 535.766 71.1681 534.452 72.8766C534.418 72.9231 534.384 72.9698 534.35 73.0166C531.82 76.5279 530.796 80.4039 531.278 84.6446C531.325 84.8847 531.379 85.1232 531.442 85.3596C531.612 85.9916 531.832 86.5499 532.102 87.0346C532.595 87.9756 533.412 88.7053 534.403 89.0876C534.895 89.2758 535.418 89.3721 535.945 89.3716C537.143 89.3716 538.42 88.8862 539.774 87.9156C540.793 87.1656 541.664 86.234 542.344 85.1676C542.866 84.3556 543.306 83.4933 543.656 82.5936C544.514 80.4496 544.955 78.1618 544.956 75.8526C544.956 75.6906 544.954 75.5285 544.95 75.3666C544.999 75.3821 545.047 75.3974 545.096 75.4126C546.654 75.8818 548.259 76.1776 549.881 76.2946C550.96 76.3759 551.949 76.4382 552.849 76.4816C553.357 76.5062 553.866 76.5252 554.374 76.5386H554.862C558.215 76.5059 561.519 76.0666 564.774 75.2206C564.826 75.1983 564.879 75.1773 564.932 75.1576C565.085 75.1009 565.276 75.0396 565.506 74.9736C565.62 74.9408 565.734 74.9091 565.848 74.8786C565.963 74.8545 566.078 74.8285 566.192 74.8006C566.667 74.6849 567.132 74.5314 567.582 74.3416C567.676 74.3023 567.767 74.2558 567.854 74.2026C568.144 74.0226 568.28 73.8032 568.262 73.5446ZM193.143 73.2186C193.957 73.1206 194.242 73.2916 193.998 73.7316C193.926 73.8574 193.844 73.9771 193.752 74.0896C193.451 74.4689 192.97 74.9312 192.309 75.4766C192.294 75.4889 192.279 75.5013 192.264 75.5136C191.668 76.002 191.064 76.4794 190.45 76.9456C190.057 77.2451 189.66 77.5407 189.261 77.8326C188.808 78.1644 188.351 78.4914 187.891 78.8136C187.33 79.2062 186.802 79.5629 186.307 79.8836C185.429 80.4529 184.892 80.7866 184.696 80.8846C182.255 82.4146 179.748 83.8386 177.176 85.1566C174.605 86.4752 171.903 87.5089 169.071 88.2576C168.809 88.3359 168.543 88.4023 168.274 88.4566C166.39 88.8326 165.06 88.3756 164.286 87.0856C163.756 86.1925 163.443 85.187 163.373 84.1506C163.329 83.5826 163.346 82.9862 163.422 82.3616C163.445 82.1779 163.472 81.9949 163.504 81.8126C163.843 78.6396 165.005 75.61 166.874 73.0236C167.412 72.4222 168.003 72.1976 168.649 72.3496C168.668 72.354 168.687 72.3586 168.705 72.3636C169.071 72.4565 169.409 72.6358 169.691 72.8866C169.895 73.0725 170.065 73.292 170.194 73.5356C170.281 73.6932 170.34 73.8642 170.37 74.0416C170.444 74.4949 170.304 74.9692 169.95 75.4646C168.989 76.842 168.181 78.3205 167.541 79.8736C167.446 80.1032 167.353 80.3343 167.264 80.5666C166.88 81.5555 166.632 82.592 166.526 83.6476C166.493 83.9896 166.476 84.3309 166.476 84.6716C166.477 85.1687 166.512 85.6653 166.581 86.1576C166.996 86.5511 167.529 86.7965 168.098 86.8556C168.39 86.8916 168.705 86.8896 169.041 86.8496C169.166 86.8349 169.29 86.8159 169.413 86.7926C170.586 86.5744 171.732 86.2307 172.831 85.7676C173.016 85.698 173.202 85.6317 173.389 85.5686C173.574 85.5066 173.748 85.4519 173.912 85.4046C174.007 85.3773 174.102 85.3516 174.198 85.3276C177.691 83.8905 181.062 82.176 184.281 80.2006C187.52 78.2152 190.474 75.8879 193.143 73.2186ZM261.258 73.2186C262.072 73.1206 262.357 73.2916 262.113 73.7316C262.041 73.8574 261.959 73.9771 261.867 74.0896C261.566 74.4689 261.085 74.9312 260.425 75.4766C260.41 75.4889 260.395 75.5013 260.379 75.5136C259.784 76.002 259.179 76.4794 258.566 76.9456C258.173 77.2451 257.776 77.5407 257.377 77.8326C256.924 78.1644 256.467 78.4914 256.006 78.8136C255.445 79.2062 254.917 79.5629 254.422 79.8836C253.544 80.4529 253.007 80.7866 252.811 80.8846C250.37 82.4146 247.864 83.8386 245.292 85.1566C242.72 86.4752 240.018 87.5089 237.186 88.2576C236.924 88.3359 236.658 88.4023 236.389 88.4566C234.505 88.8326 233.175 88.3756 232.401 87.0856C231.871 86.1925 231.558 85.187 231.488 84.1506C231.444 83.5826 231.461 82.9862 231.538 82.3616C231.561 82.1779 231.588 81.9949 231.62 81.8126C231.959 78.6396 233.12 75.6101 234.989 73.0236C235.527 72.4222 236.119 72.1976 236.764 72.3496C236.783 72.354 236.802 72.3586 236.82 72.3636C237.186 72.4565 237.524 72.6358 237.806 72.8866C238.01 73.0725 238.18 73.292 238.309 73.5356C238.396 73.6932 238.455 73.8642 238.485 74.0416C238.559 74.4949 238.419 74.9692 238.065 75.4646C237.104 76.842 236.296 78.3205 235.656 79.8736C235.561 80.1032 235.468 80.3343 235.379 80.5666C234.995 81.5555 234.747 82.592 234.641 83.6476C234.609 83.9896 234.592 84.3309 234.592 84.6716C234.592 85.1687 234.627 85.6653 234.696 86.1576C235.111 86.5511 235.644 86.7965 236.213 86.8556C236.505 86.8916 236.82 86.8896 237.156 86.8496C237.281 86.8349 237.405 86.8159 237.528 86.7926C238.701 86.5744 239.847 86.2307 240.946 85.7676C241.131 85.698 241.317 85.6317 241.504 85.5686C241.689 85.5066 241.864 85.4519 242.028 85.4046C242.123 85.3773 242.218 85.3516 242.313 85.3276C245.806 83.8905 249.177 82.176 252.396 80.2006C255.635 78.2152 258.589 75.8879 261.258 73.2186ZM249.149 130.152C252.116 125.164 254.873 120.055 257.414 114.838C259.295 110.986 261.082 107.089 262.772 103.15C258.568 105.433 255.123 108.895 252.86 113.111C251.068 116.219 249.798 119.601 249.1 123.121C249.087 123.173 249.075 123.226 249.064 123.28C249.054 123.328 249.043 123.38 249.033 123.435C249.023 123.492 249.013 123.55 249.003 123.609C248.923 124.095 248.857 124.583 248.806 125.074C248.752 125.588 248.708 126.132 248.674 126.706C248.67 126.788 248.665 126.871 248.661 126.954C248.652 127.129 248.647 127.304 248.647 127.48C248.647 128.472 248.803 129.336 249.114 130.072C249.126 130.098 249.137 130.125 249.149 130.152V130.152ZM415.018 87.1346C416.112 86.8891 417.141 86.414 418.037 85.7407C418.934 85.0675 419.677 84.2116 420.217 83.2296C420.357 82.99 420.488 82.7451 420.609 82.4956C421.83 79.9889 422.326 77.3522 422.098 74.5856C421.665 74.3524 421.267 74.0584 420.917 73.7126C420.523 73.3201 420.211 72.8535 419.999 72.3396C418.212 73.2504 416.702 74.6247 415.628 76.3186C414.548 78.0009 413.825 79.8872 413.504 81.8606C413.504 81.9924 413.488 82.1237 413.456 82.2516C413.411 82.6928 413.388 83.136 413.388 83.5796C413.389 84.1149 413.419 84.6497 413.48 85.1816C413.509 85.4703 413.584 85.7525 413.702 86.0176C413.934 86.5222 414.329 86.8796 414.888 87.0896C414.931 87.1056 414.974 87.1206 415.018 87.1346V87.1346ZM536.112 87.1346C537.206 86.8891 538.235 86.414 539.131 85.7407C540.028 85.0675 540.771 84.2116 541.311 83.2296C541.451 82.99 541.582 82.7451 541.703 82.4956C542.924 79.9889 543.42 77.3522 543.192 74.5856C542.759 74.3524 542.361 74.0584 542.011 73.7126C541.617 73.3202 541.305 72.8535 541.092 72.3396C539.305 73.2506 537.796 74.6248 536.722 76.3186C535.642 78.0009 534.919 79.8872 534.598 81.8606C534.598 81.9924 534.582 82.1237 534.549 82.2516C534.504 82.6928 534.482 83.1361 534.482 83.5796C534.483 84.1149 534.514 84.6497 534.574 85.1816C534.603 85.4702 534.678 85.7524 534.795 86.0176C535.027 86.5222 535.423 86.8796 535.982 87.0896C536.025 87.1056 536.068 87.1206 536.112 87.1346ZM436.405 115.016C437.225 114.254 438.022 113.468 438.796 112.66C439.857 111.556 440.964 110.331 442.118 108.985C444.169 106.593 445.976 104.111 447.538 101.539C442.754 105.025 438.926 109.66 436.405 115.016V115.016ZM194.169 69.8006C195.303 66.5929 196.394 63.3699 197.44 60.1326C194.104 60.5257 190.782 61.0307 187.479 61.6466C188.444 61.9937 189.353 62.4809 190.176 63.0926C190.824 63.58 191.404 64.1529 191.898 64.7956C192.801 65.9788 193.478 67.3182 193.895 68.7466C194 69.0944 194.091 69.4459 194.169 69.8006V69.8006ZM321.805 137.574C321.282 139.338 320.794 141.113 320.34 142.897C320.244 143.152 320.163 143.413 320.096 143.678C319.549 145.799 319.045 147.932 318.583 150.074C317.867 145.744 317.248 141.366 316.727 136.94C318.417 137.171 320.11 137.382 321.805 137.574V137.574ZM188.553 95.5326C189.415 94.2183 190.143 92.8214 190.727 91.3626C191.057 90.5446 191.35 89.7121 191.605 88.8676C192.065 87.3602 192.463 85.8345 192.798 84.2946C192.987 83.4231 193.151 82.5464 193.29 81.6656C191.57 86.2386 189.991 90.8631 188.553 95.5326V95.5326ZM508.719 77.6126C506.456 79.8069 504.487 82.2852 502.86 84.9856C503.544 84.1722 504.244 83.3422 504.96 82.4956C506.275 80.9163 507.529 79.2875 508.719 77.6126V77.6126ZM168.07 66.7736C168.073 66.9854 168.123 67.1939 168.214 67.3848C168.306 67.5758 168.438 67.7446 168.601 67.8796C168.913 68.1369 169.363 68.3052 169.95 68.3846C170.31 68.3675 170.659 68.2587 170.965 68.0686C171.188 67.928 171.389 67.7547 171.561 67.5546C171.611 67.4983 171.658 67.4407 171.704 67.3816C172.061 66.9326 172.282 66.391 172.342 65.8206C172.349 65.7584 172.352 65.696 172.352 65.6336C172.352 65.2629 172.233 64.9306 171.995 64.6366C171.869 64.4837 171.723 64.3482 171.561 64.2336C170.585 63.6482 169.746 63.6972 169.046 64.3806C168.981 64.4444 168.918 64.5104 168.857 64.5786C168.289 65.2166 168.026 65.9482 168.07 66.7736ZM236.185 66.7736C236.188 66.9854 236.238 67.1939 236.329 67.3848C236.421 67.5758 236.553 67.7446 236.716 67.8796C237.029 68.1369 237.479 68.3052 238.065 68.3846C238.425 68.3676 238.775 68.2588 239.081 68.0686C239.304 67.9279 239.505 67.7547 239.676 67.5546C239.726 67.4983 239.773 67.4407 239.819 67.3816C240.177 66.9327 240.398 66.3911 240.458 65.8206C240.464 65.7584 240.467 65.696 240.467 65.6336C240.467 65.2629 240.348 64.9306 240.11 64.6366C239.984 64.4837 239.838 64.3482 239.676 64.2336C238.7 63.6482 237.862 63.6972 237.162 64.3806C237.097 64.4444 237.033 64.5104 236.972 64.5786C236.404 65.2166 236.141 65.9482 236.185 66.7736ZM421.708 72.5346C421.611 72.0486 421.464 71.574 421.268 71.1186C421.264 71.6249 421.418 72.1199 421.708 72.5346V72.5346ZM542.801 72.5346C542.704 72.0486 542.557 71.5741 542.362 71.1186C542.358 71.6248 542.511 72.1198 542.801 72.5346Z"/>
</mask>
<path fill-rule="evenodd" clip-rule="evenodd" d="M93.5832 35.9136C99.8332 42.7496 103.878 50.6679 105.716 59.6686C106.601 63.968 107.05 68.3459 107.054 72.7356C107.051 77.3809 106.545 82.0121 105.545 86.5486C103.728 95.407 100.264 103.846 95.3332 111.426C94.8299 112.193 94.3115 112.95 93.7782 113.697C88.1241 121.631 81.0761 128.472 72.9772 133.888C64.7996 139.376 55.7888 143.506 46.2932 146.119C38.2311 148.366 29.9006 149.504 21.5312 149.504C19.9942 149.504 18.4574 149.466 16.9222 149.391C9.72818 149.163 4.89418 147.535 2.42018 144.508C0.29951 141.912 -0.427489 138.813 0.239177 135.213C0.355208 134.592 0.50476 133.979 0.687177 133.375C2.00584 128.98 4.76451 124.602 8.96318 120.24C10.8377 118.266 12.8444 116.423 14.9692 114.723C16.157 108.428 17.6268 102.19 19.3742 96.0266C20.6594 91.4721 22.0642 86.9522 23.5872 82.4716C27.4452 71.0942 32.2632 60.1809 38.0412 49.7316C41.4569 43.5002 45.4088 37.5782 49.8522 32.0326C52.4137 28.852 55.1629 25.8273 58.0852 22.9746C57.6754 22.9163 57.2639 22.8716 56.8512 22.8406C56.7905 22.836 56.7299 22.8316 56.6692 22.8276C55.3516 22.7259 54.0306 22.6749 52.7092 22.6746C46.0998 22.6709 39.5578 24.0018 33.4752 26.5876C27.0605 29.3559 21.371 33.5667 16.8492 38.8926C12.2628 44.1458 9.27274 50.6001 8.23118 57.4956C8.13523 58.3188 8.08682 59.1468 8.08618 59.9756C8.08414 63.0061 8.76788 65.9978 10.0862 68.7266C10.1475 68.8774 10.1989 69.0321 10.2402 69.1896C10.4355 69.9529 10.2948 70.5796 9.81818 71.0696C9.60683 71.2923 9.35589 71.4737 9.07818 71.6046C8.69084 71.7826 8.26218 71.8426 7.79218 71.7846C7.77583 71.7824 7.75949 71.78 7.74318 71.7776C6.92918 71.6636 6.37584 71.0859 6.08318 70.0446C5.65511 67.8116 5.43783 65.5433 5.43418 63.2696C5.43498 59.9421 5.91662 56.6323 6.86418 53.4426C8.4566 48.0445 11.0762 43.0046 14.5792 38.5996C18.0543 34.1734 22.2463 30.3607 26.9812 27.3196C31.8965 24.2602 37.1862 22.0956 42.8502 20.8256C46.6862 19.9863 50.6014 19.5628 54.5282 19.5626C56.8436 19.5638 59.1567 19.7084 61.4542 19.9956C64.9848 16.9531 68.8796 14.3609 73.0492 12.2786C73.4701 12.0702 73.8938 11.8675 74.3202 11.6706C78.8249 9.58073 83.6564 8.28403 88.6022 7.83758C89.4634 7.78251 90.3262 7.75483 91.1892 7.75458C93.8957 7.75473 96.5954 8.02778 99.2472 8.56958C99.5446 8.63762 99.8287 8.75418 100.088 8.91458C100.376 9.09548 100.622 9.33585 100.809 9.61958C101.167 10.1569 101.281 10.7672 101.151 11.4506C100.989 12.1346 100.631 12.6556 100.077 13.0136C99.5238 13.3716 98.8888 13.4856 98.1722 13.3556C95.943 12.8885 93.6775 12.6161 91.4012 12.5416C88.0118 12.4389 84.7268 12.8159 81.5462 13.6726C76.2895 15.0886 71.3662 17.5056 66.7762 20.9236C76.998 23.1582 86.3272 28.3749 93.5832 35.9136V35.9136ZM398.929 103.11C397.552 102.026 396.108 101.029 394.608 100.123C389.105 96.9456 383.246 94.4299 377.152 92.6276C371.049 90.8209 364.823 89.5759 358.475 88.8926C357.079 88.7626 355.678 88.6812 354.276 88.6486C361.145 85.3279 368.038 81.2912 374.955 76.5386C375.493 76.1687 376.028 75.7934 376.558 75.4126C382.619 71.1008 388.088 66.0127 392.826 60.2786C397.823 54.1919 400.858 47.5026 401.932 40.2106C402.112 38.7264 402.203 37.2327 402.203 35.7376C402.202 33.9832 402.079 32.2309 401.835 30.4936C401.379 27.2382 400.158 24.2759 398.172 21.6066C395.654 18.3954 392.129 16.1251 388.163 15.1616C385.559 14.5034 382.883 14.1682 380.197 14.1636C378.828 14.1637 377.46 14.2526 376.102 14.4296C375.224 14.5596 374.345 14.7222 373.465 14.9176C375.347 11.0893 377.268 7.28045 379.227 3.49158C379.251 3.43271 379.274 3.37336 379.295 3.31358C379.641 2.35358 379.553 1.56658 379.032 0.952576C378.479 0.301909 377.779 -0.015424 376.932 0.000576C376.324 0.012576 375.8 0.263909 375.359 0.754576C375.174 0.964469 375.014 1.1946 374.881 1.44058C372.757 6.34327 370.625 11.2426 368.485 16.1386C359.458 18.9901 351.189 23.838 344.291 30.3226C337.211 36.9146 331.327 44.2959 326.639 52.4666C320.487 63.1432 316.394 74.5119 314.359 86.5726C313.003 94.5888 312.321 102.704 312.319 110.835C312.32 114.87 312.487 118.904 312.821 122.926C313.082 126.578 313.424 130.225 313.846 133.863C311.532 133.435 309.23 132.942 306.943 132.384C302.196 131.236 297.536 129.756 292.997 127.955C289.266 126.385 285.714 124.421 282.401 122.096C282.375 122.078 282.348 122.062 282.321 122.046C282.003 121.859 281.67 121.766 281.321 121.766C281.192 121.766 281.063 121.778 280.936 121.803C280.416 121.9 280.009 122.177 279.715 122.633C279.526 122.964 279.431 123.304 279.431 123.653C279.431 123.786 279.445 123.918 279.471 124.049C279.523 124.316 279.639 124.568 279.808 124.782C279.947 124.954 280.114 125.102 280.301 125.221C285.54 128.267 291.1 130.726 296.879 132.552C302.518 134.339 308.289 135.676 314.139 136.549C315.083 143.873 316.141 151.182 317.313 158.473C317.313 158.481 317.313 158.489 317.313 158.497C317.315 158.553 317.318 158.606 317.325 158.656C317.333 158.71 317.345 158.763 317.362 158.815C317.362 158.861 317.364 158.907 317.368 158.953C317.395 159.267 317.515 159.523 317.727 159.721C317.85 159.832 317.991 159.921 318.143 159.986C318.178 160 318.214 160.012 318.25 160.024C318.538 160.114 318.82 160.102 319.095 159.986C319.244 159.924 319.38 159.833 319.492 159.718C319.606 159.598 319.695 159.457 319.754 159.303C321.212 155.421 322.387 151.439 323.27 147.389C323.528 146.196 323.805 145.007 324.1 143.824C324.585 141.853 325.073 139.884 325.565 137.916C337.349 138.86 348.962 138.689 360.404 137.403C360.494 137.393 360.583 137.383 360.672 137.373C372.004 136.082 382.046 133.838 390.799 130.641C392.235 130.043 393.64 129.375 395.009 128.639C396.671 127.739 398.151 126.784 399.448 125.776C400.926 124.649 402.246 123.329 403.373 121.852C403.842 121.228 404.26 120.568 404.623 119.877C405.669 117.871 406.073 115.806 405.835 113.682C405.732 112.788 405.528 111.909 405.228 111.061C405.121 110.754 405.001 110.451 404.868 110.155C403.797 107.753 401.818 105.405 398.929 103.11ZM100.956 85.6206C101.776 81.498 102.189 77.3049 102.19 73.1016C102.189 70.4803 102.029 67.8615 101.712 65.2596C100.897 58.4696 98.7307 51.9116 95.3402 45.9726C91.8248 40.1132 87.2432 35.2956 81.5952 31.5196C75.9478 27.7436 69.8038 25.1556 63.1632 23.7556C57.75 28.5504 52.9149 33.9607 48.7562 39.8766C47.5251 41.6129 46.3452 43.385 45.2182 45.1906C39.9935 53.5566 35.5585 62.1179 31.9132 70.8746C30.3953 74.5081 28.9586 78.175 27.6042 81.8726C26.3728 85.2479 25.2888 88.4699 24.3522 91.5386C24.046 92.5415 23.7503 93.5475 23.4652 94.5566C21.898 100.11 20.5784 105.731 19.5102 111.402C26.6068 106.682 34.3382 103.475 42.7042 101.783C46.4621 101.012 50.2882 100.624 54.1242 100.623C56.5915 100.624 59.0562 100.783 61.5032 101.1C63.6075 101.39 65.6941 101.797 67.7532 102.32C68.0014 102.386 68.2366 102.493 68.4492 102.638C68.6959 102.809 68.9001 103.034 69.0462 103.297C69.2324 103.62 69.33 103.987 69.3292 104.361C69.3292 104.505 69.3152 104.652 69.2872 104.803C69.2808 104.838 69.2738 104.873 69.2662 104.908C69.1973 105.167 69.0817 105.412 68.9252 105.63C68.7502 105.867 68.5248 106.062 68.2652 106.202C67.9593 106.373 67.6147 106.463 67.2642 106.464C67.0582 106.464 66.8465 106.433 66.6292 106.373C64.7526 105.822 62.8453 105.382 60.9172 105.055C58.1068 104.619 55.2672 104.399 52.4232 104.397C47.8859 104.4 43.3665 104.965 38.9682 106.08C31.7805 107.878 24.9748 110.954 18.8762 115.162C18.0295 120.468 17.6062 125.806 17.6062 131.178C17.5921 131.46 17.5454 131.74 17.4672 132.012C17.3612 132.367 17.1982 132.664 16.9782 132.903C16.7906 133.104 16.564 133.264 16.3122 133.375C15.5148 133.733 14.7255 133.725 13.9442 133.351C13.1628 132.976 12.7558 132.219 12.7232 131.08C12.8995 128.828 13.1366 126.582 13.4342 124.344C13.6847 122.45 13.9687 120.561 14.2862 118.678C13.0517 119.717 11.8623 120.808 10.7212 121.949C8.21964 124.319 6.06627 127.032 4.32518 130.006C3.76687 130.978 3.28186 131.991 2.87418 133.036C2.20018 134.786 1.86318 136.448 1.86318 138.021C1.86027 139.001 1.99869 139.977 2.27418 140.919C3.05084 143.557 5.16084 145.451 8.60418 146.602C9.39416 146.862 10.1989 147.076 11.0142 147.242C14.3238 147.762 17.6689 148.023 21.0192 148.024C22.6991 148.023 24.3783 147.958 26.0532 147.828C34.857 147.253 43.5198 145.326 51.7372 142.115C64.0023 137.49 74.9726 129.979 83.7192 120.216C92.5077 110.469 98.4677 98.5066 100.956 85.6206V85.6206ZM346.756 92.1146L346.708 92.0656C346.656 92.1001 346.603 92.1327 346.549 92.1636C346.493 92.1956 346.433 92.2276 346.369 92.2596C346.368 92.2602 346.367 92.2609 346.366 92.2616C346.224 92.2882 346.086 92.3016 345.951 92.3016C345.597 92.3032 345.25 92.2048 344.95 92.0176C344.745 91.8942 344.566 91.7314 344.423 91.5387C344.281 91.346 344.178 91.1271 344.12 90.8946C344.09 90.7827 344.069 90.6687 344.056 90.5536C344.049 90.4869 344.045 90.4216 344.045 90.3576C344.044 90.0844 344.111 89.8154 344.242 89.5756C344.454 89.1849 344.771 88.8919 345.194 88.6966C350.566 86.1252 355.807 83.3096 360.917 80.2496C365.865 77.3202 371.016 73.8452 376.371 69.8246C381.614 65.9128 386.339 61.3517 390.433 56.2506C393.352 52.6585 395.56 48.5431 396.938 44.1246C397.38 42.6814 397.727 41.211 397.977 39.7226C398.114 38.7553 398.216 37.7833 398.281 36.8086C398.642 31.3286 397.649 26.9769 395.302 23.7536C394.899 23.2003 394.455 22.6785 393.973 22.1926C392.153 20.3908 389.908 19.0767 387.445 18.3716C384.661 17.5256 381.38 17.2232 377.602 17.4646C377.216 17.4895 376.83 17.5195 376.444 17.5546C374.817 17.7826 373.222 18.0756 371.659 18.4336C362.294 37.2266 353.693 56.391 345.878 75.8796C338.065 95.3631 331.477 115.316 326.151 135.621C330.844 136.061 335.554 136.282 340.267 136.283C346.641 136.283 353.009 135.875 359.33 135.06C365.576 134.278 371.746 132.97 377.772 131.152C381.634 129.977 385.415 128.55 389.09 126.881C391.648 125.626 394.073 124.117 396.328 122.376C396.365 122.347 396.402 122.319 396.439 122.291C398.723 120.583 400.338 118.13 401.004 115.357C401.021 115.161 401.029 114.965 401.029 114.769C401.032 113.441 400.622 112.145 399.857 111.061C398.962 109.758 397.945 108.586 396.805 107.545C395.123 106.087 393.344 104.746 391.479 103.532C389.579 102.284 387.498 101.076 385.236 99.9086C384.468 99.5126 383.694 99.1283 382.914 98.7556C377.307 96.068 371.431 93.981 365.384 92.5296C363.336 92.0329 361.263 91.6457 359.174 91.3696C355.673 90.9162 352.418 90.8616 349.408 91.2056C349.322 91.2152 349.235 91.2252 349.149 91.2356L348.075 91.5286C347.687 91.695 347.3 91.866 346.916 92.0416C346.863 92.0658 346.809 92.0901 346.756 92.1146V92.1146ZM328.983 53.7846C324.133 61.9552 320.634 70.4839 318.485 79.3706C316.334 88.2813 315.171 97.402 315.018 106.568C314.997 107.784 314.986 109.002 314.986 110.219C314.988 118.283 315.455 126.341 316.385 134.352C318.397 134.676 320.416 134.953 322.44 135.182C327.224 118.878 332.714 102.79 338.895 86.9636C345.08 71.1269 351.509 55.3962 358.182 39.7716C361.047 33.1309 363.944 26.4902 366.874 19.8496C358.704 22.8116 351.428 27.3526 345.047 33.4726C338.667 39.5919 333.313 46.3626 328.983 53.7846ZM502.997 73.2556C502.931 73.3028 502.869 73.3557 502.811 73.4136C501.668 74.8173 500.446 76.1542 499.149 77.4176C496.545 80.0216 493.664 82.2352 490.506 84.0586C489.937 84.4068 489.338 84.703 488.716 84.9436C487.726 85.3222 486.741 85.5116 485.762 85.5116C485.381 85.5115 485 85.4827 484.623 85.4256C482.686 85.1322 481.392 83.8626 480.741 81.6166C480.635 81.0241 480.582 80.4234 480.581 79.8216C480.581 79.4629 480.601 79.1049 480.639 78.7476C480.76 77.6663 481.041 76.609 481.473 75.6106C482.32 73.6252 483.443 71.8349 484.842 70.2396C484.864 70.2053 484.886 70.1706 484.906 70.1356C485.11 69.7822 485.212 69.4426 485.212 69.1166C485.212 68.9068 485.169 68.6993 485.086 68.5066C484.977 68.241 484.81 68.0031 484.597 67.8106C484.391 67.6302 484.15 67.4931 483.89 67.4076C483.716 67.347 483.533 67.3159 483.348 67.3156C482.955 67.3156 482.558 67.4602 482.157 67.7496C479.915 69.3997 477.717 71.1093 475.565 72.8766C473.18 74.8051 470.929 76.8932 468.827 79.1266C473.189 66.1386 477.909 53.3619 482.987 40.7966C483.089 40.5172 483.139 40.2562 483.139 40.0136C483.143 39.646 483.011 39.2901 482.767 39.0146C482.582 38.795 482.354 38.6159 482.096 38.4886C481.818 38.3562 481.514 38.2856 481.205 38.2816C481.19 38.2814 481.174 38.2814 481.158 38.2816C480.544 38.2816 480.014 38.5989 479.569 39.2336C477.831 41.7918 476.139 44.3802 474.491 46.9976C474.447 47.0706 474.406 47.1454 474.367 47.2216C474.088 47.7802 474.056 48.2752 474.271 48.7066C474.505 49.1853 474.917 49.5534 475.419 49.7316C471.071 61.4716 467.242 73.3975 463.944 85.4746C463.922 85.5098 463.901 85.5452 463.879 85.5806C462.534 87.8059 461.861 90.1559 461.861 92.6306C461.861 92.9472 461.872 93.2637 461.893 93.5796C461.893 93.664 461.902 93.7482 461.92 93.8306C461.942 93.936 461.988 94.0347 462.056 94.1185C462.123 94.2023 462.21 94.2689 462.308 94.3126C462.322 94.3188 462.336 94.3248 462.35 94.3306C462.529 94.4066 462.711 94.4319 462.896 94.4066C462.988 94.3938 463.077 94.3703 463.163 94.3366C463.357 94.2623 463.519 94.1226 463.621 93.9416C463.677 93.8433 463.72 93.738 463.749 93.6286C464.666 91.0424 465.577 88.4544 466.483 85.8646C468.046 83.6512 469.958 81.5842 472.22 79.6636C474.483 77.7429 476.786 75.9852 479.129 74.3906C478.745 75.9106 478.56 77.3599 478.573 78.7386C478.579 80.1164 478.808 81.4842 479.252 82.7886C479.558 83.7259 480.114 84.5619 480.86 85.2066C481.986 86.1652 483.574 86.6939 485.624 86.7926C488.749 86.1739 491.63 84.8719 494.266 82.8866C496.905 80.8991 499.402 78.7291 501.737 76.3926L503.885 74.3416C504.074 74.1522 504.169 73.9672 504.169 73.7866C504.169 73.7173 504.155 73.6487 504.129 73.5846C504.127 73.5779 504.124 73.5712 504.121 73.5646C504.022 73.3319 503.845 73.1839 503.592 73.1206C503.394 73.0712 503.196 73.1162 502.997 73.2556ZM509.305 47.8766L513.846 39.4296C513.961 39.2316 514.098 39.0476 514.255 38.8816C514.572 38.5355 515.013 38.3289 515.482 38.3066C515.872 38.2872 516.222 38.3539 516.534 38.5066C516.763 38.6209 516.97 38.7765 517.142 38.9656C517.568 39.4222 517.65 40.0089 517.389 40.7256C517.38 40.7493 517.371 40.773 517.362 40.7966C512.268 52.9894 507.819 65.4416 504.032 78.1016C505.32 76.4573 506.723 74.907 508.231 73.4626C509.396 72.3802 510.58 71.319 511.783 70.2796C511.95 70.1358 512.117 69.9924 512.284 69.8496C512.727 69.4623 513.17 69.076 513.614 68.6906C513.675 68.6372 513.736 68.5839 513.797 68.5306C513.937 68.406 514.089 68.2957 514.25 68.2016C514.539 68.0356 514.83 67.9526 515.123 67.9526C515.244 67.9527 515.364 67.9664 515.482 67.9936C515.766 68.055 516.034 68.1764 516.268 68.3496C516.473 68.5055 516.646 68.6998 516.776 68.9216C517.069 69.4096 517.069 69.9792 516.776 70.6306C515.051 73.6252 513.049 76.4246 510.77 79.0286C508.495 81.6292 506.117 84.1379 503.641 86.5486C505.142 86.7406 506.654 86.8375 508.167 86.8386C512.452 86.839 516.699 86.0281 520.682 84.4486C526.151 82.3006 530.773 78.6222 534.549 73.4136C534.608 73.3418 534.676 73.2776 534.751 73.2226C534.857 73.1439 534.981 73.0921 535.111 73.0716C535.153 73.0654 535.195 73.0624 535.237 73.0626C535.367 73.0626 535.493 73.0939 535.616 73.1566C535.652 73.1752 535.687 73.1959 535.721 73.2186C536.039 73.4786 536.017 73.9309 535.655 74.5756C535.607 74.6618 535.556 74.7465 535.502 74.8296C535.281 75.1694 535.044 75.4981 534.79 75.8146C534.544 76.1239 534.271 76.4422 533.971 76.7696C533.785 76.9725 533.595 77.1722 533.402 77.3686C532.507 78.2799 531.636 79.1182 530.79 79.8836C530.606 80.0495 530.422 80.2148 530.237 80.3796C529.683 80.8749 529.282 81.2222 529.032 81.4216C526.471 83.4804 523.605 85.1278 520.536 86.3046C517.526 87.4264 514.367 88.1009 511.161 88.3066C510.218 88.3651 509.273 88.3944 508.328 88.3946C506.139 88.3949 503.952 88.2348 501.786 87.9156C501.716 87.9168 501.646 87.9028 501.581 87.8746C501.515 87.8439 501.456 87.7969 501.405 87.7336C501.402 87.7293 501.398 87.725 501.395 87.7206C501.066 88.4445 500.757 89.1771 500.467 89.9176C500.141 91.0939 499.799 92.266 499.442 93.4336C499.415 93.5798 499.359 93.7192 499.277 93.8436C499.187 93.976 499.068 94.0861 498.929 94.1656C498.806 94.2392 498.674 94.2947 498.535 94.3306C498.431 94.3566 498.326 94.3696 498.221 94.3696C498.172 94.3693 498.124 94.3663 498.075 94.3606C497.923 94.2952 497.782 94.2053 497.658 94.0946C497.375 93.8346 497.253 93.4779 497.291 93.0246C497.292 93.0142 497.293 93.0039 497.294 92.9936C497.336 92.592 497.414 92.195 497.528 91.8076C497.614 91.5141 497.715 91.2253 497.831 90.9426C497.901 90.7461 497.965 90.5477 498.023 90.3476C498.114 90.0322 498.18 89.7426 498.221 89.4786C498.319 89.0879 498.433 88.6972 498.563 88.3066C501.827 75.4857 505.589 62.797 509.842 50.2696C509.642 50.1558 509.468 50.0011 509.331 49.8156C509.218 49.6577 509.135 49.4805 509.086 49.2926C509.051 49.1621 509.034 49.0276 509.034 48.8926C509.034 48.6072 509.109 48.3022 509.257 47.9776C509.273 47.9436 509.289 47.91 509.305 47.8766V47.8766ZM270.213 100.484C270.16 100.43 270.096 100.387 270.025 100.359C269.955 100.33 269.879 100.316 269.803 100.318C269.085 100.318 268.367 100.367 267.655 100.465C268.374 98.6328 269.074 96.7933 269.754 94.9466C269.771 94.9081 269.788 94.8694 269.804 94.8306C270.078 94.1686 270.546 92.7986 271.209 90.7206C271.385 90.1687 271.559 89.6164 271.732 89.0636C272.112 87.847 272.473 86.6245 272.815 85.3966C273.416 83.2301 273.967 81.0498 274.466 78.8576C274.499 78.715 274.531 78.5723 274.563 78.4296C275.325 74.9989 275.659 72.2366 275.565 70.1426C275.477 68.1552 274.672 67.5732 273.15 68.3966C272.991 68.4834 272.835 68.5771 272.684 68.6776C272.477 68.8122 272.307 68.9956 272.187 69.2116C272.089 69.3947 272.026 69.5944 272.001 69.8006C271.915 70.2545 271.782 70.6983 271.604 71.1246C271.41 71.5899 271.175 72.0373 270.902 72.4616C270.331 73.359 269.72 74.2305 269.071 75.0736C268.485 75.8222 267.964 76.5386 267.508 77.2226C266.5 78.6546 265.36 80.1682 264.09 81.7636C263.297 82.7602 262.561 83.6552 261.882 84.4486C261.502 84.894 261.115 85.3337 260.721 85.7676C260.69 85.7097 260.661 85.6506 260.634 85.5906C260.29 84.8212 260.246 83.7652 260.502 82.4226C260.779 80.9739 261.243 79.5659 261.893 78.1986C262.545 76.8319 263.228 75.8716 263.944 75.3176C264.018 75.2488 264.09 75.1785 264.161 75.1066C264.971 74.2799 265.249 73.5366 264.994 72.8766C264.909 72.6366 264.77 72.419 264.589 72.24C264.408 72.0609 264.188 71.9251 263.947 71.8426C263.725 71.7657 263.494 71.7193 263.26 71.7046C263.212 71.7011 263.163 71.6994 263.114 71.6996C262.503 71.6996 261.925 71.9872 261.377 72.5626C261.172 72.7819 260.986 73.0177 260.819 73.2676C260.148 74.1176 259.527 75.2602 258.955 76.6956C258.678 77.3981 258.428 78.1114 258.207 78.8336C257.971 79.5889 257.781 80.3576 257.636 81.1356C257.464 82.0782 257.377 82.9849 257.377 83.8556C257.376 84.4381 257.417 85.0199 257.499 85.5966C257.533 85.8387 257.585 86.078 257.654 86.3126C258.101 87.8066 259.219 88.5536 261.009 88.5536C261.076 88.5536 261.143 88.5526 261.21 88.5506C261.991 88.1599 262.642 87.5739 263.163 86.7926C263.359 86.5961 263.539 86.3837 263.7 86.1576C266.369 82.7396 268.909 79.2729 271.317 75.7576C270.62 79.4891 269.735 83.1828 268.664 86.8246C267.175 91.8735 265.403 96.835 263.358 101.686C260.163 103.13 257.328 105.264 255.057 107.936C252.279 111.275 250.046 115.032 248.441 119.068C246.797 123.17 246.35 127.271 247.098 131.373C247.152 131.729 247.247 132.097 247.383 132.478C247.503 132.81 247.645 133.134 247.806 133.448C248.181 134.18 248.661 134.669 249.247 134.913C249.725 135.112 250.267 134.927 250.874 134.358C251.023 134.217 251.164 134.068 251.297 133.912C257.613 123.593 262.903 112.851 267.167 101.686C268.007 101.556 268.856 101.49 269.706 101.49C269.782 101.49 269.856 101.477 269.927 101.451C270.007 101.42 270.081 101.376 270.145 101.319C270.154 101.311 270.163 101.303 270.172 101.295C270.226 101.245 270.269 101.184 270.298 101.117C270.327 101.05 270.341 100.977 270.34 100.904C270.373 100.741 270.332 100.603 270.218 100.489C270.217 100.487 270.215 100.485 270.213 100.484ZM168.412 73.0966C168.409 73.0952 168.406 73.0939 168.403 73.0926C168.227 73.0166 168.043 73.0586 167.85 73.2186C166.531 74.5339 165.056 75.6818 163.456 76.6366C161.551 77.7508 159.528 78.6513 157.425 79.3216C155.417 79.97 153.319 80.3003 151.208 80.3006C151.108 80.3006 151.008 80.3 150.907 80.2986C150.218 80.2357 149.563 79.9717 149.023 79.5396C148.685 79.2708 148.383 78.9595 148.124 78.6136C147.351 77.6005 146.68 76.5128 146.122 75.3666C145.981 75.132 145.843 74.896 145.707 74.6586C145.582 74.4405 145.46 74.2208 145.34 73.9996C145.33 73.9779 145.319 73.9562 145.308 73.9346C144.618 72.5539 143.791 71.8636 142.827 71.8636C142.753 71.8637 142.68 71.8677 142.606 71.8756C141.532 71.9896 140.442 72.5672 139.335 73.6086C137.959 74.8534 136.67 76.1912 135.477 77.6126C134.844 78.345 134.193 79.0616 133.524 79.7616C133.379 79.0419 133.268 78.3158 133.192 77.5856C133.09 76.6169 133.039 75.6016 133.039 74.5396C133.04 73.9443 133.055 73.3491 133.085 72.7546C133.086 72.7412 133.087 72.7279 133.087 72.7146C133.219 70.1459 133.576 68.1166 134.159 66.6266C134.162 66.6009 134.165 66.5753 134.168 66.5496C134.184 66.3889 134.189 66.2346 134.181 66.0866C134.166 65.5719 133.968 65.0795 133.622 64.6976C133.166 64.1929 132.613 63.9326 131.961 63.9166C131.946 63.916 131.93 63.9157 131.914 63.9156C131.282 63.9156 130.712 64.2332 130.204 64.8686C129.982 65.2057 129.763 65.5444 129.545 65.8846C128.866 66.9493 128.206 68.0269 127.567 69.1166C127.456 69.2909 127.346 69.4659 127.237 69.6416C127.134 69.8079 127.033 69.9749 126.932 70.1426L126.444 71.0216C123.525 75.9304 120.563 80.8133 117.557 85.6696C117.529 85.7145 117.5 85.7595 117.472 85.8046C117.267 86.1305 117.068 86.4599 116.874 86.7926L116.971 86.4996C117.46 85.4582 117.867 84.4166 118.192 83.3746C118.225 83.284 118.258 83.1934 118.29 83.1026C118.391 82.8199 118.488 82.5362 118.583 82.2516C118.701 81.9354 118.818 81.6191 118.934 81.3026C119.724 79.1551 120.486 76.9973 121.219 74.8296C121.301 74.5142 121.335 74.2262 121.32 73.9656C121.314 73.7488 121.263 73.5357 121.17 73.3398C121.077 73.1439 120.944 72.9695 120.78 72.8276C120.26 72.3722 119.657 72.1932 118.973 72.2906C118.73 72.3232 118.497 72.413 118.295 72.5526C117.955 72.7886 117.693 73.1732 117.508 73.7066C117.288 74.4702 117.072 75.2352 116.861 76.0016C116.633 76.8304 116.409 77.6604 116.19 78.4916C116.16 78.6016 116.131 78.712 116.103 78.8226C116.045 79.0529 115.993 79.2847 115.946 79.5176V79.5186C115.852 79.9301 115.737 80.3369 115.604 80.7376C115.216 82.2897 114.874 83.8531 114.579 85.4256C114.417 86.3998 114.27 87.3766 114.139 88.3556C114.011 89.2836 113.881 90.2112 113.749 91.1386C113.748 91.1436 113.748 91.1486 113.747 91.1536C113.741 91.2276 113.742 91.2979 113.749 91.3646C113.759 91.4839 113.795 91.5997 113.853 91.7039C113.912 91.8082 113.993 91.8985 114.09 91.9686C114.107 91.9811 114.124 91.9931 114.142 92.0046C114.337 92.1326 114.549 92.1726 114.778 92.1246C114.843 92.1105 114.907 92.0908 114.969 92.0656C115.08 92.0057 115.187 91.9382 115.288 91.8636C115.488 91.7179 115.661 91.5386 115.799 91.3336C115.805 91.328 115.811 91.3223 115.817 91.3166C115.877 91.2546 115.936 91.1789 115.995 91.0896C116.907 89.9176 117.785 88.7292 118.631 87.5246C118.829 87.2944 119.008 87.0497 119.169 86.7926C120.216 85.3202 121.274 83.8555 122.342 82.3986C124.719 79.0126 127.161 75.6759 129.667 72.3886C129.504 75.9039 129.797 79.3869 130.545 82.8376C130.573 82.9197 130.602 83.0014 130.632 83.0826C130.874 83.7399 131.161 84.2372 131.491 84.5746C131.777 84.8881 132.173 85.079 132.596 85.1076C132.631 85.1096 132.667 85.1106 132.702 85.1106C133.544 85.1106 134.372 84.5482 135.184 83.4236C136.161 82.1862 137.073 80.9329 137.919 79.6636C138.405 78.9508 138.91 78.2508 139.432 77.5646C139.482 77.4986 139.531 77.4323 139.579 77.3656C139.73 77.1579 139.876 76.9472 140.018 76.7336C140.174 76.4933 140.339 76.2594 140.514 76.0326C141.157 75.1863 141.949 74.4642 142.85 73.9016C142.961 73.924 143.07 73.9572 143.175 74.0006C143.539 74.1506 143.879 74.4269 144.193 74.8296C144.594 75.3419 144.962 75.88 145.292 76.4406C145.314 76.4766 145.337 76.5126 145.359 76.5486C145.426 76.6546 145.49 76.7549 145.551 76.8496C145.61 76.9417 145.67 77.0334 145.731 77.1246C146.449 78.4617 147.429 79.6408 148.612 80.5916C149.242 81.0397 149.988 81.2941 150.76 81.3236C150.954 81.332 151.149 81.3363 151.343 81.3366C151.916 81.337 152.487 81.3003 153.055 81.2266C158.855 80.4376 164.283 77.9192 168.631 73.9996C168.642 73.9889 168.653 73.9779 168.663 73.9666C168.771 73.8472 168.818 73.7239 168.804 73.5966C168.8 73.559 168.791 73.522 168.778 73.4866C168.713 73.3079 168.591 73.1779 168.412 73.0966ZM229.873 59.4456C229.723 59.2823 229.556 59.136 229.374 59.0096C228.847 58.6884 228.296 58.4102 227.724 58.1776C226.882 57.8316 225.948 57.5506 224.922 57.3346C223.942 57.1318 222.95 56.9899 221.952 56.9096C220.229 56.7649 218.437 56.7032 216.577 56.7246C215.055 56.744 213.533 56.814 212.015 56.9346C211.142 57.0028 210.27 57.0774 209.398 57.1586C206.903 57.3891 204.413 57.6805 201.932 58.0326C203.365 53.6379 204.569 49.2109 205.545 44.7516C205.578 43.8729 205.293 43.2952 204.691 43.0186C204.401 42.8824 204.084 42.8114 203.763 42.8106C203.623 42.8106 203.482 42.8242 203.338 42.8516C203.149 42.8881 202.965 42.944 202.787 43.0186C202.562 43.1081 202.358 43.2438 202.188 43.4171C202.018 43.5904 201.887 43.7973 201.802 44.0246C201.719 44.2425 201.664 44.4705 201.639 44.7026C201.01 48.4867 200.063 52.211 198.807 55.8356C198.578 56.6215 198.334 57.4029 198.075 58.1796C198.075 58.2082 198.072 58.2367 198.065 58.2646C198.057 58.3027 198.044 58.3397 198.026 58.3746C198.002 58.4219 197.987 58.4606 197.981 58.4906C197.979 58.5007 197.977 58.5111 197.977 58.5216C197.509 58.584 197.041 58.645 196.573 58.7046C196.146 58.7588 195.719 58.8114 195.292 58.8626C191.553 59.4217 187.838 60.1386 184.159 61.0116C184.094 61.0279 184.032 61.0549 183.975 61.0916C183.916 61.1303 183.863 61.1775 183.817 61.2316C183.795 61.2575 183.774 61.2846 183.754 61.3126C183.693 61.3986 183.648 61.4953 183.622 61.5976C183.622 61.637 183.624 61.6764 183.629 61.7156C183.655 61.9176 183.749 62.0666 183.912 62.1626C183.989 62.2064 184.073 62.2381 184.159 62.2566C184.349 62.2999 184.553 62.3316 184.771 62.3516C184.973 62.37 185.176 62.379 185.379 62.3786C185.551 62.3779 185.724 62.3849 185.895 62.3996C186.077 62.4162 186.245 62.4419 186.397 62.4766C186.551 62.51 186.7 62.5589 186.844 62.6226C187.255 62.7434 187.657 62.8897 188.049 63.0606C189.475 63.659 190.688 64.6717 191.532 65.9676C192.574 67.5789 193.257 69.4426 193.583 71.5586L192.997 73.2186C189.855 81.8947 187.053 90.6904 184.598 99.5856C184.587 99.6369 184.578 99.6886 184.57 99.7406C184.497 100.253 184.653 100.657 185.038 100.953C185.059 100.969 185.08 100.984 185.102 101C185.43 101.224 185.794 101.269 186.196 101.135C186.302 101.099 186.405 101.054 186.503 101.002C187.79 99.8174 188.842 98.4009 189.603 96.8266C190.367 95.2517 191.027 93.6289 191.581 91.9686C191.84 91.2901 192.084 90.6063 192.313 89.9176C192.875 88.2367 193.338 86.5244 193.7 84.7896C194.173 82.517 194.508 80.2183 194.706 77.9056C195.024 77.0789 195.333 76.2489 195.633 75.4156C197.652 70.2076 199.556 64.9829 201.346 59.7416C205.067 59.4234 208.799 59.264 212.533 59.2636C214.127 59.2636 215.721 59.2929 217.313 59.3516C217.867 59.4162 218.436 59.4649 219.022 59.4976C220.531 59.5594 222.028 59.7803 223.49 60.1566C224.879 60.4897 226.091 61.3355 226.883 62.5246C226.964 62.5832 227.047 62.6386 227.132 62.6906C227.629 62.9912 228.097 63.0999 228.537 63.0166C228.738 62.9774 228.931 62.9018 229.105 62.7936C229.414 62.6094 229.682 62.3632 229.891 62.0706C230.111 61.7533 230.26 61.3919 230.326 61.0116C230.328 61.0019 230.33 60.9923 230.331 60.9826C230.431 60.4086 230.278 59.8962 229.873 59.4456ZM456.897 97.3666C456.871 97.3555 456.843 97.3464 456.815 97.3396C455.839 97.4049 454.878 97.5676 453.934 97.8276C454.65 95.6796 454.87 93.6206 454.593 91.6506C454.432 90.5074 454.026 89.4123 453.404 88.4396C452.91 87.6699 452.316 86.9686 451.639 86.3536C452.746 84.9862 453.763 83.5456 454.691 82.0316C455.606 80.5513 456.258 78.9245 456.62 77.2226C456.655 76.9506 456.684 76.6779 456.706 76.4046C456.878 74.2799 456.581 72.5669 455.814 71.2656C455.036 69.9449 453.968 69.2856 452.608 69.2876C452.456 69.2882 452.304 69.2966 452.152 69.3126C451.87 69.3426 451.592 69.4029 451.323 69.4926C449.982 69.9346 448.557 71.1116 447.049 73.0236C447.035 73.0404 447.022 73.0577 447.01 73.0756C446.949 73.1656 446.919 73.2529 446.919 73.3376C446.92 73.389 446.931 73.4398 446.952 73.4866C446.953 73.4896 446.954 73.4926 446.955 73.4956C446.995 73.5796 447.05 73.6442 447.122 73.6896C447.175 73.722 447.233 73.7443 447.294 73.7556C447.296 73.7559 447.298 73.7563 447.3 73.7566C447.46 73.7866 447.605 73.7372 447.733 73.6086C448.091 73.2186 448.498 72.8442 448.954 72.4856C450.875 70.9556 452.291 70.5326 453.202 71.2166C454.032 71.8386 454.416 73.0672 454.356 74.9026C454.35 75.0901 454.34 75.2775 454.325 75.4646C454.144 77.0563 453.546 78.5719 452.591 79.8586C452.413 80.1009 452.231 80.3406 452.045 80.5776C451.275 81.5658 450.438 82.5003 449.54 83.3746C449.199 83.7041 448.869 84.0446 448.55 84.3956C447.943 85.0669 447.475 85.6869 447.147 86.2556C447.145 86.2596 447.142 86.2636 447.14 86.2676C446.748 86.9562 446.809 87.5909 447.323 88.1716C447.448 88.3102 447.585 88.4371 447.733 88.5506C447.94 88.7067 448.138 88.8726 448.329 89.0476C449.627 90.2436 450.276 91.6826 450.276 93.3646C450.276 93.4363 450.275 93.5079 450.272 93.5796C450.207 95.5976 449.556 97.7786 448.319 100.123C445.064 102.109 442.191 104.64 439.701 107.716C438.94 108.654 438.219 109.625 437.54 110.626C436.132 112.689 434.949 114.897 434.012 117.213C433.967 117.411 433.96 117.574 433.993 117.701C434.008 117.768 434.041 117.83 434.087 117.881C434.133 117.932 434.191 117.971 434.256 117.994C434.332 118.022 434.41 118.043 434.49 118.057C434.634 118.083 434.793 118.089 434.965 118.075C435.047 118.068 435.128 118.057 435.209 118.043C435.443 118.002 435.655 117.961 435.844 117.921C435.95 117.898 436.056 117.874 436.161 117.848C439.09 116.741 441.646 115.048 443.827 112.77C444.734 111.875 445.604 110.945 446.436 109.981C447.469 108.783 448.455 107.547 449.393 106.275C449.681 105.886 449.961 105.492 450.232 105.093C451.646 103.029 452.807 100.803 453.69 98.4626C454.695 98.1705 455.725 97.9742 456.766 97.8766C456.786 97.8767 456.806 97.8757 456.825 97.8736C456.921 97.8622 456.983 97.8226 457.01 97.7546C457.013 97.748 457.016 97.7413 457.018 97.7346C457.035 97.6866 457.043 97.6389 457.043 97.5916C457.043 97.5644 457.041 97.5372 457.035 97.5106C457.023 97.4479 456.977 97.3999 456.897 97.3666ZM225.565 75.3666C225.705 75.4648 225.86 75.5389 226.024 75.5856C226.154 75.6228 226.286 75.6476 226.42 75.6596C226.643 75.6805 226.866 75.6945 227.089 75.7016C227.232 75.7063 227.375 75.7086 227.518 75.7086C227.62 75.7006 227.723 75.6949 227.825 75.6916C228.121 75.6829 228.385 75.6966 228.617 75.7326C228.688 75.7431 228.757 75.7623 228.823 75.7896C229.002 75.8649 229.104 75.9992 229.129 76.1926C229.129 76.1939 229.129 76.1952 229.129 76.1966C228.999 76.5872 228.633 76.8559 228.031 77.0026C227.603 77.1053 227.165 77.1639 226.725 77.1776C226.641 77.1809 226.557 77.1826 226.471 77.1826C226.348 77.1825 226.225 77.1795 226.102 77.1736C225.902 77.1644 225.703 77.1477 225.504 77.1236C225.111 77.0749 224.782 76.9976 224.518 76.8916C224.509 76.888 224.5 76.8843 224.491 76.8806C224.06 76.6694 223.659 76.4003 223.301 76.0806C222.875 75.697 222.532 75.2296 222.294 74.7076C221.934 73.9105 221.735 73.0499 221.709 72.1756C221.706 72.0816 221.704 71.9869 221.704 71.8916C221.704 71.8129 221.706 71.7342 221.708 71.6556C218.42 74.4876 215.58 77.7429 213.187 81.4216C210.815 85.0614 208.765 88.9009 207.059 92.8966C206.962 93.1566 206.791 93.3516 206.546 93.4816C206.428 93.5457 206.296 93.5794 206.162 93.5796C206.082 93.5796 206.001 93.5682 205.917 93.5456C205.857 93.5287 205.798 93.5073 205.741 93.4816C205.602 93.4144 205.48 93.3154 205.386 93.1926C205.315 93.096 205.261 92.9872 205.228 92.8716C205.147 92.5949 205.106 92.3102 205.106 92.0176C205.107 91.8869 205.1 91.7564 205.085 91.6266C205.069 91.4872 205.043 91.3569 205.008 91.2356C204.966 90.5484 204.945 89.86 204.945 89.1716C204.929 83.5946 206.419 78.1167 209.256 73.3156C209.372 73.1478 209.507 72.994 209.658 72.8576C209.98 72.5716 210.341 72.4286 210.741 72.4286C210.8 72.4286 210.859 72.4316 210.917 72.4376C211.568 72.5022 212.105 72.7949 212.528 73.3156C212.66 73.4748 212.76 73.6582 212.822 73.8556C212.944 74.2502 212.894 74.6889 212.674 75.1716C211.84 76.8334 211.154 78.5654 210.624 80.3476C213.788 74.4909 218.206 69.4054 223.563 65.4546C223.704 65.3595 223.855 65.2794 224.012 65.2156C224.445 65.0429 224.873 65.0412 225.296 65.2106C225.635 65.3409 225.937 65.5532 226.174 65.8286C226.315 65.9957 226.43 66.1823 226.517 66.3826C226.751 66.9112 226.68 67.4546 226.304 68.0126C226.286 68.0392 226.268 68.0655 226.249 68.0916C225.87 68.6749 225.542 69.2903 225.269 69.9306C225.002 70.5561 224.775 71.1976 224.588 71.8516C224.166 73.3162 224.491 74.4879 225.565 75.3666ZM447.168 73.5446C447.165 73.5004 447.158 73.4565 447.147 73.4136C447.082 73.2836 446.984 73.1859 446.854 73.1206C446.839 73.1132 446.824 73.1065 446.808 73.1006C446.73 73.0706 446.652 73.0642 446.573 73.0816C446.535 73.09 446.498 73.1031 446.463 73.1206C442.494 74.6159 438.285 75.3773 434.043 75.3676C433.952 75.3676 433.86 75.3672 433.768 75.3666C433.497 75.3663 433.226 75.3617 432.955 75.3526C432.301 75.3306 431.516 75.2849 430.6 75.2156C430.126 75.1796 429.652 75.1406 429.178 75.0986C428.444 75.0346 427.714 74.9341 426.99 74.7976C425.869 74.5891 424.771 74.2729 423.71 73.8536C423.64 73.3952 423.541 72.9416 423.414 72.4956C423.071 71.2494 422.455 70.0952 421.61 69.1166C421.581 69.1018 421.551 69.0878 421.52 69.0746C421.105 68.8946 420.761 68.9412 420.487 69.2146C420.471 69.1963 420.454 69.1783 420.437 69.1606C419.977 68.6799 419.398 68.5239 418.7 68.6926C418.561 68.7268 418.424 68.7706 418.29 68.8236C416.359 69.7818 414.672 71.168 413.358 72.8766C413.324 72.9231 413.29 72.9698 413.256 73.0166C410.726 76.5279 409.702 80.4039 410.184 84.6446C410.231 84.8848 410.286 85.1232 410.349 85.3596C410.519 85.9916 410.738 86.5499 411.008 87.0346C411.501 87.9756 412.318 88.7053 413.309 89.0876C413.801 89.2758 414.324 89.3721 414.851 89.3716C416.049 89.3716 417.326 88.8862 418.68 87.9156C419.699 87.1656 420.57 86.234 421.25 85.1676C421.772 84.3556 422.212 83.4933 422.562 82.5936C423.42 80.4496 423.861 78.1618 423.862 75.8526C423.862 75.6906 423.86 75.5285 423.856 75.3666C423.905 75.3821 423.954 75.3974 424.003 75.4126C425.561 75.8818 427.166 76.1776 428.788 76.2946C429.866 76.3759 430.855 76.4382 431.755 76.4816C432.263 76.5062 432.772 76.5252 433.28 76.5386H433.768C437.121 76.5059 440.425 76.0666 443.68 75.2206C443.732 75.1983 443.785 75.1773 443.838 75.1576C443.991 75.1009 444.183 75.0396 444.413 74.9736C444.527 74.9408 444.64 74.9091 444.754 74.8786C444.869 74.8545 444.984 74.8285 445.098 74.8006C445.573 74.6849 446.038 74.5314 446.488 74.3416C446.582 74.3023 446.673 74.2558 446.76 74.2026C447.049 74.0226 447.186 73.8032 447.168 73.5446ZM568.262 73.5446C568.259 73.5004 568.252 73.4565 568.241 73.4136C568.176 73.2836 568.078 73.1859 567.948 73.1206C567.933 73.1132 567.918 73.1065 567.902 73.1006C567.824 73.0706 567.746 73.0642 567.667 73.0816C567.629 73.09 567.592 73.1031 567.557 73.1206C563.587 74.616 559.379 75.3774 555.136 75.3676C555.045 75.3676 554.954 75.3672 554.862 75.3666C554.591 75.3663 554.32 75.3617 554.049 75.3526C553.394 75.3306 552.609 75.2849 551.694 75.2156C551.22 75.1796 550.746 75.1406 550.272 75.0986C549.538 75.0346 548.808 74.9341 548.084 74.7976C546.963 74.5891 545.864 74.273 544.803 73.8536C544.733 73.3952 544.634 72.9416 544.507 72.4956C544.164 71.2495 543.548 70.0953 542.704 69.1166C542.675 69.1018 542.645 69.0878 542.614 69.0746C542.199 68.8946 541.855 68.9412 541.581 69.2146C541.565 69.1963 541.548 69.1783 541.531 69.1606C541.071 68.6799 540.492 68.5239 539.793 68.6926C539.654 68.7268 539.517 68.7706 539.383 68.8236C537.453 69.7819 535.766 71.1681 534.452 72.8766C534.418 72.9231 534.384 72.9698 534.35 73.0166C531.82 76.5279 530.796 80.4039 531.278 84.6446C531.325 84.8847 531.379 85.1232 531.442 85.3596C531.612 85.9916 531.832 86.5499 532.102 87.0346C532.595 87.9756 533.412 88.7053 534.403 89.0876C534.895 89.2758 535.418 89.3721 535.945 89.3716C537.143 89.3716 538.42 88.8862 539.774 87.9156C540.793 87.1656 541.664 86.234 542.344 85.1676C542.866 84.3556 543.306 83.4933 543.656 82.5936C544.514 80.4496 544.955 78.1618 544.956 75.8526C544.956 75.6906 544.954 75.5285 544.95 75.3666C544.999 75.3821 545.047 75.3974 545.096 75.4126C546.654 75.8818 548.259 76.1776 549.881 76.2946C550.96 76.3759 551.949 76.4382 552.849 76.4816C553.357 76.5062 553.866 76.5252 554.374 76.5386H554.862C558.215 76.5059 561.519 76.0666 564.774 75.2206C564.826 75.1983 564.879 75.1773 564.932 75.1576C565.085 75.1009 565.276 75.0396 565.506 74.9736C565.62 74.9408 565.734 74.9091 565.848 74.8786C565.963 74.8545 566.078 74.8285 566.192 74.8006C566.667 74.6849 567.132 74.5314 567.582 74.3416C567.676 74.3023 567.767 74.2558 567.854 74.2026C568.144 74.0226 568.28 73.8032 568.262 73.5446ZM193.143 73.2186C193.957 73.1206 194.242 73.2916 193.998 73.7316C193.926 73.8574 193.844 73.9771 193.752 74.0896C193.451 74.4689 192.97 74.9312 192.309 75.4766C192.294 75.4889 192.279 75.5013 192.264 75.5136C191.668 76.002 191.064 76.4794 190.45 76.9456C190.057 77.2451 189.66 77.5407 189.261 77.8326C188.808 78.1644 188.351 78.4914 187.891 78.8136C187.33 79.2062 186.802 79.5629 186.307 79.8836C185.429 80.4529 184.892 80.7866 184.696 80.8846C182.255 82.4146 179.748 83.8386 177.176 85.1566C174.605 86.4752 171.903 87.5089 169.071 88.2576C168.809 88.3359 168.543 88.4023 168.274 88.4566C166.39 88.8326 165.06 88.3756 164.286 87.0856C163.756 86.1925 163.443 85.187 163.373 84.1506C163.329 83.5826 163.346 82.9862 163.422 82.3616C163.445 82.1779 163.472 81.9949 163.504 81.8126C163.843 78.6396 165.005 75.61 166.874 73.0236C167.412 72.4222 168.003 72.1976 168.649 72.3496C168.668 72.354 168.687 72.3586 168.705 72.3636C169.071 72.4565 169.409 72.6358 169.691 72.8866C169.895 73.0725 170.065 73.292 170.194 73.5356C170.281 73.6932 170.34 73.8642 170.37 74.0416C170.444 74.4949 170.304 74.9692 169.95 75.4646C168.989 76.842 168.181 78.3205 167.541 79.8736C167.446 80.1032 167.353 80.3343 167.264 80.5666C166.88 81.5555 166.632 82.592 166.526 83.6476C166.493 83.9896 166.476 84.3309 166.476 84.6716C166.477 85.1687 166.512 85.6653 166.581 86.1576C166.996 86.5511 167.529 86.7965 168.098 86.8556C168.39 86.8916 168.705 86.8896 169.041 86.8496C169.166 86.8349 169.29 86.8159 169.413 86.7926C170.586 86.5744 171.732 86.2307 172.831 85.7676C173.016 85.698 173.202 85.6317 173.389 85.5686C173.574 85.5066 173.748 85.4519 173.912 85.4046C174.007 85.3773 174.102 85.3516 174.198 85.3276C177.691 83.8905 181.062 82.176 184.281 80.2006C187.52 78.2152 190.474 75.8879 193.143 73.2186ZM261.258 73.2186C262.072 73.1206 262.357 73.2916 262.113 73.7316C262.041 73.8574 261.959 73.9771 261.867 74.0896C261.566 74.4689 261.085 74.9312 260.425 75.4766C260.41 75.4889 260.395 75.5013 260.379 75.5136C259.784 76.002 259.179 76.4794 258.566 76.9456C258.173 77.2451 257.776 77.5407 257.377 77.8326C256.924 78.1644 256.467 78.4914 256.006 78.8136C255.445 79.2062 254.917 79.5629 254.422 79.8836C253.544 80.4529 253.007 80.7866 252.811 80.8846C250.37 82.4146 247.864 83.8386 245.292 85.1566C242.72 86.4752 240.018 87.5089 237.186 88.2576C236.924 88.3359 236.658 88.4023 236.389 88.4566C234.505 88.8326 233.175 88.3756 232.401 87.0856C231.871 86.1925 231.558 85.187 231.488 84.1506C231.444 83.5826 231.461 82.9862 231.538 82.3616C231.561 82.1779 231.588 81.9949 231.62 81.8126C231.959 78.6396 233.12 75.6101 234.989 73.0236C235.527 72.4222 236.119 72.1976 236.764 72.3496C236.783 72.354 236.802 72.3586 236.82 72.3636C237.186 72.4565 237.524 72.6358 237.806 72.8866C238.01 73.0725 238.18 73.292 238.309 73.5356C238.396 73.6932 238.455 73.8642 238.485 74.0416C238.559 74.4949 238.419 74.9692 238.065 75.4646C237.104 76.842 236.296 78.3205 235.656 79.8736C235.561 80.1032 235.468 80.3343 235.379 80.5666C234.995 81.5555 234.747 82.592 234.641 83.6476C234.609 83.9896 234.592 84.3309 234.592 84.6716C234.592 85.1687 234.627 85.6653 234.696 86.1576C235.111 86.5511 235.644 86.7965 236.213 86.8556C236.505 86.8916 236.82 86.8896 237.156 86.8496C237.281 86.8349 237.405 86.8159 237.528 86.7926C238.701 86.5744 239.847 86.2307 240.946 85.7676C241.131 85.698 241.317 85.6317 241.504 85.5686C241.689 85.5066 241.864 85.4519 242.028 85.4046C242.123 85.3773 242.218 85.3516 242.313 85.3276C245.806 83.8905 249.177 82.176 252.396 80.2006C255.635 78.2152 258.589 75.8879 261.258 73.2186ZM249.149 130.152C252.116 125.164 254.873 120.055 257.414 114.838C259.295 110.986 261.082 107.089 262.772 103.15C258.568 105.433 255.123 108.895 252.86 113.111C251.068 116.219 249.798 119.601 249.1 123.121C249.087 123.173 249.075 123.226 249.064 123.28C249.054 123.328 249.043 123.38 249.033 123.435C249.023 123.492 249.013 123.55 249.003 123.609C248.923 124.095 248.857 124.583 248.806 125.074C248.752 125.588 248.708 126.132 248.674 126.706C248.67 126.788 248.665 126.871 248.661 126.954C248.652 127.129 248.647 127.304 248.647 127.48C248.647 128.472 248.803 129.336 249.114 130.072C249.126 130.098 249.137 130.125 249.149 130.152V130.152ZM415.018 87.1346C416.112 86.8891 417.141 86.414 418.037 85.7407C418.934 85.0675 419.677 84.2116 420.217 83.2296C420.357 82.99 420.488 82.7451 420.609 82.4956C421.83 79.9889 422.326 77.3522 422.098 74.5856C421.665 74.3524 421.267 74.0584 420.917 73.7126C420.523 73.3201 420.211 72.8535 419.999 72.3396C418.212 73.2504 416.702 74.6247 415.628 76.3186C414.548 78.0009 413.825 79.8872 413.504 81.8606C413.504 81.9924 413.488 82.1237 413.456 82.2516C413.411 82.6928 413.388 83.136 413.388 83.5796C413.389 84.1149 413.419 84.6497 413.48 85.1816C413.509 85.4703 413.584 85.7525 413.702 86.0176C413.934 86.5222 414.329 86.8796 414.888 87.0896C414.931 87.1056 414.974 87.1206 415.018 87.1346V87.1346ZM536.112 87.1346C537.206 86.8891 538.235 86.414 539.131 85.7407C540.028 85.0675 540.771 84.2116 541.311 83.2296C541.451 82.99 541.582 82.7451 541.703 82.4956C542.924 79.9889 543.42 77.3522 543.192 74.5856C542.759 74.3524 542.361 74.0584 542.011 73.7126C541.617 73.3202 541.305 72.8535 541.092 72.3396C539.305 73.2506 537.796 74.6248 536.722 76.3186C535.642 78.0009 534.919 79.8872 534.598 81.8606C534.598 81.9924 534.582 82.1237 534.549 82.2516C534.504 82.6928 534.482 83.1361 534.482 83.5796C534.483 84.1149 534.514 84.6497 534.574 85.1816C534.603 85.4702 534.678 85.7524 534.795 86.0176C535.027 86.5222 535.423 86.8796 535.982 87.0896C536.025 87.1056 536.068 87.1206 536.112 87.1346ZM436.405 115.016C437.225 114.254 438.022 113.468 438.796 112.66C439.857 111.556 440.964 110.331 442.118 108.985C444.169 106.593 445.976 104.111 447.538 101.539C442.754 105.025 438.926 109.66 436.405 115.016V115.016ZM194.169 69.8006C195.303 66.5929 196.394 63.3699 197.44 60.1326C194.104 60.5257 190.782 61.0307 187.479 61.6466C188.444 61.9937 189.353 62.4809 190.176 63.0926C190.824 63.58 191.404 64.1529 191.898 64.7956C192.801 65.9788 193.478 67.3182 193.895 68.7466C194 69.0944 194.091 69.4459 194.169 69.8006V69.8006ZM321.805 137.574C321.282 139.338 320.794 141.113 320.34 142.897C320.244 143.152 320.163 143.413 320.096 143.678C319.549 145.799 319.045 147.932 318.583 150.074C317.867 145.744 317.248 141.366 316.727 136.94C318.417 137.171 320.11 137.382 321.805 137.574V137.574ZM188.553 95.5326C189.415 94.2183 190.143 92.8214 190.727 91.3626C191.057 90.5446 191.35 89.7121 191.605 88.8676C192.065 87.3602 192.463 85.8345 192.798 84.2946C192.987 83.4231 193.151 82.5464 193.29 81.6656C191.57 86.2386 189.991 90.8631 188.553 95.5326V95.5326ZM508.719 77.6126C506.456 79.8069 504.487 82.2852 502.86 84.9856C503.544 84.1722 504.244 83.3422 504.96 82.4956C506.275 80.9163 507.529 79.2875 508.719 77.6126V77.6126ZM168.07 66.7736C168.073 66.9854 168.123 67.1939 168.214 67.3848C168.306 67.5758 168.438 67.7446 168.601 67.8796C168.913 68.1369 169.363 68.3052 169.95 68.3846C170.31 68.3675 170.659 68.2587 170.965 68.0686C171.188 67.928 171.389 67.7547 171.561 67.5546C171.611 67.4983 171.658 67.4407 171.704 67.3816C172.061 66.9326 172.282 66.391 172.342 65.8206C172.349 65.7584 172.352 65.696 172.352 65.6336C172.352 65.2629 172.233 64.9306 171.995 64.6366C171.869 64.4837 171.723 64.3482 171.561 64.2336C170.585 63.6482 169.746 63.6972 169.046 64.3806C168.981 64.4444 168.918 64.5104 168.857 64.5786C168.289 65.2166 168.026 65.9482 168.07 66.7736ZM236.185 66.7736C236.188 66.9854 236.238 67.1939 236.329 67.3848C236.421 67.5758 236.553 67.7446 236.716 67.8796C237.029 68.1369 237.479 68.3052 238.065 68.3846C238.425 68.3676 238.775 68.2588 239.081 68.0686C239.304 67.9279 239.505 67.7547 239.676 67.5546C239.726 67.4983 239.773 67.4407 239.819 67.3816C240.177 66.9327 240.398 66.3911 240.458 65.8206C240.464 65.7584 240.467 65.696 240.467 65.6336C240.467 65.2629 240.348 64.9306 240.11 64.6366C239.984 64.4837 239.838 64.3482 239.676 64.2336C238.7 63.6482 237.862 63.6972 237.162 64.3806C237.097 64.4444 237.033 64.5104 236.972 64.5786C236.404 65.2166 236.141 65.9482 236.185 66.7736ZM421.708 72.5346C421.611 72.0486 421.464 71.574 421.268 71.1186C421.264 71.6249 421.418 72.1199 421.708 72.5346V72.5346ZM542.801 72.5346C542.704 72.0486 542.557 71.5741 542.362 71.1186C542.358 71.6248 542.511 72.1198 542.801 72.5346Z" stroke="white" stroke-width="6" stroke-linecap="round" mask="url(#path-1-inside-1_354_5)"/>
</g>
<defs>
<clipPath id="clip0_354_5">
<rect width="568.264" height="160.084" fill="white"/>
</clipPath>
</defs>
</svg>
