<svg width="103" height="381" viewBox="0 0 103 381" fill="none" xmlns="http://www.w3.org/2000/svg">
<path d="M0.872087 0.828613H3.41467C3.87265 0.828613 4.24379 1.28659 4.24379 1.65773V4.20032C4.24379 4.6583 3.87267 5.02944 3.41467 5.02944H0.872087C0.414106 5.02944 0.0429688 4.57146 0.0429688 4.20032V1.65773C0.0429688 1.19975 0.414086 0.828613 0.872087 0.828613Z" fill="white"/>
<path d="M20.3487 0.828613H22.8912C23.3492 0.828613 23.7204 1.28659 23.7204 1.65773V4.20032C23.7204 4.6583 23.3492 5.02944 22.8912 5.02944H20.3487C19.8907 5.02944 19.5195 4.57146 19.5195 4.20032V1.65773C19.5195 1.19975 19.8907 0.828613 20.3487 0.828613Z" fill="white"/>
<path d="M39.8252 0.828613H42.3678C42.8258 0.828613 43.1969 1.28659 43.1969 1.65773V4.20032C43.1969 4.6583 42.8258 5.02944 42.3678 5.02944H39.8252C39.3672 5.02944 38.9961 4.57146 38.9961 4.20032V1.65773C38.9961 1.19975 39.3672 0.828613 39.8252 0.828613Z" fill="white"/>
<path d="M59.3018 0.828613H61.8444C62.3023 0.828613 62.6735 1.28659 62.6735 1.65773V4.20032C62.6735 4.6583 62.3024 5.02944 61.8444 5.02944H59.3018C58.8438 5.02944 58.4727 4.57146 58.4727 4.20032V1.65773C58.4727 1.19975 58.8438 0.828613 59.3018 0.828613Z" fill="white"/>
<path d="M78.7783 0.828613H81.3209C81.7789 0.828613 82.15 1.28659 82.15 1.65773V4.20032C82.15 4.6583 81.7789 5.02944 81.3209 5.02944H78.7783C78.3204 5.02944 77.9492 4.57146 77.9492 4.20032V1.65773C77.9492 1.19975 78.3203 0.828613 78.7783 0.828613Z" fill="white"/>
<path d="M98.2549 0.828613H100.797C101.255 0.828613 101.627 1.28659 101.627 1.65773V4.20032C101.627 4.6583 101.255 5.02944 100.797 5.02944H98.2549C97.7969 5.02944 97.4258 4.57146 97.4258 4.20032V1.65773C97.4258 1.19975 97.7969 0.828613 98.2549 0.828613Z" fill="white"/>
<path d="M0.872087 17.2498H3.41467C3.87265 17.2498 4.24379 17.7077 4.24379 18.0789V20.6215C4.24379 21.0794 3.87267 21.4506 3.41467 21.4506H0.872087C0.414106 21.4506 0.0429688 20.9926 0.0429688 20.6215V18.0789C0.0429688 17.6209 0.414086 17.2498 0.872087 17.2498Z" fill="white"/>
<path d="M20.3487 17.2498H22.8912C23.3492 17.2498 23.7204 17.7077 23.7204 18.0789V20.6215C23.7204 21.0794 23.3492 21.4506 22.8912 21.4506H20.3487C19.8907 21.4506 19.5195 20.9926 19.5195 20.6215V18.0789C19.5195 17.6209 19.8907 17.2498 20.3487 17.2498Z" fill="white"/>
<path d="M39.8252 17.2498H42.3678C42.8258 17.2498 43.1969 17.7077 43.1969 18.0789V20.6215C43.1969 21.0794 42.8258 21.4506 42.3678 21.4506H39.8252C39.3672 21.4506 38.9961 20.9926 38.9961 20.6215V18.0789C38.9961 17.6209 39.3672 17.2498 39.8252 17.2498Z" fill="white"/>
<path d="M59.3018 17.2498H61.8444C62.3023 17.2498 62.6735 17.7077 62.6735 18.0789V20.6215C62.6735 21.0794 62.3024 21.4506 61.8444 21.4506H59.3018C58.8438 21.4506 58.4727 20.9926 58.4727 20.6215V18.0789C58.4727 17.6209 58.8438 17.2498 59.3018 17.2498Z" fill="white"/>
<path d="M78.7783 17.2498H81.3209C81.7789 17.2498 82.15 17.7077 82.15 18.0789V20.6215C82.15 21.0794 81.7789 21.4506 81.3209 21.4506H78.7783C78.3204 21.4506 77.9492 20.9926 77.9492 20.6215V18.0789C77.9492 17.6209 78.3203 17.2498 78.7783 17.2498Z" fill="white"/>
<path d="M98.2549 17.2498H100.797C101.255 17.2498 101.627 17.7077 101.627 18.0789V20.6215C101.627 21.0794 101.255 21.4506 100.797 21.4506H98.2549C97.7969 21.4506 97.4258 20.9926 97.4258 20.6215V18.0789C97.4258 17.6209 97.7969 17.2498 98.2549 17.2498Z" fill="white"/>
<path d="M0.872087 33.6709H3.41467C3.87265 33.6709 4.24379 34.1289 4.24379 34.5V37.0426C4.24379 37.5006 3.87267 37.8717 3.41467 37.8717H0.872087C0.414106 37.8717 0.0429688 37.4137 0.0429688 37.0426V34.5C0.0429688 34.042 0.414086 33.6709 0.872087 33.6709Z" fill="white"/>
<path d="M20.3487 33.6709H22.8912C23.3492 33.6709 23.7204 34.1289 23.7204 34.5V37.0426C23.7204 37.5006 23.3492 37.8717 22.8912 37.8717H20.3487C19.8907 37.8717 19.5195 37.4137 19.5195 37.0426V34.5C19.5195 34.042 19.8907 33.6709 20.3487 33.6709Z" fill="white"/>
<path d="M39.8252 33.6709H42.3678C42.8258 33.6709 43.1969 34.1289 43.1969 34.5V37.0426C43.1969 37.5006 42.8258 37.8717 42.3678 37.8717H39.8252C39.3672 37.8717 38.9961 37.4137 38.9961 37.0426V34.5C38.9961 34.042 39.3672 33.6709 39.8252 33.6709Z" fill="white"/>
<path d="M59.3018 33.6709H61.8444C62.3023 33.6709 62.6735 34.1289 62.6735 34.5V37.0426C62.6735 37.5006 62.3024 37.8717 61.8444 37.8717H59.3018C58.8438 37.8717 58.4727 37.4137 58.4727 37.0426V34.5C58.4727 34.042 58.8438 33.6709 59.3018 33.6709Z" fill="white"/>
<path d="M78.7783 33.6709H81.3209C81.7789 33.6709 82.15 34.1289 82.15 34.5V37.0426C82.15 37.5006 81.7789 37.8717 81.3209 37.8717H78.7783C78.3204 37.8717 77.9492 37.4137 77.9492 37.0426V34.5C77.9492 34.042 78.3203 33.6709 78.7783 33.6709Z" fill="white"/>
<path d="M98.2549 33.6709H100.797C101.255 33.6709 101.627 34.1289 101.627 34.5V37.0426C101.627 37.5006 101.255 37.8717 100.797 37.8717H98.2549C97.7969 37.8717 97.4258 37.4137 97.4258 37.0426V34.5C97.4258 34.042 97.7969 33.6709 98.2549 33.6709Z" fill="white"/>
<path d="M0.872087 50.0923H3.41467C3.87265 50.0923 4.24379 50.5503 4.24379 50.9214V53.464C4.24379 53.922 3.87267 54.2931 3.41467 54.2931H0.872087C0.414106 54.2931 0.0429688 53.8351 0.0429688 53.464V50.9214C0.0429688 50.4634 0.414086 50.0923 0.872087 50.0923Z" fill="white"/>
<path d="M20.3487 50.0923H22.8912C23.3492 50.0923 23.7204 50.5503 23.7204 50.9214V53.464C23.7204 53.922 23.3492 54.2931 22.8912 54.2931H20.3487C19.8907 54.2931 19.5195 53.8351 19.5195 53.464V50.9214C19.5195 50.4634 19.8907 50.0923 20.3487 50.0923Z" fill="white"/>
<path d="M39.8252 50.0923H42.3678C42.8258 50.0923 43.1969 50.5503 43.1969 50.9214V53.464C43.1969 53.922 42.8258 54.2931 42.3678 54.2931H39.8252C39.3672 54.2931 38.9961 53.8351 38.9961 53.464V50.9214C38.9961 50.4634 39.3672 50.0923 39.8252 50.0923Z" fill="white"/>
<path d="M59.3018 50.0923H61.8444C62.3023 50.0923 62.6735 50.5503 62.6735 50.9214V53.464C62.6735 53.922 62.3024 54.2931 61.8444 54.2931H59.3018C58.8438 54.2931 58.4727 53.8351 58.4727 53.464V50.9214C58.4727 50.4634 58.8438 50.0923 59.3018 50.0923Z" fill="white"/>
<path d="M78.7783 50.0923H81.3209C81.7789 50.0923 82.15 50.5503 82.15 50.9214V53.464C82.15 53.922 81.7789 54.2931 81.3209 54.2931H78.7783C78.3204 54.2931 77.9492 53.8351 77.9492 53.464V50.9214C77.9492 50.4634 78.3203 50.0923 78.7783 50.0923Z" fill="white"/>
<path d="M98.2549 50.0923H100.797C101.255 50.0923 101.627 50.5503 101.627 50.9214V53.464C101.627 53.922 101.255 54.2931 100.797 54.2931H98.2549C97.7969 54.2931 97.4258 53.8351 97.4258 53.464V50.9214C97.4258 50.4634 97.7969 50.0923 98.2549 50.0923Z" fill="white"/>
<path d="M0.872087 66.5134H3.41467C3.87265 66.5134 4.24379 66.9714 4.24379 67.3426V69.8851C4.24379 70.3431 3.87267 70.7143 3.41467 70.7143H0.872087C0.414106 70.7143 0.0429688 70.2563 0.0429688 69.8851V67.3426C0.0429688 66.8846 0.414086 66.5134 0.872087 66.5134Z" fill="white"/>
<path d="M20.3487 66.5134H22.8912C23.3492 66.5134 23.7204 66.9714 23.7204 67.3426V69.8851C23.7204 70.3431 23.3492 70.7143 22.8912 70.7143H20.3487C19.8907 70.7143 19.5195 70.2563 19.5195 69.8851V67.3426C19.5195 66.8846 19.8907 66.5134 20.3487 66.5134Z" fill="white"/>
<path d="M39.8252 66.5134H42.3678C42.8258 66.5134 43.1969 66.9714 43.1969 67.3426V69.8851C43.1969 70.3431 42.8258 70.7143 42.3678 70.7143H39.8252C39.3672 70.7143 38.9961 70.2563 38.9961 69.8851V67.3426C38.9961 66.8846 39.3672 66.5134 39.8252 66.5134Z" fill="white"/>
<path d="M59.3018 66.5134H61.8444C62.3023 66.5134 62.6735 66.9714 62.6735 67.3426V69.8851C62.6735 70.3431 62.3024 70.7143 61.8444 70.7143H59.3018C58.8438 70.7143 58.4727 70.2563 58.4727 69.8851V67.3426C58.4727 66.8846 58.8438 66.5134 59.3018 66.5134Z" fill="white"/>
<path d="M78.7783 66.5134H81.3209C81.7789 66.5134 82.15 66.9714 82.15 67.3426V69.8851C82.15 70.3431 81.7789 70.7143 81.3209 70.7143H78.7783C78.3204 70.7143 77.9492 70.2563 77.9492 69.8851V67.3426C77.9492 66.8846 78.3203 66.5134 78.7783 66.5134Z" fill="white"/>
<path d="M98.2549 66.5134H100.797C101.255 66.5134 101.627 66.9714 101.627 67.3426V69.8851C101.627 70.3431 101.255 70.7143 100.797 70.7143H98.2549C97.7969 70.7143 97.4258 70.2563 97.4258 69.8851V67.3426C97.4258 66.8846 97.7969 66.5134 98.2549 66.5134Z" fill="white"/>
<path d="M0.872087 82.9346H3.41467C3.87265 82.9346 4.24379 83.3925 4.24379 83.7637V86.3063C4.24379 86.7643 3.87267 87.1354 3.41467 87.1354H0.872087C0.414106 87.1354 0.0429688 86.6774 0.0429688 86.3063V83.7637C0.0429688 83.3057 0.414086 82.9346 0.872087 82.9346Z" fill="white"/>
<path d="M20.3487 82.9346H22.8912C23.3492 82.9346 23.7204 83.3925 23.7204 83.7637V86.3063C23.7204 86.7643 23.3492 87.1354 22.8912 87.1354H20.3487C19.8907 87.1354 19.5195 86.6774 19.5195 86.3063V83.7637C19.5195 83.3057 19.8907 82.9346 20.3487 82.9346Z" fill="white"/>
<path d="M39.8252 82.9346H42.3678C42.8258 82.9346 43.1969 83.3925 43.1969 83.7637V86.3063C43.1969 86.7643 42.8258 87.1354 42.3678 87.1354H39.8252C39.3672 87.1354 38.9961 86.6774 38.9961 86.3063V83.7637C38.9961 83.3057 39.3672 82.9346 39.8252 82.9346Z" fill="white"/>
<path d="M59.3018 82.9346H61.8444C62.3023 82.9346 62.6735 83.3925 62.6735 83.7637V86.3063C62.6735 86.7643 62.3024 87.1354 61.8444 87.1354H59.3018C58.8438 87.1354 58.4727 86.6774 58.4727 86.3063V83.7637C58.4727 83.3057 58.8438 82.9346 59.3018 82.9346Z" fill="white"/>
<path d="M78.7783 82.9346H81.3209C81.7789 82.9346 82.15 83.3925 82.15 83.7637V86.3063C82.15 86.7643 81.7789 87.1354 81.3209 87.1354H78.7783C78.3204 87.1354 77.9492 86.6774 77.9492 86.3063V83.7637C77.9492 83.3057 78.3203 82.9346 78.7783 82.9346Z" fill="white"/>
<path d="M98.2549 82.9346H100.797C101.255 82.9346 101.627 83.3925 101.627 83.7637V86.3063C101.627 86.7643 101.255 87.1354 100.797 87.1354H98.2549C97.7969 87.1354 97.4258 86.6774 97.4258 86.3063V83.7637C97.4258 83.3057 97.7969 82.9346 98.2549 82.9346Z" fill="white"/>
<path d="M0.872087 98.592H3.41467C3.87265 98.592 4.24379 99.05 4.24379 99.4212V101.964C4.24379 102.422 3.87267 102.793 3.41467 102.793H0.872087C0.414106 102.793 0.0429688 102.335 0.0429688 101.964V99.4212C0.0429688 98.9632 0.414086 98.592 0.872087 98.592Z" fill="white"/>
<path d="M20.3487 98.592H22.8912C23.3492 98.592 23.7204 99.05 23.7204 99.4212V101.964C23.7204 102.422 23.3492 102.793 22.8912 102.793H20.3487C19.8907 102.793 19.5195 102.335 19.5195 101.964V99.4212C19.5195 98.9632 19.8907 98.592 20.3487 98.592Z" fill="white"/>
<path d="M39.8252 98.592H42.3678C42.8258 98.592 43.1969 99.05 43.1969 99.4212V101.964C43.1969 102.422 42.8258 102.793 42.3678 102.793H39.8252C39.3672 102.793 38.9961 102.335 38.9961 101.964V99.4212C38.9961 98.9632 39.3672 98.592 39.8252 98.592Z" fill="white"/>
<path d="M59.3018 98.592H61.8444C62.3023 98.592 62.6735 99.05 62.6735 99.4212V101.964C62.6735 102.422 62.3024 102.793 61.8444 102.793H59.3018C58.8438 102.793 58.4727 102.335 58.4727 101.964V99.4212C58.4727 98.9632 58.8438 98.592 59.3018 98.592Z" fill="white"/>
<path d="M78.7783 98.592H81.3209C81.7789 98.592 82.15 99.05 82.15 99.4212V101.964C82.15 102.422 81.7789 102.793 81.3209 102.793H78.7783C78.3204 102.793 77.9492 102.335 77.9492 101.964V99.4212C77.9492 98.9632 78.3203 98.592 78.7783 98.592Z" fill="white"/>
<path d="M98.2549 98.592H100.797C101.255 98.592 101.627 99.05 101.627 99.4212V101.964C101.627 102.422 101.255 102.793 100.797 102.793H98.2549C97.7969 102.793 97.4258 102.335 97.4258 101.964V99.4212C97.4258 98.9632 97.7969 98.592 98.2549 98.592Z" fill="white"/>
<path d="M0.872087 115.013H3.41467C3.87265 115.013 4.24379 115.471 4.24379 115.842V118.385C4.24379 118.843 3.87267 119.214 3.41467 119.214H0.872087C0.414106 119.214 0.0429688 118.756 0.0429688 118.385V115.842C0.0429688 115.384 0.414086 115.013 0.872087 115.013Z" fill="white"/>
<path d="M20.3487 115.013H22.8912C23.3492 115.013 23.7204 115.471 23.7204 115.842V118.385C23.7204 118.843 23.3492 119.214 22.8912 119.214H20.3487C19.8907 119.214 19.5195 118.756 19.5195 118.385V115.842C19.5195 115.384 19.8907 115.013 20.3487 115.013Z" fill="white"/>
<path d="M39.8252 115.013H42.3678C42.8258 115.013 43.1969 115.471 43.1969 115.842V118.385C43.1969 118.843 42.8258 119.214 42.3678 119.214H39.8252C39.3672 119.214 38.9961 118.756 38.9961 118.385V115.842C38.9961 115.384 39.3672 115.013 39.8252 115.013Z" fill="white"/>
<path d="M59.3018 115.013H61.8444C62.3023 115.013 62.6735 115.471 62.6735 115.842V118.385C62.6735 118.843 62.3024 119.214 61.8444 119.214H59.3018C58.8438 119.214 58.4727 118.756 58.4727 118.385V115.842C58.4727 115.384 58.8438 115.013 59.3018 115.013Z" fill="white"/>
<path d="M78.7783 115.013H81.3209C81.7789 115.013 82.15 115.471 82.15 115.842V118.385C82.15 118.843 81.7789 119.214 81.3209 119.214H78.7783C78.3204 119.214 77.9492 118.756 77.9492 118.385V115.842C77.9492 115.384 78.3203 115.013 78.7783 115.013Z" fill="white"/>
<path d="M98.2549 115.013H100.797C101.255 115.013 101.627 115.471 101.627 115.842V118.385C101.627 118.843 101.255 119.214 100.797 119.214H98.2549C97.7969 119.214 97.4258 118.756 97.4258 118.385V115.842C97.4258 115.384 97.7969 115.013 98.2549 115.013Z" fill="white"/>
<path d="M0.872087 131.434H3.41467C3.87265 131.434 4.24379 131.892 4.24379 132.263V134.806C4.24379 135.264 3.87267 135.635 3.41467 135.635H0.872087C0.414106 135.635 0.0429688 135.177 0.0429688 134.806V132.263C0.0429688 131.805 0.414086 131.434 0.872087 131.434Z" fill="white"/>
<path d="M20.3487 131.434H22.8912C23.3492 131.434 23.7204 131.892 23.7204 132.263V134.806C23.7204 135.264 23.3492 135.635 22.8912 135.635H20.3487C19.8907 135.635 19.5195 135.177 19.5195 134.806V132.263C19.5195 131.805 19.8907 131.434 20.3487 131.434Z" fill="white"/>
<path d="M39.8252 131.434H42.3678C42.8258 131.434 43.1969 131.892 43.1969 132.263V134.806C43.1969 135.264 42.8258 135.635 42.3678 135.635H39.8252C39.3672 135.635 38.9961 135.177 38.9961 134.806V132.263C38.9961 131.805 39.3672 131.434 39.8252 131.434Z" fill="white"/>
<path d="M59.3018 131.434H61.8444C62.3023 131.434 62.6735 131.892 62.6735 132.263V134.806C62.6735 135.264 62.3024 135.635 61.8444 135.635H59.3018C58.8438 135.635 58.4727 135.177 58.4727 134.806V132.263C58.4727 131.805 58.8438 131.434 59.3018 131.434Z" fill="white"/>
<path d="M78.7783 131.434H81.3209C81.7789 131.434 82.15 131.892 82.15 132.263V134.806C82.15 135.264 81.7789 135.635 81.3209 135.635H78.7783C78.3204 135.635 77.9492 135.177 77.9492 134.806V132.263C77.9492 131.805 78.3203 131.434 78.7783 131.434Z" fill="white"/>
<path d="M98.2549 131.434H100.797C101.255 131.434 101.627 131.892 101.627 132.263V134.806C101.627 135.264 101.255 135.635 100.797 135.635H98.2549C97.7969 135.635 97.4258 135.177 97.4258 134.806V132.263C97.4258 131.805 97.7969 131.434 98.2549 131.434Z" fill="white"/>
<path d="M0.872087 147.856H3.41467C3.87265 147.856 4.24379 148.314 4.24379 148.685V151.227C4.24379 151.685 3.87267 152.057 3.41467 152.057H0.872087C0.414106 152.057 0.0429688 151.599 0.0429688 151.227V148.685C0.0429688 148.227 0.414086 147.856 0.872087 147.856Z" fill="white"/>
<path d="M20.3487 147.856H22.8912C23.3492 147.856 23.7204 148.314 23.7204 148.685V151.227C23.7204 151.685 23.3492 152.057 22.8912 152.057H20.3487C19.8907 152.057 19.5195 151.599 19.5195 151.227V148.685C19.5195 148.227 19.8907 147.856 20.3487 147.856Z" fill="white"/>
<path d="M39.8252 147.856H42.3678C42.8258 147.856 43.1969 148.314 43.1969 148.685V151.227C43.1969 151.685 42.8258 152.057 42.3678 152.057H39.8252C39.3672 152.057 38.9961 151.599 38.9961 151.227V148.685C38.9961 148.227 39.3672 147.856 39.8252 147.856Z" fill="white"/>
<path d="M59.3018 147.856H61.8444C62.3023 147.856 62.6735 148.314 62.6735 148.685V151.227C62.6735 151.685 62.3024 152.057 61.8444 152.057H59.3018C58.8438 152.057 58.4727 151.599 58.4727 151.227V148.685C58.4727 148.227 58.8438 147.856 59.3018 147.856Z" fill="white"/>
<path d="M78.7783 147.856H81.3209C81.7789 147.856 82.15 148.314 82.15 148.685V151.227C82.15 151.685 81.7789 152.057 81.3209 152.057H78.7783C78.3204 152.057 77.9492 151.599 77.9492 151.227V148.685C77.9492 148.227 78.3203 147.856 78.7783 147.856Z" fill="white"/>
<path d="M98.2549 147.856H100.797C101.255 147.856 101.627 148.314 101.627 148.685V151.227C101.627 151.685 101.255 152.057 100.797 152.057H98.2549C97.7969 152.057 97.4258 151.599 97.4258 151.227V148.685C97.4258 148.227 97.7969 147.856 98.2549 147.856Z" fill="white"/>
<path d="M0.872087 164.277H3.41467C3.87265 164.277 4.24379 164.735 4.24379 165.106V167.649C4.24379 168.107 3.87267 168.478 3.41467 168.478H0.872087C0.414106 168.478 0.0429688 168.02 0.0429688 167.649V165.106C0.0429688 164.648 0.414086 164.277 0.872087 164.277Z" fill="white"/>
<path d="M20.3487 164.277H22.8912C23.3492 164.277 23.7204 164.735 23.7204 165.106V167.649C23.7204 168.107 23.3492 168.478 22.8912 168.478H20.3487C19.8907 168.478 19.5195 168.02 19.5195 167.649V165.106C19.5195 164.648 19.8907 164.277 20.3487 164.277Z" fill="white"/>
<path d="M39.8252 164.277H42.3678C42.8258 164.277 43.1969 164.735 43.1969 165.106V167.649C43.1969 168.107 42.8258 168.478 42.3678 168.478H39.8252C39.3672 168.478 38.9961 168.02 38.9961 167.649V165.106C38.9961 164.648 39.3672 164.277 39.8252 164.277Z" fill="white"/>
<path d="M59.3018 164.277H61.8444C62.3023 164.277 62.6735 164.735 62.6735 165.106V167.649C62.6735 168.107 62.3024 168.478 61.8444 168.478H59.3018C58.8438 168.478 58.4727 168.02 58.4727 167.649V165.106C58.4727 164.648 58.8438 164.277 59.3018 164.277Z" fill="white"/>
<path d="M78.7783 164.277H81.3209C81.7789 164.277 82.15 164.735 82.15 165.106V167.649C82.15 168.107 81.7789 168.478 81.3209 168.478H78.7783C78.3204 168.478 77.9492 168.02 77.9492 167.649V165.106C77.9492 164.648 78.3203 164.277 78.7783 164.277Z" fill="white"/>
<path d="M98.2549 164.277H100.797C101.255 164.277 101.627 164.735 101.627 165.106V167.649C101.627 168.107 101.255 168.478 100.797 168.478H98.2549C97.7969 168.478 97.4258 168.02 97.4258 167.649V165.106C97.4258 164.648 97.7969 164.277 98.2549 164.277Z" fill="white"/>
<path d="M0.872087 180.698H3.41467C3.87265 180.698 4.24379 181.156 4.24379 181.527V184.07C4.24379 184.528 3.87267 184.899 3.41467 184.899H0.872087C0.414106 184.899 0.0429688 184.441 0.0429688 184.07V181.527C0.0429688 181.069 0.414086 180.698 0.872087 180.698Z" fill="white"/>
<path d="M20.3487 180.698H22.8912C23.3492 180.698 23.7204 181.156 23.7204 181.527V184.07C23.7204 184.528 23.3492 184.899 22.8912 184.899H20.3487C19.8907 184.899 19.5195 184.441 19.5195 184.07V181.527C19.5195 181.069 19.8907 180.698 20.3487 180.698Z" fill="white"/>
<path d="M39.8252 180.698H42.3678C42.8258 180.698 43.1969 181.156 43.1969 181.527V184.07C43.1969 184.528 42.8258 184.899 42.3678 184.899H39.8252C39.3672 184.899 38.9961 184.441 38.9961 184.07V181.527C38.9961 181.069 39.3672 180.698 39.8252 180.698Z" fill="white"/>
<path d="M59.3018 180.698H61.8444C62.3023 180.698 62.6735 181.156 62.6735 181.527V184.07C62.6735 184.528 62.3024 184.899 61.8444 184.899H59.3018C58.8438 184.899 58.4727 184.441 58.4727 184.07V181.527C58.4727 181.069 58.8438 180.698 59.3018 180.698Z" fill="white"/>
<path d="M78.7783 180.698H81.3209C81.7789 180.698 82.15 181.156 82.15 181.527V184.07C82.15 184.528 81.7789 184.899 81.3209 184.899H78.7783C78.3204 184.899 77.9492 184.441 77.9492 184.07V181.527C77.9492 181.069 78.3203 180.698 78.7783 180.698Z" fill="white"/>
<path d="M98.2549 180.698H100.797C101.255 180.698 101.627 181.156 101.627 181.527V184.07C101.627 184.528 101.255 184.899 100.797 184.899H98.2549C97.7969 184.899 97.4258 184.441 97.4258 184.07V181.527C97.4258 181.069 97.7969 180.698 98.2549 180.698Z" fill="white"/>
<path d="M1.89552 196.356H4.43811C4.89609 196.356 5.26723 196.814 5.26723 197.185V199.727C5.26723 200.185 4.89611 200.557 4.43811 200.557H1.89552C1.43754 200.557 1.06641 200.099 1.06641 199.727V197.185C1.06641 196.727 1.43752 196.356 1.89552 196.356Z" fill="white"/>
<path d="M21.3721 196.356H23.9147C24.3727 196.356 24.7438 196.814 24.7438 197.185V199.727C24.7438 200.185 24.3727 200.557 23.9147 200.557H21.3721C20.9141 200.557 20.543 200.099 20.543 199.727V197.185C20.543 196.727 20.9141 196.356 21.3721 196.356Z" fill="white"/>
<path d="M40.8486 196.356H43.3912C43.8492 196.356 44.2204 196.814 44.2204 197.185V199.727C44.2204 200.185 43.8492 200.557 43.3912 200.557H40.8486C40.3907 200.557 40.0195 200.099 40.0195 199.727V197.185C40.0195 196.727 40.3906 196.356 40.8486 196.356Z" fill="white"/>
<path d="M60.3252 196.356H62.8678C63.3258 196.356 63.6969 196.814 63.6969 197.185V199.727C63.6969 200.185 63.3258 200.557 62.8678 200.557H60.3252C59.8672 200.557 59.4961 200.099 59.4961 199.727V197.185C59.4961 196.727 59.8672 196.356 60.3252 196.356Z" fill="white"/>
<path d="M79.8018 196.356H82.3444C82.8023 196.356 83.1735 196.814 83.1735 197.185V199.727C83.1735 200.185 82.8024 200.557 82.3444 200.557H79.8018C79.3438 200.557 78.9727 200.099 78.9727 199.727V197.185C78.9727 196.727 79.3438 196.356 79.8018 196.356Z" fill="white"/>
<path d="M99.2783 196.356H101.821C102.279 196.356 102.65 196.814 102.65 197.185V199.727C102.65 200.185 102.279 200.557 101.821 200.557H99.2783C98.8204 200.557 98.4492 200.099 98.4492 199.727V197.185C98.4492 196.727 98.8203 196.356 99.2783 196.356Z" fill="white"/>
<path d="M1.89552 212.777H4.43811C4.89609 212.777 5.26723 213.235 5.26723 213.606V216.149C5.26723 216.607 4.89611 216.978 4.43811 216.978H1.89552C1.43754 216.978 1.06641 216.52 1.06641 216.149V213.606C1.06641 213.148 1.43752 212.777 1.89552 212.777Z" fill="white"/>
<path d="M21.3721 212.777H23.9147C24.3727 212.777 24.7438 213.235 24.7438 213.606V216.149C24.7438 216.607 24.3727 216.978 23.9147 216.978H21.3721C20.9141 216.978 20.543 216.52 20.543 216.149V213.606C20.543 213.148 20.9141 212.777 21.3721 212.777Z" fill="white"/>
<path d="M40.8486 212.777H43.3912C43.8492 212.777 44.2204 213.235 44.2204 213.606V216.149C44.2204 216.607 43.8492 216.978 43.3912 216.978H40.8486C40.3907 216.978 40.0195 216.52 40.0195 216.149V213.606C40.0195 213.148 40.3906 212.777 40.8486 212.777Z" fill="white"/>
<path d="M60.3252 212.777H62.8678C63.3258 212.777 63.6969 213.235 63.6969 213.606V216.149C63.6969 216.607 63.3258 216.978 62.8678 216.978H60.3252C59.8672 216.978 59.4961 216.52 59.4961 216.149V213.606C59.4961 213.148 59.8672 212.777 60.3252 212.777Z" fill="white"/>
<path d="M79.8018 212.777H82.3444C82.8023 212.777 83.1735 213.235 83.1735 213.606V216.149C83.1735 216.607 82.8024 216.978 82.3444 216.978H79.8018C79.3438 216.978 78.9727 216.52 78.9727 216.149V213.606C78.9727 213.148 79.3438 212.777 79.8018 212.777Z" fill="white"/>
<path d="M99.2783 212.777H101.821C102.279 212.777 102.65 213.235 102.65 213.606V216.149C102.65 216.607 102.279 216.978 101.821 216.978H99.2783C98.8204 216.978 98.4492 216.52 98.4492 216.149V213.606C98.4492 213.148 98.8203 212.777 99.2783 212.777Z" fill="white"/>
<path d="M1.89552 229.198H4.43811C4.89609 229.198 5.26723 229.656 5.26723 230.027V232.57C5.26723 233.028 4.89611 233.399 4.43811 233.399H1.89552C1.43754 233.399 1.06641 232.941 1.06641 232.57V230.027C1.06641 229.569 1.43752 229.198 1.89552 229.198Z" fill="white"/>
<path d="M21.3721 229.198H23.9147C24.3727 229.198 24.7438 229.656 24.7438 230.027V232.57C24.7438 233.028 24.3727 233.399 23.9147 233.399H21.3721C20.9141 233.399 20.543 232.941 20.543 232.57V230.027C20.543 229.569 20.9141 229.198 21.3721 229.198Z" fill="white"/>
<path d="M40.8486 229.198H43.3912C43.8492 229.198 44.2204 229.656 44.2204 230.027V232.57C44.2204 233.028 43.8492 233.399 43.3912 233.399H40.8486C40.3907 233.399 40.0195 232.941 40.0195 232.57V230.027C40.0195 229.569 40.3906 229.198 40.8486 229.198Z" fill="white"/>
<path d="M60.3252 229.198H62.8678C63.3258 229.198 63.6969 229.656 63.6969 230.027V232.57C63.6969 233.028 63.3258 233.399 62.8678 233.399H60.3252C59.8672 233.399 59.4961 232.941 59.4961 232.57V230.027C59.4961 229.569 59.8672 229.198 60.3252 229.198Z" fill="white"/>
<path d="M79.8018 229.198H82.3444C82.8023 229.198 83.1735 229.656 83.1735 230.027V232.57C83.1735 233.028 82.8024 233.399 82.3444 233.399H79.8018C79.3438 233.399 78.9727 232.941 78.9727 232.57V230.027C78.9727 229.569 79.3438 229.198 79.8018 229.198Z" fill="white"/>
<path d="M99.2783 229.198H101.821C102.279 229.198 102.65 229.656 102.65 230.027V232.57C102.65 233.028 102.279 233.399 101.821 233.399H99.2783C98.8204 233.399 98.4492 232.941 98.4492 232.57V230.027C98.4492 229.569 98.8203 229.198 99.2783 229.198Z" fill="white"/>
<path d="M1.89552 245.619H4.43811C4.89609 245.619 5.26723 246.077 5.26723 246.449V248.991C5.26723 249.449 4.89611 249.82 4.43811 249.82H1.89552C1.43754 249.82 1.06641 249.362 1.06641 248.991V246.449C1.06641 245.991 1.43752 245.619 1.89552 245.619Z" fill="white"/>
<path d="M21.3721 245.619H23.9147C24.3727 245.619 24.7438 246.077 24.7438 246.449V248.991C24.7438 249.449 24.3727 249.82 23.9147 249.82H21.3721C20.9141 249.82 20.543 249.362 20.543 248.991V246.449C20.543 245.991 20.9141 245.619 21.3721 245.619Z" fill="white"/>
<path d="M40.8486 245.619H43.3912C43.8492 245.619 44.2204 246.077 44.2204 246.449V248.991C44.2204 249.449 43.8492 249.82 43.3912 249.82H40.8486C40.3907 249.82 40.0195 249.362 40.0195 248.991V246.449C40.0195 245.991 40.3906 245.619 40.8486 245.619Z" fill="white"/>
<path d="M60.3252 245.619H62.8678C63.3258 245.619 63.6969 246.077 63.6969 246.449V248.991C63.6969 249.449 63.3258 249.82 62.8678 249.82H60.3252C59.8672 249.82 59.4961 249.362 59.4961 248.991V246.449C59.4961 245.991 59.8672 245.619 60.3252 245.619Z" fill="white"/>
<path d="M79.8018 245.619H82.3444C82.8023 245.619 83.1735 246.077 83.1735 246.449V248.991C83.1735 249.449 82.8024 249.82 82.3444 249.82H79.8018C79.3438 249.82 78.9727 249.362 78.9727 248.991V246.449C78.9727 245.991 79.3438 245.619 79.8018 245.619Z" fill="white"/>
<path d="M99.2783 245.619H101.821C102.279 245.619 102.65 246.077 102.65 246.449V248.991C102.65 249.449 102.279 249.82 101.821 249.82H99.2783C98.8204 249.82 98.4492 249.362 98.4492 248.991V246.449C98.4492 245.991 98.8203 245.619 99.2783 245.619Z" fill="white"/>
<path d="M1.89552 262.041H4.43811C4.89609 262.041 5.26723 262.499 5.26723 262.87V265.412C5.26723 265.87 4.89611 266.241 4.43811 266.241H1.89552C1.43754 266.241 1.06641 265.783 1.06641 265.412V262.87C1.06641 262.412 1.43752 262.041 1.89552 262.041Z" fill="white"/>
<path d="M21.3721 262.041H23.9147C24.3727 262.041 24.7438 262.499 24.7438 262.87V265.412C24.7438 265.87 24.3727 266.241 23.9147 266.241H21.3721C20.9141 266.241 20.543 265.783 20.543 265.412V262.87C20.543 262.412 20.9141 262.041 21.3721 262.041Z" fill="white"/>
<path d="M40.8486 262.041H43.3912C43.8492 262.041 44.2204 262.499 44.2204 262.87V265.412C44.2204 265.87 43.8492 266.241 43.3912 266.241H40.8486C40.3907 266.241 40.0195 265.783 40.0195 265.412V262.87C40.0195 262.412 40.3906 262.041 40.8486 262.041Z" fill="white"/>
<path d="M60.3252 262.041H62.8678C63.3258 262.041 63.6969 262.499 63.6969 262.87V265.412C63.6969 265.87 63.3258 266.241 62.8678 266.241H60.3252C59.8672 266.241 59.4961 265.783 59.4961 265.412V262.87C59.4961 262.412 59.8672 262.041 60.3252 262.041Z" fill="white"/>
<path d="M79.8018 262.041H82.3444C82.8023 262.041 83.1735 262.499 83.1735 262.87V265.412C83.1735 265.87 82.8024 266.241 82.3444 266.241H79.8018C79.3438 266.241 78.9727 265.783 78.9727 265.412V262.87C78.9727 262.412 79.3438 262.041 79.8018 262.041Z" fill="white"/>
<path d="M99.2783 262.041H101.821C102.279 262.041 102.65 262.499 102.65 262.87V265.412C102.65 265.87 102.279 266.241 101.821 266.241H99.2783C98.8204 266.241 98.4492 265.783 98.4492 265.412V262.87C98.4492 262.412 98.8203 262.041 99.2783 262.041Z" fill="white"/>
<path d="M1.89552 278.462H4.43811C4.89609 278.462 5.26723 278.92 5.26723 279.291V281.833C5.26723 282.291 4.89611 282.662 4.43811 282.662H1.89552C1.43754 282.662 1.06641 282.205 1.06641 281.833V279.291C1.06641 278.833 1.43752 278.462 1.89552 278.462Z" fill="white"/>
<path d="M21.3721 278.462H23.9147C24.3727 278.462 24.7438 278.92 24.7438 279.291V281.833C24.7438 282.291 24.3727 282.662 23.9147 282.662H21.3721C20.9141 282.662 20.543 282.205 20.543 281.833V279.291C20.543 278.833 20.9141 278.462 21.3721 278.462Z" fill="white"/>
<path d="M40.8486 278.462H43.3912C43.8492 278.462 44.2204 278.92 44.2204 279.291V281.833C44.2204 282.291 43.8492 282.662 43.3912 282.662H40.8486C40.3907 282.662 40.0195 282.205 40.0195 281.833V279.291C40.0195 278.833 40.3906 278.462 40.8486 278.462Z" fill="white"/>
<path d="M60.3252 278.462H62.8678C63.3258 278.462 63.6969 278.92 63.6969 279.291V281.833C63.6969 282.291 63.3258 282.662 62.8678 282.662H60.3252C59.8672 282.662 59.4961 282.205 59.4961 281.833V279.291C59.4961 278.833 59.8672 278.462 60.3252 278.462Z" fill="white"/>
<path d="M79.8018 278.462H82.3444C82.8023 278.462 83.1735 278.92 83.1735 279.291V281.833C83.1735 282.291 82.8024 282.662 82.3444 282.662H79.8018C79.3438 282.662 78.9727 282.205 78.9727 281.833V279.291C78.9727 278.833 79.3438 278.462 79.8018 278.462Z" fill="white"/>
<path d="M99.2783 278.462H101.821C102.279 278.462 102.65 278.92 102.65 279.291V281.833C102.65 282.291 102.279 282.662 101.821 282.662H99.2783C98.8204 282.662 98.4492 282.205 98.4492 281.833V279.291C98.4492 278.833 98.8203 278.462 99.2783 278.462Z" fill="white"/>
<path d="M1.89552 294.119H4.43811C4.89609 294.119 5.26723 294.577 5.26723 294.948V297.491C5.26723 297.949 4.89611 298.32 4.43811 298.32H1.89552C1.43754 298.32 1.06641 297.862 1.06641 297.491V294.948C1.06641 294.49 1.43752 294.119 1.89552 294.119Z" fill="white"/>
<path d="M21.3721 294.119H23.9147C24.3727 294.119 24.7438 294.577 24.7438 294.948V297.491C24.7438 297.949 24.3727 298.32 23.9147 298.32H21.3721C20.9141 298.32 20.543 297.862 20.543 297.491V294.948C20.543 294.49 20.9141 294.119 21.3721 294.119Z" fill="white"/>
<path d="M40.8486 294.119H43.3912C43.8492 294.119 44.2204 294.577 44.2204 294.948V297.491C44.2204 297.949 43.8492 298.32 43.3912 298.32H40.8486C40.3907 298.32 40.0195 297.862 40.0195 297.491V294.948C40.0195 294.49 40.3906 294.119 40.8486 294.119Z" fill="white"/>
<path d="M60.3252 294.119H62.8678C63.3258 294.119 63.6969 294.577 63.6969 294.948V297.491C63.6969 297.949 63.3258 298.32 62.8678 298.32H60.3252C59.8672 298.32 59.4961 297.862 59.4961 297.491V294.948C59.4961 294.49 59.8672 294.119 60.3252 294.119Z" fill="white"/>
<path d="M79.8018 294.119H82.3444C82.8023 294.119 83.1735 294.577 83.1735 294.948V297.491C83.1735 297.949 82.8024 298.32 82.3444 298.32H79.8018C79.3438 298.32 78.9727 297.862 78.9727 297.491V294.948C78.9727 294.49 79.3438 294.119 79.8018 294.119Z" fill="white"/>
<path d="M99.2783 294.119H101.821C102.279 294.119 102.65 294.577 102.65 294.948V297.491C102.65 297.949 102.279 298.32 101.821 298.32H99.2783C98.8204 298.32 98.4492 297.862 98.4492 297.491V294.948C98.4492 294.49 98.8203 294.119 99.2783 294.119Z" fill="white"/>
<path d="M1.89552 310.54H4.43811C4.89609 310.54 5.26723 310.998 5.26723 311.369V313.912C5.26723 314.37 4.89611 314.741 4.43811 314.741H1.89552C1.43754 314.741 1.06641 314.283 1.06641 313.912V311.369C1.06641 310.911 1.43752 310.54 1.89552 310.54Z" fill="white"/>
<path d="M21.3721 310.54H23.9147C24.3727 310.54 24.7438 310.998 24.7438 311.369V313.912C24.7438 314.37 24.3727 314.741 23.9147 314.741H21.3721C20.9141 314.741 20.543 314.283 20.543 313.912V311.369C20.543 310.911 20.9141 310.54 21.3721 310.54Z" fill="white"/>
<path d="M40.8486 310.54H43.3912C43.8492 310.54 44.2204 310.998 44.2204 311.369V313.912C44.2204 314.37 43.8492 314.741 43.3912 314.741H40.8486C40.3907 314.741 40.0195 314.283 40.0195 313.912V311.369C40.0195 310.911 40.3906 310.54 40.8486 310.54Z" fill="white"/>
<path d="M60.3252 310.54H62.8678C63.3258 310.54 63.6969 310.998 63.6969 311.369V313.912C63.6969 314.37 63.3258 314.741 62.8678 314.741H60.3252C59.8672 314.741 59.4961 314.283 59.4961 313.912V311.369C59.4961 310.911 59.8672 310.54 60.3252 310.54Z" fill="white"/>
<path d="M79.8018 310.54H82.3444C82.8023 310.54 83.1735 310.998 83.1735 311.369V313.912C83.1735 314.37 82.8024 314.741 82.3444 314.741H79.8018C79.3438 314.741 78.9727 314.283 78.9727 313.912V311.369C78.9727 310.911 79.3438 310.54 79.8018 310.54Z" fill="white"/>
<path d="M99.2783 310.54H101.821C102.279 310.54 102.65 310.998 102.65 311.369V313.912C102.65 314.37 102.279 314.741 101.821 314.741H99.2783C98.8204 314.741 98.4492 314.283 98.4492 313.912V311.369C98.4492 310.911 98.8203 310.54 99.2783 310.54Z" fill="white"/>
<path d="M1.89552 326.961H4.43811C4.89609 326.961 5.26723 327.419 5.26723 327.79V330.333C5.26723 330.791 4.89611 331.162 4.43811 331.162H1.89552C1.43754 331.162 1.06641 330.704 1.06641 330.333V327.79C1.06641 327.332 1.43752 326.961 1.89552 326.961Z" fill="white"/>
<path d="M21.3721 326.961H23.9147C24.3727 326.961 24.7438 327.419 24.7438 327.79V330.333C24.7438 330.791 24.3727 331.162 23.9147 331.162H21.3721C20.9141 331.162 20.543 330.704 20.543 330.333V327.79C20.543 327.332 20.9141 326.961 21.3721 326.961Z" fill="white"/>
<path d="M40.8486 326.961H43.3912C43.8492 326.961 44.2204 327.419 44.2204 327.79V330.333C44.2204 330.791 43.8492 331.162 43.3912 331.162H40.8486C40.3907 331.162 40.0195 330.704 40.0195 330.333V327.79C40.0195 327.332 40.3906 326.961 40.8486 326.961Z" fill="white"/>
<path d="M60.3252 326.961H62.8678C63.3258 326.961 63.6969 327.419 63.6969 327.79V330.333C63.6969 330.791 63.3258 331.162 62.8678 331.162H60.3252C59.8672 331.162 59.4961 330.704 59.4961 330.333V327.79C59.4961 327.332 59.8672 326.961 60.3252 326.961Z" fill="white"/>
<path d="M79.8018 326.961H82.3444C82.8023 326.961 83.1735 327.419 83.1735 327.79V330.333C83.1735 330.791 82.8024 331.162 82.3444 331.162H79.8018C79.3438 331.162 78.9727 330.704 78.9727 330.333V327.79C78.9727 327.332 79.3438 326.961 79.8018 326.961Z" fill="white"/>
<path d="M99.2783 326.961H101.821C102.279 326.961 102.65 327.419 102.65 327.79V330.333C102.65 330.791 102.279 331.162 101.821 331.162H99.2783C98.8204 331.162 98.4492 330.704 98.4492 330.333V327.79C98.4492 327.332 98.8203 326.961 99.2783 326.961Z" fill="white"/>
<path d="M1.89552 343.383H4.43811C4.89609 343.383 5.26723 343.841 5.26723 344.212V346.754C5.26723 347.212 4.89611 347.583 4.43811 347.583H1.89552C1.43754 347.583 1.06641 347.125 1.06641 346.754V344.212C1.06641 343.754 1.43752 343.383 1.89552 343.383Z" fill="white"/>
<path d="M21.3721 343.383H23.9147C24.3727 343.383 24.7438 343.841 24.7438 344.212V346.754C24.7438 347.212 24.3727 347.583 23.9147 347.583H21.3721C20.9141 347.583 20.543 347.125 20.543 346.754V344.212C20.543 343.754 20.9141 343.383 21.3721 343.383Z" fill="white"/>
<path d="M40.8486 343.383H43.3912C43.8492 343.383 44.2204 343.841 44.2204 344.212V346.754C44.2204 347.212 43.8492 347.583 43.3912 347.583H40.8486C40.3907 347.583 40.0195 347.125 40.0195 346.754V344.212C40.0195 343.754 40.3906 343.383 40.8486 343.383Z" fill="white"/>
<path d="M60.3252 343.383H62.8678C63.3258 343.383 63.6969 343.841 63.6969 344.212V346.754C63.6969 347.212 63.3258 347.583 62.8678 347.583H60.3252C59.8672 347.583 59.4961 347.125 59.4961 346.754V344.212C59.4961 343.754 59.8672 343.383 60.3252 343.383Z" fill="white"/>
<path d="M79.8018 343.383H82.3444C82.8023 343.383 83.1735 343.841 83.1735 344.212V346.754C83.1735 347.212 82.8024 347.583 82.3444 347.583H79.8018C79.3438 347.583 78.9727 347.125 78.9727 346.754V344.212C78.9727 343.754 79.3438 343.383 79.8018 343.383Z" fill="white"/>
<path d="M99.2783 343.383H101.821C102.279 343.383 102.65 343.841 102.65 344.212V346.754C102.65 347.212 102.279 347.583 101.821 347.583H99.2783C98.8204 347.583 98.4492 347.125 98.4492 346.754V344.212C98.4492 343.754 98.8203 343.383 99.2783 343.383Z" fill="white"/>
<path d="M1.89552 359.804H4.43811C4.89609 359.804 5.26723 360.262 5.26723 360.633V363.175C5.26723 363.633 4.89611 364.005 4.43811 364.005H1.89552C1.43754 364.005 1.06641 363.547 1.06641 363.175V360.633C1.06641 360.175 1.43752 359.804 1.89552 359.804Z" fill="white"/>
<path d="M21.3721 359.804H23.9147C24.3727 359.804 24.7438 360.262 24.7438 360.633V363.175C24.7438 363.633 24.3727 364.005 23.9147 364.005H21.3721C20.9141 364.005 20.543 363.547 20.543 363.175V360.633C20.543 360.175 20.9141 359.804 21.3721 359.804Z" fill="white"/>
<path d="M40.8486 359.804H43.3912C43.8492 359.804 44.2204 360.262 44.2204 360.633V363.175C44.2204 363.633 43.8492 364.005 43.3912 364.005H40.8486C40.3907 364.005 40.0195 363.547 40.0195 363.175V360.633C40.0195 360.175 40.3906 359.804 40.8486 359.804Z" fill="white"/>
<path d="M60.3252 359.804H62.8678C63.3258 359.804 63.6969 360.262 63.6969 360.633V363.175C63.6969 363.633 63.3258 364.005 62.8678 364.005H60.3252C59.8672 364.005 59.4961 363.547 59.4961 363.175V360.633C59.4961 360.175 59.8672 359.804 60.3252 359.804Z" fill="white"/>
<path d="M79.8018 359.804H82.3444C82.8023 359.804 83.1735 360.262 83.1735 360.633V363.175C83.1735 363.633 82.8024 364.005 82.3444 364.005H79.8018C79.3438 364.005 78.9727 363.547 78.9727 363.175V360.633C78.9727 360.175 79.3438 359.804 79.8018 359.804Z" fill="white"/>
<path d="M99.2783 359.804H101.821C102.279 359.804 102.65 360.262 102.65 360.633V363.175C102.65 363.633 102.279 364.005 101.821 364.005H99.2783C98.8204 364.005 98.4492 363.547 98.4492 363.175V360.633C98.4492 360.175 98.8203 359.804 99.2783 359.804Z" fill="white"/>
<path d="M1.89552 376.225H4.43811C4.89609 376.225 5.26723 376.683 5.26723 377.054V379.597C5.26723 380.055 4.89611 380.426 4.43811 380.426H1.89552C1.43754 380.426 1.06641 379.968 1.06641 379.597V377.054C1.06641 376.596 1.43752 376.225 1.89552 376.225Z" fill="white"/>
<path d="M21.3721 376.225H23.9147C24.3727 376.225 24.7438 376.683 24.7438 377.054V379.597C24.7438 380.055 24.3727 380.426 23.9147 380.426H21.3721C20.9141 380.426 20.543 379.968 20.543 379.597V377.054C20.543 376.596 20.9141 376.225 21.3721 376.225Z" fill="white"/>
<path d="M40.8486 376.225H43.3912C43.8492 376.225 44.2204 376.683 44.2204 377.054V379.597C44.2204 380.055 43.8492 380.426 43.3912 380.426H40.8486C40.3907 380.426 40.0195 379.968 40.0195 379.597V377.054C40.0195 376.596 40.3906 376.225 40.8486 376.225Z" fill="white"/>
<path d="M60.3252 376.225H62.8678C63.3258 376.225 63.6969 376.683 63.6969 377.054V379.597C63.6969 380.055 63.3258 380.426 62.8678 380.426H60.3252C59.8672 380.426 59.4961 379.968 59.4961 379.597V377.054C59.4961 376.596 59.8672 376.225 60.3252 376.225Z" fill="white"/>
<path d="M79.8018 376.225H82.3444C82.8023 376.225 83.1735 376.683 83.1735 377.054V379.597C83.1735 380.055 82.8024 380.426 82.3444 380.426H79.8018C79.3438 380.426 78.9727 379.968 78.9727 379.597V377.054C78.9727 376.596 79.3438 376.225 79.8018 376.225Z" fill="white"/>
<path d="M99.2783 376.225H101.821C102.279 376.225 102.65 376.683 102.65 377.054V379.597C102.65 380.055 102.279 380.426 101.821 380.426H99.2783C98.8204 380.426 98.4492 379.968 98.4492 379.597V377.054C98.4492 376.596 98.8203 376.225 99.2783 376.225Z" fill="white"/>
</svg>
