<svg width="147" height="148" viewBox="0 0 147 148" fill="none" xmlns="http://www.w3.org/2000/svg">
<path d="M97.7082 41.9482C100.578 44.8189 105.231 44.8189 108.102 41.9482C110.973 39.0775 110.973 34.4237 108.102 31.5543L78.7021 2.15305C75.8314 -0.717683 71.1776 -0.717683 68.307 2.15305L38.907 31.5543C36.0362 34.4238 36.0362 39.0776 38.907 41.9482C41.7777 44.8188 46.4315 44.8189 49.3008 41.9482L66.1548 25.0955V110.254C66.1548 114.313 69.4451 117.603 73.5045 117.603C77.564 117.603 80.8542 114.313 80.8542 110.254V25.0955L97.7082 41.9482Z" fill="black"/>
<path d="M14.6994 110.254C14.6994 106.195 11.4091 102.903 7.34969 102.903C3.29022 102.903 0 106.195 0 110.254V124.954C0 137.133 9.87224 147.004 22.0503 147.004H124.95C137.129 147.004 147 137.133 147 124.954V110.254C147 106.195 143.71 102.903 139.65 102.903C135.591 102.903 132.301 106.195 132.301 110.254V124.954C132.301 129.013 129.009 132.305 124.95 132.305H22.0503C17.9909 132.305 14.6994 129.013 14.6994 124.954V110.254Z" fill="black"/>
</svg>
