<svg width="449" height="200" viewBox="0 0 449 200" fill="none" xmlns="http://www.w3.org/2000/svg">
<path d="M442.401 188C427.092 188 412.796 180.742 403.178 168.082C401.061 165.293 396.374 165.293 394.26 168.082C384.647 180.742 370.35 188 355.041 188C339.732 188 325.436 180.742 315.826 168.082C314.768 166.687 313.119 165.867 311.366 165.867C309.616 165.867 307.963 166.683 306.905 168.078C297.287 180.738 282.995 187.996 267.686 187.996C252.377 187.996 238.081 180.738 228.463 168.078C226.345 165.289 221.658 165.289 219.545 168.078C209.927 180.738 195.635 187.996 180.322 187.996C165.013 187.996 150.72 180.738 141.103 168.078C138.985 165.289 134.298 165.289 132.185 168.078C122.567 180.738 108.275 187.996 92.9616 187.996C77.6526 187.996 63.3596 180.738 53.7426 168.078C51.6254 165.289 46.9379 165.289 44.8246 168.078C35.2074 180.738 20.9106 188 5.60161 188C2.50781 188 0 190.508 0 193.601C0 196.695 2.50781 199.203 5.60161 199.203C22.1876 199.203 37.7696 192.328 49.2856 180.121C60.7976 192.324 76.3796 199.203 92.9656 199.203C109.552 199.203 125.134 192.328 136.65 180.121C148.162 192.324 163.744 199.203 180.33 199.203C196.916 199.203 212.498 192.328 224.014 180.121C235.526 192.324 251.108 199.203 267.698 199.203C284.284 199.203 299.866 192.328 311.37 180.125C322.882 192.324 338.464 199.203 355.054 199.203C371.644 199.203 387.222 192.328 398.734 180.125C410.234 192.32 425.816 199.199 442.402 199.199C445.495 199.199 448.003 196.691 448.003 193.597C448.003 190.508 445.495 188 442.402 188H442.401Z" fill="white"/>
<path d="M442.401 105.07C427.092 105.07 412.796 97.812 403.178 85.1518C401.061 82.3627 396.374 82.3627 394.26 85.1518C384.647 97.8118 370.35 105.07 355.041 105.07C339.732 105.07 325.436 97.812 315.826 85.1518C314.768 83.7573 313.119 82.937 311.366 82.937C309.616 82.937 307.963 83.7534 306.905 85.1479C297.287 97.8079 282.995 105.066 267.686 105.066C252.377 105.066 238.081 97.8081 228.463 85.1479C226.345 82.3588 221.658 82.3588 219.545 85.1479C209.927 97.8079 195.635 105.066 180.322 105.066C165.013 105.066 150.72 97.8081 141.103 85.1479C138.985 82.3588 134.298 82.3588 132.185 85.1479C122.567 97.8079 108.275 105.066 92.9616 105.066C77.6526 105.066 63.3596 97.8081 53.7426 85.1479C51.6254 82.3588 46.9379 82.3588 44.8246 85.1479C35.2074 97.8079 20.9106 105.07 5.60161 105.07C2.50781 105.07 0 107.578 0 110.672C0 113.765 2.50781 116.273 5.60161 116.273C22.1876 116.273 37.7696 109.398 49.2856 97.1911C60.7976 109.394 76.3796 116.273 92.9656 116.273C109.552 116.273 125.134 109.398 136.65 97.1911C148.162 109.394 163.744 116.273 180.33 116.273C196.916 116.273 212.498 109.398 224.014 97.1911C235.526 109.394 251.108 116.273 267.698 116.273C284.284 116.273 299.866 109.398 311.37 97.1951C322.882 109.394 338.464 116.273 355.054 116.273C371.644 116.273 387.222 109.398 398.734 97.1951C410.234 109.39 425.816 116.269 442.402 116.269C445.495 116.269 448.003 113.761 448.003 110.668C448.003 107.578 445.495 105.07 442.402 105.07H442.401Z" fill="white"/>
<path d="M442.401 22.1328C427.092 22.1328 412.796 14.875 403.178 2.2148C401.061 -0.574298 396.374 -0.574298 394.26 2.2148C384.647 14.8748 370.35 22.1328 355.041 22.1328C339.732 22.1328 325.436 14.875 315.826 2.2148C314.768 0.820302 313.119 0 311.366 0C309.616 0 307.963 0.816413 306.905 2.2109C297.287 14.8709 282.995 22.1289 267.686 22.1289C252.377 22.1289 238.081 14.8711 228.463 2.2109C226.345 -0.578197 221.658 -0.578197 219.545 2.2109C209.927 14.8709 195.635 22.1289 180.322 22.1289C165.013 22.1289 150.72 14.8711 141.103 2.2109C138.985 -0.578197 134.298 -0.578197 132.185 2.2109C122.567 14.8709 108.275 22.1289 92.9616 22.1289C77.6526 22.1289 63.3596 14.8711 53.7426 2.2109C51.6254 -0.578197 46.9379 -0.578197 44.8246 2.2109C35.2074 14.8709 20.9106 22.1329 5.60161 22.1329C2.50781 22.1329 0 24.6407 0 27.7345C0 30.8283 2.50781 33.3361 5.60161 33.3361C22.1876 33.3361 37.7696 26.4611 49.2856 14.2541C60.7976 26.4571 76.3796 33.3361 92.9656 33.3361C109.552 33.3361 125.134 26.4611 136.65 14.2541C148.162 26.4571 163.744 33.3361 180.33 33.3361C196.916 33.3361 212.498 26.4611 224.014 14.2541C235.526 26.4571 251.108 33.3361 267.698 33.3361C284.284 33.3361 299.866 26.4611 311.37 14.2581C322.882 26.4571 338.464 33.3361 355.054 33.3361C371.644 33.3361 387.222 26.4611 398.734 14.2581C410.234 26.4571 425.816 33.3321 442.402 33.3321C445.495 33.3321 448.003 30.8243 448.003 27.7305C448.003 24.6407 445.495 22.1328 442.402 22.1328H442.401Z" fill="white"/>
</svg>
