<?xml version="1.0" encoding="utf-8"?><svg viewBox="0 0 847 1297" xmlns="http://www.w3.org/2000/svg" xmlns:xlink="http://www.w3.org/1999/xlink"><style>:root>svg{display:none}:root>svg:target{display:block}</style><svg viewBox="0 0 20 15" id="back" xmlns="http://www.w3.org/2000/svg"><path d="M.378 8.297l6.408 6.374c.441.439 1.155.439 1.575 0 .442-.44.442-1.15 0-1.568L3.845 8.61h15.042C19.496 8.61 20 8.11 20 7.503s-.504-1.108-1.113-1.108H3.866L8.36 1.902c.442-.44.442-1.15 0-1.568A1.15 1.15 0 007.563 0a1.1 1.1 0 00-.798.334L.336 6.73c-.21.21-.336.502-.336.795.042.271.168.564.378.773z"/></svg><svg viewBox="0 0 9 9" id="close" xmlns="http://www.w3.org/2000/svg"><path d="M9 .906L8.094 0 4.5 3.594.906 0 0 .906 3.594 4.5 0 8.094.906 9 4.5 5.406 8.094 9 9 8.094 5.406 4.5 9 .906z"/></svg><svg viewBox="0 0 3 1297" id="dashed" xmlns="http://www.w3.org/2000/svg"><path stroke-opacity=".3" stroke-width="3" stroke-dasharray="7 7" d="M1.5 1297V.94"/></svg><svg viewBox="0 0 847 843" id="design__pattern" xmlns="http://www.w3.org/2000/svg"><path d="M352.752 334.913c2.063-3.362 2.637-9.888-.927-14.049-3.57-4.199-10.352-12.003-16.69-5.621-6.355 6.386-11.326 13.942-9.487 19.858 1.831 5.898.188 8.37 5.493 13.138 5.298 4.744 9.763 5.626 6.653 8.46-3.109 2.861-5.599 8.394-5.399 13.274.175 4.907.998 13.634 7.887 19.839 6.853 6.22 8.544 5.861 10.907 4.48 2.358-1.384 1.441 3.289 6.737 8.039 5.303 4.772 5.115 3.345 5.327 9.376.19 6.065-.203 8.08 1.303 10.927 1.521 2.835 8.744 9.598 6.792 13.59-1.938 4.024-4.612 8.131-1.978 13.514 2.645 5.38 9.633 7.44 11.241 11.002 1.613 3.576-.797 4.013 1.69 9.109 2.439 5.146 6.457 4.771 8.569 8.195 2.097 3.419 3.646 1.036 4.117 3.17.457 2.13.152 1.457.434 4.526.285 3.059 2.246 3.445 2.91 5.012.666 1.558-1.264 2.42-.635 4.568.634 2.18-.633 3.184.121 4.746.78 1.55 3.112 2.736 3.625 3.653.552.91.871 1.498-.022 2.811-.887 1.341-2.015 3.96-1.564 5.207.463 1.257.883.968 1.563 4.307.661 3.316 1.084 4.402.58 6.494-.518 2.13 1.023 3.317-.35 5.269-1.36 1.962-.952 1.769-2.292 3.539-1.326 1.79-1.435 2.748-1.435 2.748s-2.384-1.351-3.346-5.547c-.94-4.173-1.308-5.491-2.977-7.33-1.68-1.838-7.172-6.85-7.849-10.617-.682-3.785.149-6.198-2.515-10.622-2.681-4.45-6.627-4.778-6.821-9.105-.233-4.288 2.01-3.915.336-7.993-1.684-4.081-2.431-6.071-4.761-7.334-2.328-1.273-4.027-1.253-8.115-.708-4.12.517-4.975.429-5.274 2.85-.306 2.439-.831 3.314-1.526 2.286-.679-1.028-4.597-5.957-6.127-10.807-1.528-4.829-1.974-5.713-3.69-8.197-1.744-2.468-3.168-6.045-3.546-7.712-.39-1.661-4.762-6.895-4.947-9.594-.194-2.703-1.416-9.505-3.952-14.612-2.528-5.146-5.015-6.967-5.324-9.432-.318-2.437-2.667-4.943-3.498-8.403-.827-3.442-1.508-6.252-3.259-9.959-1.762-3.752-1.375-1.632-1.502-5.474-.111-3.843-1.265-6.634-2.158-7.888-.92-1.238-.332-2.369.113-1.931.446.449 2.22.004 2.738 1.432.509 1.44 2.54 2.452 4.479 2.494 1.948.019 6.882-1.136 5.28-6.861-1.628-5.744-5.29-5.669-7.036-4.958-1.733.732-3.127 3.227-3.738 4.512-.598 1.311-1.747 3.027-2.49 2.259-.731-.773-.979.057-1.513-1.355-.49-1.449-.645-2.027-1.246-3.457-.611-1.45-2.373-4.207-3.151-7.91-.786-3.711-2.234-7.553-2.702-10.655-.441-3.109-.747-6.993-2.873-12.826-2.125-5.85-2.492-10.808-4.021-15.197-1.527-4.378-4.127-9.601-5.053-14.923-.897-5.347-5.539-12.377-5.258-14.218.263-1.805-.438-7.262-2.189-16.318-1.773-9.038-4.7-14.422-5.512-20.715-.788-6.29-1.521-13.351-1.626-15.153-.079-1.803-.768-4.59 1.493-11.146 2.282-6.576 6.907-15.09-2.933-23.246-9.856-8.153-17.576-6.837-21.568-.963-4.005 5.881-5.641 10.078-5.825 18.642-.197 8.602 2.356 12.73 6.657 14.382 4.295 1.639 9.221 6.804 13.353 9.303 4.122 2.496 3.842 2.985 3.939 6.099.099 3.142 1.426 11.295 2.429 14.265 1.017 2.942.285 3.944.268 7.585-.007 3.654 3.086 10.003 4.029 13.863.932 3.82 2.022 11.314 2.342 14.679.306 3.329 1.711 6.119 3.439 10.886 1.726 4.783 2.343 7.927 1.736 10.555-.612 2.642-1.093 5.104-2.556 5.799-1.48.683-3.111 4.007-4.133 5.584-1.021 1.562-2.35 4.231-3.236 5.556-.872 1.357-.927 1.605-2.065 3.336-1.15 1.72-1.842 3.014-.915 3.646.942.648 1.844.119 2.478-2.614.617-2.73 2.702-6.938 3.257-7.897.545-.962 2.307-4.078 3.652-5.5 1.343-1.418.948-1.666 2.819-1.652 1.859.03 2.069 1.203 3.238 2.491 1.163 1.307 2.382 4.136 1.983 5.281-.412 1.182-1.355 2.865-.6 3.448.774.605 1.606 2.262 2.698 4.807 1.1 2.526 1.217 3.693 2.445 6.946 1.21 3.277 1.213 3.718 2.211 6.821.968 3.157 2.2 6.85 3.35 8.603 1.168 1.727 1.195 2.46-.936 2.471-2.131.027-3.709-.466-4.828 1.978-1.109 2.443-.934 3.353-2.495 3.594-1.549.235-2.448 1.656-4.994-.809-2.517-2.47-6.206-2.74-6.066-3.876.125-1.124.459-3.287-.299-3.515-.741-.248-2.212.004-3.365-.853-1.182-.847-1.915-1.087-4.623-2.231-2.71-1.154-3.922-3.971-5.977-3.053-2.04.923-1.132-.479-3.59 2.918-2.456 3.424-1.771 5.8-4.586 8.434-2.843 2.654-3.539 4.816-3.675 7.278-.116 2.422.567 3.378 2.46 6.422 1.886 3.036 4.3 7.86 6.53 8.753 2.225.875 3.192.971 4.985 1.329 1.791.347 4.244.946 7.676 3.83 3.43 2.888 3.62 3.74 6.286 4.177 2.666.438 3.346-.31 5.201-2.519 1.859-2.222 4.6-11.178 4.842-12.383.234-1.196.054-5.157 1.869-5.404 1.823-.255 3.997.886 5.321.53 1.304-.358 2.186-1.176 3.673-1.129 1.518.021 2.071.387 2.312 1.859.224 1.461.742 3.355 1.801 5.171 1.09 1.789 2.531 1.998 2.011 4.195-.52 2.213 2.276 3.372 2.257 4.795-.011 1.442.567 2.461 1.133 4.141.556 1.713.893 3.989 2.112 6.819 1.217 2.835 3.986 7.289 4.562 9.245.587 1.981.295 1.738 1.067 5.894.778 4.154 2.05 6.274 3.187 7.294 1.108 1.03 2.912 2.257 3.423 5.118.479 2.864 3.129 5.24 4.107 6.147.979.902 1.139 3.237 1.819 5.674.664 2.469 1.547 3.437 2.771 5.697 1.247 2.311 3.72 5.436 5.128 9.107 1.429 3.652 1.634 2.105 2.104 7.335.463 5.254 1.294 6.942 1.981 11.148.672 4.216.862 4.183-.449 7.655-1.308 3.467-1.689 2.664-2.854 4.594-1.176 1.869-.785 2.582-2.082 4.65-1.288 2.039-2.948 3.66-3.863 4.735-.915 1.064 1.361 2.109 1.693 4.069.315 1.923.512 4.679-1.039 7.098-1.536 2.419-1.791 1.906-2.878 2.632-1.093.746-1.312 1.869-3.122 2.569-1.789.727-1.398 1.754-2.315 2.163-.915.398-1.958-.275-2.684 1.594-.725 1.885-1.35 1.981-.308 4.566 1.028 2.58 3.05 3.075 4.492 3.028 1.418-.071 3.083-1.178 4.19-.268 1.109.937 2.685 1.377 1.779 2.397-.925.997-4.087 3.321-5.451 5.428-1.375 2.082-1.412 4.097-1.795 6.635-.391 2.536-.294 6.824.582 8.984.877 2.202 3.52 4.989 5.936 7.12 2.424 2.124 4.389 2.993 5.534 3.224 1.133.222 3.712.368 5.631 1.461 1.914 1.092 3.424-.535 4.622-1.82 1.202-1.299 2.11-3.497 3.684-3.655 1.569-.171 1.95-2.092 4.014-3.609 2.08-1.47 2.076-3.818 4.099-3.909 2.028-.079 4.657-1.939 4.162-3.673-.481-1.76-.526-5.674-1.259-6.773-.742-1.102-1.86-2.629-1.556-4.1.295-1.463-.455-3.653 1.224-3.78 1.679-.142 4.049-.149 5.784 3.034 1.732 3.192 3.157 2.651 2.941 6.741-.227 4.091 1.125 5.081 2.579 5.478 1.478.406 2.888-.244 4.202-1.997 1.283-1.774 1.127-3.924 2.802-2.313 1.694 1.649 4.706 5.555 6.732 7.979 2.01 2.394 4.052 6.469 6.603 9.114 2.557 2.626 7.142 5.225 8.275 9.681 1.134 4.502 2.868 8.287 6.266 11.447 3.408 3.148 6.555 3.978 8.588 8.679 2.041 4.652 1.751 6.73 2.746 8.953.984 2.213 6.588 7.939 11.245 10.737 4.645 2.814 7.209 4.866 9.075 6.187 1.872 1.287 3.606 3.301 3.905 5.386.308 2.061-.167 6.249 2.306 6.954 2.463.718 3.026-.354 6.165 2.302 3.157 2.621 2.831 3.031 4.689 6.251 1.848 3.217.841 2.394 2.53 5.708 1.729 3.306 2.955 6.054 5.722 6.474 2.766.42 3.241-.808 3.971-2.78.749-1.981-1.719-3.785-3.382-6.811-1.635-3.064-2.751-4.596-4.314-5.717-1.546-1.141-3.33-2.921-4.789-5.107-1.478-2.176-5.056-5.032-5.001-6.527.071-1.542 2.35-5.823 2.512-9.696.169-3.881-3.007-8.174-6.533-7.109-3.535 1.094-1.042 4.672-1.636 5.863-.588 1.162-2.662 1.461-2.955.573-.288-.871-4.467-6.692-8.955-11.699-4.43-5.024-15.426-17.749-18.75-23.032-3.343-5.273-8.626-13.92-12.758-18.762-4.13-4.834-7.859-7.466-9.301-10.468-1.421-2.999-8.244-10.387-9.135-11.856-.884-1.492-.093-7.367 1.095-7.979 1.188-.582.636-1.387 2.143-.044 1.497 1.355 9.655 8.066 10.477 11.088.832 2.993 2.12 4.212 4.489 7.873 2.354 3.676 5.319 9.582 6.583 11.59 1.261 2.032 5.352 8.299 8.546 11.294 3.202 3.003 5.394 5.685 6.338 4.557.935-1.12-4.131-7.926-5.078-10.226-.976-2.342-5.587-10.813-6.892-11.923-1.34-1.085-6.496-8.505-7.026-10.618-.527-2.111-1.904-4.756-2.519-5.819-.617-1.084-1.964-2.644-1.051-3.069.913-.41 2.663-.905 3.857-.29 1.189.588 4.325-.336 6.712-3.427 2.391-3.07 3.645-5.315 3.025-12.882-.641-7.61-3.367-8.131-4.544-9.338-1.201-1.152-4.523-1.693-5.973-1.517-1.47.189-2.014-.069-1.928-1.097.09-1.053.435-2.777.165-4.348-.288-1.594-.956-6.018-.745-7.118.232-1.145-.128-2.308-.087-5.474.041-3.197-.734-4.761-.967-5.985-.215-1.232-.322-4.921-2.826-5.899-2.553-.985-4.488-1.372-4.72-3.066-.28-1.706-4.449-7.508-4.233-8.654.232-1.145-1.911-3.443-2.097-4.32-.176-.878.538-5.104.394-7.38-.144-2.293-3.657-6.656-5.133-8.732-1.507-2.05-.912-3.724-1.126-6.942-.184-3.259-2.552-9.869.403-9.766 2.932.111 5.543 3.127 7.164 3.316 1.621.188 4.906.369 5.872 1.398.981 1.033 6.524.583 7.836 1.072 1.318.501 6.38-1.108 8.549-3.647 2.162-2.536 3.162-5.163 1.549-10.226-1.603-5.048-9.916-14.517-19.095-14.905-9.142-.39-7.957 2.564-9.771 3.996-1.826 1.406-4.935 2.81-5.527 5.182-.585 2.368.606 4.167-.828 5.395-1.44 1.259-1.959 1.502-4.037.038-2.076-1.483-2.947-3.657-3.408-4.918-.46-1.297-4.472-9.172-3.828-10.582.647-1.419 1.371-2.115.381-3.723-.979-1.625-3.779-1.826-4.128-3.666-.35-1.851-3.094-8.314-2.969-11.257.094-2.927-1.648-9.68-1.444-11.317.194-1.608 1.489-3.939 2.315-6.37.845-2.466 3.21-7.792 2.764-10.342-.434-2.587-2.194-6.255-2.203-8.647-.019-2.333-1.645-5.98-1.316-7.087.342-1.132 2.349-4.755 3.399-7.045 1.061-2.276 1.45-7.866.104-8.859-1.357-.992-2.804-2.566-3.81-1.711-1.001.887-2.113 2.92-3.3 2.312-1.176-.578-.851-.533-2.551.331-1.699.843-1.688 1.323-2.496 3.069-.812 1.729-2.339 3.449-4.515 2.522-2.192-.895-3.873-3.226-3.032-3.896.844-.675 2.942-2.877 1.805-3.688-1.149-.82-2.329-1.388-2.292-2.801-.012-1.439 1.1-2.419 1.724-3.458z" fill-opacity=".75"/><path fill-rule="evenodd" clip-rule="evenodd" d="M460.958 401.616c.37-1.857-.856-5.297-2.879-4.168-2.029 1.147-5.21 4.333-4.581 6.916.67 2.554 3.92 3.452 5.704 2.256 1.409-.923 1.56-2.837 1.663-4.136v-.001a9.28 9.28 0 01.093-.867zm12.748 13.274c-.706-1.85-7.507-4.703-9.212-2.594-.717.873-1.496 1.286-2.269 1.695-1.068.566-2.124 1.126-2.991 2.888-1.038 2.102-.29 3.268.571 4.61.383.598.789 1.231 1.07 1.998.909 2.486 3.067 5.852 5.618 5.207 2.553-.634 10.36-5.775 7.213-13.804zm4.68 45.995l.128.262v-.001c1.082 2.205 1.086 4.48 1.09 7.667l.003.992c.043 3.677-1.584 7.549-3.051 11.041l-.051.121c-1.463 3.55-5.234 7.034-9.868 9.054-4.609 2.023-7.209-1.021-10.591-5.281-3.363-4.253-3.18-9.208-1.212-15.212 1.795-5.49 1.868-5.568 4.458-8.318.252-.268.528-.561.832-.887a55.62 55.62 0 001.782-2.038v-.001c2.094-2.483 3.405-4.036 7.684-4.404 5.149-.469 7.575 4.503 8.796 7.005zm6.095 22.447c-.26-.973-.39-1.819-.496-2.515-.258-1.689-.381-2.494-1.91-2.08-2.181.606-4.096 1.259-4.629 3.959a39.26 39.26 0 01-.319 1.417l-.002.008c-.448 1.87-.748 3.125.424 4.484 1.465 1.69 5.301.424 6.057-.858.761-1.233 1.173-3.332.875-4.415zm3.571 5.953c.306-1.072-1.924-1.949-1.968-1.027-.055.893 1.546 2.478 1.968 1.027zm3.336 12.174c-.056-1.822-1.672-4.413-2.625-2.959-.916 1.499-1.786 3.259-.938 4.178.853.932 3.618.471 3.563-1.219zm-3.803 5.673c.34-1.694-1.805-1.253-1.904-.79-.096.501 1.596 2.396 1.904.79zm1.336 19.7c.46-1.558-.214-2.705-1.955-3.06-1.715-.341-4.33 2.456-4.012 3.541.282 1.099 1.422 4.394 3.676 2.665 1.904-1.448 1.97-1.749 2.149-2.563.037-.168.079-.357.142-.583zm-.714 10.091c4.606 1.323 12.114 7.227 14.106 10.242v-.001c1.359 2.01 1.509 3.974 1.636 5.627a47.91 47.91 0 00.068.814c.158 1.816-.704 6.136-1.296 9.094-.59 2.953.335 4.779 6.028 9.636 5.719 4.829 10.54 14.74 10.911 20.586.191 2.888-.254 5.496-.643 7.773-.398 2.324-.736 4.303-.279 5.883.875 2.932-.072 7.614-.473 9.598v.001l-.074.369c-.354 1.751.396 5.099 2.174 6.489 1.281.982 1.39 1.145 1.887 1.896.189.286.435.658.824 1.192 1.413 1.929-.259 8.392-2.465 10.509-1.636 1.578-2.744.102-3.944-1.497-.421-.561-.854-1.138-1.325-1.603-1.854-1.741-1.432-4.47-.544-6.34.38-.806.747-1.073.999-1.256.334-.243.463-.337.149-1.346-.171-.55-.388-.936-.618-1.348-.511-.912-1.093-1.952-1.42-5.188-.295-2.9-.468-2.955-1.642-3.328-.728-.231-1.841-.584-3.606-1.813-3.906-2.73-6.02 1.243-7.254 3.56-.221.417-.415.78-.585 1.041-.42.649-.542 1.421-.665 2.2-.197 1.246-.398 2.513-1.825 3.333-2.321 1.339-4.209-2.128-3.811-6.018.278-2.808.565-3.603 1.075-5.018v-.001l.001-.001c.194-.539.421-1.168.692-2.033.875-2.715-1.263-4.099-6.26-7.333l-.001-.001c-.819-.53-1.715-1.11-2.687-1.754-6.901-4.549-7.191-10.24-5.271-16.014 1.892-5.758 1.947-7.295-.55-10.864-.848-1.207-1.883-2.395-2.986-3.663-2.13-2.446-4.516-5.186-6.308-8.924-2.724-5.65-3.698-11.736-3.272-16.397.365-4.406 3.628-5.83 8.612-8.004l.453-.198.387-.169c4.103-1.783 4.971-1.452 7.108-.638v.001c.706.269 1.55.59 2.694.906zm53.481 79.66c-3.096-1.908-5.568-6.119-7.381-9.207-1.078-1.836-1.922-3.274-2.526-3.594-1.609-.839-3.915 1.898-4.525 7.642-.502 4.736.912 7.783 2.304 10.781.297.638.592 1.275.868 1.924 1.573 3.677 5.794 7.527 8.591 5.967 2.8-1.601 7.478-5.46 7.712-8.428.182-2.446-2.474-3.774-4.135-4.604v-.001a13.17 13.17 0 01-.908-.48zm34.284 28.811c2.605 1.228 7.739 6.429 8.715 11.652.133.7 1.45 1.433 2.834 2.205.46.257.928.518 1.363.783 1.736 1.046 4.526 5.875 4.526 9.422-.001 2.142-1.774 2.891-3.768 3.733-1.321.558-2.739 1.157-3.802 2.229-2.664 2.665-8.516-.083-13.446-3.913-4.08-3.155-4.157-5.642-4.273-9.36a61.686 61.686 0 00-.114-2.517c-.099-1.272-.251-2.639-.403-4.009-.472-4.255-.947-8.536.16-10.064 1.463-2.047 5.605-1.409 8.208-.161zM336.937 268.65c1.857-1.239 5.155 1.111 7.365 4.103 1.534 2.091.996 4.821-.048 5.683-.957.772-3.709-1.219-5.53-2.537a83.916 83.916 0 00-.648-.466c-1.688-1.243-2.972-5.553-1.139-6.783zm87.275 69.993c2.883-1.729 11.058.503 13.876 2.277 5.992 3.729 6.947 14.106-5.741 12.751-12.688-1.354-11.02-13.289-8.135-15.028zm8.595 26.695c-2.319-6.3-3.829-9.812-9.746-7.942-5.926 1.848-13.638 9.332-12.523 15.328.13.7.251 1.436.373 2.185v.001c.928 5.679 1.981 12.12 8.43 9.496 7.288-2.943 10.607-4.589 12.216-9.157l.14-.398.102-.29.004-.012c1.428-4.049 2.165-6.137 1.004-9.211zm-38.935-19.514c8.552-1.073 11.38 6.006 11.517 9.685v-.001c.141 3.968-2.62 7.348-9.106 10.923-6.496 3.576-12.875-.471-11.47-7.578.232-1.168.402-2.273.561-3.31l.001-.002v-.001c.814-5.295 1.354-8.803 8.497-9.716zM608.898 674.65c-1.283-1.901-3.438-3.302-5.118-4.395-1.003-.652-1.836-1.194-2.214-1.667-.985-1.26-2.628-1.058-3.422-.674-.779.372-2.455 2.517-.278 3.14 2.217.616 2.843.924 4.167 2.428 1.046 1.218 1.471 2.069 2.349 3.823l.005.01c.203.406.431.861.696 1.38.786 1.542 2.649 2.468 4.548 3.412 1.49.741 3.003 1.493 4.035 2.562 2.363 2.417 3.578 3.532 5.62 3.94.425.082.845.194 1.234.298 1.482.395 2.508.668 1.629-1.311-1.107-2.566-3.302-5.825-5.561-6.979-1.422-.734-2.464-1.604-3.28-2.284-.475-.396-.874-.729-1.225-.932-.96-.524-2.76-2.152-3.185-2.751zm25.134 23.021c.333.714.648 1.39 1.078 1.679 1.098.771 1.013 2.879-.338 3.476-1.368.634-2.52-.69-3.465-2.261-.917-1.609-2.459-4.577-2.459-4.577s1.776-.9 3.3-.584c.91.177 1.415 1.259 1.884 2.267zm28.863 38.996c-1.333-3.237-2.262-3.833-3.56-4.438-1.308-.607-3.453 1.264-2.465 3.432.503 1.077 1.14 1.465 1.777 1.853.635.387 1.271.774 1.774 1.847.982 2.187 3.857 2.912 4.123 1.548.211-1.065-.723-2.64-1.283-3.584-.171-.29-.308-.52-.366-.658zM520.762 519.238s4.653-10.668 8.58-8.408c1.271.726 6.328 4.81 7.832 9.075 1.288 3.666.444 5.259-.993 7.968-.255.481-.529.997-.813 1.566-1.86 3.742-7.718 3.475-10.939 2.179-3.236-1.296-3.667-12.38-3.667-12.38zm14.337-8.492c-1.113-2.247 3.152-9.85 4.864-7.414 1.735 2.418.941 6.227.052 8.28-.884 2.039-2.731 4.69-3.403 3.419-.363-.637-.546-1.32-.742-2.049-.188-.702-.388-1.447-.771-2.236zm100.193 67.315c1.015-1.574 8.751-9.516 13.322-2.689.179.269.393.574.63.911l.004.005v.001c1.932 2.751 5.368 7.645 3.497 12.328-2.106 5.269-9.359 2.394-14.288.377-4.915-2.039-4.181-9.359-3.165-10.933zm36.097 2.531c.096-2.948-4.388-4.783-5.494-2.843-1.068 1.891-.738 3.74 1.589 4.562 2.328.822 3.838.396 3.905-1.719zm-88.584-62.289c2.525-1.996 9.551-1.757 7.611 4.692-1.043 3.366-6.354 5.134-8.154 3.37-1.765-1.758-1.976-6.08.543-8.062zM431.57 704.404c4.583 1.986 9.38 7.368 10.896 9.631h.001c.837 1.22 2.009 9.623.981 14.765-1.011 5.122-4.691 7.59-6.944 8.209-2.259.632-13.074-2.218-19.022-8.012-5.973-5.797-3.384-9.902-3.384-9.902s3.141-6.858 6.277-8.384c1.954-.924 1.897-2.133 1.806-4.069-.055-1.172-.123-2.61.235-4.414.65-3.263 2.555-1.963 5.16-.186 1.201.819 2.55 1.74 3.994 2.362zm41.812-8.706c-.281-2.875-3.237-7.379-4.359-7.603-1.109-.214-3.705 1.145-4.966 2.208-1.284 1.098-3.199 4.967-2.465 6.633.452 1 1.316 1.689 2.251 2.436.611.489 1.254 1.003 1.832 1.644 1.458 1.634 2.998 2.821 3.843 2.11l.099-.085.011-.01c.992-.859 4.109-3.558 3.754-7.333zM316.077 70.448c-.562-6.063-3.85-11.071-6.393-12.613-2.532-1.59-6.707-3.843-10.456-1.027-3.759 2.818-7.823 16.216-4.943 21.401 1.337 2.4 2.595 3.65 3.568 4.617 1.131 1.123 1.878 1.865 1.922 3.59.025 1.088-.335 2.47-.728 3.979-.765 2.933-1.653 6.341-.065 8.989 2.399 4.058 7.104 8.895 10.871 7.856 3.753-1.028 8.19-7.26 7.564-11.308-.305-1.962-1.666-3.708-2.982-5.397-1.382-1.774-2.715-3.485-2.723-5.316.002-1.466.834-3.184 1.774-5.126 1.345-2.782 2.914-6.024 2.591-9.644zm-2.655 47.077c-.374-2.189-1.925-5.538-3.453-5.468-1.523.056-3.568.542-4.727 3.234-1.148 2.722-1.17 2.798-.502 5.677.49 2.088 1.05 2.841 1.781 3.826.285.382.595.8.937 1.344 1.203 1.929 3.77 2.876 4.538.792.786-2.057 1.979-5.99 1.426-9.405zm12.492 20.794c-6.266-8.278-10.36-5.536-12.307-3.333-2.563 2.919-2.034 5.44-1.681 7.128.105.498.194.925.184 1.266-.013.813.584 1.514 1.269 2.318.589.692 1.243 1.459 1.63 2.439.353.91 1.159 1.46 2.068 2.081 1.194.814 2.568 1.752 3.336 3.786.699 1.817 2.702 2.616 4.065 3.16.362.145.679.271.914.394.39.204.613.185.848.165.452-.039.949-.082 2.755 1.448 2.737 2.322 4.411.962 6.035-.51.141-.125.282-.249.424-.372l.001-.002.001-.001c1.495-1.306 2.954-2.581 2.84-4.395-.141-1.967-.255-2.332-1.732-3.339-.659-.447-1.541-.85-2.405-1.245-1.115-.51-2.201-1.006-2.735-1.564-.282-.288-.335-.508-.424-.88-.216-.902-.647-2.7-5.086-8.544zm-8.659 20.391c-.268-.703-.186-1.27-.113-1.777.118-.818.214-1.482-1.215-2.317-.714-.417-1.265-.843-1.738-1.209-1.055-.815-1.72-1.329-2.93-.775-1.297.595-1.759 2.103-2.189 3.507-.148.486-.293.959-.467 1.377-.383.922-.016 1.955.376 3.056.312.877.64 1.797.615 2.739-.032 1.067.095 2.454.207 3.681.111 1.21.207 2.263.122 2.694-.173.856-.366 3.634.749 4.311.235.144.515.35.826.578 1.144.84 2.706 1.986 3.981 1.533.357-.125.679-.219.973-.304 1.05-.306 1.747-.509 2.474-1.679.27-.45.627-.883.991-1.325.851-1.033 1.741-2.113 1.656-3.562a17.934 17.934 0 01-.021-1.27c.012-1.656.024-3.256-1.815-4.327-1.72-1.003-2.02-2.679-2.239-3.899-.073-.41-.137-.768-.243-1.032zm7.297 36.499s7.607 2.087 10.335 5.323c.237.276.557.724.944 1.266.875 1.222 2.088 2.919 3.441 4.172 1.463 1.383.954 2.702.493 3.896-.147.382-.29.751-.362 1.106-.187.923.186 1.915.649 3.147.275.732.582 1.55.823 2.489.632 2.342-3.455 6.659-6.838 10.234l-.665.703c-3.507 3.702-9.511 2.215-12.87 1.196-3.313-1.045-7.152-3.888-8.675-8.715-1.55-4.795-1.365-11.425 2.108-18.874 3.479-7.437 10.617-5.943 10.617-5.943zM292.504 426.776c-1.66-2.496-4.026-4.71-5.189-4.245-1.169.483-1.91 7.821-1.084 9.041.822 1.204 4.241 3.674 5.963 2.237 1.684-1.419 1.133-5.818.31-7.033zm88.686 277.427c.264-.473.608.029.912.811 0 0-.253.755-.648.581-.42-.178-.542-.912-.264-1.392zm.663 12.298c.019-.852-.39-2.022-.764-1.042-.378 1.011-.783 2.095-.07 2.14.705.052.828-.555.834-1.098zm-.404 4.287c.605.039 1.077 1.104.794 1.765-.168.408-1.259.981-1.467.243-.2-.751.051-2.041.673-2.008zm.426 6.398c.42-.754-.677-1.561-.92-.802-.23.763.796 1.037.92.802zm-.65 1.909s.665-.135.82.427l-.083.432c-.098.417-.737-.859-.737-.859zm.927 5.238c-.348-.865-.889-.44-.815.114.011.108.018.264.026.442v.004c.029.695.073 1.719.472 1.504.487-.254.543-.879.524-1.305.003-.46-.207-.759-.207-.759zm.428 21.139c.239-.294.539-.058.558.818l-.176.415s-.635-.913-.382-1.233zm-86.55-310.609s8.836-.398 14.084 2.444c4.164 2.238 9.462 7.9 9.377 13.581-.045 5.689-4.29 9.102-9.475 11.982-5.185 2.881-9.757 2.681-14.967-1.547-5.212-4.211-10.074-8.385-10.342-12.35-.273-3.951 11.323-14.11 11.323-14.11zm19.675 40.248v-.001c-.736-1.418-1.19-2.293-2.687-1.166l-.118.088-.179.131-.13.095-.176.127c-1.579 1.145-2.683 1.945-1.991 3.679.113.284.217.571.318.851.573 1.594 1.064 2.955 2.806 2.15 2.057-.927 4.003-2.737 2.75-4.867-.226-.38-.417-.749-.593-1.087zm13.896 30.714s4.699-.164 6.578.952c1.585.94 1.882 2.595 2.066 4.293.19 1.738-2.203 4.89-3.993 7.122-1.583 2.001-3.431 2.377-6 2.899-.288.058-.584.119-.89.183-3.069.659-6.757-1.775-7.882-8.223-1.144-6.44 10.121-7.226 10.121-7.226zm-26.54-3.729c-.152-.89-.246-1.439-1.01-1.531-1.131-.138-2.133.902-3.109 2.305l-.106.149c-.957 1.344-1.741 2.446 1.041 3.148 2.861.736 4.021-1.06 3.517-2.588v.001c-.176-.563-.261-1.061-.333-1.482v-.002zm-26.261-5.023c1.172-.927 8.008 1.509 8.978 4.451.975 2.855.325 3.888-.646 5.431h-.001c-.159.254-.328.521-.499.813-1.2 2.059-3.135 3.731-5.825 3.018-2.706-.697-6.083-2.011-7.166-5.05-1.087-3.056 4.008-7.739 5.159-8.663zm8.902 23.7c-.106-1.063-1.702-3.082-2.831-2.773-1.122.3-2.272.701-2.106 2.598.161 1.91.738 2.976 2.318 2.668 1.565-.282 2.756-1.308 2.619-2.493zm9.992 11.869c.475.438.953.879 1.352.858l.073-.002.139-.005.002-.001c.664-.027 1.028-.042.753 1.44-.325 1.609-.756 1.636-2.707 1.758l-.13.008c-2.062.114-2.063-2.631-1.362-4.357.419-1.046 1.146-.375 1.88.301zm29.794 77.345c-1.368-1.399-2.471-2.526-4.071-1.683-.272.146-.539.281-.798.412h-.001c-1.818.92-3.221 1.63-2.941 4.168.301 2.923 4.647 6.1 5.303 6.396.171.078.52.47.976.982 1.293 1.454 3.446 3.874 4.843 2.824 1.878-1.389 1.285-9.139-.804-11.172-2.07-1.99-.854-.37-.834-.344l.001.001c-.621-.508-1.165-1.065-1.674-1.584zm-6.773 11.563l.073.111h-.001c.081.118.171.246.268.384.566.805 1.375 1.954 1.965 3.595.687 1.922-1.014 6.017-1.972 7.276-.947 1.215-2.044 3.127-2.174 6.477-.074 1.989.862 3.551 1.697 4.944.575.961 1.103 1.841 1.218 2.726.282 2.21-2.984 6.168-6.886 7.877-3.665 1.631-8.026-2.899-12.099-7.129l-.719-.746a39.605 39.605 0 00-3.129-2.889c-1.55-1.307-1.993-1.68-2.531-4.423-.793-4.08-.734-5.301 1.046-7.971l.253-.383c1.667-2.52 3.196-4.832 5.409-4.888 1.483-.048 2.091.304 3.022.843a15.49 15.49 0 002.106 1.055c1.892.762 2.868.139 3.763-.432.348-.222.684-.436 1.056-.559 1.335-.446 1.659-1.286 1.88-3.211.042-.414.055-.767.067-1.087.044-1.154.071-1.889 1.371-3.593 1.639-2.066 3.386.601 4.317 2.023zM217.086.893c-.492 1.022-.329 1.31.123 2.11zm.123 2.11c.056.098.117.205.181.322zm.181.322c.586 1.053 2.18.886 2.267.44zm2.267.44c.089-.467-.13-1.686-.491-2.304zm3.084 8.95c-1.523-1.19-3.763-2.323-4.385-.869-.596 1.438-.531 3.504 1.222 4.172 1.752.654 2.968.894 3.294-.763.078-.372.156-.673.221-.924.224-.86.295-1.13-.352-1.615zm2.231 15.056s2.575.756 5.845 4.631c.647.744.682 2.957.646 6.245-.013 2.766-.751 3.526-2.538 5.367-.329.34-.693.715-1.095 1.146-2.287 2.45-4.316 1.804-6.98.958-.375-.12-.763-.242-1.166-.361-3.276-.97-3.751-5.605-3.483-10.279.306-4.66 8.771-7.707 8.771-7.707zm-6.466 160.031c-.037.436-.075.839-.111 1.217-.222 2.363-.352 3.745.231 5.908.227.82.366 1.44.484 1.969.243 1.085.4 1.786 1.056 3.047.452.877.419 1.506.384 2.152-.04.762-.082 1.549.668 2.794.532.876 1.268 1.965 1.991 3.037 1.182 1.75 2.333 3.454 2.517 4.109.29 1.076-.066 2.864-1.229 4.486-.383.529-.622.977-.817 1.343-.406.76-.625 1.171-1.55 1.237-1.377.044-2.57-.697-3.881-1.778-1.311-1.122-1.438-3.838-1.438-3.838s1.273-2.118.113-4.875c-.438-1.062-.535-1.707-.61-2.211-.121-.807-.188-1.25-1.51-2.453-.887-.804-1.413-.956-1.769-1.059-.504-.146-.67-.194-1.041-1.849-.62-2.82-1.314-3.622-2.009-4.289-.212-.195-.388-.426-.583-.682v-.001l-.001-.001c-.461-.606-1.029-1.353-2.433-2.097-1.971-1.08-5.37-1.757-6.811-1.338-.492.129-.864.366-1.218.591-.671.428-1.278.814-2.514.345-1.024-.385-1.359-.98-1.695-1.576-.284-.503-.568-1.007-1.269-1.386-.633-.325-1.458-.494-2.268-.661-1.174-.24-2.313-.474-2.779-1.167-.793-1.151-2.91-3.267-4.435-4.077-1.535-.813-4.752-4.989-5.074-6.768-.107-.552-.477-1.179-.906-1.905-.909-1.538-2.08-3.52-1.552-6.176.13-.662.25-1.345.372-2.039v-.002c.595-3.385 1.233-7.019 3.274-9.555 1.068-1.337 1.863-3.215 2.649-5.072 1.013-2.394 2.011-4.752 3.561-5.87 2.759-1.977 6.295-3.646 8.713-4.689 2.391-1.042 13.175 1.608 18.026 6.103 1.09 1.015 2.118 1.915 3.073 2.752 3.3 2.889 5.731 5.018 6.862 8.508.45 1.372.827 2.31 1.14 3.089.717 1.784 1.099 2.736 1.261 6.162.073 1.831-.099 3.033-.226 3.914-.214 1.493-.295 2.063 1.173 3.211 2.346 1.819 3.139 1.98 4.415 1.55.195-.066.375-.134.541-.198.915-.35 1.434-.548 1.904.684.559 1.463.298 3.593-.869 3.543-.462-.027-.744.244-1.039.528-.456.439-.942.907-2.169.349-2.032-.903-2.676-.2-1.725 1.866.958 2.047.984 3.549.176 4.258-.812.675-2.406 1.057-2.214.055.193-.959-1.302-5.31-2.922-5.639-.438-.086-.712-.2-.907-.281-.159-.066-.265-.11-.364-.098-.194.025-.36.27-.851.995l-.3.441c-1.395 2.049-1.495 3.387-1.495 3.387zm22.943 76.9c-1.113-.243-2.049-.447-2.392-2.271-.176-.879-.34-2.586-.252-4.641.05-1.815-.431-2.354-1.34-3.373-.088-.099-.181-.203-.277-.313-1.119-1.223-1.424-2.288-.794-3.687.592-1.413 2.011-1.651 3.304-1.394.724.144 1.244-1.867 1.847-4.2.475-1.834 1-3.867 1.717-5.208 1.564-2.986 1.158-4.742.125-9.206l-.099-.425c-.627-2.753-1.245-2.975-2.693-3.495-1.06-.381-2.564-.921-4.843-2.732-3.548-2.806-5.042-2.728-6.689-2.642-.867.045-1.775.093-3.049-.277-2.325-.679-2.797-.106-3.557.816-.44.535-.978 1.188-2.032 1.782-2.27 1.293-3.169 3.273-4.145 5.423a45.639 45.639 0 01-.8 1.696c-.424.848-.824 1.494-1.177 2.065-.8 1.292-1.361 2.198-1.419 4.176-.019 1.673.72 2.344 1.487 3.04.552.5 1.117 1.013 1.425 1.92.737 2.201 3.524 6.961 3.524 6.961s3.804 2.117 5.756 2.499c1.548.307 2.141 1.166 2.653 1.906.133.192.26.376.397.541.524.638.524.947.524 2.414v.002c0 .458 0 1.03.016 1.759.035 2.519.561 2.706 1.527 3.049.21.074.439.156.69.27.324.143.611.241.867.329.839.288 1.35.464 1.758 1.698.423 1.274-.811 2.432-2.08 3.622v.001a25.76 25.76 0 00-1.016.987c-.791.831-1.627 1.415-2.282 1.873-.585.409-1.025.716-1.158 1.008-.303.596-.507 2.579.692 3.348.88.533 1.551 1.672 2.202 2.777.239.405.475.805.717 1.17.92 1.389 1.329 1.809 3.205 2.679 1.003.475 1.537 1.308 2.08 2.155.453.706.912 1.422 1.654 1.95 1.423 1.013 3.106.685 4.446.424.193-.038.379-.074.556-.105 1.146-.206 1.846-1.024 2.763-2.095.21-.246.432-.505.673-.772 1.298-1.423 2.026-4.323 2.157-6.682.128-2.319-1.446-5.497-3.485-8.786-.996-1.559-2.163-1.814-3.183-2.036zm-33.738 60.617c-.901.516-1.399.867-1.807 1.154-1.03.725-1.49 1.049-6.387 2.616-2.834.911-4.784.87-6.234.839-2.053-.044-3.106-.066-4.246 2.667-.583 1.408-1.251 2.476-1.801 3.356-1.286 2.059-1.93 3.091.639 5.025.878.663 1.524 1.228 2.059 1.695 1.699 1.486 2.273 1.988 5.57 1.5.986-.15 2.11-.247 3.285-.348H198.798c4.019-.345 8.644-.742 10.483-3.508.577-.866 1.229-1.658 1.858-2.421 1.973-2.395 3.714-4.508 2.176-7.766-2.007-4.278-4.092-5.691-5.604-4.809zm43.845 8.839c.108-2.985-.867-5.07-3.549-4.276-.636.204-1.127.292-1.548.367-1.369.245-1.982.354-4.363 3.905-1.453 2.163-2.212 2.687-2.704 3.027-.561.387-.776.535-1.274 2.596-.864 3.593 1.786 4.101 4.508 4.623l.227.044.11.021.136.026.149.03c.246.049.472.096.683.14 2.299.479 2.709.564 4.805-2.266 2.314-3.106 2.704-5.066 2.82-8.237zm14.72-3.504c-2.578-.689-8.023 1.357-9.406 5.731-.137.424-.324.946-.537 1.541-.502 1.401-1.15 3.212-1.642 5.128-.621 2.413.055 3.499.915 4.881.12.193.244.392.368.602.608 1.049 2.023.885 3.59.704 1.013-.117 2.089-.241 3.051-.049 2.04.399 3.404-1.841 4.659-3.9.241-.395.478-.785.715-1.147.299-.458.621-.926.945-1.396 1.247-1.814 2.511-3.651 2.51-4.996.005-1.68-2.602-6.419-5.168-7.099zm20.638 325.298c2.998 1.473 4.323 2.124 6.228 6.505l.067.152v.001c1.138 2.603 3.611 8.264 3.723 10.342.102 2.173-5.321 5.374-8.312 5.148-2.962-.236-5.041-.479-11.879-10.015-5.619-7.829-2.347-9.948.196-11.595.542-.351 1.05-.68 1.433-1.039 2.18-2.059 3.093-2.243 7.146-.196.505.258.968.486 1.398.697zm-35.628-339.251s2.965.347 3.319 2.021c.046.209.121.451.203.712v.002l.001.001c.392 1.256.931 2.98-.914 3.858-1.956.931-3.204-.267-4.429-1.443a25.933 25.933 0 00-.598-.562c-1.438-1.313 2.418-4.589 2.418-4.589zm-31.864 11.762c1.464-.548 1.778 1.406 1.368 2.462-.67 1.726-2.806 1.316-3.615.316-.808-1.004.784-2.22 2.247-2.778zm38.768-32.175c-.374-3.693-2.961-5.481-5.934-6.753-2.948-1.264-4.964-2.155-4.964-2.155s-3.583.133-5.819 1.198c-.71.339-1.298.485-1.841.621-1.163.29-2.123.529-3.654 2.502-2.271 2.922-5.062 6.764-4.12 9.665l.111.335c.977 2.974 2.749 8.367 7.02 9.685 4.471 1.392 8.006 1.409 12.258-1.289 4.247-2.7 5.045-3.38 5.771-6.139.171-.653.352-1.208.522-1.73.531-1.633.959-2.947.65-5.94zm-14.022-186.762c5.656.171 9.889 2.275 7.583 7.161-.591 1.237-1.357 3.382-2.101 5.466-.307.859-.61 1.708-.895 2.479-1.009 2.65-8.096 5.036-12.933 3.134-4.178-1.648-3.182-6.178-2.14-10.92.162-.737.325-1.479.47-2.215 1.062-5.389 4.28-5.287 9.792-5.112l.224.007zm-5.093-18.733c-.23-2.516-.658-2.913-1.923-4.086a40.976 40.976 0 01-.742-.7c-.97-.928-1.737-1.39-2.392-1.785-.595-.358-1.098-.661-1.578-1.207-1.031-1.13 1.53-4.538 2.566-5.78 1.013-1.208 2.189-3.166 1.29-6.492-.682-2.46-1.357-3.2-1.959-3.86-.211-.233-.413-.455-.603-.737-.182-.274-.477-.651-.816-1.085-.998-1.278-2.379-3.047-2.409-4.106-.017-.643-.35-1.797-.714-3.06-.441-1.527-.928-3.214-.956-4.348-.079-2.045-2.989-4.83-3.313-3.167-.185.94.231 2.402.641 3.843.315 1.108.626 2.203.658 3.038.105 1.923.667 4.67 1.073 5.713.101.24.247.473.394.707.48.763.969 1.541-.087 2.648-.665.68-.668.695-.721.963-.059.303-.181.927-1.385 3.185-.673 1.279-1.308 2.156-1.822 2.868-1.21 1.672-1.757 2.43-.581 5.316.817 1.962 2.182 2.42 3.412 2.83 1.34.449 2.52.844 2.655 3.073.108 1.904-.602 2.965-1.258 3.946-.825 1.233-1.564 2.338-.476 4.828 1.488 3.434 2.809 3.963 4.371 4.588.476.19.975.39 1.507.683l.14.077c2.163 1.188 3.269 1.795 3.854-.397.615-2.258 1.327-5.892 1.174-7.496zm5.77 7.014c.022.16.049.354.122.596.748 2.498-.608 3.801-1.814 4.36-.728.33-1.652.153-2.418.005-.491-.094-.917-.176-1.184-.103-.654.18-.76-.93-.728-1.862.031-.959.328-1.662.878-2.832.544-1.157 1.503-1.247 3.515-1.038 1.535.196 1.555.337 1.629.874zm4.154-6.33c-.516-.546-2.291-.28-2.291-.28s.609 3.257 1.336 2.75c.729-.468.955-2.47.955-2.47zm5.449-7.728l.005.014s.675.586-.242 2c-.845 1.313-2.032-.49-2.782-1.628l-.073-.11-.076-.117c-.718-1.067.241-1.985 1.371-2.084 1.107-.078 1.393.753 1.797 1.925zm7.288 4.592c-.44-1.322-2.8-.085-2.8-.085s.256 1.776 1.17 2.744c.924.972 1.89.832 2.13-.383.074-.373.14-.472.169-.514.008-.012.013-.02.014-.028a.028.028 0 00-.002-.015.25.25 0 00-.025-.05c-.065-.115-.254-.454-.656-1.669z" fill-opacity=".75"/></svg><svg viewBox="0 0 20 21" id="edit" xmlns="http://www.w3.org/2000/svg"><path d="M15.777.508a.313.313 0 00-.158.094L1.687 15.263a.339.339 0 00-.07.125L.036 20.053a.345.345 0 00.073.35.305.305 0 00.332.077l4.433-1.666a.314.314 0 00.119-.083L18.924 4.069a.346.346 0 000-.468l-2.85-3a.307.307 0 00-.297-.093zm.07.802l2.394 2.53-1.444 1.52-2.405-2.52 1.455-1.53zm-1.9 2l2.395 2.53L4.774 18.012l-2.404-2.53L13.947 3.309zM2.043 16.085l2.148 2.26-3.335 1.26 1.187-3.52z"/></svg><svg viewBox="0 0 31 21" id="eye" xmlns="http://www.w3.org/2000/svg"><path d="M15.55 5.308a5.199 5.199 0 00-5.19 5.192 5.199 5.199 0 005.19 5.191 5.199 5.199 0 005.192-5.191 5.199 5.199 0 00-5.191-5.192zm0 9.117a3.932 3.932 0 01-3.924-3.925 3.932 3.932 0 013.925-3.926 3.932 3.932 0 013.925 3.926 3.932 3.932 0 01-3.925 3.925z"/><path d="M28.823 7.385A16.676 16.676 0 0015.553.75a16.676 16.676 0 00-13.27 6.635L.23 10.12a.642.642 0 000 .762l2.051 2.736a16.68 16.68 0 0013.27 6.632c5.192 0 10.153-2.48 13.27-6.633l2.052-2.735a.643.643 0 000-.762l-2.051-2.735zm-1.014 5.47a15.393 15.393 0 01-12.257 6.129c-4.796 0-9.378-2.29-12.257-6.129L1.528 10.5l1.767-2.355a15.4 15.4 0 0112.257-6.129c4.797 0 9.378 2.29 12.258 6.129l1.767 2.355-1.768 2.355z"/></svg><svg viewBox="0 0 180 495" id="menu__pattern" xmlns="http://www.w3.org/2000/svg"><path d="M3.537 2.058c0 1.136-.791 2.058-1.768 2.058S0 3.194 0 2.058C0 .922.792 0 1.769 0c.977 0 1.768.922 1.768 2.058zM62.358 2.058c0 1.136-.792 2.058-1.769 2.058-.976 0-1.769-.922-1.769-2.058C58.82.922 59.613 0 60.59 0c.976 0 1.768.922 1.768 2.058zM121.178 2.058c0 1.136-.792 2.058-1.769 2.058-.977 0-1.768-.922-1.768-2.058 0-1.136.791-2.058 1.768-2.058s1.769.922 1.769 2.058zM179.999 2.058c0 1.136-.792 2.058-1.769 2.058-.977 0-1.769-.922-1.769-2.058 0-1.136.792-2.058 1.769-2.058.977 0 1.769.922 1.769 2.058zM3.537 113.574c0 1.136-.791 2.057-1.768 2.057S0 114.71 0 113.574c0-1.137.792-2.058 1.769-2.058.977 0 1.768.921 1.768 2.058zM62.358 113.574c0 1.136-.792 2.057-1.769 2.057-.976 0-1.769-.921-1.769-2.057 0-1.137.793-2.058 1.77-2.058.976 0 1.768.921 1.768 2.058zM121.178 113.574c0 1.136-.792 2.057-1.769 2.057-.977 0-1.768-.921-1.768-2.057 0-1.137.791-2.058 1.768-2.058s1.769.921 1.769 2.058zM179.999 113.574c0 1.136-.792 2.057-1.769 2.057-.977 0-1.769-.921-1.769-2.057 0-1.137.792-2.058 1.769-2.058.977 0 1.769.921 1.769 2.058zM3.537 225.086c0 1.136-.791 2.057-1.768 2.057S0 226.222 0 225.086c0-1.137.792-2.058 1.769-2.058.977 0 1.768.921 1.768 2.058zM62.358 225.086c0 1.136-.792 2.057-1.769 2.057-.976 0-1.769-.921-1.769-2.057 0-1.137.793-2.058 1.77-2.058.976 0 1.768.921 1.768 2.058zM121.178 225.086c0 1.136-.792 2.057-1.769 2.057-.977 0-1.768-.921-1.768-2.057 0-1.137.791-2.058 1.768-2.058s1.769.921 1.769 2.058zM179.999 225.086c0 1.136-.792 2.057-1.769 2.057-.977 0-1.769-.921-1.769-2.057 0-1.137.792-2.058 1.769-2.058.977 0 1.769.921 1.769 2.058zM3.537 336.601c0 1.136-.791 2.058-1.768 2.058S0 337.737 0 336.601c0-1.136.792-2.058 1.769-2.058.977 0 1.768.922 1.768 2.058zM62.358 336.601c0 1.136-.792 2.058-1.769 2.058-.976 0-1.769-.922-1.769-2.058 0-1.136.793-2.058 1.77-2.058.976 0 1.768.922 1.768 2.058zM121.178 336.601c0 1.136-.792 2.058-1.769 2.058-.977 0-1.768-.922-1.768-2.058 0-1.136.791-2.058 1.768-2.058s1.769.922 1.769 2.058zM179.999 336.601c0 1.136-.792 2.058-1.769 2.058-.977 0-1.769-.922-1.769-2.058 0-1.136.792-2.058 1.769-2.058.977 0 1.769.922 1.769 2.058zM3.537 39.228c0 1.136-.791 2.058-1.768 2.058S0 40.364 0 39.228c0-1.136.792-2.058 1.769-2.058.977 0 1.768.922 1.768 2.058zM62.358 39.228c0 1.136-.792 2.058-1.769 2.058-.976 0-1.769-.922-1.769-2.058 0-1.136.793-2.058 1.77-2.058.976 0 1.768.922 1.768 2.058zM121.178 39.228c0 1.136-.792 2.058-1.769 2.058-.977 0-1.768-.922-1.768-2.058 0-1.136.791-2.058 1.768-2.058s1.769.922 1.769 2.058zM179.999 39.228c0 1.136-.792 2.058-1.769 2.058-.977 0-1.769-.922-1.769-2.058 0-1.136.792-2.058 1.769-2.058.977 0 1.769.922 1.769 2.058zM3.537 150.743c0 1.137-.791 2.058-1.768 2.058S0 151.88 0 150.743c0-1.136.792-2.057 1.769-2.057.977 0 1.768.921 1.768 2.057zM62.358 150.743c0 1.137-.792 2.058-1.769 2.058-.976 0-1.769-.921-1.769-2.058 0-1.136.793-2.057 1.77-2.057.976 0 1.768.921 1.768 2.057zM121.178 150.743c0 1.137-.792 2.058-1.769 2.058-.977 0-1.768-.921-1.768-2.058 0-1.136.791-2.057 1.768-2.057s1.769.921 1.769 2.057zM179.999 150.743c0 1.137-.792 2.058-1.769 2.058-.977 0-1.769-.921-1.769-2.058 0-1.136.792-2.057 1.769-2.057.977 0 1.769.921 1.769 2.057zM3.537 262.259c0 1.136-.791 2.058-1.768 2.058S0 263.395 0 262.259c0-1.136.792-2.058 1.769-2.058.977 0 1.768.922 1.768 2.058zM62.358 262.259c0 1.136-.792 2.058-1.769 2.058-.976 0-1.769-.922-1.769-2.058 0-1.136.793-2.058 1.77-2.058.976 0 1.768.922 1.768 2.058zM121.178 262.259c0 1.136-.792 2.058-1.769 2.058-.977 0-1.768-.922-1.768-2.058 0-1.136.791-2.058 1.768-2.058s1.769.922 1.769 2.058zM179.999 262.259c0 1.136-.792 2.058-1.769 2.058-.977 0-1.769-.922-1.769-2.058 0-1.136.792-2.058 1.769-2.058.977 0 1.769.922 1.769 2.058zM3.537 373.771c0 1.136-.791 2.058-1.768 2.058S0 374.907 0 373.771c0-1.136.792-2.058 1.769-2.058.977 0 1.768.922 1.768 2.058zM62.358 373.771c0 1.136-.792 2.058-1.769 2.058-.976 0-1.769-.922-1.769-2.058 0-1.136.793-2.058 1.77-2.058.976 0 1.768.922 1.768 2.058zM121.178 373.771c0 1.136-.792 2.058-1.769 2.058-.977 0-1.768-.922-1.768-2.058 0-1.136.791-2.058 1.768-2.058s1.769.922 1.769 2.058zM179.999 373.771c0 1.136-.792 2.058-1.769 2.058-.977 0-1.769-.922-1.769-2.058 0-1.136.792-2.058 1.769-2.058.977 0 1.769.922 1.769 2.058zM3.537 455.058c0 1.136-.791 2.058-1.768 2.058S0 456.194 0 455.058C0 453.922.792 453 1.769 453c.977 0 1.768.922 1.768 2.058zM62.358 455.058c0 1.136-.792 2.058-1.769 2.058-.976 0-1.769-.922-1.769-2.058 0-1.136.793-2.058 1.77-2.058.976 0 1.768.922 1.768 2.058zM121.178 455.058c0 1.136-.792 2.058-1.769 2.058-.977 0-1.768-.922-1.768-2.058 0-1.136.791-2.058 1.768-2.058s1.769.922 1.769 2.058zM179.999 455.058c0 1.136-.792 2.058-1.769 2.058-.977 0-1.769-.922-1.769-2.058 0-1.136.792-2.058 1.769-2.058.977 0 1.769.922 1.769 2.058zM3.537 492.058c0 1.136-.791 2.058-1.768 2.058S0 493.194 0 492.058C0 490.922.792 490 1.769 490c.977 0 1.768.922 1.768 2.058zM62.358 492.058c0 1.136-.792 2.058-1.769 2.058-.976 0-1.769-.922-1.769-2.058 0-1.136.793-2.058 1.77-2.058.976 0 1.768.922 1.768 2.058zM121.178 492.058c0 1.136-.792 2.058-1.769 2.058-.977 0-1.768-.922-1.768-2.058 0-1.136.791-2.058 1.768-2.058s1.769.922 1.769 2.058zM179.999 492.058c0 1.136-.792 2.058-1.769 2.058-.977 0-1.769-.922-1.769-2.058 0-1.136.792-2.058 1.769-2.058.977 0 1.769.922 1.769 2.058zM3.537 76.4c0 1.136-.791 2.058-1.768 2.058S0 77.536 0 76.4c0-1.137.792-2.058 1.769-2.058.977 0 1.768.921 1.768 2.058zM62.358 76.4c0 1.136-.792 2.058-1.769 2.058-.976 0-1.769-.922-1.769-2.058 0-1.137.793-2.058 1.77-2.058.976 0 1.768.921 1.768 2.058zM121.178 76.4c0 1.136-.792 2.058-1.769 2.058-.977 0-1.768-.922-1.768-2.058 0-1.137.791-2.058 1.768-2.058s1.769.921 1.769 2.058zM179.999 76.4c0 1.136-.792 2.058-1.769 2.058-.977 0-1.769-.922-1.769-2.058 0-1.137.792-2.058 1.769-2.058.977 0 1.769.921 1.769 2.058zM3.537 187.913c0 1.137-.791 2.058-1.768 2.058S0 189.05 0 187.913c0-1.136.792-2.058 1.769-2.058.977 0 1.768.922 1.768 2.058zM62.358 187.913c0 1.137-.792 2.058-1.769 2.058-.976 0-1.769-.921-1.769-2.058 0-1.136.793-2.058 1.77-2.058.976 0 1.768.922 1.768 2.058zM121.178 187.913c0 1.137-.792 2.058-1.769 2.058-.977 0-1.768-.921-1.768-2.058 0-1.136.791-2.058 1.768-2.058s1.769.922 1.769 2.058zM179.999 187.913c0 1.137-.792 2.058-1.769 2.058-.977 0-1.769-.921-1.769-2.058 0-1.136.792-2.058 1.769-2.058.977 0 1.769.922 1.769 2.058zM3.537 299.429c0 1.136-.791 2.058-1.768 2.058S0 300.565 0 299.429c0-1.136.792-2.058 1.769-2.058.977 0 1.768.922 1.768 2.058zM62.358 299.429c0 1.136-.792 2.058-1.769 2.058-.976 0-1.769-.922-1.769-2.058 0-1.136.793-2.058 1.77-2.058.976 0 1.768.922 1.768 2.058zM121.178 299.429c0 1.136-.792 2.058-1.769 2.058-.977 0-1.768-.922-1.768-2.058 0-1.136.791-2.058 1.768-2.058s1.769.922 1.769 2.058zM179.999 299.429c0 1.136-.792 2.058-1.769 2.058-.977 0-1.769-.922-1.769-2.058 0-1.136.792-2.058 1.769-2.058.977 0 1.769.922 1.769 2.058zM3.537 410.941c0 1.136-.791 2.058-1.768 2.058S0 412.077 0 410.941c0-1.137.792-2.058 1.769-2.058.977 0 1.768.921 1.768 2.058zM62.358 410.941c0 1.136-.792 2.058-1.769 2.058-.976 0-1.769-.922-1.769-2.058 0-1.137.793-2.058 1.77-2.058.976 0 1.768.921 1.768 2.058zM121.178 410.941c0 1.136-.792 2.058-1.769 2.058-.977 0-1.768-.922-1.768-2.058 0-1.137.791-2.058 1.768-2.058s1.769.921 1.769 2.058zM179.999 410.941c0 1.136-.792 2.058-1.769 2.058-.977 0-1.769-.922-1.769-2.058 0-1.137.792-2.058 1.769-2.058.977 0 1.769.921 1.769 2.058z" fill-opacity=".42"/></svg><svg viewBox="0 0 25 25" id="noeye" xmlns="http://www.w3.org/2000/svg"><path d="M23.238 9.948a13.484 13.484 0 00-3.981-3.552L24.852.734 24.126 0l-5.808 5.877A13.272 13.272 0 0012.5 4.515c-4.201 0-8.216 2.03-10.739 5.431l-1.66 2.242a.531.531 0 000 .624l1.66 2.24a13.486 13.486 0 003.982 3.552L.15 24.266.874 25l5.808-5.877a13.299 13.299 0 005.818 1.36c4.201 0 8.216-2.03 10.738-5.431l1.66-2.24a.531.531 0 000-.624l-1.66-2.24zm-20.657 4.48l-1.43-1.929 1.43-1.929C4.911 7.43 8.618 5.552 12.5 5.552c1.756 0 3.467.402 5.041 1.111l-2.47 2.5a4.13 4.13 0 00-2.571-.915c-2.316 0-4.201 1.908-4.201 4.251 0 .985.346 1.881.903 2.603l-2.71 2.743a12.445 12.445 0 01-3.91-3.417zm13.095-1.929c0 1.771-1.424 3.214-3.176 3.214-.69 0-1.326-.23-1.849-.611l4.42-4.474a3.21 3.21 0 01.605 1.871zm-6.353 0c0-1.771 1.425-3.214 3.177-3.214.69 0 1.326.23 1.848.611l-4.42 4.474a3.21 3.21 0 01-.605-1.871zm13.096 1.929c-2.33 3.144-6.038 5.018-9.92 5.018-1.755 0-3.466-.402-5.04-1.111l2.469-2.5a4.129 4.129 0 002.572.915c2.316 0 4.201-1.908 4.201-4.251 0-.985-.346-1.881-.904-2.603l2.712-2.743a12.4 12.4 0 013.912 3.417l1.428 1.929-1.43 1.929z"/></svg><svg viewBox="0 0 15 17" id="remove" xmlns="http://www.w3.org/2000/svg"><path d="M13.557 1.718l-.532 13.832a.92.92 0 01-.909.873h-9.22a.919.919 0 01-.909-.873L1.455 1.718a.288.288 0 10-.576.022l.532 13.832c.03.79.694 1.428 1.485 1.428h9.22c.79 0 1.454-.638 1.485-1.428l.532-13.832a.288.288 0 00-.576-.022z"/><path d="M7.219 4.61v9.797a.288.288 0 10.576 0V4.61a.288.288 0 00-.576 0zM4.05 4.619l.29 9.796a.288.288 0 10.575-.017l-.288-9.796a.288.288 0 10-.576.017zM10.39 4.601l-.288 9.797a.288.288 0 10.576.017l.288-9.797a.288.288 0 00-.576-.017zM.304 2.017H14.71a.288.288 0 000-.577H.304a.288.288 0 100 .577z"/><path d="M4.894 1.836l.309-.771c.104-.26.441-.489.72-.489h3.17c.28 0 .616.228.72.489l.31.77.534-.213L10.35.85C10.157.37 9.609 0 9.093 0h-3.17C5.41 0 4.86.372 4.668.85l-.309.772.535.214z"/></svg><svg viewBox="0 0 182 387" id="top__box-pattern" xmlns="http://www.w3.org/2000/svg"><path d="M.872.829h2.543c.458 0 .829.458.829.829V4.2c0 .458-.371.83-.83.83H.873c-.458 0-.829-.459-.829-.83V1.658c0-.458.371-.83.83-.83zM20.349.829h2.542c.458 0 .83.458.83.829V4.2a.83.83 0 01-.83.83H20.35c-.458 0-.83-.459-.83-.83V1.658a.83.83 0 01.83-.83zM39.825.829h2.543c.458 0 .829.458.829.829V4.2c0 .458-.371.83-.83.83h-2.542c-.458 0-.829-.459-.829-.83V1.658c0-.458.371-.83.83-.83zM59.302.829h2.542c.458 0 .83.458.83.829V4.2c0 .458-.372.83-.83.83h-2.542c-.458 0-.83-.459-.83-.83V1.658c0-.458.372-.83.83-.83zM78.778.829h2.543c.458 0 .829.458.829.829V4.2c0 .458-.371.83-.83.83h-2.542c-.458 0-.829-.459-.829-.83V1.658c0-.458.371-.83.83-.83zM98.255.829h2.542c.458 0 .83.458.83.829V4.2a.83.83 0 01-.83.83h-2.542c-.458 0-.83-.459-.83-.83V1.658c0-.458.372-.83.83-.83zM.872 17.25h2.543c.458 0 .829.458.829.829v2.543a.83.83 0 01-.83.829H.873c-.458 0-.829-.458-.829-.83V18.08c0-.458.371-.83.83-.83zM20.349 17.25h2.542c.458 0 .83.458.83.829v2.543a.83.83 0 01-.83.829H20.35c-.458 0-.83-.458-.83-.83V18.08a.83.83 0 01.83-.83zM39.825 17.25h2.543c.458 0 .829.458.829.829v2.543c0 .457-.371.829-.83.829h-2.542c-.458 0-.829-.458-.829-.83V18.08c0-.458.371-.83.83-.83zM59.302 17.25h2.542c.458 0 .83.458.83.829v2.543c0 .457-.372.829-.83.829h-2.542c-.458 0-.83-.458-.83-.83V18.08c0-.458.372-.83.83-.83zM78.778 17.25h2.543c.458 0 .829.458.829.829v2.543c0 .457-.371.829-.83.829h-2.542c-.458 0-.829-.458-.829-.83V18.08c0-.458.371-.83.83-.83zM98.255 17.25h2.542c.458 0 .83.458.83.829v2.543a.83.83 0 01-.83.829h-2.542c-.458 0-.83-.458-.83-.83V18.08c0-.458.372-.83.83-.83zM.872 33.67h2.543c.458 0 .829.459.829.83v2.543c0 .458-.371.829-.83.829H.873c-.458 0-.829-.458-.829-.83V34.5c0-.458.371-.83.83-.83zM20.349 33.67h2.542c.458 0 .83.459.83.83v2.543a.83.83 0 01-.83.829H20.35c-.458 0-.83-.458-.83-.83V34.5a.83.83 0 01.83-.83zM39.825 33.67h2.543c.458 0 .829.459.829.83v2.543c0 .458-.371.829-.83.829h-2.542c-.458 0-.829-.458-.829-.83V34.5c0-.458.371-.83.83-.83zM59.302 33.67h2.542c.458 0 .83.459.83.83v2.543c0 .458-.372.829-.83.829h-2.542c-.458 0-.83-.458-.83-.83V34.5c0-.458.372-.83.83-.83zM78.778 33.67h2.543c.458 0 .829.459.829.83v2.543c0 .458-.371.829-.83.829h-2.542c-.458 0-.829-.458-.829-.83V34.5c0-.458.371-.83.83-.83zM98.255 33.67h2.542c.458 0 .83.459.83.83v2.543a.83.83 0 01-.83.829h-2.542c-.458 0-.83-.458-.83-.83V34.5c0-.458.372-.83.83-.83zM.872 50.092h2.543c.458 0 .829.458.829.83v2.542c0 .458-.371.83-.83.83H.873c-.458 0-.829-.459-.829-.83v-2.543c0-.458.371-.829.83-.829zM20.349 50.092h2.542c.458 0 .83.458.83.83v2.542a.83.83 0 01-.83.83H20.35c-.458 0-.83-.459-.83-.83v-2.543a.83.83 0 01.83-.829zM39.825 50.092h2.543c.458 0 .829.458.829.83v2.542c0 .458-.371.83-.83.83h-2.542c-.458 0-.829-.459-.829-.83v-2.543c0-.458.371-.829.83-.829zM59.302 50.092h2.542c.458 0 .83.458.83.83v2.542c0 .458-.372.83-.83.83h-2.542c-.458 0-.83-.459-.83-.83v-2.543c0-.458.372-.829.83-.829zM78.778 50.092h2.543c.458 0 .829.458.829.83v2.542c0 .458-.371.83-.83.83h-2.542c-.458 0-.829-.459-.829-.83v-2.543c0-.458.371-.829.83-.829zM98.255 50.092h2.542c.458 0 .83.458.83.83v2.542a.83.83 0 01-.83.83h-2.542c-.458 0-.83-.459-.83-.83v-2.543c0-.458.372-.829.83-.829zM.872 66.513h2.543c.458 0 .829.458.829.83v2.542a.83.83 0 01-.83.83H.873c-.458 0-.829-.459-.829-.83v-2.542a.83.83 0 01.83-.83zM20.349 66.513h2.542c.458 0 .83.458.83.83v2.542a.83.83 0 01-.83.83H20.35c-.458 0-.83-.459-.83-.83v-2.542a.83.83 0 01.83-.83zM39.825 66.513h2.543c.458 0 .829.458.829.83v2.542a.83.83 0 01-.83.83h-2.542c-.458 0-.829-.459-.829-.83v-2.542a.83.83 0 01.83-.83zM59.302 66.513h2.542c.458 0 .83.458.83.83v2.542a.83.83 0 01-.83.83h-2.542c-.458 0-.83-.459-.83-.83v-2.542a.83.83 0 01.83-.83zM78.778 66.513h2.543c.458 0 .829.458.829.83v2.542a.83.83 0 01-.83.83h-2.542c-.458 0-.829-.459-.829-.83v-2.542a.83.83 0 01.83-.83zM98.255 66.513h2.542c.458 0 .83.458.83.83v2.542a.83.83 0 01-.83.83h-2.542c-.458 0-.83-.459-.83-.83v-2.542a.83.83 0 01.83-.83zM.872 82.935h2.543c.458 0 .829.457.829.829v2.542c0 .458-.371.83-.83.83H.873c-.458 0-.829-.459-.829-.83v-2.542c0-.458.371-.83.83-.83zM20.349 82.935h2.542c.458 0 .83.457.83.829v2.542a.83.83 0 01-.83.83H20.35c-.458 0-.83-.459-.83-.83v-2.542a.83.83 0 01.83-.83zM39.825 82.935h2.543c.458 0 .829.457.829.829v2.542c0 .458-.371.83-.83.83h-2.542c-.458 0-.829-.459-.829-.83v-2.542c0-.458.371-.83.83-.83zM59.302 82.935h2.542c.458 0 .83.457.83.829v2.542c0 .458-.372.83-.83.83h-2.542c-.458 0-.83-.459-.83-.83v-2.542c0-.458.372-.83.83-.83zM78.778 82.935h2.543c.458 0 .829.457.829.829v2.542c0 .458-.371.83-.83.83h-2.542c-.458 0-.829-.459-.829-.83v-2.542c0-.458.371-.83.83-.83zM98.255 82.935h2.542c.458 0 .83.457.83.829v2.542a.83.83 0 01-.83.83h-2.542c-.458 0-.83-.459-.83-.83v-2.542c0-.458.372-.83.83-.83zM119.829 1h2.543c.458 0 .829.458.829.83v2.542c0 .458-.371.829-.829.829h-2.543c-.458 0-.829-.458-.829-.83V1.83c0-.458.371-.829.829-.829zM139.306 1h2.542c.458 0 .829.458.829.83v2.542c0 .458-.371.829-.829.829h-2.542c-.458 0-.829-.458-.829-.83V1.83c0-.458.371-.829.829-.829zM158.782 1h2.543c.458 0 .829.458.829.83v2.542c0 .458-.371.829-.829.829h-2.543c-.458 0-.829-.458-.829-.83V1.83c0-.458.371-.829.829-.829zM178.259 1h2.542c.458 0 .83.458.83.83v2.542a.83.83 0 01-.83.829h-2.542c-.458 0-.829-.458-.829-.83V1.83c0-.458.371-.829.829-.829zM119.829 17.421h2.543c.458 0 .829.458.829.83v2.542c0 .458-.371.829-.829.829h-2.543c-.458 0-.829-.458-.829-.83V18.25c0-.458.371-.829.829-.829zM139.306 17.421h2.542c.458 0 .829.458.829.83v2.542c0 .458-.371.829-.829.829h-2.542c-.458 0-.829-.458-.829-.83V18.25c0-.458.371-.829.829-.829zM158.782 17.421h2.543c.458 0 .829.458.829.83v2.542c0 .458-.371.829-.829.829h-2.543c-.458 0-.829-.458-.829-.83V18.25c0-.458.371-.829.829-.829zM178.259 17.421h2.542c.458 0 .83.458.83.83v2.542a.83.83 0 01-.83.829h-2.542c-.458 0-.829-.458-.829-.83V18.25c0-.458.371-.829.829-.829zM119.829 33.842h2.543c.458 0 .829.458.829.83v2.542c0 .458-.371.83-.829.83h-2.543c-.458 0-.829-.459-.829-.83v-2.543c0-.458.371-.829.829-.829zM139.306 33.842h2.542c.458 0 .829.458.829.83v2.542c0 .458-.371.83-.829.83h-2.542c-.458 0-.829-.459-.829-.83v-2.543c0-.458.371-.829.829-.829zM158.782 33.842h2.543c.458 0 .829.458.829.83v2.542c0 .458-.371.83-.829.83h-2.543c-.458 0-.829-.459-.829-.83v-2.543c0-.458.371-.829.829-.829zM178.259 33.842h2.542c.458 0 .83.458.83.83v2.542a.83.83 0 01-.83.83h-2.542c-.458 0-.829-.459-.829-.83v-2.543c0-.458.371-.829.829-.829zM119.829 50.264h2.543c.458 0 .829.458.829.829v2.542c0 .458-.371.83-.829.83h-2.543c-.458 0-.829-.459-.829-.83v-2.542c0-.458.371-.83.829-.83zM139.306 50.264h2.542c.458 0 .829.458.829.829v2.542c0 .458-.371.83-.829.83h-2.542c-.458 0-.829-.459-.829-.83v-2.542c0-.458.371-.83.829-.83zM158.782 50.264h2.543c.458 0 .829.458.829.829v2.542c0 .458-.371.83-.829.83h-2.543c-.458 0-.829-.459-.829-.83v-2.542c0-.458.371-.83.829-.83zM178.259 50.264h2.542c.458 0 .83.458.83.829v2.542a.83.83 0 01-.83.83h-2.542c-.458 0-.829-.459-.829-.83v-2.542c0-.458.371-.83.829-.83zM119.829 66.685h2.543c.458 0 .829.458.829.829v2.543c0 .457-.371.829-.829.829h-2.543c-.458 0-.829-.458-.829-.83v-2.542c0-.458.371-.83.829-.83zM139.306 66.685h2.542c.458 0 .829.458.829.829v2.543c0 .457-.371.829-.829.829h-2.542c-.458 0-.829-.458-.829-.83v-2.542c0-.458.371-.83.829-.83zM158.782 66.685h2.543c.458 0 .829.458.829.829v2.543c0 .457-.371.829-.829.829h-2.543c-.458 0-.829-.458-.829-.83v-2.542c0-.458.371-.83.829-.83zM178.259 66.685h2.542c.458 0 .83.458.83.829v2.543a.83.83 0 01-.83.829h-2.542c-.458 0-.829-.458-.829-.83v-2.542c0-.458.371-.83.829-.83zM119.829 83.106h2.543c.458 0 .829.458.829.83v2.542c0 .458-.371.829-.829.829h-2.543c-.458 0-.829-.458-.829-.83v-2.542c0-.458.371-.829.829-.829zM139.306 83.106h2.542c.458 0 .829.458.829.83v2.542c0 .458-.371.829-.829.829h-2.542c-.458 0-.829-.458-.829-.83v-2.542c0-.458.371-.829.829-.829zM158.782 83.106h2.543c.458 0 .829.458.829.83v2.542c0 .458-.371.829-.829.829h-2.543c-.458 0-.829-.458-.829-.83v-2.542c0-.458.371-.829.829-.829zM178.259 83.106h2.542c.458 0 .83.458.83.83v2.542a.83.83 0 01-.83.829h-2.542c-.458 0-.829-.458-.829-.83v-2.542c0-.458.371-.829.829-.829zM.83 102h2.542c.458 0 .829.458.829.829v2.543a.829.829 0 01-.83.829H.83c-.458 0-.829-.458-.829-.829v-2.543c0-.458.371-.829.83-.829zM20.306 102h2.542c.458 0 .83.458.83.829v2.543a.829.829 0 01-.83.829h-2.542c-.458 0-.83-.458-.83-.829v-2.543c0-.458.372-.829.83-.829zM39.782 102h2.543c.458 0 .829.458.829.829v2.543a.829.829 0 01-.83.829h-2.542c-.458 0-.829-.458-.829-.829v-2.543c0-.458.371-.829.83-.829zM59.259 102H61.8c.458 0 .83.458.83.829v2.543a.829.829 0 01-.83.829H59.26c-.458 0-.83-.458-.83-.829v-2.543c0-.458.372-.829.83-.829zM78.735 102h2.543c.458 0 .83.458.83.829v2.543a.829.829 0 01-.83.829h-2.543c-.458 0-.829-.458-.829-.829v-2.543c0-.458.371-.829.83-.829zM98.212 102h2.543c.457 0 .829.458.829.829v2.543a.829.829 0 01-.829.829h-2.543c-.458 0-.83-.458-.83-.829v-2.543c0-.458.372-.829.83-.829zM.83 118.421h2.542c.458 0 .829.458.829.829v2.543a.829.829 0 01-.83.829H.83c-.458 0-.829-.458-.829-.829v-2.543c0-.458.371-.829.83-.829zM20.306 118.421h2.542c.458 0 .83.458.83.829v2.543a.829.829 0 01-.83.829h-2.542c-.458 0-.83-.458-.83-.829v-2.543c0-.458.372-.829.83-.829zM39.782 118.421h2.543c.458 0 .829.458.829.829v2.543a.829.829 0 01-.83.829h-2.542c-.458 0-.829-.458-.829-.829v-2.543c0-.458.371-.829.83-.829zM59.259 118.421H61.8c.458 0 .83.458.83.829v2.543a.829.829 0 01-.83.829H59.26c-.458 0-.83-.458-.83-.829v-2.543c0-.458.372-.829.83-.829zM78.735 118.421h2.543c.458 0 .83.458.83.829v2.543a.829.829 0 01-.83.829h-2.543c-.458 0-.829-.458-.829-.829v-2.543c0-.458.371-.829.83-.829zM98.212 118.421h2.543c.457 0 .829.458.829.829v2.543a.829.829 0 01-.829.829h-2.543c-.458 0-.83-.458-.83-.829v-2.543c0-.458.372-.829.83-.829zM.83 134.842h2.542c.458 0 .829.458.829.829v2.543a.829.829 0 01-.83.829H.83c-.458 0-.829-.458-.829-.829v-2.543c0-.458.371-.829.83-.829zM20.306 134.842h2.542c.458 0 .83.458.83.829v2.543a.829.829 0 01-.83.829h-2.542c-.458 0-.83-.458-.83-.829v-2.543c0-.458.372-.829.83-.829zM39.782 134.842h2.543c.458 0 .829.458.829.829v2.543a.829.829 0 01-.83.829h-2.542c-.458 0-.829-.458-.829-.829v-2.543c0-.458.371-.829.83-.829zM59.259 134.842H61.8c.458 0 .83.458.83.829v2.543a.829.829 0 01-.83.829H59.26c-.458 0-.83-.458-.83-.829v-2.543c0-.458.372-.829.83-.829zM78.735 134.842h2.543c.458 0 .83.458.83.829v2.543a.829.829 0 01-.83.829h-2.543c-.458 0-.829-.458-.829-.829v-2.543c0-.458.371-.829.83-.829zM98.212 134.842h2.543c.457 0 .829.458.829.829v2.543a.829.829 0 01-.829.829h-2.543c-.458 0-.83-.458-.83-.829v-2.543c0-.458.372-.829.83-.829zM.83 151.264h2.542c.458 0 .829.458.829.829v2.542a.83.83 0 01-.83.83H.83c-.458 0-.829-.458-.829-.83v-2.542c0-.458.371-.829.83-.829zM20.306 151.264h2.542c.458 0 .83.458.83.829v2.542a.83.83 0 01-.83.83h-2.542c-.458 0-.83-.458-.83-.83v-2.542c0-.458.372-.829.83-.829zM39.782 151.264h2.543c.458 0 .829.458.829.829v2.542a.83.83 0 01-.83.83h-2.542c-.458 0-.829-.458-.829-.83v-2.542c0-.458.371-.829.83-.829zM59.259 151.264H61.8c.458 0 .83.458.83.829v2.542a.83.83 0 01-.83.83H59.26c-.458 0-.83-.458-.83-.83v-2.542c0-.458.372-.829.83-.829zM78.735 151.264h2.543c.458 0 .83.458.83.829v2.542a.83.83 0 01-.83.83h-2.543c-.458 0-.829-.458-.829-.83v-2.542c0-.458.371-.829.83-.829zM98.212 151.264h2.543c.457 0 .829.458.829.829v2.542a.83.83 0 01-.829.83h-2.543c-.458 0-.83-.458-.83-.83v-2.542c0-.458.372-.829.83-.829zM.83 167.685h2.542c.458 0 .829.458.829.829v2.543a.83.83 0 01-.83.829H.83c-.458 0-.829-.458-.829-.829v-2.543c0-.458.371-.829.83-.829zM20.306 167.685h2.542c.458 0 .83.458.83.829v2.543a.83.83 0 01-.83.829h-2.542c-.458 0-.83-.458-.83-.829v-2.543c0-.458.372-.829.83-.829zM39.782 167.685h2.543c.458 0 .829.458.829.829v2.543a.83.83 0 01-.83.829h-2.542c-.458 0-.829-.458-.829-.829v-2.543c0-.458.371-.829.83-.829zM59.259 167.685H61.8c.458 0 .83.458.83.829v2.543a.83.83 0 01-.83.829H59.26c-.458 0-.83-.458-.83-.829v-2.543c0-.458.372-.829.83-.829zM78.735 167.685h2.543c.458 0 .83.458.83.829v2.543a.83.83 0 01-.83.829h-2.543c-.458 0-.829-.458-.829-.829v-2.543c0-.458.371-.829.83-.829zM98.212 167.685h2.543c.457 0 .829.458.829.829v2.543a.83.83 0 01-.829.829h-2.543c-.458 0-.83-.458-.83-.829v-2.543c0-.458.372-.829.83-.829zM.83 184.106h2.542c.458 0 .829.458.829.829v2.543a.829.829 0 01-.83.829H.83c-.458 0-.829-.458-.829-.829v-2.543c0-.458.371-.829.83-.829zM20.306 184.106h2.542c.458 0 .83.458.83.829v2.543a.829.829 0 01-.83.829h-2.542c-.458 0-.83-.458-.83-.829v-2.543c0-.458.372-.829.83-.829zM39.782 184.106h2.543c.458 0 .829.458.829.829v2.543a.829.829 0 01-.83.829h-2.542c-.458 0-.829-.458-.829-.829v-2.543c0-.458.371-.829.83-.829zM59.259 184.106H61.8c.458 0 .83.458.83.829v2.543a.829.829 0 01-.83.829H59.26c-.458 0-.83-.458-.83-.829v-2.543c0-.458.372-.829.83-.829zM78.735 184.106h2.543c.458 0 .83.458.83.829v2.543a.829.829 0 01-.83.829h-2.543c-.458 0-.829-.458-.829-.829v-2.543c0-.458.371-.829.83-.829zM98.212 184.106h2.543c.457 0 .829.458.829.829v2.543a.829.829 0 01-.829.829h-2.543c-.458 0-.83-.458-.83-.829v-2.543c0-.458.372-.829.83-.829zM119.786 102.171h2.543c.458 0 .829.458.829.83v2.542a.829.829 0 01-.829.829h-2.543c-.458 0-.829-.458-.829-.829v-2.542a.83.83 0 01.829-.83zM139.263 102.171h2.542c.458 0 .829.458.829.83v2.542a.829.829 0 01-.829.829h-2.542c-.458 0-.829-.458-.829-.829v-2.542a.83.83 0 01.829-.83zM158.739 102.171h2.543c.458 0 .829.458.829.83v2.542a.829.829 0 01-.829.829h-2.543c-.458 0-.829-.458-.829-.829v-2.542a.83.83 0 01.829-.83zM178.216 102.171h2.542c.458 0 .83.458.83.83v2.542a.83.83 0 01-.83.829h-2.542c-.458 0-.829-.458-.829-.829v-2.542a.83.83 0 01.829-.83zM119.786 118.593h2.543c.458 0 .829.458.829.829v2.542a.829.829 0 01-.829.829h-2.543c-.458 0-.829-.458-.829-.829v-2.542c0-.458.371-.829.829-.829zM139.263 118.593h2.542c.458 0 .829.458.829.829v2.542a.829.829 0 01-.829.829h-2.542c-.458 0-.829-.458-.829-.829v-2.542c0-.458.371-.829.829-.829zM158.739 118.593h2.543c.458 0 .829.458.829.829v2.542a.829.829 0 01-.829.829h-2.543c-.458 0-.829-.458-.829-.829v-2.542c0-.458.371-.829.829-.829zM178.216 118.593h2.542c.458 0 .83.458.83.829v2.542a.83.83 0 01-.83.829h-2.542c-.458 0-.829-.458-.829-.829v-2.542c0-.458.371-.829.829-.829zM119.786 135.014h2.543c.458 0 .829.458.829.829v2.542a.829.829 0 01-.829.829h-2.543c-.458 0-.829-.457-.829-.829v-2.542c0-.458.371-.829.829-.829zM139.263 135.014h2.542c.458 0 .829.458.829.829v2.542a.829.829 0 01-.829.829h-2.542c-.458 0-.829-.457-.829-.829v-2.542c0-.458.371-.829.829-.829zM158.739 135.014h2.543c.458 0 .829.458.829.829v2.542a.829.829 0 01-.829.829h-2.543c-.458 0-.829-.457-.829-.829v-2.542c0-.458.371-.829.829-.829zM178.216 135.014h2.542c.458 0 .83.458.83.829v2.542a.83.83 0 01-.83.829h-2.542c-.458 0-.829-.457-.829-.829v-2.542c0-.458.371-.829.829-.829zM119.786 151.435h2.543c.458 0 .829.458.829.829v2.543a.829.829 0 01-.829.829h-2.543c-.458 0-.829-.458-.829-.829v-2.543c0-.458.371-.829.829-.829zM139.263 151.435h2.542c.458 0 .829.458.829.829v2.543a.829.829 0 01-.829.829h-2.542c-.458 0-.829-.458-.829-.829v-2.543c0-.458.371-.829.829-.829zM158.739 151.435h2.543c.458 0 .829.458.829.829v2.543a.829.829 0 01-.829.829h-2.543c-.458 0-.829-.458-.829-.829v-2.543c0-.458.371-.829.829-.829zM178.216 151.435h2.542c.458 0 .83.458.83.829v2.543a.83.83 0 01-.83.829h-2.542c-.458 0-.829-.458-.829-.829v-2.543c0-.458.371-.829.829-.829zM119.786 167.856h2.543c.458 0 .829.458.829.829v2.543a.829.829 0 01-.829.829h-2.543c-.458 0-.829-.458-.829-.829v-2.543c0-.458.371-.829.829-.829zM139.263 167.856h2.542c.458 0 .829.458.829.829v2.543a.829.829 0 01-.829.829h-2.542c-.458 0-.829-.458-.829-.829v-2.543c0-.458.371-.829.829-.829zM158.739 167.856h2.543c.458 0 .829.458.829.829v2.543a.829.829 0 01-.829.829h-2.543c-.458 0-.829-.458-.829-.829v-2.543c0-.458.371-.829.829-.829zM178.216 167.856h2.542c.458 0 .83.458.83.829v2.543a.83.83 0 01-.83.829h-2.542c-.458 0-.829-.458-.829-.829v-2.543c0-.458.371-.829.829-.829zM119.786 184.277h2.543c.458 0 .829.458.829.829v2.543a.829.829 0 01-.829.829h-2.543c-.458 0-.829-.458-.829-.829v-2.543c0-.458.371-.829.829-.829zM139.263 184.277h2.542c.458 0 .829.458.829.829v2.543a.829.829 0 01-.829.829h-2.542c-.458 0-.829-.458-.829-.829v-2.543c0-.458.371-.829.829-.829zM158.739 184.277h2.543c.458 0 .829.458.829.829v2.543a.829.829 0 01-.829.829h-2.543c-.458 0-.829-.458-.829-.829v-2.543c0-.458.371-.829.829-.829zM178.216 184.277h2.542c.458 0 .83.458.83.829v2.543a.83.83 0 01-.83.829h-2.542c-.458 0-.829-.458-.829-.829v-2.543c0-.458.371-.829.829-.829zM.83 202h2.542c.458 0 .829.458.829.829v2.543a.829.829 0 01-.83.829H.83c-.458 0-.829-.458-.829-.829v-2.543c0-.458.371-.829.83-.829zM20.306 202h2.542c.458 0 .83.458.83.829v2.543a.829.829 0 01-.83.829h-2.542c-.458 0-.83-.458-.83-.829v-2.543c0-.458.372-.829.83-.829zM39.782 202h2.543c.458 0 .829.458.829.829v2.543a.829.829 0 01-.83.829h-2.542c-.458 0-.829-.458-.829-.829v-2.543c0-.458.371-.829.83-.829zM59.259 202H61.8c.458 0 .83.458.83.829v2.543a.829.829 0 01-.83.829H59.26c-.458 0-.83-.458-.83-.829v-2.543c0-.458.372-.829.83-.829zM78.735 202h2.543c.458 0 .83.458.83.829v2.543a.829.829 0 01-.83.829h-2.543c-.458 0-.829-.458-.829-.829v-2.543c0-.458.371-.829.83-.829zM98.212 202h2.543c.457 0 .829.458.829.829v2.543a.829.829 0 01-.829.829h-2.543c-.458 0-.83-.458-.83-.829v-2.543c0-.458.372-.829.83-.829zM.83 218.421h2.542c.458 0 .829.458.829.829v2.543a.829.829 0 01-.83.829H.83c-.458 0-.829-.458-.829-.829v-2.543c0-.458.371-.829.83-.829zM20.306 218.421h2.542c.458 0 .83.458.83.829v2.543a.829.829 0 01-.83.829h-2.542c-.458 0-.83-.458-.83-.829v-2.543c0-.458.372-.829.83-.829zM39.782 218.421h2.543c.458 0 .829.458.829.829v2.543a.829.829 0 01-.83.829h-2.542c-.458 0-.829-.458-.829-.829v-2.543c0-.458.371-.829.83-.829zM59.259 218.421H61.8c.458 0 .83.458.83.829v2.543a.829.829 0 01-.83.829H59.26c-.458 0-.83-.458-.83-.829v-2.543c0-.458.372-.829.83-.829zM78.735 218.421h2.543c.458 0 .83.458.83.829v2.543a.829.829 0 01-.83.829h-2.543c-.458 0-.829-.458-.829-.829v-2.543c0-.458.371-.829.83-.829zM98.212 218.421h2.543c.457 0 .829.458.829.829v2.543a.829.829 0 01-.829.829h-2.543c-.458 0-.83-.458-.83-.829v-2.543c0-.458.372-.829.83-.829zM.83 234.842h2.542c.458 0 .829.458.829.829v2.543a.829.829 0 01-.83.829H.83c-.458 0-.829-.458-.829-.829v-2.543c0-.458.371-.829.83-.829zM20.306 234.842h2.542c.458 0 .83.458.83.829v2.543a.829.829 0 01-.83.829h-2.542c-.458 0-.83-.458-.83-.829v-2.543c0-.458.372-.829.83-.829zM39.782 234.842h2.543c.458 0 .829.458.829.829v2.543a.829.829 0 01-.83.829h-2.542c-.458 0-.829-.458-.829-.829v-2.543c0-.458.371-.829.83-.829zM59.259 234.842H61.8c.458 0 .83.458.83.829v2.543a.829.829 0 01-.83.829H59.26c-.458 0-.83-.458-.83-.829v-2.543c0-.458.372-.829.83-.829zM78.735 234.842h2.543c.458 0 .83.458.83.829v2.543a.829.829 0 01-.83.829h-2.543c-.458 0-.829-.458-.829-.829v-2.543c0-.458.371-.829.83-.829zM98.212 234.842h2.543c.457 0 .829.458.829.829v2.543a.829.829 0 01-.829.829h-2.543c-.458 0-.83-.458-.83-.829v-2.543c0-.458.372-.829.83-.829zM.83 251.264h2.542c.458 0 .829.458.829.829v2.542a.83.83 0 01-.83.83H.83c-.458 0-.829-.458-.829-.83v-2.542c0-.458.371-.829.83-.829zM20.306 251.264h2.542c.458 0 .83.458.83.829v2.542a.83.83 0 01-.83.83h-2.542c-.458 0-.83-.458-.83-.83v-2.542c0-.458.372-.829.83-.829zM39.782 251.264h2.543c.458 0 .829.458.829.829v2.542a.83.83 0 01-.83.83h-2.542c-.458 0-.829-.458-.829-.83v-2.542c0-.458.371-.829.83-.829zM59.259 251.264H61.8c.458 0 .83.458.83.829v2.542a.83.83 0 01-.83.83H59.26c-.458 0-.83-.458-.83-.83v-2.542c0-.458.372-.829.83-.829zM78.735 251.264h2.543c.458 0 .83.458.83.829v2.542a.83.83 0 01-.83.83h-2.543c-.458 0-.829-.458-.829-.83v-2.542c0-.458.371-.829.83-.829zM98.212 251.264h2.543c.457 0 .829.458.829.829v2.542a.83.83 0 01-.829.83h-2.543c-.458 0-.83-.458-.83-.83v-2.542c0-.458.372-.829.83-.829zM.83 267.685h2.542c.458 0 .829.458.829.829v2.543a.83.83 0 01-.83.829H.83c-.458 0-.829-.458-.829-.829v-2.543c0-.458.371-.829.83-.829zM20.306 267.685h2.542c.458 0 .83.458.83.829v2.543a.83.83 0 01-.83.829h-2.542c-.458 0-.83-.458-.83-.829v-2.543c0-.458.372-.829.83-.829zM39.782 267.685h2.543c.458 0 .829.458.829.829v2.543a.83.83 0 01-.83.829h-2.542c-.458 0-.829-.458-.829-.829v-2.543c0-.458.371-.829.83-.829zM59.259 267.685H61.8c.458 0 .83.458.83.829v2.543a.83.83 0 01-.83.829H59.26c-.458 0-.83-.458-.83-.829v-2.543c0-.458.372-.829.83-.829zM78.735 267.685h2.543c.458 0 .83.458.83.829v2.543a.83.83 0 01-.83.829h-2.543c-.458 0-.829-.458-.829-.829v-2.543c0-.458.371-.829.83-.829zM98.212 267.685h2.543c.457 0 .829.458.829.829v2.543a.83.83 0 01-.829.829h-2.543c-.458 0-.83-.458-.83-.829v-2.543c0-.458.372-.829.83-.829zM.83 284.106h2.542c.458 0 .829.458.829.829v2.543a.829.829 0 01-.83.829H.83c-.458 0-.829-.458-.829-.829v-2.543c0-.458.371-.829.83-.829zM20.306 284.106h2.542c.458 0 .83.458.83.829v2.543a.829.829 0 01-.83.829h-2.542c-.458 0-.83-.458-.83-.829v-2.543c0-.458.372-.829.83-.829zM39.782 284.106h2.543c.458 0 .829.458.829.829v2.543a.829.829 0 01-.83.829h-2.542c-.458 0-.829-.458-.829-.829v-2.543c0-.458.371-.829.83-.829zM59.259 284.106H61.8c.458 0 .83.458.83.829v2.543a.829.829 0 01-.83.829H59.26c-.458 0-.83-.458-.83-.829v-2.543c0-.458.372-.829.83-.829zM78.735 284.106h2.543c.458 0 .83.458.83.829v2.543a.829.829 0 01-.83.829h-2.543c-.458 0-.829-.458-.829-.829v-2.543c0-.458.371-.829.83-.829zM98.212 284.106h2.543c.457 0 .829.458.829.829v2.543a.829.829 0 01-.829.829h-2.543c-.458 0-.83-.458-.83-.829v-2.543c0-.458.372-.829.83-.829zM119.786 202.171h2.543c.458 0 .829.458.829.83v2.542a.829.829 0 01-.829.829h-2.543c-.458 0-.829-.458-.829-.829v-2.542a.83.83 0 01.829-.83zM139.263 202.171h2.542c.458 0 .829.458.829.83v2.542a.829.829 0 01-.829.829h-2.542c-.458 0-.829-.458-.829-.829v-2.542a.83.83 0 01.829-.83zM158.739 202.171h2.543c.458 0 .829.458.829.83v2.542a.829.829 0 01-.829.829h-2.543c-.458 0-.829-.458-.829-.829v-2.542a.83.83 0 01.829-.83zM178.216 202.171h2.542c.458 0 .83.458.83.83v2.542a.83.83 0 01-.83.829h-2.542c-.458 0-.829-.458-.829-.829v-2.542a.83.83 0 01.829-.83zM119.786 218.593h2.543c.458 0 .829.458.829.829v2.542a.829.829 0 01-.829.829h-2.543c-.458 0-.829-.458-.829-.829v-2.542c0-.458.371-.829.829-.829zM139.263 218.593h2.542c.458 0 .829.458.829.829v2.542a.829.829 0 01-.829.829h-2.542c-.458 0-.829-.458-.829-.829v-2.542c0-.458.371-.829.829-.829zM158.739 218.593h2.543c.458 0 .829.458.829.829v2.542a.829.829 0 01-.829.829h-2.543c-.458 0-.829-.458-.829-.829v-2.542c0-.458.371-.829.829-.829zM178.216 218.593h2.542c.458 0 .83.458.83.829v2.542a.83.83 0 01-.83.829h-2.542c-.458 0-.829-.458-.829-.829v-2.542c0-.458.371-.829.829-.829zM119.786 235.014h2.543c.458 0 .829.458.829.829v2.542a.829.829 0 01-.829.829h-2.543c-.458 0-.829-.457-.829-.829v-2.542c0-.458.371-.829.829-.829zM139.263 235.014h2.542c.458 0 .829.458.829.829v2.542a.829.829 0 01-.829.829h-2.542c-.458 0-.829-.457-.829-.829v-2.542c0-.458.371-.829.829-.829zM158.739 235.014h2.543c.458 0 .829.458.829.829v2.542a.829.829 0 01-.829.829h-2.543c-.458 0-.829-.457-.829-.829v-2.542c0-.458.371-.829.829-.829zM178.216 235.014h2.542c.458 0 .83.458.83.829v2.542a.83.83 0 01-.83.829h-2.542c-.458 0-.829-.457-.829-.829v-2.542c0-.458.371-.829.829-.829zM119.786 251.435h2.543c.458 0 .829.458.829.829v2.543a.829.829 0 01-.829.829h-2.543c-.458 0-.829-.458-.829-.829v-2.543c0-.458.371-.829.829-.829zM139.263 251.435h2.542c.458 0 .829.458.829.829v2.543a.829.829 0 01-.829.829h-2.542c-.458 0-.829-.458-.829-.829v-2.543c0-.458.371-.829.829-.829zM158.739 251.435h2.543c.458 0 .829.458.829.829v2.543a.829.829 0 01-.829.829h-2.543c-.458 0-.829-.458-.829-.829v-2.543c0-.458.371-.829.829-.829zM178.216 251.435h2.542c.458 0 .83.458.83.829v2.543a.83.83 0 01-.83.829h-2.542c-.458 0-.829-.458-.829-.829v-2.543c0-.458.371-.829.829-.829zM119.786 267.856h2.543c.458 0 .829.458.829.829v2.543a.829.829 0 01-.829.829h-2.543c-.458 0-.829-.458-.829-.829v-2.543c0-.458.371-.829.829-.829zM139.263 267.856h2.542c.458 0 .829.458.829.829v2.543a.829.829 0 01-.829.829h-2.542c-.458 0-.829-.458-.829-.829v-2.543c0-.458.371-.829.829-.829zM158.739 267.856h2.543c.458 0 .829.458.829.829v2.543a.829.829 0 01-.829.829h-2.543c-.458 0-.829-.458-.829-.829v-2.543c0-.458.371-.829.829-.829zM178.216 267.856h2.542c.458 0 .83.458.83.829v2.543a.83.83 0 01-.83.829h-2.542c-.458 0-.829-.458-.829-.829v-2.543c0-.458.371-.829.829-.829zM119.786 284.277h2.543c.458 0 .829.458.829.829v2.543a.829.829 0 01-.829.829h-2.543c-.458 0-.829-.458-.829-.829v-2.543c0-.458.371-.829.829-.829zM139.263 284.277h2.542c.458 0 .829.458.829.829v2.543a.829.829 0 01-.829.829h-2.542c-.458 0-.829-.458-.829-.829v-2.543c0-.458.371-.829.829-.829zM158.739 284.277h2.543c.458 0 .829.458.829.829v2.543a.829.829 0 01-.829.829h-2.543c-.458 0-.829-.458-.829-.829v-2.543c0-.458.371-.829.829-.829zM178.216 284.277h2.542c.458 0 .83.458.83.829v2.543a.83.83 0 01-.83.829h-2.542c-.458 0-.829-.458-.829-.829v-2.543c0-.458.371-.829.829-.829zM.83 300h2.542c.458 0 .829.458.829.829v2.543a.829.829 0 01-.83.829H.83c-.458 0-.829-.458-.829-.829v-2.543c0-.458.371-.829.83-.829zM20.306 300h2.542c.458 0 .83.458.83.829v2.543a.829.829 0 01-.83.829h-2.542c-.458 0-.83-.458-.83-.829v-2.543c0-.458.372-.829.83-.829zM39.782 300h2.543c.458 0 .829.458.829.829v2.543a.829.829 0 01-.83.829h-2.542c-.458 0-.829-.458-.829-.829v-2.543c0-.458.371-.829.83-.829zM59.259 300H61.8c.458 0 .83.458.83.829v2.543a.829.829 0 01-.83.829H59.26c-.458 0-.83-.458-.83-.829v-2.543c0-.458.372-.829.83-.829zM78.735 300h2.543c.458 0 .83.458.83.829v2.543a.829.829 0 01-.83.829h-2.543c-.458 0-.829-.458-.829-.829v-2.543c0-.458.371-.829.83-.829zM98.212 300h2.543c.457 0 .829.458.829.829v2.543a.829.829 0 01-.829.829h-2.543c-.458 0-.83-.458-.83-.829v-2.543c0-.458.372-.829.83-.829zM.83 316.421h2.542c.458 0 .829.458.829.829v2.543a.829.829 0 01-.83.829H.83c-.458 0-.829-.458-.829-.829v-2.543c0-.458.371-.829.83-.829zM20.306 316.421h2.542c.458 0 .83.458.83.829v2.543a.829.829 0 01-.83.829h-2.542c-.458 0-.83-.458-.83-.829v-2.543c0-.458.372-.829.83-.829zM39.782 316.421h2.543c.458 0 .829.458.829.829v2.543a.829.829 0 01-.83.829h-2.542c-.458 0-.829-.458-.829-.829v-2.543c0-.458.371-.829.83-.829zM59.259 316.421H61.8c.458 0 .83.458.83.829v2.543a.829.829 0 01-.83.829H59.26c-.458 0-.83-.458-.83-.829v-2.543c0-.458.372-.829.83-.829zM78.735 316.421h2.543c.458 0 .83.458.83.829v2.543a.829.829 0 01-.83.829h-2.543c-.458 0-.829-.458-.829-.829v-2.543c0-.458.371-.829.83-.829zM98.212 316.421h2.543c.457 0 .829.458.829.829v2.543a.829.829 0 01-.829.829h-2.543c-.458 0-.83-.458-.83-.829v-2.543c0-.458.372-.829.83-.829zM.83 332.842h2.542c.458 0 .829.458.829.829v2.543a.829.829 0 01-.83.829H.83c-.458 0-.829-.458-.829-.829v-2.543c0-.458.371-.829.83-.829zM20.306 332.842h2.542c.458 0 .83.458.83.829v2.543a.829.829 0 01-.83.829h-2.542c-.458 0-.83-.458-.83-.829v-2.543c0-.458.372-.829.83-.829zM39.782 332.842h2.543c.458 0 .829.458.829.829v2.543a.829.829 0 01-.83.829h-2.542c-.458 0-.829-.458-.829-.829v-2.543c0-.458.371-.829.83-.829zM59.259 332.842H61.8c.458 0 .83.458.83.829v2.543a.829.829 0 01-.83.829H59.26c-.458 0-.83-.458-.83-.829v-2.543c0-.458.372-.829.83-.829zM78.735 332.842h2.543c.458 0 .83.458.83.829v2.543a.829.829 0 01-.83.829h-2.543c-.458 0-.829-.458-.829-.829v-2.543c0-.458.371-.829.83-.829zM98.212 332.842h2.543c.457 0 .829.458.829.829v2.543a.829.829 0 01-.829.829h-2.543c-.458 0-.83-.458-.83-.829v-2.543c0-.458.372-.829.83-.829zM.83 349.264h2.542c.458 0 .829.458.829.829v2.542a.83.83 0 01-.83.83H.83c-.458 0-.829-.458-.829-.83v-2.542c0-.458.371-.829.83-.829zM20.306 349.264h2.542c.458 0 .83.458.83.829v2.542a.83.83 0 01-.83.83h-2.542c-.458 0-.83-.458-.83-.83v-2.542c0-.458.372-.829.83-.829zM39.782 349.264h2.543c.458 0 .829.458.829.829v2.542a.83.83 0 01-.83.83h-2.542c-.458 0-.829-.458-.829-.83v-2.542c0-.458.371-.829.83-.829zM59.259 349.264H61.8c.458 0 .83.458.83.829v2.542a.83.83 0 01-.83.83H59.26c-.458 0-.83-.458-.83-.83v-2.542c0-.458.372-.829.83-.829zM78.735 349.264h2.543c.458 0 .83.458.83.829v2.542a.83.83 0 01-.83.83h-2.543c-.458 0-.829-.458-.829-.83v-2.542c0-.458.371-.829.83-.829zM98.212 349.264h2.543c.457 0 .829.458.829.829v2.542a.83.83 0 01-.829.83h-2.543c-.458 0-.83-.458-.83-.83v-2.542c0-.458.372-.829.83-.829zM.83 365.685h2.542c.458 0 .829.458.829.829v2.543a.83.83 0 01-.83.829H.83c-.458 0-.829-.458-.829-.829v-2.543c0-.458.371-.829.83-.829zM20.306 365.685h2.542c.458 0 .83.458.83.829v2.543a.83.83 0 01-.83.829h-2.542c-.458 0-.83-.458-.83-.829v-2.543c0-.458.372-.829.83-.829zM39.782 365.685h2.543c.458 0 .829.458.829.829v2.543a.83.83 0 01-.83.829h-2.542c-.458 0-.829-.458-.829-.829v-2.543c0-.458.371-.829.83-.829zM59.259 365.685H61.8c.458 0 .83.458.83.829v2.543a.83.83 0 01-.83.829H59.26c-.458 0-.83-.458-.83-.829v-2.543c0-.458.372-.829.83-.829zM78.735 365.685h2.543c.458 0 .83.458.83.829v2.543a.83.83 0 01-.83.829h-2.543c-.458 0-.829-.458-.829-.829v-2.543c0-.458.371-.829.83-.829zM98.212 365.685h2.543c.457 0 .829.458.829.829v2.543a.83.83 0 01-.829.829h-2.543c-.458 0-.83-.458-.83-.829v-2.543c0-.458.372-.829.83-.829zM.83 382.106h2.542c.458 0 .829.458.829.829v2.543a.829.829 0 01-.83.829H.83c-.458 0-.829-.458-.829-.829v-2.543c0-.458.371-.829.83-.829zM20.306 382.106h2.542c.458 0 .83.458.83.829v2.543a.829.829 0 01-.83.829h-2.542c-.458 0-.83-.458-.83-.829v-2.543c0-.458.372-.829.83-.829zM39.782 382.106h2.543c.458 0 .829.458.829.829v2.543a.829.829 0 01-.83.829h-2.542c-.458 0-.829-.458-.829-.829v-2.543c0-.458.371-.829.83-.829zM59.259 382.106H61.8c.458 0 .83.458.83.829v2.543a.829.829 0 01-.83.829H59.26c-.458 0-.83-.458-.83-.829v-2.543c0-.458.372-.829.83-.829zM78.735 382.106h2.543c.458 0 .83.458.83.829v2.543a.829.829 0 01-.83.829h-2.543c-.458 0-.829-.458-.829-.829v-2.543c0-.458.371-.829.83-.829zM98.212 382.106h2.543c.457 0 .829.458.829.829v2.543a.829.829 0 01-.829.829h-2.543c-.458 0-.83-.458-.83-.829v-2.543c0-.458.372-.829.83-.829zM119.786 300.171h2.543c.458 0 .829.458.829.83v2.542a.829.829 0 01-.829.829h-2.543c-.458 0-.829-.458-.829-.829v-2.542a.83.83 0 01.829-.83zM139.263 300.171h2.542c.458 0 .829.458.829.83v2.542a.829.829 0 01-.829.829h-2.542c-.458 0-.829-.458-.829-.829v-2.542a.83.83 0 01.829-.83zM158.739 300.171h2.543c.458 0 .829.458.829.83v2.542a.829.829 0 01-.829.829h-2.543c-.458 0-.829-.458-.829-.829v-2.542a.83.83 0 01.829-.83zM178.216 300.171h2.542c.458 0 .83.458.83.83v2.542a.83.83 0 01-.83.829h-2.542c-.458 0-.829-.458-.829-.829v-2.542a.83.83 0 01.829-.83zM119.786 316.593h2.543c.458 0 .829.458.829.829v2.542a.829.829 0 01-.829.829h-2.543c-.458 0-.829-.458-.829-.829v-2.542c0-.458.371-.829.829-.829zM139.263 316.593h2.542c.458 0 .829.458.829.829v2.542a.829.829 0 01-.829.829h-2.542c-.458 0-.829-.458-.829-.829v-2.542c0-.458.371-.829.829-.829zM158.739 316.593h2.543c.458 0 .829.458.829.829v2.542a.829.829 0 01-.829.829h-2.543c-.458 0-.829-.458-.829-.829v-2.542c0-.458.371-.829.829-.829zM178.216 316.593h2.542c.458 0 .83.458.83.829v2.542a.83.83 0 01-.83.829h-2.542c-.458 0-.829-.458-.829-.829v-2.542c0-.458.371-.829.829-.829zM119.786 333.014h2.543c.458 0 .829.458.829.829v2.542a.829.829 0 01-.829.829h-2.543c-.458 0-.829-.457-.829-.829v-2.542c0-.458.371-.829.829-.829zM139.263 333.014h2.542c.458 0 .829.458.829.829v2.542a.829.829 0 01-.829.829h-2.542c-.458 0-.829-.457-.829-.829v-2.542c0-.458.371-.829.829-.829zM158.739 333.014h2.543c.458 0 .829.458.829.829v2.542a.829.829 0 01-.829.829h-2.543c-.458 0-.829-.457-.829-.829v-2.542c0-.458.371-.829.829-.829zM178.216 333.014h2.542c.458 0 .83.458.83.829v2.542a.83.83 0 01-.83.829h-2.542c-.458 0-.829-.457-.829-.829v-2.542c0-.458.371-.829.829-.829zM119.786 349.435h2.543c.458 0 .829.458.829.829v2.543a.829.829 0 01-.829.829h-2.543c-.458 0-.829-.458-.829-.829v-2.543c0-.458.371-.829.829-.829zM139.263 349.435h2.542c.458 0 .829.458.829.829v2.543a.829.829 0 01-.829.829h-2.542c-.458 0-.829-.458-.829-.829v-2.543c0-.458.371-.829.829-.829zM158.739 349.435h2.543c.458 0 .829.458.829.829v2.543a.829.829 0 01-.829.829h-2.543c-.458 0-.829-.458-.829-.829v-2.543c0-.458.371-.829.829-.829zM178.216 349.435h2.542c.458 0 .83.458.83.829v2.543a.83.83 0 01-.83.829h-2.542c-.458 0-.829-.458-.829-.829v-2.543c0-.458.371-.829.829-.829zM119.786 365.856h2.543c.458 0 .829.458.829.829v2.543a.829.829 0 01-.829.829h-2.543c-.458 0-.829-.458-.829-.829v-2.543c0-.458.371-.829.829-.829zM139.263 365.856h2.542c.458 0 .829.458.829.829v2.543a.829.829 0 01-.829.829h-2.542c-.458 0-.829-.458-.829-.829v-2.543c0-.458.371-.829.829-.829zM158.739 365.856h2.543c.458 0 .829.458.829.829v2.543a.829.829 0 01-.829.829h-2.543c-.458 0-.829-.458-.829-.829v-2.543c0-.458.371-.829.829-.829zM178.216 365.856h2.542c.458 0 .83.458.83.829v2.543a.83.83 0 01-.83.829h-2.542c-.458 0-.829-.458-.829-.829v-2.543c0-.458.371-.829.829-.829zM119.786 382.277h2.543c.458 0 .829.458.829.829v2.543a.829.829 0 01-.829.829h-2.543c-.458 0-.829-.458-.829-.829v-2.543c0-.458.371-.829.829-.829zM139.263 382.277h2.542c.458 0 .829.458.829.829v2.543a.829.829 0 01-.829.829h-2.542c-.458 0-.829-.458-.829-.829v-2.543c0-.458.371-.829.829-.829zM158.739 382.277h2.543c.458 0 .829.458.829.829v2.543a.829.829 0 01-.829.829h-2.543c-.458 0-.829-.458-.829-.829v-2.543c0-.458.371-.829.829-.829zM178.216 382.277h2.542c.458 0 .83.458.83.829v2.543a.83.83 0 01-.83.829h-2.542c-.458 0-.829-.458-.829-.829v-2.543c0-.458.371-.829.829-.829z"/></svg><svg viewBox="0 0 613 613" id="top__circle" xmlns="http://www.w3.org/2000/svg"><circle cx="306.5" cy="306.5" r="306" stroke-dasharray="7 7"/></svg><svg viewBox="0 0 20 91" id="top__icon1" xmlns="http://www.w3.org/2000/svg"><path d="M5.145 90.21c.005-.609-.06-1.779-.19-4.037-.143-2.513-.339-5.942-.534-9.701C17.711 53.84 22.526 26.407 17.626 1.106a.462.462 0 00-.814-.201C8.97 10.713 5.465 23.059 3.07 33.84.3 46.321-2.18 62.492 3.304 76.9c.022.06.064.104.108.148.343 4.441.593 7.655.764 9.818.152 1.934.232 2.942.314 3.466.003.09.006.149.004.173l.028.002c.056.287.12.361.216.376a.533.533 0 00.12 0c.16-.011.25-.017.277-.416l.036-.007a5.109 5.109 0 01-.027-.25zM17.13 6.635c.823 19.658-3.297 42.285-11.761 64.56 1.53-6.644 2.915-13.683 4.26-20.541.952-4.847 1.935-9.86 2.96-14.683 2.058-9.68 3.361-19.618 4.541-29.338v.002zm-5.219 29.193c-1.027 4.828-2.01 9.843-2.961 14.692-1.476 7.523-2.997 15.27-4.707 22.459-.46-9.378-.84-19.674-.435-22.933 1.017-8.183 2.555-15.84 4.843-24.094 2.157-7.788 4.298-14.85 8.079-21.788-1.257 10.46-2.597 21.22-4.819 31.663zm-6.258 36.53c8.368-21.708 12.631-43.792 12.24-63.214C20.318 30.594 16 53.032 5.654 72.358zM3.971 34.042C6.277 23.655 9.62 11.809 16.908 2.28l.015.096c-4.34 7.473-6.619 15.016-8.939 23.39-2.296 8.289-3.84 15.975-4.861 24.194-.423 3.413-.006 14.34.477 23.984a.34.34 0 00-.288.095c-4.23-13.525-1.922-28.373.66-39.998l-.001.001z" fill-opacity=".7"/></svg><svg viewBox="0 0 62 80" id="top__icon2" xmlns="http://www.w3.org/2000/svg"><path d="M28.777 36.266l1.73-.573 12.285 37.064-1.73.573-12.285-37.064z" fill-opacity=".7"/><path d="M58.706 57.002L18.895 70.198l1.012-63.6 38.8 50.404zm-37.95 10.66L55.7 56.078 21.647 11.844l-.89 55.817z" fill-opacity=".7"/></svg><svg viewBox="0 0 276 714" id="top__pattern" xmlns="http://www.w3.org/2000/svg"><path fill-rule="evenodd" clip-rule="evenodd" d="M233.776 4.79c-6.489 6.898-7.301 17.85-12.984 30.02-7.709 16.226-12.574 22.714-19.471 41.375-14.602 39.347-20.284 45.836-27.176 94.92-4.865 34.074-14.198 64.905-27.988 92.49-6.897 13.387-12.983 24.338-21.908 38.945-34.074 57.196-88.028 151.713-85.183 216.618 2.026 42.999 5.273 67.335-9.737 105.877-6.489 15.821-48.68 74.234-18.66 86.808 32.047 13.789 33.67-61.658 36.912-83.158 4.059-30.02 13.79-70.582 21.908-98.979 19.876-70.992 18.251-125.344 51.923-190.662 21.096-40.971 30.832-45.024 51.923-69.367 74.233-86.808 31.235-135.076 57.196-185.384 10.139-19.471 30.422-47.868 21.498-72.61-3.65-10.547-8.521-16.633-18.251-6.488l-.002-.405z"/><path fill-rule="evenodd" clip-rule="evenodd" d="M273.937 169.486c4.059-12.171 3.65-33.262-15.414-19.471-9.327 6.489-19.063 71.797-36.912 99.79-16.634 25.961-38.944 9.736-83.566 98.57-21.499 42.999-29.208 96.14-32.047 149.278-4.462 84.378-30.02 112.366-33.67 148.871-1.624 15.009 9.736 23.933 19.876 16.633 14.601-10.139-10.952-47.461 33.67-102.629 34.482-42.999 21.498-93.706 30.02-151.714 12.574-85.593 52.733-85.995 78.696-103.441 15.821-10.548 32.047-34.885 34.885-58.008 4.058-37.32-9.736-34.885 4.865-77.884l-.403.005z"/><path fill-rule="evenodd" clip-rule="evenodd" d="M201.723 474.124c10.139-20.688 21.096-47.057 26.773-56.793 5.274-8.924 10.951-10.548 19.471-20.688 14.602-17.036 27.988-40.159-.403-54.761-41.374-21.498-60.035 22.311-63.282 55.981-1.624 17.849-12.575 53.546-11.36 78.696 2.435 42.594 18.252 19.472 28.8-2.435h.001z"/></svg><svg viewBox="0 0 147 148" id="upload" xmlns="http://www.w3.org/2000/svg"><path d="M97.708 41.948a7.349 7.349 0 0010.394 0 7.348 7.348 0 000-10.394l-29.4-29.4a7.35 7.35 0 00-10.395-.001l-29.4 29.401a7.349 7.349 0 000 10.394 7.349 7.349 0 0010.394 0l16.854-16.852v85.158a7.349 7.349 0 007.35 7.349c4.059 0 7.35-3.29 7.35-7.349V25.095l16.853 16.853z"/><path d="M14.7 110.254a7.35 7.35 0 10-14.7 0v14.7c0 12.179 9.872 22.05 22.05 22.05h102.9c12.179 0 22.05-9.871 22.05-22.05v-14.7a7.35 7.35 0 10-14.699 0v14.7a7.352 7.352 0 01-7.351 7.351H22.05a7.352 7.352 0 01-7.35-7.351v-14.7z"/></svg></svg>